<svg id="Capa_1" data-name="Capa 1" xmlns="http://www.w3.org/2000/svg" viewBox="0 0 30.57 37.76"><defs><style>.cls-1,.cls-2{fill:none;}.cls-1,.cls-2,.cls-3{stroke:#18ada4;stroke-miterlimit:10;}.cls-1{stroke-width:1.08px;}.cls-2,.cls-3{stroke-width:1.09px;}.cls-3{fill:#18ada4;}</style></defs><polyline class="cls-1" points="13.79 7.82 13.79 18.09 13.79 36.76"/><line class="cls-2" x1="17.59" y1="15.96" x2="13.79" y2="19.62"/><line class="cls-2" x1="9.96" y1="20.28" x2="13.63" y2="24.07"/><line class="cls-2" x1="17.59" y1="29.08" x2="13.79" y2="32.74"/><path class="cls-2" d="M28.89,4.85S22.51,4.46,19.8,8a12,12,0,0,0-2.17,8s5,1.11,8.68-2.42S28.89,4.85,28.89,4.85Z"/><path class="cls-2" d="M25.7,21s-4.58-.28-6.52,2.25A8.62,8.62,0,0,0,17.62,29a7.37,7.37,0,0,0,6.23-1.74A7.22,7.22,0,0,0,25.7,21Z"/><path class="cls-2" d="M1.89,12.13s-.28,4.58,2.26,6.53a8.64,8.64,0,0,0,5.73,1.55A7.37,7.37,0,0,0,8.14,14,7.28,7.28,0,0,0,1.89,12.13Z"/><circle class="cls-3" cx="7.74" cy="28.66" r="2.25"/><circle class="cls-3" cx="13.63" cy="3.63" r="2.25"/></svg>