<svg width="51" height="51" viewBox="0 0 51 51" fill="none" xmlns="http://www.w3.org/2000/svg">
<g clip-path="url(#clip0_146_4)">
<path d="M25.6147 48.5012C38.4552 48.5012 48.8644 38.092 48.8644 25.2516C48.8644 12.4112 38.4552 2.00195 25.6147 2.00195C12.7743 2.00195 2.36511 12.4112 2.36511 25.2516C2.36511 38.092 12.7743 48.5012 25.6147 48.5012Z" fill="white" stroke="white" stroke-width="1.88" stroke-miterlimit="10"/>
<path d="M24.5693 16.8555V28.356V49.2915" fill="#1D1D1B"/>
<path d="M24.5693 16.8555V28.356V49.2915" stroke="#1CACA5" stroke-width="2.25" stroke-miterlimit="10"/>
<path d="M28.7194 25.7549L24.5693 29.7584" stroke="#1CACA5" stroke-width="2.17" stroke-miterlimit="10"/>
<path d="M20.3809 30.4727L24.3907 34.6292" stroke="#1CACA5" stroke-width="2.17" stroke-miterlimit="10"/>
<path d="M28.7194 40.1055L24.5693 44.109" stroke="#1CACA5" stroke-width="2.17" stroke-miterlimit="10"/>
<path d="M41.0805 13.6039C41.0805 13.6039 34.1063 13.1768 31.1419 17.0336C28.1775 20.8905 28.7704 25.7674 28.7704 25.7674C28.7704 25.7674 34.2593 26.9723 38.25 23.1154C42.2408 19.2585 41.0805 13.6039 41.0805 13.6039Z" stroke="#1CACA5" stroke-width="2.17" stroke-miterlimit="10"/>
<path d="M37.6125 31.2376C37.6125 31.2376 32.6081 30.9316 30.4789 33.6983C29.1874 35.5222 28.5843 37.7448 28.7767 39.9713C28.7767 39.9713 32.7165 40.832 35.5916 38.0588C38.4667 35.2857 37.6125 31.2376 37.6125 31.2376Z" stroke="#1CACA5" stroke-width="2.17" stroke-miterlimit="10"/>
<path d="M11.5579 21.567C11.5579 21.567 11.2519 26.5714 14.025 28.6879C15.8465 29.9796 18.0665 30.5848 20.2916 30.3964C20.2916 30.3964 21.1586 26.4566 18.3791 23.5815C15.5996 20.7064 11.5579 21.567 11.5579 21.567Z" stroke="#1CACA5" stroke-width="2.17" stroke-miterlimit="10"/>
<path d="M17.9456 42.1071C19.3082 42.1071 20.4128 41.0025 20.4128 39.64C20.4128 38.2774 19.3082 37.1729 17.9456 37.1729C16.5831 37.1729 15.4785 38.2774 15.4785 39.64C15.4785 41.0025 16.5831 42.1071 17.9456 42.1071Z" fill="#1CACA5"/>
<path d="M24.3908 14.7389C25.7533 14.7389 26.8579 13.6344 26.8579 12.2718C26.8579 10.9093 25.7533 9.80469 24.3908 9.80469C23.0282 9.80469 21.9236 10.9093 21.9236 12.2718C21.9236 13.6344 23.0282 14.7389 24.3908 14.7389Z" fill="#1CACA5"/>
</g>
<defs>
<clipPath id="clip0_146_4">
<rect width="51" height="51" fill="white"/>
</clipPath>
</defs>
</svg>
