<svg id="Capa_1" data-name="Capa 1" xmlns="http://www.w3.org/2000/svg" viewBox="0 0 80 80"><defs><style>.cls-1{fill:#fff;stroke:#18ada4;stroke-width:1.88px;}.cls-1,.cls-2,.cls-3,.cls-4,.cls-6{stroke-miterlimit:10;}.cls-2,.cls-3{fill:#1d1d1b;}.cls-2,.cls-3,.cls-4{stroke:#18ada4;}.cls-2{stroke-width:2.25px;}.cls-3,.cls-4,.cls-6{stroke-width:2.17px;}.cls-4,.cls-6{fill:none;}.cls-5{fill:#18ada4;}.cls-6{stroke:#2da6a5;}</style></defs><circle class="cls-1" cx="40.18" cy="39.61" r="36.47"/><polyline class="cls-2" points="38.54 26.44 38.54 44.48 38.54 77.32"/><line class="cls-3" x1="45.05" y1="40.4" x2="38.54" y2="46.68"/><line class="cls-3" x1="31.97" y1="47.8" x2="38.26" y2="54.32"/><line class="cls-3" x1="45.05" y1="62.91" x2="38.54" y2="69.19"/><path class="cls-4" d="M64.44,21.34s-10.94-.67-15.59,5.38-3.72,13.7-3.72,13.7S53.74,42.31,60,36.26,64.44,21.34,64.44,21.34Z"/><path class="cls-4" d="M59,49s-7.85-.48-11.19,3.86a14.82,14.82,0,0,0-2.67,9.84s6.18,1.35,10.69-3S59,49,59,49Z"/><path class="cls-4" d="M18.13,33.83S17.65,41.68,22,45a14.83,14.83,0,0,0,9.83,2.68s1.36-6.18-3-10.69S18.13,33.83,18.13,33.83Z"/><circle class="cls-5" cx="28.15" cy="62.18" r="3.87"/><circle class="cls-5" cx="38.26" cy="19.25" r="3.87"/><line class="cls-6" x1="12.94" y1="15.38" x2="12.94" y2="15.38"/></svg>