<svg width="46" height="46" viewBox="0 0 46 46" fill="none" xmlns="http://www.w3.org/2000/svg">
<g id="Logo 1" clip-path="url(#clip0_129_306)">
<path id="Vector" d="M23.1035 43.7462C34.685 43.7462 44.0737 34.3575 44.0737 22.7759C44.0737 11.1944 34.685 1.80566 23.1035 1.80566C11.5219 1.80566 2.13324 11.1944 2.13324 22.7759C2.13324 34.3575 11.5219 43.7462 23.1035 43.7462Z" fill="white" stroke="white" stroke-width="1.88" stroke-miterlimit="10"/>
<g id="Vector_2">
<path d="M22.1605 15.2031V25.5761V44.4591" fill="#1D1D1B"/>
<path d="M22.1605 15.2031V25.5761V44.4591" stroke="#001524" stroke-width="2.25" stroke-miterlimit="10"/>
</g>
<path id="Vector_3" d="M25.9038 23.2305L22.1605 26.8415" stroke="#001524" stroke-width="2.17" stroke-miterlimit="10"/>
<path id="Vector_4" d="M18.3828 27.4854L21.9995 31.2344" stroke="#001524" stroke-width="2.17" stroke-miterlimit="10"/>
<path id="Vector_5" d="M25.9038 36.1729L22.1605 39.7839" stroke="#001524" stroke-width="2.17" stroke-miterlimit="10"/>
<path id="Vector_6" d="M37.053 12.2705C37.053 12.2705 30.7625 11.8852 28.0887 15.364C25.415 18.8427 25.9497 23.2415 25.9497 23.2415C25.9497 23.2415 30.9005 24.3282 34.5 20.8495C38.0995 17.3707 37.053 12.2705 37.053 12.2705Z" stroke="#001524" stroke-width="2.17" stroke-miterlimit="10"/>
<path id="Vector_7" d="M33.925 28.1751C33.925 28.1751 29.4112 27.8991 27.4907 30.3946C26.3259 32.0396 25.7819 34.0444 25.9555 36.0526C25.9555 36.0526 29.509 36.8288 32.1022 34.3276C34.6955 31.8263 33.925 28.1751 33.925 28.1751Z" stroke="#001524" stroke-width="2.17" stroke-miterlimit="10"/>
<path id="Vector_8" d="M10.4247 19.4526C10.4247 19.4526 10.1487 23.9664 12.65 25.8754C14.2929 27.0404 16.2953 27.5863 18.3022 27.4164C18.3022 27.4164 19.0842 23.8629 16.5772 21.2696C14.0702 18.6764 10.4247 19.4526 10.4247 19.4526Z" stroke="#001524" stroke-width="2.17" stroke-miterlimit="10"/>
<path id="Vector_9" d="M16.1862 37.9788C17.4152 37.9788 18.4115 36.9825 18.4115 35.7536C18.4115 34.5246 17.4152 33.5283 16.1862 33.5283C14.9573 33.5283 13.961 34.5246 13.961 35.7536C13.961 36.9825 14.9573 37.9788 16.1862 37.9788Z" fill="#001524"/>
<path id="Vector_10" d="M21.9995 13.2943C23.2285 13.2943 24.2247 12.298 24.2247 11.069C24.2247 9.84003 23.2285 8.84375 21.9995 8.84375C20.7705 8.84375 19.7742 9.84003 19.7742 11.069C19.7742 12.298 20.7705 13.2943 21.9995 13.2943Z" fill="#001524"/>
</g>
<defs>
<clipPath id="clip0_129_306">
<rect width="46" height="46" fill="white"/>
</clipPath>
</defs>
</svg>
