<svg xmlns="http://www.w3.org/2000/svg" viewBox="0 0 1440 1024"><defs><style>.cls-1{fill:#e9fffd;}.cls-2{fill:#d4f9f4;}.cls-3{fill:#1caca5;}.cls-4{fill:#001524;}.cls-5{fill:#f26419;}.cls-6{fill:#78290f;}.cls-7{fill:#f381c7;}.cls-8{fill:#e05619;}.cls-9{fill:#f77441;}.cls-10{fill:#12968c;}</style></defs><g id="BACKGROUND"><rect class="cls-1" width="1439.9" height="1026.35"/></g><g id="OBJECTS"><path class="cls-2" d="M6.77,240.84H-157.47l0,155v632.93l462.34,0H1488.22c-4.88-4.45-10.15-8.6-15.25-12.61l-.16-.12-.14-.11c-3.7-2.91-7.35-5.76-11.21-8.64-3.27-2.44-6.87-5-11.66-8.21-7.35-5-15.69-10-25.47-15.43-31.37-17.38-68.59-30.72-110.61-39.66-35.77-7.6-75.14-11.62-120.33-12.28q-5.16-.08-10.33-.08c-6,0-12.28.07-19.23.21-5.21.11-10.4.27-15.6.43s-10.26.3-15.36.41c-8.79.19-17.66.29-26.36.29-11.53,0-22.92-.18-33.86-.52-4.09-.12-8.52-.31-14.35-.59-21.34-1.14-40.82-3-59.56-5.66a447.37,447.37,0,0,1-59.85-12.66C927.41,910.1,916.33,906.23,906,902a278.43,278.43,0,0,1-32.66-15.93A237.84,237.84,0,0,1,850,870.61a212.06,212.06,0,0,1-20.74-18.17,344.78,344.78,0,0,1-31.78-37.71c-6.72-9.07-13.18-18.35-19.42-27.33-3-4.39-6.1-8.77-9.19-13.14a467.23,467.23,0,0,0-30.56-39.46,246,246,0,0,0-37.08-34.58A237.51,237.51,0,0,0,677.74,685c-8.86-5.12-18.26-9.94-28.73-14.71-17.32-7.88-37-14.86-60.19-21.31a589.18,589.18,0,0,0-64.64-13.75c-2.41-.39-4.83-.76-7.25-1.13L515.8,634l-1.15-.17-6.14-.94c-4.59-.71-9.48-1.52-15.4-2.55-10.41-1.8-21.33-3.93-32.47-6.33-14-3-28.34-6.62-42.65-10.72-10.06-3-19.93-6.1-29.34-9.38s-19-7-29.48-11.3a521,521,0,0,1-59-29.19c-8.51-5-16.1-9.63-23.21-14.27-6.76-4.43-13.79-9.43-21.46-15.27a400.45,400.45,0,0,1-38-33.09c-5.49-5.47-11.09-11.32-16.65-17.42-5.3-5.8-10.89-12.28-17.59-20.39-11.8-14.29-22.41-28.65-31.23-40.81-9.22-12.73-18.22-25.84-26.93-38.51l-.43-.62-2.11-3.08c-7.88-11.48-18.28-26.59-28.83-41.63C78.24,316.1,60.63,291,39.5,268.83a204.25,204.25,0,0,0-32.71-28Z"/><path class="cls-2" d="M1439.88.68H670.28c3.78,2.92,7.83,5.85,12,8.72a297.56,297.56,0,0,0,26.54,16.11c8.33,4.5,17.52,8.88,27.32,13A307.26,307.26,0,0,0,765.51,49a336.3,336.3,0,0,0,61.76,12.52c10.29,1.12,21.32,1.81,32.75,2.06,2.89.06,5.67.09,8.28.09,9.45,0,19.21-.34,27.51-.66s16.8-.77,24.31-1.16h.34c9.17-.47,20.58-1.06,31.33-1.41,8-.24,15.23-.35,22.2-.35,7.7,0,14.77.15,21.63.45a303.54,303.54,0,0,1,44.78,5.31,230,230,0,0,1,24.9,6.64,224.2,224.2,0,0,1,22.69,9c19.17,9,36.61,20.26,49.67,29.09,5.77,3.89,11.8,8.07,16.64,11.43l.22.15c10,6.9,20.25,14,30.78,20.71,8.55,5.45,17.13,10.44,25.52,14.83s18.16,8.88,30.31,13.83c11,4.5,22.61,8.6,34.49,12.2a348.8,348.8,0,0,0,34.76,8.5,295.93,295.93,0,0,0,56,5.38,284.86,284.86,0,0,0,33.9-2,265.93,265.93,0,0,0,39.65-8.09V.7Z"/><path class="cls-3" d="M737.81,818.66a17.44,17.44,0,0,0,2,2,6.27,6.27,0,0,0,3.89,1.78,3.33,3.33,0,0,0,1.81-.53A7,7,0,0,0,748,819a16.42,16.42,0,0,0,1.68-5.61c.38-3.87-.41-7.83-2.48-12.47a42.79,42.79,0,0,0-6.18-10,19.43,19.43,0,0,0-3.1-3,17.74,17.74,0,0,0-2-1.34,7,7,0,0,0-2-.67l-.17,0a2.6,2.6,0,0,0-.56-.06c-.24,0-.48,0-.71,0h-.13l-.12,0a7.37,7.37,0,0,0-2.39.63A5.64,5.64,0,0,0,728,788a11.3,11.3,0,0,0-2,3.34,10.41,10.41,0,0,0-.65,2.74,19.44,19.44,0,0,0,0,4.72,22.44,22.44,0,0,0,1.4,5.68,34.41,34.41,0,0,0,6.08,10.1,19.39,19.39,0,0,0,3.56,3.14C736.84,818.05,737.32,818.36,737.81,818.66Z"/><path class="cls-3" d="M774.4,891.73a25.67,25.67,0,0,0-.87-3.53,48,48,0,0,0-3.12-7.16,80.93,80.93,0,0,0-4.48-7.53,61.33,61.33,0,0,0-11.42-13.35c-3.52-2.94-6.39-4.3-9-4.3a7.06,7.06,0,0,0-2.57.48c-3.71,1.43-6.59,7.55-6.69,14.23A34.4,34.4,0,0,0,737.6,880a48.47,48.47,0,0,0,3.48,8.75,57.58,57.58,0,0,0,4.57,7.65,66.62,66.62,0,0,0,5.92,7.3,43.6,43.6,0,0,0,6.28,5.43,17.29,17.29,0,0,0,5.38,2.75,11.55,11.55,0,0,0,3.09.48,7.07,7.07,0,0,0,2.82-.57,6.88,6.88,0,0,0,1.71-1,5,5,0,0,0,.75-.45,8.06,8.06,0,0,0,2.77-4.65c.09-.33.16-.67.23-1a20,20,0,0,0,.53-2.35,19.69,19.69,0,0,0,.26-4,27.3,27.3,0,0,0-.41-4C774.8,893.38,774.6,892.51,774.4,891.73Z"/><path class="cls-3" d="M808.09,803A15.73,15.73,0,0,0,806.6,798a11.37,11.37,0,0,0-1.39-2.19,7.68,7.68,0,0,0-1.43-1.47,9.16,9.16,0,0,0-5.09-2h-.11a2.21,2.21,0,0,0-1.69,1.22,6.4,6.4,0,0,0-.69,4.12c.35,1.69.7,3.08,1.1,4.36a19.51,19.51,0,0,0,1.57,3.64c.5,1.11,1,2,1.45,2.87a9.2,9.2,0,0,0,3,3.34,2.18,2.18,0,0,0,1.16.32h.22a1.28,1.28,0,0,0,.73.22,2.17,2.17,0,0,0,1.39-.61,5.25,5.25,0,0,0,1.35-2.9,7.89,7.89,0,0,0,0-2.61A17.31,17.31,0,0,0,808.09,803Z"/><path class="cls-3" d="M796.39,755.36a28.26,28.26,0,0,0-1.09-3.09,27.17,27.17,0,0,0-1.43-3.08,13.26,13.26,0,0,0-4.33-4.44,1.46,1.46,0,0,0-.66-.16,1.59,1.59,0,0,0-.59.12,2.42,2.42,0,0,0-1.13,1.06,5.62,5.62,0,0,0-.66,1.89,7.31,7.31,0,0,0,.21,3.14,4.61,4.61,0,0,0,.44,1.77l.16.31c.45.89.9,1.78,1.36,2.64A20.13,20.13,0,0,0,790.3,758a5.33,5.33,0,0,0,4.38,2.2c.71,0,1.33-.6,1.68-1.61A5.46,5.46,0,0,0,796.39,755.36Z"/><path class="cls-3" d="M880.67,995.76a35.44,35.44,0,0,0-2.73-4.55,43.92,43.92,0,0,0-6.15-7.28,17.72,17.72,0,0,0-6.39-3.81,11.65,11.65,0,0,0-3.35-.71h-.25a4.42,4.42,0,0,0-2.48.67,6.33,6.33,0,0,0-2.51,2.61,10.65,10.65,0,0,0-.86,2,18,18,0,0,0-.43,7.86,26.09,26.09,0,0,0,1.12,4.47,35,35,0,0,0,3.68,7.59,31.1,31.1,0,0,0,5.31,6.35,21.71,21.71,0,0,0,3,2.19,25.06,25.06,0,0,0,3.3,2.85,8.53,8.53,0,0,0,4.94,1.94,5.57,5.57,0,0,0,1.22-.14c2-.49,3.88-2.69,4.91-5.89a17.15,17.15,0,0,0,.74-5.3,22,22,0,0,0-1-6A31.24,31.24,0,0,0,880.67,995.76Z"/><path class="cls-3" d="M996.48,48.55a37.61,37.61,0,0,0-3.16-8.3,57.92,57.92,0,0,0-5-8.08,67.38,67.38,0,0,0-13.57-14.24,37.57,37.57,0,0,0-7.31-4.48,16.32,16.32,0,0,0-6.61-1.61h-.1a8.79,8.79,0,0,0-6,2.38,14.42,14.42,0,0,0-2.39,3.12,22.42,22.42,0,0,0-1.93,4.21,25.48,25.48,0,0,0-1.32,9.06,35.19,35.19,0,0,0,1.67,9.48c.07.22.15.45.22.68a4.48,4.48,0,0,0,.46,2.08A29.94,29.94,0,0,0,953,45.53c.41.83.88,1.72,1.45,2.73a56.37,56.37,0,0,0,5.24,7.51A55.22,55.22,0,0,0,972.06,67a33.11,33.11,0,0,0,6.52,3.49,22.53,22.53,0,0,0,6.67,2.43,10.17,10.17,0,0,0,1.75.15c2.39,0,5.69-.91,7.83-5.25a25.84,25.84,0,0,0,2.25-9.31,39.35,39.35,0,0,0,.12-5A25,25,0,0,0,996.48,48.55Z"/><path class="cls-3" d="M1044.93,17.15a14.62,14.62,0,0,0-2.59-3.79,16.29,16.29,0,0,0-3.14-2.56,12.63,12.63,0,0,0-3.36-1.54,12.29,12.29,0,0,0-3.58-.62,6.63,6.63,0,0,0-2.81.58,3.74,3.74,0,0,0-1.83,2.33,7.53,7.53,0,0,0-.41,2.47,7.73,7.73,0,0,0,.36,2.49,24.66,24.66,0,0,0,6.25,11.34,17.29,17.29,0,0,0,4.11,3.11,12,12,0,0,0,1.62.73,9.13,9.13,0,0,0,1.63.73,4.74,4.74,0,0,0,1.44.25,3.33,3.33,0,0,0,2.91-1.81c1.48-2.43,1.17-6.47.86-8.67A17.79,17.79,0,0,0,1044.93,17.15Z"/><path class="cls-3" d="M1313.92,341a8.73,8.73,0,0,0,2.27.35,4.93,4.93,0,0,0,2.64-.73l.43-.29.44-.29a5.55,5.55,0,0,0,1.39-2.3,10.19,10.19,0,0,0,.06-6.11,31.64,31.64,0,0,0-1.65-4q-.15-.51-.33-1a14.42,14.42,0,0,0-2.13-3.71,12.12,12.12,0,0,0-2.84-2.56,12.45,12.45,0,0,0-4-1.73,8.9,8.9,0,0,0-2.46-.45,4.58,4.58,0,0,0-.64,0,3.64,3.64,0,0,0-1.38.4,5,5,0,0,0-1.71,1.65,9.18,9.18,0,0,0-1.16,4.67,15.58,15.58,0,0,0,.75,4.7,16.9,16.9,0,0,0,2.93,5.55,19.42,19.42,0,0,0,3.17,3.35A11.72,11.72,0,0,0,1313.92,341Z"/><path class="cls-3" d="M1323,436.1a24.21,24.21,0,0,0-1.85-6.41,16.52,16.52,0,0,0-2.89-4.4,10,10,0,0,0-3.66-2.53,8.22,8.22,0,0,0-3.2-.66,8.74,8.74,0,0,0-1.14.08,2,2,0,0,0-1.41.6,4.47,4.47,0,0,0-1.09,1.8,7.94,7.94,0,0,0,0,4.82,24.06,24.06,0,0,0,1.72,3.74,19.61,19.61,0,0,0,2.24,3,16.11,16.11,0,0,0,2.63,2.74,8.56,8.56,0,0,0,3.56,1.79,5.9,5.9,0,0,0,1.33.15,8.8,8.8,0,0,0,2.24-.33,2.16,2.16,0,0,0,1.24-1.43A6.2,6.2,0,0,0,1323,436.1Z"/><path class="cls-3" d="M1286.58,337.65a28.33,28.33,0,0,0-2.64-4.94,33.34,33.34,0,0,0-6.83-7.47c-1.91-1.55-4.48-3.39-7.39-3.85l-.42,0a6.12,6.12,0,0,0-1.42.22,4.69,4.69,0,0,0-1.56.79l-.3.21a5.77,5.77,0,0,0-1.27,1.13,12.61,12.61,0,0,0-2.19,3.6c-1.75,4.11-1,9.5.12,12.87a28,28,0,0,0,5.65,9.45,20.67,20.67,0,0,0,2.83,2.7,17.3,17.3,0,0,0,3.85,2.48,7.47,7.47,0,0,0,3,.75h.3a5.66,5.66,0,0,0,1.82-.42,5.47,5.47,0,0,0,1.49.21,6.54,6.54,0,0,0,1.34-.15,5.29,5.29,0,0,0,2.87-2.34,13.25,13.25,0,0,0,1.81-4.7,16.21,16.21,0,0,0,.25-5.86A18.4,18.4,0,0,0,1286.58,337.65Z"/><path class="cls-3" d="M129.69,482.53a11.45,11.45,0,0,0-3.65-3,1.21,1.21,0,0,0-.58-.16,2,2,0,0,0-1.58,1.1,4.43,4.43,0,0,0-.38.83,1.51,1.51,0,0,0-.63.61,4.17,4.17,0,0,0,0,3.74,20.26,20.26,0,0,0,3.87,5.65,4.93,4.93,0,0,0,2.41,1.25,3.79,3.79,0,0,0,.67.06,6.09,6.09,0,0,0,1.87-.34A2.69,2.69,0,0,0,133,490.1a4.84,4.84,0,0,0-.44-3A32.9,32.9,0,0,0,129.69,482.53Z"/><path class="cls-3" d="M154.27,301.85a35.1,35.1,0,0,0-5.84-9.69,31.2,31.2,0,0,0-7.65-7,13.31,13.31,0,0,0-3.29-1.57,11.55,11.55,0,0,0-2.13-.44H135a7.73,7.73,0,0,0-1.93.33,5.53,5.53,0,0,0-1.59.9l-.37.27a6.93,6.93,0,0,0-1.31,1.22,13.74,13.74,0,0,0-3,5.38,20.15,20.15,0,0,0-.69,3.2c-.1,1-.17,1.79-.2,2.51a20.27,20.27,0,0,0,.1,2.08l0,.49a21.69,21.69,0,0,0,1.23,5.65,33.47,33.47,0,0,0,5.7,10,29.25,29.25,0,0,0,7,6.23,13.45,13.45,0,0,0,2.86,1.49,9.71,9.71,0,0,0,3.28.71h.43a7,7,0,0,0,4.14-1.8,13.16,13.16,0,0,0,2.05-2.37,11.23,11.23,0,0,0,1.12-2.05,15.12,15.12,0,0,0,1.36-4.42,23.43,23.43,0,0,0,.28-6.05A19,19,0,0,0,154.27,301.85Z"/><path class="cls-3" d="M182.5,531.49a16.11,16.11,0,0,0-2.53-4.14,13.63,13.63,0,0,0-2.78-2.43,11.62,11.62,0,0,0-3.05-1.54,10.82,10.82,0,0,0-3.47-.64,7.45,7.45,0,0,0-2.54.44,3.33,3.33,0,0,0-1.69,2.11,7.75,7.75,0,0,0-.36,3.68,31.46,31.46,0,0,0,.8,3.78,18.56,18.56,0,0,0,1.13,2.93l.19.41a15.08,15.08,0,0,0,1.32,2.27,21.11,21.11,0,0,0,1.95,2.43,16.9,16.9,0,0,0,4,3,12.25,12.25,0,0,0,1.64.77,8.89,8.89,0,0,0,2.13.75,3.43,3.43,0,0,0,.56.06l.15,0,.17.05h0a2.22,2.22,0,0,0,1.55-.67l.1-.09a4,4,0,0,0,1.08-1.35,12.92,12.92,0,0,0,.74-7.57A17.78,17.78,0,0,0,182.5,531.49Zm-6.77,1.15c-.2-.15-.39-.31-.58-.48.64.35,1.15.64,1.6.94l.51.44A16.07,16.07,0,0,1,175.73,532.64Z"/><path class="cls-3" d="M1318.82,875.83c-.31.15-.61.32-.91.48a12.49,12.49,0,0,0-2.64,2.08,15.71,15.71,0,0,0-3.43,5.79,29.82,29.82,0,0,0-1.62,7.32,52.53,52.53,0,0,0-.19,7.77,58.51,58.51,0,0,0,.78,7c.28,1.58.66,3.15,1,4.47.51,1.94,1.1,3.86,1.75,5.71a75.85,75.85,0,0,0,11.08,20.22,100.17,100.17,0,0,0,7.8,9.11c-.59-.38-1.26-.74-2.15-1.2a52.14,52.14,0,0,0-12.56-4.86,24.22,24.22,0,0,0-6.29-.6,17.37,17.37,0,0,0-5.52,1.24c-.32.13-.63.26-.94.41a9.44,9.44,0,0,0-5,5,10.43,10.43,0,0,0,.2,7,21.62,21.62,0,0,0,1.69,3.64,32.27,32.27,0,0,0,2.2,3.36,55.63,55.63,0,0,0,5.5,6.28,19.4,19.4,0,0,0-4.58-.49,11.2,11.2,0,0,0-2.55.29,9.86,9.86,0,0,0-1.92.67c-.26.13-.52.27-.78.43a7.28,7.28,0,0,0-3.15,4.53,11.74,11.74,0,0,0-.34,3,12,12,0,0,0,.4,2.68,15.19,15.19,0,0,0,2.32,4.85,26.45,26.45,0,0,0,4,4.42,38.25,38.25,0,0,0,4.86,3.76l.86.56a6.87,6.87,0,0,0-1.72.22,9.09,9.09,0,0,0-1.92.68,8.45,8.45,0,0,0-1,.56,9.09,9.09,0,0,0-2.52,2.54,11.52,11.52,0,0,0-1.88,5.42,15,15,0,0,0,.53,5.36,21.8,21.8,0,0,0,2.22,5.14,41.85,41.85,0,0,0,7.54,9.28,64.37,64.37,0,0,0,8.52,6.91,69.58,69.58,0,0,0,11.36,6.21,95.83,95.83,0,0,0,14.84,5,107.84,107.84,0,0,0,15.23,2.69,98.8,98.8,0,0,0,31.47-1.52,86.81,86.81,0,0,0,14.71-4.55c1.43-.59,2.83-1.21,4.15-1.84a90.19,90.19,0,0,0,9.22-5.13,92.91,92.91,0,0,0,22.29-20.24,112.3,112.3,0,0,0,8.94-12.91,115.39,115.39,0,0,0,7.17-13.89,95.76,95.76,0,0,0,4.71-14,79,79,0,0,0,2.3-14.68,60.09,60.09,0,0,0-.86-14.75,46.11,46.11,0,0,0-4.9-13.76,22.11,22.11,0,0,0-7.92-8.38,15.14,15.14,0,0,0-9.24-2.12,12,12,0,0,0-3.83,1.1,5.21,5.21,0,0,0-.47.24,13,13,0,0,0-3.75,3,14.29,14.29,0,0,0-2.21,3.59,56,56,0,0,0-2.31-7.87,46.36,46.36,0,0,0-3.79-7.79,27.47,27.47,0,0,0-5.17-6.27,18.22,18.22,0,0,0-3.21-2.26,13.83,13.83,0,0,0-3.54-1.39,10.92,10.92,0,0,0-7.42.65l-.12.06a14.5,14.5,0,0,0-5.56,5.13,28.4,28.4,0,0,0-3.46,7.39c-.41,1.29-.77,2.61-1.06,3.93a2.71,2.71,0,0,0-.09-.68c-.63-2.64-1.25-4.94-1.9-7.07a64.6,64.6,0,0,0-2.74-7.39,36.13,36.13,0,0,0-3.94-6.91,21.88,21.88,0,0,0-2.54-2.84,14.54,14.54,0,0,0-2.9-2.1,12.18,12.18,0,0,0-6.85-1.43,11.51,11.51,0,0,0-4.23,1.1,11,11,0,0,0-1.7,1,13,13,0,0,0-3.81,4.73,23.21,23.21,0,0,0-2,6.28,41.42,41.42,0,0,0-.62,7.13,54.33,54.33,0,0,0,.38,7c-1-2-2.17-4.17-3.5-6.44a108.15,108.15,0,0,0-10.15-14.54,71.21,71.21,0,0,0-6.15-6.51,42.69,42.69,0,0,0-6.37-4.91,29.21,29.21,0,0,0-7-3.26,17.13,17.13,0,0,0-8.42-.69,15.65,15.65,0,0,0-1.79.5,7.81,7.81,0,0,0-.84.35"/><path class="cls-4" d="M1342.73,924.47l0-.06-.15-.23Z"/><path class="cls-4" d="M1411.35,1010.8l.07.11h0Z"/><path class="cls-4" d="M1411.42,1010.91a.61.61,0,0,1,.07.1l-.06-.09Z"/><path class="cls-4" d="M1442.73,919a.54.54,0,0,0-.22,0,.53.53,0,0,0-.29.46c-.08,2.48-.28,5-.58,7.43a89.9,89.9,0,0,1-2.15,10.91c-.46,1.77-1,3.53-1.58,5.26s-1.26,3.4-2,5.08l0-.07a85.85,85.85,0,0,1-10.85,18.86c-1.18,1.53-2.4,3-3.69,4.43s-2.72,2.9-4.14,4.28-2.93,2.74-4.43,4.07-3,2.59-4.61,3.82c-1.29,1-2.6,2-3.9,3l-2.35,1.81-.45-.6c-2-2.62-4-5.19-6.06-7.73a43.14,43.14,0,0,0,3.44-5.15,65.38,65.38,0,0,0,3.27-6.54c1-2.34,1.94-4.74,2.77-7.16.4-1.19.75-2.4,1.08-3.61s.68-2.44,1-3.67.65-2.47.93-3.72.53-2.52.78-3.78c.5-2.54.94-5.09,1.27-7.66v0c0-.27.07-.54.11-.81l0,.17c.05-.31.09-.62.13-.94h0a169.5,169.5,0,0,0,1.18-29.79c-.11-2.21-.27-4.42-.46-6.62a.25.25,0,0,0-.25-.25l-.1,0a.24.24,0,0,0-.15.23,139.07,139.07,0,0,1,.47,14.14c-.08,5-.39,10.07-1,15.07-.08.69-.16,1.38-.25,2.07-.3,2.32-.65,4.63-1.1,6.93s-.94,4.64-1.5,6.94-1.21,4.56-1.91,6.8-1.53,4.52-2.45,6.73v0c-.19.47-.38.94-.58,1.41v0c-.65,1.55-1.34,3.07-2.08,4.58s-1.63,3.23-2.53,4.8-1.82,3.08-2.8,4.57c-.47.72-1,1.43-1.43,2.14l-.16.24q-4.86-5.88-10-11.53c-.94-1-1.89-2.07-2.84-3.11l0-.09c.15-.55.29-1.1.42-1.66.26-1.1.47-2.21.66-3.33a70.83,70.83,0,0,0,.78-7.27c.15-2.45.2-4.9.17-7.35s-.2-5.06-.39-7.58-.49-5.13-.84-7.68c-.18-1.3-.39-2.59-.59-3.89s-.39-2.53-.6-3.79c-.42-2.48-.91-5-1.41-7.43s-1.06-4.76-1.64-7.12c-.91-3.67-1.94-7.31-3-10.93a.35.35,0,0,0-.51-.21.32.32,0,0,0-.18.41c1.1,3.71,2,7.48,2.82,11.27.43,2.06.82,4.12,1.2,6.18s.74,4.32,1,6.49c.17,1.23.33,2.45.48,3.68s.27,2.54.37,3.82q.32,3.83.47,7.68a125.3,125.3,0,0,1-.25,15c-.12,1.43-.27,2.86-.46,4.29-.23,1.69-.51,3.38-.85,5.06-.1.52-.22,1-.33,1.58-1.44-1.56-2.87-3.11-4.32-4.66-3.33-3.57-6.71-7.09-10-10.66l-5.09-5.43c-1-1.1-2-2.22-3-3.34a74.78,74.78,0,0,0-1.08-9,75.82,75.82,0,0,0-2.1-8.53c-1.71-5.6-3.87-11-5.89-16.53-1-2.79-2.07-5.59-3-8.4a.25.25,0,0,0-.31-.18l0,0a.24.24,0,0,0-.13.29q1.43,4.23,2.9,8.44c1,2.78,1.88,5.57,2.72,8.38a118,118,0,0,1,3.79,17q.36,2.72.56,5.46c-3-3.48-5.93-7.05-8.67-10.75-1-1.39-2.08-2.78-3.07-4.2s-2-3-3-4.55l.14.21-.77-1.17.13.21c-1.48-2.28-2.94-4.55-4.32-6.88s-2.72-4.72-4-7.09c-2.73-4.85-5.3-9.8-7.74-14.8a.34.34,0,0,0-.48-.15.33.33,0,0,0-.17.46c1.7,3.51,3.39,7,5.14,10.51s3.48,7,5.35,10.4,3.58,6.6,5.49,9.83c1,1.66,2,3.28,3,4.92s2,3.27,3.08,4.87c2.45,3.74,5,7.42,7.72,11-1-.48-2.07-1-3.1-1.49-1.34-.68-2.68-1.39-4-2.14s-2.71-1.63-4-2.5a71.84,71.84,0,0,1-7.57-5.87l0,0a82.32,82.32,0,0,1-13.23-14.79.29.29,0,0,0-.36-.07l-.06,0a.31.31,0,0,0,0,.42c1.51,2.19,3.08,4.33,4.75,6.4.85,1.05,1.72,2.09,2.6,3.11s1.82,2,2.76,3c1.88,2,3.88,3.86,6,5.66s4.2,3.49,6.44,5.08a59.45,59.45,0,0,0,6.31,3.94c1.13.59,2.29,1.14,3.46,1.64.59.24,1.19.48,1.79.69.34.13.69.24,1,.36l2.71,3.26q2.4,2.84,4.83,5.64c3.19,3.69,6.36,7.39,9.58,11,1.79,2,3.56,4.1,5.33,6.14-1.18-.16-2.36-.3-3.55-.42-2.53-.26-5.07-.46-7.61-.64-5-.37-10-.79-15-1.41-3.66-.46-7.31-1-10.92-1.81-3.1-.67-6.17-1.46-9.19-2.42a63.2,63.2,0,0,1-9.19-3.74h0a65.25,65.25,0,0,1-9.37-5.76.46.46,0,0,0-.48,0,.55.55,0,0,0-.2.17.5.5,0,0,0,.13.68,76.12,76.12,0,0,0,6.58,4.4,69.9,69.9,0,0,0,6.77,3.5c2.27,1,4.59,2,6.94,2.81s4.7,1.53,7.1,2.14a142.28,142.28,0,0,0,14.76,2.83c2.49.35,5,.66,7.49,1s5,.59,7.55.86c3.6.38,7.21.72,10.82.88l1.52,1.75q4.77,5.55,9.45,11.16c-2,.57-3.91,1.16-5.87,1.71-2.43.69-4.89,1.33-7.35,1.91A121.27,121.27,0,0,1,1361.7,987c-1.77.19-3.55.34-5.34.43h0a99.85,99.85,0,0,1-25.1-2.19,130.27,130.27,0,0,1-22.44-7.1.42.42,0,0,0-.33,0,.41.41,0,0,0-.23.25.46.46,0,0,0,.27.58,139.19,139.19,0,0,0,28.69,8.75,104.93,104.93,0,0,0,14,1.57,111.63,111.63,0,0,0,14.28-.32,93,93,0,0,0,12.74-2q3.29-.74,6.5-1.7c2.12-.64,4.23-1.35,6.28-2.17,1.76,2.15,3.51,4.31,5.23,6.5l.2.27-1.1,1c-.5.44-1,.88-1.5,1.31-.93.81-1.88,1.59-2.86,2.34a60,60,0,0,1-6.59,4.35,67.3,67.3,0,0,1-7.26,3.5,79.74,79.74,0,0,1-9.63,3.17,90.7,90.7,0,0,1-10.19,2,98.64,98.64,0,0,1-24.82,0,90.5,90.5,0,0,1-23.17-6c-.84-.35-1.67-.71-2.5-1.09a.51.51,0,0,0-.45,0,.43.43,0,0,0-.2.18.48.48,0,0,0,.17.65,94.51,94.51,0,0,0,27.31,7.7,103.07,103.07,0,0,0,15,.87,95.8,95.8,0,0,0,15-1.39,72.9,72.9,0,0,0,27.2-10.36,48.73,48.73,0,0,0,4.22-3.06c.67-.54,1.32-1.09,1.95-1.67.41-.38.8-.78,1.19-1.18,2,2.59,3.93,5.2,5.81,7.85,2.5,3.5,4.88,7.08,7.25,10.68l-.13-.2.2.31h0l.15.22-.09-.13c.9,1.39,1.79,2.78,2.71,4.16a2.25,2.25,0,0,0,3.73-2.45c-1.14-2.23-2.41-4.39-3.71-6.53s-2.77-4.4-4.21-6.57q-2.61-3.92-5.38-7.72c.47-.27.92-.55,1.37-.85,1.34-.88,2.63-1.85,3.9-2.84a82.17,82.17,0,0,0,6.5-5.73c1-1,2-2.05,3-3.1s1.9-2.13,2.81-3.23,1.88-2.37,2.79-3.58,1.67-2.25,2.48-3.4a86.63,86.63,0,0,0,8.27-14.66,81.82,81.82,0,0,0,3-8c.86-2.72,1.59-5.49,2.23-8.27s1.07-5.48,1.43-8.25v0c.45-3.49.71-7,.82-10.54A.52.52,0,0,0,1442.73,919Z"/><path class="cls-5" d="M1354,157.47a19.88,19.88,0,0,0,1.75,2.53,17,17,0,0,0,3,2.86,22.77,22.77,0,0,0,6.36,3.26,22.59,22.59,0,0,0,15.21,0,28.49,28.49,0,0,0,4.77-2.27,40.38,40.38,0,0,0,8.66-7.2,72.14,72.14,0,0,0,7.86-10.3,119.94,119.94,0,0,0,7-12.58c2.51-5.17,4.88-10.63,7.24-16.69a.77.77,0,0,0,.08-.19c1.57-4,3.12-8.28,4.76-13,3.16-9.21,6.24-19.26,9.67-31.62,2-7.38,4-14.92,5.92-22.21l1.55-5.95c.29-1.13.59-2.26.89-3.38l.42-.82c.59-1.17,1.18-2.47,1.8-4a34.64,34.64,0,0,0,2.49-8.62,19.6,19.6,0,0,0,.19-2.16,11.49,11.49,0,0,0-.05-1.26c.19-.52.38-1,.59-1.55l.16-.39a.57.57,0,0,0,0-.48.44.44,0,0,0-.17-.16.53.53,0,0,0-.41,0,.39.39,0,0,0-.24.21l-.24.56a4.4,4.4,0,0,0-.18-.62,10.44,10.44,0,0,0-.41-1l-.1-.18a7.19,7.19,0,0,0-.56-.8,6.06,6.06,0,0,0-3.15-2l-.41-.11.07-.07.07-.08a61.86,61.86,0,0,0,5.21-7.06A26.44,26.44,0,0,0,1447,3.27a10.58,10.58,0,0,0,.06-6.21,8.23,8.23,0,0,0-.66-1.44,8.72,8.72,0,0,0-1-1.36,9.11,9.11,0,0,0-2.22-1.81,11.53,11.53,0,0,0-2.72-1.14,15.89,15.89,0,0,0-3.15-.52,28.63,28.63,0,0,0-7,.48,56.38,56.38,0,0,0-7.62,1.93,146.55,146.55,0,0,0-16.14,6.44C1404,.78,1401.47,2,1399,3.17l-.48.22-1.23.59-.65.31c-1.91.92-4.07,2-6.2,2.83-1.15.46-2.35.87-3.47,1.24-2,.66-4.16,1.3-6.63,1.94-3.88,1-8.09,1.93-13.67,2.94-2.8.52-5.61,1-8.43,1.46l-.27.05c-6.25,1.06-12.69,2.15-19,3.6a110,110,0,0,0-13.17,3.88,56.8,56.8,0,0,0-11.07,5.3,40.82,40.82,0,0,0-4.3,3.2,29.94,29.94,0,0,0-3.43,3.42,22.27,22.27,0,0,0-4.54,8,14.77,14.77,0,0,0,0,8.51,15.08,15.08,0,0,0,1.34,3,20,20,0,0,0,4.32,5.11,38.19,38.19,0,0,0,9.71,5.84A56.38,56.38,0,0,0,1328.19,68a67.69,67.69,0,0,0,10.89,1.49,81.28,81.28,0,0,0,11-.12,109.15,109.15,0,0,0,22-4.07,107.19,107.19,0,0,0,10.23-3.56c3.27-1.32,6.46-2.77,9.47-4.31,1.64-.84,3.25-1.71,4.78-2.61-1.43,1.69-2.86,3.44-4.25,5.19-6.11,7.65-11.84,15.56-17,23.52-2.58,4-5.14,8.11-7.61,12.35-1.41,2.44-3.06,5.32-4.56,8.26a141.9,141.9,0,0,0-7.11,16.41,83,83,0,0,0-4.67,19c-.77,6.81-.06,12.36,2.15,16.95.17.35.36.7.55,1"/><path class="cls-6" d="M1436,22.82c-2.19,2.87-4.38,5.72-6.52,8.63q-4.68,6.36-9.24,12.84c-.71.47-1.42.93-2.14,1.38a42.43,42.43,0,0,1-4.41,2.37,36.37,36.37,0,0,1-4.81,1.84,42.37,42.37,0,0,1-4.83,1.15.46.46,0,0,0-.38.53.39.39,0,0,0,.06.15.44.44,0,0,0,.47.22c1.6-.27,3.2-.58,4.77-1a43.29,43.29,0,0,0,4.72-1.53c.75-.29,1.49-.6,2.22-.94s1.5-.74,2.23-1.15l-1.46,2.13q-4,5.82-7.75,11.76c-1.31,1.27-2.68,2.48-4.09,3.63-.85.69-1.72,1.36-2.6,2s-1.84,1.27-2.79,1.86c-1.61,1-3.26,1.89-5,2.72s-3.36,1.58-5.09,2.25a.32.32,0,0,0-.16.42l0,0a.33.33,0,0,0,.41.13c1.9-.72,3.78-1.49,5.64-2.34s3.7-1.83,5.49-2.86c.89-.51,1.77-1,2.63-1.6s1.73-1.13,2.55-1.75l.26-.2c-.58,1-1.18,1.9-1.75,2.85-2.83,4.67-5.53,9.41-8.14,14.2-.22.25-.43.49-.65.72a66.06,66.06,0,0,1-13.21,11,59.47,59.47,0,0,1-7.71,4,.44.44,0,0,0-.22.58.08.08,0,0,0,0,0,.44.44,0,0,0,.56.18,66.39,66.39,0,0,0,6.48-3.1c1.11-.6,2.2-1.23,3.28-1.88s2.25-1.42,3.36-2.16,2.1-1.47,3.11-2.26c.72-.56,1.42-1.15,2.11-1.75l-.08.14q-3.2,6.09-6.12,12.32c-.88,1.85-1.71,3.74-2.52,5.62-1.91,2.22-3.84,4.42-5.84,6.57q-1.68,1.78-3.43,3.49t-3.61,3.35c-1.23,1.07-2.51,2.08-3.81,3.06s-2.62,1.88-4,2.73h0c-1.48.91-3,1.76-4.56,2.52a.34.34,0,0,0-.17.44s0,0,0,0a.36.36,0,0,0,.44.14c1.26-.62,2.51-1.27,3.73-2s2.4-1.45,3.58-2.22a80.2,80.2,0,0,0,7-5.16q1.69-1.38,3.3-2.85c1.07-1,2.11-2,3.11-3,.78-.8,1.54-1.62,2.28-2.45-.31.74-.64,1.48-.94,2.22v0h0l-.07.16h0c-1.38,3.34-2.7,6.7-3.92,10.11s-2.39,6.91-3.53,10.39c-.26.78-.49,1.56-.74,2.35a70.23,70.23,0,0,1-5.66,7,54.24,54.24,0,0,1-9.24,7.8.33.33,0,0,0-.08.44l0,0a.36.36,0,0,0,.48,0q2.25-1.48,4.37-3.12c1.44-1.1,2.81-2.28,4.14-3.5a50.87,50.87,0,0,0,3.79-3.84c.37-.41.72-.84,1.07-1.27q-2.18,7.4-3.83,14.93c-.39,1.81-.77,3.62-1.12,5.45a.54.54,0,0,0,.06.36.41.41,0,0,0,.28.21.46.46,0,0,0,.57-.33q.8-4.11,1.79-8.16c.68-2.72,1.46-5.42,2.27-8.11.31-1,.64-2.07,1-3.1,0,.69.08,1.39.16,2.09a30.11,30.11,0,0,0,1.25,5.47,30.49,30.49,0,0,0,2.27,5.17l.25.44a30.8,30.8,0,0,0,3.11,4.39.28.28,0,0,0,.41,0,.28.28,0,0,0,0-.4,27.72,27.72,0,0,1-2.22-3.06,32.1,32.1,0,0,1-1.55-2.89,23.9,23.9,0,0,1-1.22-3.24h0a27,27,0,0,1-1.08-6.63c-.06-1.64-.06-3.28,0-4.92a.75.75,0,0,0-.13-.42c1-3,2.1-5.94,3.29-8.85,1.39-3.38,2.88-6.73,4.38-10.06.42-.91.85-1.82,1.28-2.73,0,.36,0,.72.07,1.08a56.41,56.41,0,0,0,1.24,7.63,65.59,65.59,0,0,0,2.28,7.47,67.09,67.09,0,0,0,3,7c.55,1.09,1.13,2.16,1.74,3.22.27.48.56,1,.85,1.43a.26.26,0,0,0,.34.14.28.28,0,0,0,.14-.35,55.81,55.81,0,0,1-3.21-6.19,60,60,0,0,1-2.66-7.05,53.83,53.83,0,0,1-2.36-13.07c0-1.25,0-2.5,0-3.76,0-.24,0-.49,0-.73.68-1.39,1.36-2.77,2.07-4.14q4.79-9.33,10-18.43c0,1,0,2,0,2.94.05,1.32.18,2.64.33,4s.38,2.66.64,4,.55,2.65.89,3.95.72,2.58,1.14,3.85a74,74,0,0,0,2.91,7.36c.65,1.43,1.34,2.84,2.09,4.23h0a.25.25,0,0,0,.33.11.24.24,0,0,0,.12-.33,54.2,54.2,0,0,1-4-9.82,71.73,71.73,0,0,1-1.84-7.66c-.24-1.27-.42-2.55-.56-3.84s-.25-2.56-.31-3.84c0-1.6,0-3.21,0-4.81q.06-1.16.15-2.31c0-.38.06-.77.1-1.15q5.13-8.7,10.61-17.19l.85-1.31a44.1,44.1,0,0,0,.11,5,54,54,0,0,0,1.07,7.16c.51,2.36,1.17,4.69,1.89,7s1.59,4.66,2.44,7a.17.17,0,0,1,0,.05.42.42,0,0,0,.5.15.4.4,0,0,0,.2-.52q-1-2.9-1.93-5.83h0v0a64,64,0,0,1-2.81-15.58,56.23,56.23,0,0,1,.16-6.62.68.68,0,0,0,0-.2q4.24-6.56,8.6-13c0,.32.06.64.09,1a39.91,39.91,0,0,0,1,5.19c.44,1.68.94,3.34,1.53,5a51.63,51.63,0,0,0,2.23,5.13v0a.24.24,0,0,0,.32.1.25.25,0,0,0,.12-.33,39.06,39.06,0,0,1-2.15-5.53l0,.08c-.3-1-.56-2-.77-3s-.39-2.11-.54-3.17q-.43-3.15-.55-6.33v-.09q5.88-8.64,11.93-17.18,2.91-4.12,5.84-8.24l3-4.13c.49-.68,1-1.37,1.46-2.06s.92-1.39,1.42-2.05a1.84,1.84,0,0,0,.2-1.45,2,2,0,0,0-2.37-1.4l-.46.19a2,2,0,0,0-.7.67C1440.31,17.16,1438.17,20,1436,22.82Z"/><path class="cls-6" d="M1320.71,32.94a.26.26,0,0,0,0,.21.24.24,0,0,0,.13.11c2.43.67,4.83,1.43,7.21,2.26a71.27,71.27,0,0,1,7.2,2.91c1.14.55,2.27,1.11,3.38,1.7s2.25,1.27,3.34,2a53.7,53.7,0,0,1,6.16,4.54c.32.27.63.55.94.83-2.36.45-4.73.87-7.1,1.24-1.56.24-3.13.46-4.7.65-2.62.33-5.24.6-7.87.84a24,24,0,0,0-4.4-3.09c-.88-.49-1.78-.94-2.7-1.36s-1.85-.82-2.79-1.19c-1.85-.71-3.73-1.32-5.62-1.88s-3.84-1.05-5.77-1.52a.25.25,0,0,0-.31.16.3.3,0,0,0,0,.21.26.26,0,0,0,.14.11c2,.49,4,1,5.88,1.71a49.91,49.91,0,0,1,5.74,2.32,40.21,40.21,0,0,1,4.78,2.71c.94.62,1.82,1.3,2.7,2-6.08.49-12.17.75-18.26.7a.9.9,0,0,0-.89.88.83.83,0,0,0,.12.44.92.92,0,0,0,.76.45c6.34.06,12.68-.08,19-.47l-.23.25a28.62,28.62,0,0,1-2.68,2.36,27.9,27.9,0,0,1-2.94,2,29.86,29.86,0,0,1-4.16,2,.34.34,0,0,0-.18.43.08.08,0,0,1,0,0,.34.34,0,0,0,.41.14,34.8,34.8,0,0,0,6.48-3.26,26.68,26.68,0,0,0,3-2.26c.44-.38.86-.78,1.27-1.19.18-.18.34-.36.5-.54.76-.05,1.52-.09,2.27-.15,3.88-.3,7.75-.71,11.6-1.18,2.17-.26,4.34-.56,6.5-.88-.35.5-.7,1-1.07,1.5a30.56,30.56,0,0,1-2.72,3.08c-.64.63-1.29,1.25-2,1.84s-1.44,1.18-2.18,1.74a48.48,48.48,0,0,1-4.75,3.11l0,0c-1.22.69-2.46,1.32-3.73,1.9a.27.27,0,0,0-.14.33v0a.27.27,0,0,0,.32.11q2.64-1.22,5.17-2.64c.88-.5,1.74-1,2.59-1.56s1.72-1.16,2.56-1.77,1.65-1.25,2.44-1.92,1.51-1.38,2.23-2.1a25.49,25.49,0,0,0,2-2.28,18.65,18.65,0,0,0,1.13-1.66c1.1-.18,2.21-.35,3.31-.55,3.87-.7,7.74-1.5,11.58-2.41,2.26-.54,4.52-1.14,6.76-1.77-.91,1.53-1.85,3-2.89,4.49a44.35,44.35,0,0,1-4.37,5.1v0a42.37,42.37,0,0,1-4.21,3.7,43.63,43.63,0,0,1-4.6,3.11l-.25.14a.25.25,0,0,0-.13.32v0a.25.25,0,0,0,.31.11,49.24,49.24,0,0,0,10.2-7.4,46.12,46.12,0,0,0,4.24-4.6,30.11,30.11,0,0,0,3.57-5.36.37.37,0,0,0,0-.18c.91-.26,1.81-.51,2.71-.78a159,159,0,0,0,17.14-6.26c-.33.78-.65,1.57-1,2.34a35.9,35.9,0,0,1-1.67,3.27,48.08,48.08,0,0,1-4,5.75,67,67,0,0,1-4.57,5.1l-.54.53a.34.34,0,0,0-.09.42l0,0a.32.32,0,0,0,.46.06c1.34-1.31,2.66-2.64,3.93-4s2.48-2.85,3.64-4.35a42,42,0,0,0,3.16-4.67c.48-.8.92-1.62,1.33-2.46a16.71,16.71,0,0,0,1-2.58l0-.16s0,0,0,0c1.09-.49,2.2-1,3.29-1.48a137,137,0,0,0,20.1-11.59,109,109,0,0,0,17.67-15.26c.42-.46.83-.92,1.23-1.39s.88-1.08,1.34-1.6a1.83,1.83,0,0,0,.52-1.25,1.74,1.74,0,0,0-.51-1.26,1.78,1.78,0,0,0-2.51,0c-.62.68-1.31,1.31-2,2s-1.31,1.31-2,2c-1.31,1.29-2.67,2.55-4,3.78-2.64,2.37-5.4,4.63-8.23,6.78a142,142,0,0,1-15.54,10.16,29,29,0,0,0-3.3-3.25,39,39,0,0,0-5.21-3.71,59.63,59.63,0,0,0-5.48-2.89c-1.91-.89-3.84-1.71-5.81-2.46a.32.32,0,0,0-.4.2.31.31,0,0,0,0,.25.38.38,0,0,0,.18.15c1.2.46,2.38,1,3.54,1.52a.05.05,0,0,0,0,0,46,46,0,0,1,5.26,3,46.52,46.52,0,0,1,4.79,3.57c1.06.92,2.08,1.87,3,2.89.56.58,1.08,1.18,1.6,1.78-3,1.64-6,3.16-9.1,4.6a31.59,31.59,0,0,0-5.16-3.82,56.54,56.54,0,0,0-7.21-3.63c-2.49-1-5-2-7.57-2.9s-5-1.65-7.54-2.43a.26.26,0,0,0-.29.38.26.26,0,0,0,.14.1c2.15.67,4.29,1.37,6.41,2.13s4.36,1.63,6.47,2.62h0l.07,0h0a54.35,54.35,0,0,1,5.55,3c.9.56,1.79,1.14,2.65,1.76s1.63,1.23,2.41,1.89c.57.49,1.14,1,1.68,1.52l.26.27c-2,.87-3.94,1.73-5.93,2.54q-5.38,2.15-10.87,4l-2,.66c-.69-.59-1.39-1.17-2.12-1.72-1.1-.84-2.23-1.63-3.39-2.39a75.51,75.51,0,0,0-7.18-4.15,98.78,98.78,0,0,0-15.37-6.2c-1.69-.53-3.41-1-5.12-1.45a.41.41,0,0,0-.5.26.37.37,0,0,0,0,.32.33.33,0,0,0,.21.17A88,88,0,0,1,1356,31.43c1.32.63,2.62,1.3,3.91,2s2.57,1.5,3.83,2.3a63.71,63.71,0,0,1,7.13,5.31h0l1,.91q-3.42,1-6.87,2c-3.8,1-7.64,1.91-11.5,2.7l-2,.38a38.39,38.39,0,0,0-6.17-4.58c-1.2-.73-2.43-1.42-3.69-2s-2.52-1.24-3.8-1.82-2.6-1.08-3.91-1.58-2.65-1-4-1.45c-2.66-.91-5.35-1.71-8-2.45-.32-.1-.64-.18-1-.27A.27.27,0,0,0,1320.71,32.94Z"/><polygon class="cls-7" points="1380.58 25.48 1380.58 25.49 1380.58 25.48 1380.58 25.48"/><path class="cls-7" d="M1380.58,25.49l.07,0-.05,0Z"/><path class="cls-3" d="M1347.9,43.45c-5.25,9.35-9.81,19.26-14.22,28.84-2.12,4.62-4.32,9.38-6.56,14s-4.44,8.94-6.61,12.89c-1.44,2.61-2.76,4.87-4,6.92-1.12,1.81-2.2,3.44-3.31,5a7.8,7.8,0,0,1-.68.84,1,1,0,0,0-.16.2,1.47,1.47,0,0,0-.15.34c7.57-1.13,15.19-1.94,22.75-3.07,1.83-.35,3.66-.68,5.49-1l4.25-.75c3.68-.65,7.48-1.32,11.22-2.05a141.28,141.28,0,0,0,14.42-3.48A99.54,99.54,0,0,0,1383.43,97a92.69,92.69,0,0,0,23.09-15.56A95.7,95.7,0,0,0,1423,61.36q1-1.59,1.92-3.21a111.86,111.86,0,0,0,8.49-18.75.83.83,0,0,0,.26.19,1.43,1.43,0,0,0,1.07.12,1.61,1.61,0,0,0,.88-.7c1.24-1.84,2.36-3.56,3.42-5.27,1.79-2.89,3.33-5.61,4.71-8.32a67.33,67.33,0,0,0,3.79-8.9A28.37,28.37,0,0,0,1449.14,8a12.35,12.35,0,0,0-2-7.37,10.5,10.5,0,0,0-1.31-1.53A11.35,11.35,0,0,0,1444-2.31a17.82,17.82,0,0,0-4-1.82,40.64,40.64,0,0,0-10.15-1.69,86.65,86.65,0,0,0-10.92,0,88.15,88.15,0,0,0-20.31,3.37,72.23,72.23,0,0,0-21.52,10.61,81.56,81.56,0,0,0-16.42,15.87A131.83,131.83,0,0,0,1352,36.41c-1.35,2.18-2.71,4.48-4.14,7M1436,31.08A163.43,163.43,0,0,0,1441,.55c.48.26.93.52,1.35.8a8.33,8.33,0,0,1,1.3,1.2,8.42,8.42,0,0,1,.89,1.48,11.25,11.25,0,0,1,.6,2.13,17.57,17.57,0,0,1,0,3.71,37.21,37.21,0,0,1-2.23,8.56,89.59,89.59,0,0,1-5.16,10.92c-.87,1.6-1.79,3.18-2.72,4.79.3-1,.6-2,.88-3.06"/><path class="cls-3" d="M1352,36.39c-1.34,2.16-2.7,4.46-4.15,7-5.25,9.36-9.77,19.17-14.13,28.66l0,.1-.41.89c-1.89,4.11-4,8.77-6.19,13.22-2.26,4.69-4.42,8.91-6.61,12.89-1.45,2.62-2.77,4.88-4,6.92-1.13,1.82-2.21,3.45-3.3,5a9.41,9.41,0,0,1-.68.83,1.2,1.2,0,0,0-.17.21,1.5,1.5,0,0,0-.15.36c3.95-.54,8-1.05,11.21-1.46l.21,0,.16,0c3.69-.48,7.51-1,11.22-1.52,1.83-.35,3.66-.68,5.48-1l.74-.13,3.51-.62.55-.09.21,0c3.27-.58,6.94-1.23,10.46-1.92a143.6,143.6,0,0,0,14.43-3.48A98.08,98.08,0,0,0,1383.45,97a92.82,92.82,0,0,0,20.72-13.44,2.18,2.18,0,0,0-.14-.34,3.65,3.65,0,0,0-.5-.65,4.07,4.07,0,0,0-.7-.57,2.13,2.13,0,0,0-.49-.21,4.88,4.88,0,0,0-1.28-.18,12.21,12.21,0,0,0-2.19.17c-.82.12-1.71.3-2.72.55-.42.1-.91.22-1.39.36-2.44.66-5,1.48-7.17,2.21l-.29.09-3.69,1.19c-.83.26-2.08.65-3.37,1a27.29,27.29,0,0,1-2.84.64,9.09,9.09,0,0,1-1.14.14,5.12,5.12,0,0,1-1,0,2.23,2.23,0,0,1-.72-.18,1.4,1.4,0,0,1-.51-.4,1.23,1.23,0,0,1-.2-.61A2.28,2.28,0,0,1,1374,86a5,5,0,0,1,.45-1c.07-.11.13-.23.2-.33q.3-.48.63-.93a36.57,36.57,0,0,1,2.87-3.39c1.31-1.41,2.78-2.88,4.75-4.76,1-.93,1.93-1.84,2.89-2.75l.19-.18,3.62-3.45c4.41-4.29,9-9,12.45-14.63l.23-.37c.48-.8.89-1.52,1.24-2.2s.63-1.21.9-1.83a26.61,26.61,0,0,0,1.08-2.94,19.75,19.75,0,0,0,.82-4.74,11.13,11.13,0,0,0-.25-2.85,7.14,7.14,0,0,0-.59-1.56,5.5,5.5,0,0,0-.76-1,5.07,5.07,0,0,0-.88-.71,5.73,5.73,0,0,0-2.08-.71c-.34,0-.68-.07-1-.08a11.28,11.28,0,0,0-2.48.24,10.91,10.91,0,0,0-2.6,1.05,19.1,19.1,0,0,0-2.7,1.86c-.85.69-1.72,1.46-2.73,2.45l-.14.13-.31.31c-.92.91-1.82,1.85-2.72,2.79l-.26.26-1.13,1.18c-1.17,1.22-2.55,2.63-4,3.93a20,20,0,0,1-4,2.83,7.78,7.78,0,0,1-4,.92A3.91,3.91,0,0,1,1372,53a2.6,2.6,0,0,1-1-1,3.71,3.71,0,0,1-.4-1.47,8.45,8.45,0,0,1,.09-1.84,20.61,20.61,0,0,1,.45-2.14c.2-.77.44-1.54.68-2.3.19-.59.38-1.18.58-1.77.32-1,.64-2,.94-3,.21-.72.43-1.51.59-2.33a13.94,13.94,0,0,0,.26-1.94,6,6,0,0,0-.11-1.31,10.64,10.64,0,0,0-1-2.5,6.58,6.58,0,0,0-.57-.87,6.24,6.24,0,0,0-.58-.69,4.79,4.79,0,0,0-.61-.55c-.22-.17-.44-.33-.66-.47a7.53,7.53,0,0,0-.85-.43,6.92,6.92,0,0,0-.76-.28,7.67,7.67,0,0,0-1.2-.26,8.77,8.77,0,0,0-1.14-.1,10.9,10.9,0,0,0-1.78.08,18.41,18.41,0,0,0-1.85.32,22.39,22.39,0,0,0-5.49,2.19,23.72,23.72,0,0,0-3,2c-.81,1.21-1.65,2.51-2.56,4"/><path class="cls-4" d="M1444.7,10.85a97,97,0,0,0-12.28,2.56c-.39.11-.78.23-1.17.33a1.29,1.29,0,0,0-.37-1,27.52,27.52,0,0,0-2.32-2c-.81-.63-1.66-1.21-2.52-1.77a40.24,40.24,0,0,0-5.55-3,52.27,52.27,0,0,0-5.92-2.26c-2-.63-4-1.12-6-1.61a.28.28,0,0,0-.33.14.28.28,0,0,0,.16.44,37.22,37.22,0,0,1,3.89,1.2c1.31.47,2.6,1,3.87,1.54h0a40.51,40.51,0,0,1,8.86,5.33,22.58,22.58,0,0,1,2,1.84c.58.59,1.1,1.22,1.62,1.86-2.6.79-5.18,1.68-7.71,2.66-1.15.45-2.3.93-3.43,1.41-1.07-.45-2.15-.87-3.25-1.23s-2.44-.71-3.68-1a36.81,36.81,0,0,0-7.47-.87c-1.24,0-2.48,0-3.72.06s-2.46.19-3.69.34-2.48.38-3.7.61-2.49.51-3.72.81c-2.4.6-4.76,1.33-7.1,2.13a.4.4,0,0,0-.16.12.31.31,0,0,0,0,.19.27.27,0,0,0,.31.18q3-1,6.09-1.79a51.48,51.48,0,0,1,6.19-1.14,50.64,50.64,0,0,1,5.64-.32,37.13,37.13,0,0,1,5.47.44,37.64,37.64,0,0,1,4.31.94,32.71,32.71,0,0,1,4.3,1.51h0l1,.46a134.3,134.3,0,0,0-15.14,8.24c-3.27,2.06-6.44,4.31-9.53,6.65a44.33,44.33,0,0,0-6.36,1c-1.32.31-2.62.67-3.91,1.08s-2.57.89-3.84,1.4-2.57,1-3.82,1.61-2.47,1.19-3.67,1.81-2.41,1.29-3.59,2-2.33,1.4-3.48,2.11c-1.55.95-3.08,1.93-4.61,2.92a.35.35,0,0,0-.11.1.31.31,0,0,0,.42.43c2.3-1.47,4.67-2.86,7.11-4.1,1.22-.61,2.45-1.21,3.68-1.79s2.49-1.13,3.75-1.65h0c1.37-.55,2.74-1.09,4.13-1.57s2.79-.9,4.2-1.29a58.23,58.23,0,0,1,6.77-1.44q-3.23,2.61-6.3,5.4c-3.06,2.77-6,5.69-8.81,8.7-3.11,3.32-6.07,6.78-9,10.27-.32.37-.63.76-.94,1.13l-.8.13c-.49.1-1,.21-1.47.34-.94.25-1.85.55-2.76.89a42.38,42.38,0,0,0-5.36,2.44c-.86.46-1.7,1-2.53,1.47s-1.64,1.06-2.44,1.63c-1.54,1.09-3,2.25-4.47,3.46a.12.12,0,0,0-.05,0,.26.26,0,0,0,0,.3.24.24,0,0,0,.35,0l1-.81,0,0a37.72,37.72,0,0,1,4.73-3c.86-.47,1.73-.92,2.61-1.34s1.67-.75,2.52-1.1q2.31-.92,4.68-1.65l2.1-.6-3.63,4.42c-2.13,2.61-4.28,5.2-6.42,7.8-3.41,4.17-6.94,8.26-10.64,12.19-.78.24-1.56.48-2.33.76s-1.82.7-2.72,1.09c-1.84.8-3.63,1.73-5.39,2.7a.24.24,0,0,0-.09.08.27.27,0,0,0,0,.26.26.26,0,0,0,.34.1,52.24,52.24,0,0,1,5.29-2.52c1.24-.49,2.5-.91,3.78-1.29-.56.59-1.11,1.19-1.69,1.77a114,114,0,0,1-15.75,13.51.34.34,0,0,0-.12.12.52.52,0,0,0,0,.57.5.5,0,0,0,.69.09,129.71,129.71,0,0,0,10.81-8.45c2.49-2.15,4.86-4.41,7.18-6.73q-.06.56-.15,1.11c-.14.92-.34,1.83-.57,2.73a27.17,27.17,0,0,1-.94,2.94,22.32,22.32,0,0,1-1.37,2.93c-.38.69-.8,1.36-1.24,2a22,22,0,0,1-1.47,1.87.3.3,0,0,0,.06.39.28.28,0,0,0,.39-.06,31.41,31.41,0,0,0,4.61-7.11,26.17,26.17,0,0,0,1.57-4c.19-.65.36-1.32.51-2a14.65,14.65,0,0,0,.3-2.18.93.93,0,0,0,0-.29l.92-.93c6.37-6.51,12.29-13.44,18.29-20.29l1.25-1.42v.24c0,1.1,0,2.19-.06,3.29s-.15,2.42-.27,3.63a47.27,47.27,0,0,1-1.3,7.07h0v.06h0a66.59,66.59,0,0,1-6.33,15.67l0-.07c-.24.41-.48.83-.72,1.23a.32.32,0,0,0,.06.43.3.3,0,0,0,.42-.06q2.05-3.45,3.76-7.07a71.49,71.49,0,0,0,3.08-7.73,76.63,76.63,0,0,0,2.15-8,43.84,43.84,0,0,0,1.06-8.14,23.49,23.49,0,0,0-.09-2.52q4.71-5.28,9.65-10.35A154.22,154.22,0,0,1,1386.84,42c1.4-1.1,2.82-2.16,4.26-3.2-.14.55-.26,1.1-.37,1.65a40,40,0,0,0-.5,4.37c-.09,1.47-.14,2.94-.19,4.41s-.09,3-.16,4.45-.17,2.93-.3,4.39-.28,2.88-.46,4.31c-.38,2.83-.87,5.65-1.52,8.43-.16.7-.33,1.39-.51,2.08h0a76.31,76.31,0,0,1-5.81,15.33.3.3,0,0,0,.16.39.3.3,0,0,0,.38-.17,82.13,82.13,0,0,0,3.6-8.08,78.76,78.76,0,0,0,2.62-8.19c.72-2.73,1.3-5.51,1.78-8.3s.86-5.73,1.16-8.62c.13-1.23.26-2.47.36-3.7s.19-2.59.31-3.88a48.24,48.24,0,0,1,1.17-7.46,31.58,31.58,0,0,1,1-3.3v0q4.49-3.06,9.17-5.8a130.57,130.57,0,0,1,13.39-6.69c0,.14-.08.28-.11.41a39.17,39.17,0,0,0-.78,3.85c-.41,2.6-.64,5.22-.81,7.84-.35,5.29-.35,10.59-.8,15.87a59.87,59.87,0,0,1-1.58,9.69s0,0,0,0c-.34,1.31-.73,2.6-1.19,3.86a.26.26,0,0,0,.14.33.26.26,0,0,0,.33-.14c.46-1.26.88-2.54,1.25-3.84s.64-2.53.9-3.8c.52-2.6.88-5.23,1.16-7.86.57-5.25.8-10.54,1.51-15.77.16-1.2.35-2.39.58-3.58s.51-2.43.82-3.63c.26-1,.53-1.89.82-2.83l.45-1.5a127.1,127.1,0,0,1,14.64-4.92c3.82-1,7.69-1.79,11.58-2.48a2.62,2.62,0,0,0,1.67-1,2.44,2.44,0,0,0,.47-1.81A2.52,2.52,0,0,0,1444.7,10.85Z"/><path class="cls-4" d="M1359.22,81.65v0Z"/><path class="cls-8" d="M-22.85,964.22a68.69,68.69,0,0,1,2.37,10.41,92.62,92.62,0,0,1,.85,9.91v0c.08,2.16.13,4.37.17,6.5l0,2c0,1.56.06,3.11.1,4.66,0,1.39.12,2.55.25,3.63a32.35,32.35,0,0,0,4.16,12.53,29,29,0,0,0,8.65,9.3,29.05,29.05,0,0,0,12.32,4.63,30,30,0,0,0,3,.26,1.15,1.15,0,0,0,.78,1.09,1.14,1.14,0,0,0,.41.07,1.31,1.31,0,0,0,.52-.11,1.19,1.19,0,0,0,.63-.69c0-.11.05-.22.08-.33a1.64,1.64,0,0,0,.51-.26,1,1,0,0,0,.34-.66,1,1,0,0,0-.24-.74,1.13,1.13,0,0,0-.27-.22l0-.13c.11-.83.16-1.66.19-2.45.07-1.57.12-3.15.15-4.73a83.82,83.82,0,0,0-.24-9.41,51,51,0,0,0-1.6-9.1A44.46,44.46,0,0,0,7.14,992,45.69,45.69,0,0,0,3,985.39a47,47,0,0,0-4.89-5.48,109.84,109.84,0,0,0-8.71-7.48l-.06,0-3.77-2.85c-2.8-1.8-5.61-3.58-8.42-5.37Z"/><path class="cls-8" d="M45.23,991c-7.38,1.54-14,5.61-20.15,9.78a1.42,1.42,0,0,0-.36,0,1.16,1.16,0,0,0-1,.57,1.2,1.2,0,0,0-.12.91,1.25,1.25,0,0,0,.54.7c1.79,1.2,3.57,2.44,5.34,3.68,2.9,2,5.91,4.14,9,6a45.09,45.09,0,0,0,14.88,6.28,34.88,34.88,0,0,0,6.75.65c.69,0,1.37,0,2-.06a43.65,43.65,0,0,0,8.81-1.46,96.74,96.74,0,0,0,16.39-6.55l2.49-1.19,3.07-1.48c1.82-.86,3.7-1.7,5.75-2.56l.55-.23,1.25-.52.47-.19a.68.68,0,0,0,.32-.25,77.21,77.21,0,0,1-16-3.46,79.49,79.49,0,0,1-8.17-3.2c-1.35-.62-2.69-1.28-4-2l-1.5-.81-1.71-.71a85.48,85.48,0,0,0-8.58-3.18,34.9,34.9,0,0,0-8.35-1.4c-.39,0-.79,0-1.19,0a32,32,0,0,0-6.5.7"/><path class="cls-8" d="M76.92,895l-.47.51c-.72.76-1.44,1.53-2.13,2.33s-1.62,1.94-2.43,3a62.79,62.79,0,0,0-4.28,6.56A61.55,61.55,0,0,0,61.71,922a56.72,56.72,0,0,0-1.87,15.5,43,43,0,0,0,.79,7.67,71.84,71.84,0,0,0,2.17,7.73l0,.1.13.39c.68,2.15,1.39,4.36,1.95,6.58a.44.44,0,0,0,0,.1,28,28,0,0,1,.94,7.2,17.28,17.28,0,0,1-.21,2.25.5.5,0,0,0,.16.46,1,1,0,0,0,.34.57.92.92,0,0,0,.62.22h.11a1.08,1.08,0,0,0,.64-.35c.5-.5,1-1,1.52-1.46,1.13-1.06,2.16-2,3.15-2.73,1.18-.93,2.41-1.81,3.47-2.54l1.81-1.27c1.73-1.18,3.51-2.41,5.16-3.74a28.16,28.16,0,0,0,8.7-11.28A24.91,24.91,0,0,0,93,940.64a28.84,28.84,0,0,0-.28-7.49,27.76,27.76,0,0,0-1.89-6.47,40.29,40.29,0,0,0-3-5.57c-.9-1.43-1.87-2.85-2.81-4.21-.75-1.1-1.51-2.21-2.24-3.34l-.15-.19c-.62-.84-1.2-1.7-1.75-2.59a31.43,31.43,0,0,1-2.8-5.63,21.75,21.75,0,0,1-.89-3,18.38,18.38,0,0,1-.42-3,15.26,15.26,0,0,1,.16-3.17c.06-.37.12-.73.21-1.09a1,1,0,0,0-.2.15"/><path class="cls-8" d="M109.86,956.5a.82.82,0,0,0-.81.81.77.77,0,0,0,.18.5,1.21,1.21,0,0,0,.3,1c.28.33.55.66.82,1a21.41,21.41,0,0,1,2.47,4.44c1.65,4.18,2.23,8.72,2.8,13.11.12.92.23,1.84.36,2.76a60.51,60.51,0,0,0,1.54,7.86,53.42,53.42,0,0,0,2.54,7.21,40.72,40.72,0,0,0,7.58,11.56,46.36,46.36,0,0,0,11.21,8.63,64.41,64.41,0,0,0,7.35,3.52,59.32,59.32,0,0,0,9.06,2.77c3.63.81,7.35,1.39,11,1.93l1.94.17h-.07c2.36.18,4.73.28,7.09.43s4.76.34,7.11.71a33.19,33.19,0,0,1,6.81,1.73,23.21,23.21,0,0,1,3.2,1.48c.35.2.7.41,1,.63a37,37,0,0,0-4-5.82,30.74,30.74,0,0,0-4.49-4.54c-2-1.67-4.09-3.2-6.14-4.68-1.34-1-2.72-2-4-3l0,0-.07-.06-.1-.07.09.06a44.47,44.47,0,0,1-3.72-3.21,33.27,33.27,0,0,1-3.46-4c-3.09-4.2-5.27-9-7.39-13.69-.33-.74-.67-1.48-1-2.22a59.57,59.57,0,0,0-3.66-6.85,53.68,53.68,0,0,0-4.41-6.08A49.67,49.67,0,0,0,140.17,965a50.35,50.35,0,0,0-13-6.09A58.56,58.56,0,0,0,110,956.5Z"/><path class="cls-8" d="M198.23,896.62l-.22.06c-1.19.32-2.39.64-3.57,1s-2.4.74-3.64,1.17a71.86,71.86,0,0,0-7,2.86A64.33,64.33,0,0,0,160.69,920a63.46,63.46,0,0,0-4.37,6.14c-1.28,2-2.47,4.08-3.52,5.92l-.46.8c-3,5.28-6.14,10.75-10.47,15.15l.11-.07a30,30,0,0,1-5.88,4.62l.13,0a30.19,30.19,0,0,1-3.38,1.64l-.13,0h0l-.16,0a1,1,0,0,0-1,.89,1,1,0,0,0,.22.77.89.89,0,0,0,.65.37,49.59,49.59,0,0,0,5.2.27c1.49,0,3-.06,4.55-.19a76.78,76.78,0,0,0,8.11-1.16,67.46,67.46,0,0,0,14.46-4.44,48.15,48.15,0,0,0,12.63-8,39.4,39.4,0,0,0,5.13-5.52,27.76,27.76,0,0,0,1.95-2.89,25.71,25.71,0,0,0,1.45-2.87,36.71,36.71,0,0,0,1.67-4.88c.43-1.58.83-3.31,1.27-5.45.19-1,.38-1.93.56-2.9.23-1.2.47-2.42.72-3.64v0c.18-1.11.35-2.23.57-3.34a35,35,0,0,1,1.54-5.79,20.46,20.46,0,0,1,2.74-5.11,18.26,18.26,0,0,1,2-2.26c.48-.44,1-.86,1.5-1.25a1.08,1.08,0,0,0-.19,0l-.13,0"/><path class="cls-8" d="M270.37,926.12A87,87,0,0,0,258.92,928a80.45,80.45,0,0,0-21.26,8.18c-4.5,2.45-8.87,5.28-13.1,8-3.2,2.07-6.51,4.21-9.85,6.17a96.52,96.52,0,0,1-9,4.7,65.16,65.16,0,0,1-9.58,3.47l-.1,0-1.68.41a1.51,1.51,0,0,0-.84-.3h-.16a1.3,1.3,0,0,0-.89.52,1.33,1.33,0,0,0,.25,1.85,93.79,93.79,0,0,0,9.94,6.25,78.08,78.08,0,0,0,10.56,4.78,66.6,66.6,0,0,0,11.33,3,56.29,56.29,0,0,0,9.68.82h.8a55.27,55.27,0,0,0,16.88-3,84,84,0,0,0,15-7c4.75-2.71,9.39-5.76,13.88-8.71,1.88-1.24,3.8-2.5,5.73-3.74q1.9-1.32,3.86-2.55c1.47-.93,3-1.82,4.46-2.71,1.33-.79,2.67-1.58,4-2.35,2.46-1.41,4.95-2.76,7.52-4a59.38,59.38,0,0,1,7.93-3.13,36.86,36.86,0,0,1,8.05-1.56c.69,0,1.37-.07,2.06-.07s1.29,0,1.94.07,1.34.13,2,.24a1.5,1.5,0,0,0-.28-.18c-2-1-4-1.91-5.89-2.73-1.73-.74-3.62-1.48-5.78-2.25-3.57-1.27-7.35-2.41-11.25-3.39a108.1,108.1,0,0,0-23.12-3.23c-1,0-1.92,0-2.88,0-3,0-6,.14-8.83.41"/><path class="cls-5" d="M51.73,990.28a32.39,32.39,0,0,0-6.52.7c-7.37,1.54-14,5.62-20.15,9.8a.68.68,0,0,0-.34-.08,1.19,1.19,0,0,0-1,.61,1.16,1.16,0,0,0-.13.93,1.22,1.22,0,0,0,.56.72c1.79,1.21,3.57,2.45,5.33,3.68l.11.08c2.55,1.79,5.72,4,8.88,6A45.35,45.35,0,0,0,53.28,1019l.38,0,.59,0a11.28,11.28,0,0,0,2.27-.22,5.74,5.74,0,0,0,1.14-.41,3,3,0,0,0,.55-.38,2.72,2.72,0,0,0,.39-.46,1.83,1.83,0,0,0,.23-.49,3.68,3.68,0,0,0,.12-.69,5,5,0,0,0-.13-1.1,3,3,0,0,0-.11-.39c0-.11-.09-.21-.14-.32a4.54,4.54,0,0,0-.49-.67,8,8,0,0,0-1.54-1.24c-.63-.4-1.23-.73-1.9-1.08l-.52-.27-1.18-.62c-.24-.14-.48-.28-.71-.43a3.55,3.55,0,0,1-.51-.38,1.3,1.3,0,0,1-.31-.41.59.59,0,0,1,0-.19.6.6,0,0,1,0-.19.77.77,0,0,1,.12-.24.83.83,0,0,1,.16-.17,2.14,2.14,0,0,1,.51-.3,6.57,6.57,0,0,1,.94-.3c.41-.09.83-.18,1.25-.25l.95-.16.84-.11a3.89,3.89,0,0,1,.59,0h.19a14.22,14.22,0,0,1,2.06.21c1.19.17,2.38.41,3.59.65l.82.15,1,.19a41.68,41.68,0,0,0,5.73.75h.66a11.6,11.6,0,0,0,2.41-.23,5.88,5.88,0,0,0,1.21-.45,3.77,3.77,0,0,0,.7-.49,3.24,3.24,0,0,0,.45-.53,3.69,3.69,0,0,0,.38-.81,2.58,2.58,0,0,0,.11-.59,3.41,3.41,0,0,0,0-.55,2.81,2.81,0,0,0-.25-.61,4.42,4.42,0,0,0-.51-.7,7.36,7.36,0,0,0-1.36-1.11,19.11,19.11,0,0,0-2.42-1.28l-1.16-.49-.47-.2-.1,0-.56-.24c-1.17-.48-2.34-.87-3.33-1.2l-.82-.26c-.76-.24-1.45-.46-2.12-.71a16.92,16.92,0,0,1-2.73-1.19,10.81,10.81,0,0,1-2.27-1.65A12.59,12.59,0,0,1,56.78,995c-.21-.27-.38-.48-.53-.71a3.07,3.07,0,0,1-.27-.46,2.35,2.35,0,0,1-.22-1c0-.16,0-.32,0-.48l0-.33a1.83,1.83,0,0,0,0-.45,1.66,1.66,0,0,0-.12-.31,2.37,2.37,0,0,0-.28-.4,3.92,3.92,0,0,0-.37-.34c-.7-.08-1.4-.14-2.07-.17l-1.19,0"/><path class="cls-5" d="M-8.91,983.83a3.39,3.39,0,0,0-.55,0,4.42,4.42,0,0,0-.85.28,4.88,4.88,0,0,0-.62.33c-.12.08-.24.16-.35.25a4.31,4.31,0,0,0-.7.77,5.64,5.64,0,0,0-.56,1.1,8.93,8.93,0,0,0-.46,2.08,19.21,19.21,0,0,0,0,3.21c.08.93.21,1.94.42,3.17s.42,2.19.65,3.28l.27,1.32.21,1.21c.1.57.22,1.13.35,1.7l0,.17c.14.66.28,1.31.38,2a11.28,11.28,0,0,1,.17,2,6.51,6.51,0,0,1-.26,1.85,4.9,4.9,0,0,1-.37.9,3.18,3.18,0,0,1-.23.4l-.06.08a.85.85,0,0,1-.1.14,2,2,0,0,1-1,.62,4.93,4.93,0,0,1-1.18.12,8.87,8.87,0,0,0-1.18.06,2.64,2.64,0,0,0-.56.17,2.92,2.92,0,0,0-.37.24,2.24,2.24,0,0,0-.33.36c.35.75.74,1.46,1.14,2.15a29.26,29.26,0,0,0,8.67,9.32,29.21,29.21,0,0,0,12.33,4.63,30.06,30.06,0,0,0,3,.26,1.09,1.09,0,0,0,.77,1.09,1.25,1.25,0,0,0,.42.08,1.26,1.26,0,0,0,.54-.13,1.2,1.2,0,0,0,.65-.71l0-.18,0-.14a1.3,1.3,0,0,0,.5-.25,1.06,1.06,0,0,0,.36-.69,1.08,1.08,0,0,0-.24-.77,1.3,1.3,0,0,0-.29-.22l0-.1a24.3,24.3,0,0,0,.2-2.45c.07-1.57.12-3.15.16-4.73a86.51,86.51,0,0,0-.25-9.41,51.28,51.28,0,0,0-1.6-9.11l0-.15c-.27-.74-.54-1.4-.83-2A11.86,11.86,0,0,0,8,995.66a5.66,5.66,0,0,0-.89-.84,3.33,3.33,0,0,0-.57-.3,3.37,3.37,0,0,0-.48-.12H5.92l-.4,0a3,3,0,0,0-.48.16,1.91,1.91,0,0,0-.41.26,2.42,2.42,0,0,0-.31.33,4.14,4.14,0,0,0-.38.76,9.16,9.16,0,0,0-.38,2c0,.2,0,.44-.06.68l0,.33c0,.31,0,.63-.07.94a7.31,7.31,0,0,1-.28,1.65.24.24,0,0,1-.15.16H2.92a.22.22,0,0,1-.12,0A5.72,5.72,0,0,1,1,1000.53,7.8,7.8,0,0,1-.27,999a18.45,18.45,0,0,1-1.83-3.9c-.16-.45-.32-.89-.47-1.34l-.27-.76c-.18-.55-.44-1.27-.73-2-.23-.54-.46-1.08-.68-1.63s-.48-1.14-.74-1.71a12,12,0,0,0-1.5-2.52,4.88,4.88,0,0,0-.92-.87A3.16,3.16,0,0,0-8,984a3.09,3.09,0,0,0-.65-.16h-.22"/><path class="cls-5" d="M76.23,916.31h-.17a3.06,3.06,0,0,0-.69.18,4.73,4.73,0,0,0-.93.53,7.87,7.87,0,0,0-.71.55c-.18.17-.35.35-.51.53a7.63,7.63,0,0,0-.48.68c-.14.23-.27.48-.39.72a15.49,15.49,0,0,0-1,3.71l-.18,1.13c-.12.76-.25,1.52-.41,2.27a12.43,12.43,0,0,1-1,3.14,7.42,7.42,0,0,1-.88,1.36,5.88,5.88,0,0,1-1.13,1,3.37,3.37,0,0,1-.79.45,2.37,2.37,0,0,1-.58.15l-.36,0h-.26c-.26,0-.51,0-.77,0H64a3.37,3.37,0,0,0-.44.07l-.29.08L63,933a2.07,2.07,0,0,0-.25.15,2.78,2.78,0,0,0-.45.37l-.23.25a5.25,5.25,0,0,0-.48.81,6.62,6.62,0,0,0-.48,1.59,19.22,19.22,0,0,0,0,4.91l0,.21c.06.6.12,1.24.21,1.88.13,1.07.32,2.15.46,3L62,947l.14.71c.27,1.42.57,3,.78,4.56.07.53.13,1.07.18,1.61.6,1.88,1.27,4,1.8,6.1l0,.1a29.21,29.21,0,0,1,.92,7.19,18.35,18.35,0,0,1-.21,2.25.56.56,0,0,0,.17.49.9.9,0,0,0,.34.57,1.06,1.06,0,0,0,.65.24h.11a1,1,0,0,0,.67-.37c.5-.49,1-1,1.52-1.45,1.15-1.08,2.19-2,3.15-2.73,1.21-1,2.43-1.82,3.46-2.54.6-.43,1.21-.85,1.81-1.26l.15-.1c1.6-1.11,3.41-2.36,5-3.65a28.06,28.06,0,0,0,8.7-11.3c.13-.31.24-.61.35-.92q.12-1.17.18-2.34c.08-1.24.11-2.39.1-3.54a33.51,33.51,0,0,0-.15-3.39,18.19,18.19,0,0,0-.28-1.93,10.24,10.24,0,0,0-.43-1.54,4.57,4.57,0,0,0-.5-1,3.39,3.39,0,0,0-.39-.44,2.59,2.59,0,0,0-.31-.19l-.31-.11-.26,0h-.12a1.82,1.82,0,0,0-.54.13,3.86,3.86,0,0,0-.89.5,5.2,5.2,0,0,0-.63.51,6.9,6.9,0,0,0-.54.53,3.42,3.42,0,0,0-.34.58,8.59,8.59,0,0,0-.5,1.46c-.12.48-.23,1-.33,1.43l0,.23-.05.19c-.12.55-.23,1-.36,1.47a8.33,8.33,0,0,1-.54,1.43,3.5,3.5,0,0,1-.39.63,2.11,2.11,0,0,1-.41.43,2.74,2.74,0,0,1-.49.29,1.74,1.74,0,0,1-.57.11h-.11a2.73,2.73,0,0,1-1.22-.31,2.41,2.41,0,0,1-.86-.72,4.2,4.2,0,0,1-.48-.78,6.76,6.76,0,0,1-.33-.89,12.6,12.6,0,0,1-.44-2.29,36.39,36.39,0,0,1-.09-5.46c0-1.14.13-2.28.21-3.43l.11-1.62c0-.58.08-1.16.08-1.73,0-.2,0-.41,0-.61v-.28c0-.36,0-.71-.08-1.07-.08-.81-.19-1.53-.32-2.2a12.38,12.38,0,0,0-.56-2.05,5.59,5.59,0,0,0-.67-1.3,3.56,3.56,0,0,0-.46-.49,1.78,1.78,0,0,0-.42-.27,2.22,2.22,0,0,0-.39-.12,1.73,1.73,0,0,0-.32,0"/><path class="cls-5" d="M180.65,917.37a3.57,3.57,0,0,0-.47,0,3.76,3.76,0,0,0-.86.28,6.92,6.92,0,0,0-1.36.9,14.59,14.59,0,0,0-1.93,2c-.69.84-1.32,1.72-1.85,2.47l-.69,1-.74,1c-.43.61-.89,1.25-1.38,1.86a8.74,8.74,0,0,1-1.27,1.33,2.86,2.86,0,0,1-.57.4,7.55,7.55,0,0,1-1.05.44,4.5,4.5,0,0,1-1.4.23l-.51,0a3.73,3.73,0,0,1-1.46-.58,9.56,9.56,0,0,1-1.2-1,11.44,11.44,0,0,0-1.07-.91,4.29,4.29,0,0,0-.71-.39,2.59,2.59,0,0,0-.55-.13h-.23a2.28,2.28,0,0,0-.45,0,3.59,3.59,0,0,0-.89.3,8.81,8.81,0,0,0-1.84,1.22c-.43.37-.77.68-1.1,1a52.24,52.24,0,0,0-5.37,6.57c-.85,1.17-1.79,2.46-2.78,3.69-.52.65-1,1.27-1.55,1.83a47.14,47.14,0,0,1-5.53,6.94H142a34.83,34.83,0,0,1-5.92,4.56h.15c-1.23.61-2.37,1.15-3.39,1.57l-.11,0-.17,0a1.1,1.1,0,0,0-1,.93,1.15,1.15,0,0,0,.23.8,1.1,1.1,0,0,0,.69.39c1.72.17,3.47.26,5.2.26,1.44,0,3-.06,4.55-.19a79.05,79.05,0,0,0,8.12-1.15,67.73,67.73,0,0,0,14.46-4.46,48.09,48.09,0,0,0,12.65-8c.84-.74,1.64-1.52,2.38-2.3l0-.11a2,2,0,0,0,0-.35l-.09-.27-.12-.18a2.83,2.83,0,0,0-.25-.24,2.56,2.56,0,0,0-.47-.23,5,5,0,0,0-1.17-.24l-.73,0c-.25,0-.51,0-.76,0l-.5.07a12.55,12.55,0,0,0-1.37.33c-.54.15-1.07.31-1.6.48l-1.61.52-.23.08-1.63.52c-.54.17-1.08.34-1.62.49s-.92.23-1.38.32a5.12,5.12,0,0,1-.93.11h-.11a1.86,1.86,0,0,1-.39-.05.71.71,0,0,1-.28-.16.54.54,0,0,1-.18-.36.86.86,0,0,1,.07-.41,3.71,3.71,0,0,1,.31-.53,6.42,6.42,0,0,1,.53-.64,25.27,25.27,0,0,1,2-1.93c.32-.27.64-.54,1-.8l.8-.63.46-.35,1.27-1c1.36-1.08,2.48-2,3.51-2.85,1.59-1.35,2.89-2.52,4.07-3.7a30.41,30.41,0,0,0,3.39-3.89,11.75,11.75,0,0,0,1.41-2.53,5.25,5.25,0,0,0,.3-1.3,4.16,4.16,0,0,0,0-.76,2.48,2.48,0,0,0-.58-1.22,4.42,4.42,0,0,0-.66-.6,4.14,4.14,0,0,0-.72-.38,3.51,3.51,0,0,0-.66-.16h-.22"/><path class="cls-5" d="M110,956.46h-.18a.86.86,0,0,0-.86.84.82.82,0,0,0,.2.54,1.13,1.13,0,0,0,.3,1c.28.32.55.66.82,1a21.67,21.67,0,0,1,2.47,4.42c1.65,4.2,2.23,8.71,2.78,13.07l.11.87.12.9.14,1a63.14,63.14,0,0,0,1.54,7.87,53.69,53.69,0,0,0,2.55,7.22c.73,1.18,1.44,2.22,2.17,3.18a25.76,25.76,0,0,0,2.68,3,10.93,10.93,0,0,0,2.24,1.65,5.37,5.37,0,0,0,1.35.51,4,4,0,0,0,.85.1h.13a3.64,3.64,0,0,0,.85-.16,3.28,3.28,0,0,0,.79-.36,5.57,5.57,0,0,0,1-.87l.28-.33a2.3,2.3,0,0,0,.21-.33,3.66,3.66,0,0,0,.3-.83,6.37,6.37,0,0,0,.08-1.35,17.83,17.83,0,0,0-.67-3.68l-.27-1-.26-.94c-.15-.56-.29-1.13-.41-1.7a7.34,7.34,0,0,1-.18-1.52,2.42,2.42,0,0,1,0-.62,2.06,2.06,0,0,1,.13-.47,1.85,1.85,0,0,1,.28-.44,1.31,1.31,0,0,1,.36-.27,1.76,1.76,0,0,1,.54-.17,2.6,2.6,0,0,1,.4,0h.18a3.37,3.37,0,0,1,1.46.51,7.71,7.71,0,0,1,1.53,1.22,19.32,19.32,0,0,1,1.58,1.81c.52.67,1.05,1.4,1.6,2.22,1.14,1.71,2.18,3.46,3.06,5l.69,1.18c.66,1.13,1.31,2.26,2,3.37a22,22,0,0,0,1.28,1.91,7.89,7.89,0,0,0,.65.76c.35.36.71.72,1.08,1.07a19.19,19.19,0,0,0,4,3,7.79,7.79,0,0,0,1.87.72,4.4,4.4,0,0,0,.83.09l.11,0a2.47,2.47,0,0,0,.64-.09,3,3,0,0,0,.5-.23,2.26,2.26,0,0,0,.46-.38,3.38,3.38,0,0,0,.49-.69,6,6,0,0,0,.47-1.32,11.55,11.55,0,0,0,.25-2.79,9.73,9.73,0,0,0-.15-1.37c-.08-.41-.18-.83-.31-1.29a15.71,15.71,0,0,0-1.69-3.59,46.84,46.84,0,0,0-4.47-5.78c-.88-1-1.76-2.06-2.58-3.11-.46-.59-1.06-1.38-1.59-2.21a17.24,17.24,0,0,1-1.23-2.23,11.26,11.26,0,0,1-.76-2.3,9.88,9.88,0,0,1-.18-2.3.19.19,0,0,1,.09-.16.25.25,0,0,1,.16,0,5.76,5.76,0,0,1,2.37.6,17.27,17.27,0,0,1,2.43,1.47c.5.35,1,.72,1.49,1.09l.88.66a16.69,16.69,0,0,0,2.09,1.37,4.08,4.08,0,0,0,1,.38,1.78,1.78,0,0,0,.44,0,1.24,1.24,0,0,0,.37-.06,1.08,1.08,0,0,0,.24-.11l.26-.21a3.72,3.72,0,0,0,.31-.46,4.65,4.65,0,0,0,.4-1.18,8.67,8.67,0,0,0,.15-.87c-.66-1.25-1.32-2.41-2-3.56a54.79,54.79,0,0,0-4.42-6.09A49.49,49.49,0,0,0,140.19,965a50,50,0,0,0-13-6.1A58.41,58.41,0,0,0,110,956.46"/><path class="cls-5" d="M241.23,934.28h0c-1.19.59-2.39,1.22-3.57,1.87-4.45,2.42-8.75,5.2-12.92,7.9l-.19.12-.16.11-.12.07c-2.77,1.79-6.21,4-9.56,6a99.9,99.9,0,0,1-9,4.7,65.8,65.8,0,0,1-9.57,3.47l-.11,0-.12,0c-.53.15-1,.27-1.55.39a1.35,1.35,0,0,0-.83-.3h-.17a1.38,1.38,0,0,0-1.18,1.56,1.36,1.36,0,0,0,.53.88,92,92,0,0,0,9.94,6.25,75.69,75.69,0,0,0,10.57,4.78,65.34,65.34,0,0,0,11.34,3.06,56.29,56.29,0,0,0,9.68.83h.8a52.59,52.59,0,0,0,12.66-1.77,4.51,4.51,0,0,0-.74-.46,23.64,23.64,0,0,0-2.79-1.22c-1-.38-2.1-.75-3.33-1.12-2.15-.66-4.09-1.18-5.93-1.59-.31-.07-.68-.15-1-.21l-.12,0-.11,0-.13,0h-.16a.27.27,0,0,1-.23-.08.26.26,0,0,1,0-.24.27.27,0,0,1,.13-.14,8.72,8.72,0,0,1,3.58-1.7,27,27,0,0,1,4.61-.62c.69-.05,1.39-.08,2.07-.12,1,0,1.91-.09,2.85-.16a22.43,22.43,0,0,0,4.47-.72,8.93,8.93,0,0,0,1.9-.83,6.13,6.13,0,0,0,1.16-.94,3.63,3.63,0,0,0,.41-.53,4.86,4.86,0,0,0,.33-.54,4.65,4.65,0,0,0,.46-1.2,3,3,0,0,0,.06-.57,2.46,2.46,0,0,0-.08-.39,2.43,2.43,0,0,0-.16-.37,2.83,2.83,0,0,0-.32-.37,4.47,4.47,0,0,0-.74-.51c-.35-.18-.68-.31-1-.45l-.09,0-.81-.34a3.33,3.33,0,0,1-.78-.44,1.45,1.45,0,0,1-.47-.54,1.26,1.26,0,0,1-.06-.77,1.86,1.86,0,0,1,.19-.47,3,3,0,0,1,.31-.48,8.71,8.71,0,0,1,1.21-1.25c.23-.21.46-.41.71-.6s.38-.28.58-.4a10.6,10.6,0,0,1,1.88-.92,20.66,20.66,0,0,1,2.17-.67,46.12,46.12,0,0,1,5.07-.87l1.22-.16.65-.08c1.19-.14,2.38-.28,3.56-.46a36.1,36.1,0,0,0,5.16-1.09,15,15,0,0,0,3.45-1.5,9.46,9.46,0,0,0,1.78-1.45,8.53,8.53,0,0,0,1.15-1.62,8.66,8.66,0,0,0,.74-2.06,6.88,6.88,0,0,0,.17-1.73,5,5,0,0,0-.19-1,4,4,0,0,0-.36-.79,4.44,4.44,0,0,0-.61-.75,5.14,5.14,0,0,0-1-.69,7.87,7.87,0,0,0-2-.71,16.82,16.82,0,0,0-3.53-.33c-.37,0-.73,0-1.09,0a38.34,38.34,0,0,0-4.42.46c-.62.11-1.25.22-1.87.35l-.66.15-.12,0c-.46.11-.92.24-1.38.38-.82.24-1.66.53-2.5.82l-.32.12c-1,.33-1.92.66-2.9,1a24.6,24.6,0,0,1-3,.75,13.9,13.9,0,0,1-2.58.26h-.22a8.91,8.91,0,0,1-1.5-.14,7.67,7.67,0,0,1-1.23-.33,6,6,0,0,1-1.16-.55,6.07,6.07,0,0,1-.94-.75,7.45,7.45,0,0,1-.9-1c-.22-.28-.42-.57-.63-.86l-.09-.12a12.75,12.75,0,0,0-1.51-1.86,5.3,5.3,0,0,0-.51-.41l-.5-.32a4.77,4.77,0,0,0-.81-.33c-.2-.07-.39-.12-.59-.17l-.22,0h0"/><polygon class="cls-6" points="253.79 959.59 253.79 959.59 253.78 959.58 253.79 959.59"/><path class="cls-6" d="M311.55,934.46a106.41,106.41,0,0,0-10.71.57c-3.7.38-7.37,1-11,1.72-1.05.21-2.09.46-3.13.69l.64-.56c.68-.62,1.35-1.26,2-1.87a24.81,24.81,0,0,1,4.19-3.17c.42-.24.85-.47,1.28-.68s.95-.42,1.43-.6a.25.25,0,0,0,.13-.33.24.24,0,0,0-.23-.15.15.15,0,0,0-.09,0,21.66,21.66,0,0,0-3.2,1.49,27.45,27.45,0,0,0-2.88,1.89q-1.35,1-2.64,2.1c-.85.72-1.67,1.47-2.45,2.26l-1,.26h-.47a.47.47,0,0,0-.37.21c-4.58,1.14-9.11,2.45-13.62,3.84-6,1.85-11.9,3.87-17.86,5.81.8-.65,1.57-1.33,2.32-2,1.64-1.52,3.18-3.15,4.76-4.73s3.18-3.11,4.88-4.54a42,42,0,0,1,5.56-4h0q1.28-.75,2.61-1.38a.32.32,0,0,0,.17-.42.33.33,0,0,0-.29-.19.24.24,0,0,0-.12,0,43,43,0,0,0-6.58,3.88,68.69,68.69,0,0,0-5.8,4.69c-1.85,1.65-3.68,3.32-5.54,5s-3.8,3.37-5.78,4.95c-6.71,2.13-13.47,4.06-20.35,5.53q-4.2.87-8.45,1.49a1.88,1.88,0,0,1,.16-.23,22.07,22.07,0,0,1,1.73-2,48,48,0,0,1,10.08-7.27,62.72,62.72,0,0,0,10.36-7,.25.25,0,0,0,0-.35.25.25,0,0,0-.2-.1.22.22,0,0,0-.15.06,37.8,37.8,0,0,1-6.2,4.36l0,0c-3.41,2-6.95,3.76-10.26,5.91a24.25,24.25,0,0,0-7.32,6.87c-2.87.37-5.75.65-8.64.79-1.59.08-3.18.1-4.78.09-1.75,0-3.5-.12-5.25-.19q-5.49-.23-11-.56h0c-14.69-.92-29.4-2.36-44.12-2.9,1.05-.5,2.08-1,3.1-1.59a52.06,52.06,0,0,0,10.81-8.22h0a20.15,20.15,0,0,0,3-.65,21.08,21.08,0,0,0,3.11-1.26,36.19,36.19,0,0,0,5.37-3.25c1.74-1.24,3.39-2.58,5.07-3.87a61.53,61.53,0,0,1,5.4-3.79.25.25,0,0,0,.07-.35.26.26,0,0,0-.21-.11.25.25,0,0,0-.14,0c-1.27.77-2.52,1.59-3.75,2.44s-2.36,1.68-3.55,2.51a51,51,0,0,1-7.1,4.42,26.38,26.38,0,0,1-5.2,1.78,102,102,0,0,0,6.7-8c2.7-3.5,5.16-7.19,7.74-10.79h.1a19.84,19.84,0,0,0,3-1.49c1-.59,1.87-1.25,2.77-1.93s1.78-1.4,2.64-2.13,1.8-1.49,2.73-2.21a.24.24,0,0,0,.07-.34.26.26,0,0,0-.21-.12.28.28,0,0,0-.13,0c-.88.68-1.77,1.34-2.68,2s-1.85,1.28-2.8,1.89a43.24,43.24,0,0,1-4,2.25c4.21-5.83,8.54-11.59,13.78-16.55a.38.38,0,0,0-.06-.54.35.35,0,0,0-.23-.09.46.46,0,0,0-.31.15,118.27,118.27,0,0,0-9.4,10.11c-1.47,1.76-2.9,3.54-4.32,5.34q.12-.45.21-.9c.34-1.6.6-3.21,1-4.78a15.75,15.75,0,0,1,.65-1.9,12.13,12.13,0,0,1,2.3-3.68.24.24,0,0,0-.19-.4.28.28,0,0,0-.2.09,16.51,16.51,0,0,0-1.16,1.46,16.29,16.29,0,0,0-.88,1.44,19.27,19.27,0,0,0-1.36,3.3c-.35,1.08-.63,2.16-.9,3.25s-.58,2.3-.9,3.45c-.07.25-.16.5-.24.75l-2.64,3.34q-3.23,4.05-6.6,8c-1.51,1.74-3.1,3.42-4.71,5.06a33.74,33.74,0,0,0,1.1-3.26c.42-1.51.73-3.06,1.05-4.61s.7-3.09,1.13-4.61a35,35,0,0,1,1.23-3.62.32.32,0,0,0-.17-.43.31.31,0,0,0-.13,0,.34.34,0,0,0-.31.2c-.69,1.7-1.3,3.44-1.85,5.2s-1,3.35-1.59,5-1.13,3.3-1.79,4.91a37.66,37.66,0,0,1-2.34,4.72h0v0h0l0,0h0l0,0c-1.33,1.18-2.68,2.32-4.11,3.38a50.88,50.88,0,0,1-6.22,3.93,53.35,53.35,0,0,1-6.23,2.76,69,69,0,0,1-6.65,2c-4,0-8,.09-12.07.3a153.62,153.62,0,0,0-33.73,5.48,126.09,126.09,0,0,0-16.36,5.9c.31-.62.61-1.24.89-1.87l1.05-.81,1.68-1.29c1.13-.85,2.26-1.7,3.36-2.59a38.27,38.27,0,0,0,3-2.7c.47-.48.91-1,1.33-1.51s.78-1,1.14-1.5a20.86,20.86,0,0,0,1.7-3,32.56,32.56,0,0,0,1.28-3.27c.8-2.36,1.42-4.76,2.19-7.12a.33.33,0,0,0-.22-.39H87.5a.31.31,0,0,0-.3.23c-.45,1.4-.88,2.82-1.34,4.22s-.9,2.72-1.47,4l0,0a28.17,28.17,0,0,1-1.31,2.64,22.11,22.11,0,0,1-1.78,2.6c-.32.39-.64.77-1,1.13s-.81.78-1.23,1.16c-.86.76-1.76,1.46-2.68,2.14l.08-.06c-1.18.87-2.39,1.71-3.57,2.58l-.64.49c.35-1,.69-2,1-3,.41-1.39.77-2.78,1.08-4.19a58.37,58.37,0,0,0,1-7.2A20.89,20.89,0,0,0,77,943.35a26.38,26.38,0,0,0,1.35-2.78A36.52,36.52,0,0,0,80.07,935c.47-1.92.82-3.88,1.24-5.82a44.89,44.89,0,0,1,1.71-6,.3.3,0,0,0-.2-.36h-.08a.31.31,0,0,0-.28.21,70.75,70.75,0,0,0-2.3,8.2,50.89,50.89,0,0,1-2.38,8c-.37.83-.77,1.64-1.21,2.42a17.22,17.22,0,0,1-1,1.52,49.88,49.88,0,0,0-.31-7.53c-.36-3.14-.9-6.27-1.37-9.4a.35.35,0,0,0,0-.24,5.84,5.84,0,0,0-.22-.82l-.15-1.15a12.86,12.86,0,0,0,1-2.72c.28-1.05.47-2.14.65-3.21s.36-2.18.6-3.26a18,18,0,0,1,1-3.3l.12-.27a.38.38,0,0,0,0-.26.37.37,0,0,0-.15-.2.47.47,0,0,0-.17,0,.29.29,0,0,0-.28.16,20.46,20.46,0,0,0-1.11,3c-.32,1.11-.55,2.25-.8,3.38s-.5,2.25-.81,3.35c-.12.41-.25.82-.39,1.22a50.4,50.4,0,0,1-.36-7.37h0A31.29,31.29,0,0,1,74.14,907a24.87,24.87,0,0,1,.84-2.38.32.32,0,0,0-.31-.43.26.26,0,0,0-.25.18,29.54,29.54,0,0,0-2,8.64,50,50,0,0,0,.11,8.74c0,.4.08.81.12,1.21-.21-.27-.42-.52-.64-.77-1-1.09-2.07-2.08-3-3.17h0A13.34,13.34,0,0,1,68,918a9.25,9.25,0,0,1-.73-1.21v0l0,0v0a8.64,8.64,0,0,1-.43-1.1.24.24,0,0,0-.24-.16h-.08a.25.25,0,0,0-.15.32,9.83,9.83,0,0,0,1.19,2.49,21.38,21.38,0,0,0,1.73,2.22c.6.7,1.23,1.39,1.8,2.12a15,15,0,0,1,1.48,2.3l0,0,0,0,0,.09a.56.56,0,0,0,0-.08,6.74,6.74,0,0,1,.3.74c.2,1.67.41,3.34.59,5a76.33,76.33,0,0,1,.53,8.94c0,.36,0,.72,0,1.08v.14c0,.84-.12,1.69-.21,2.53a15.88,15.88,0,0,0-1.13-1.86A34.81,34.81,0,0,0,70,938.42l.09.11c-.51-.58-1.05-1.14-1.56-1.72s-1.08-1.28-1.58-1.95a16.06,16.06,0,0,1-1.41-2.28,14.28,14.28,0,0,1-1.09-3.1.27.27,0,0,0-.27-.19l-.09,0a.28.28,0,0,0-.17.35,15.64,15.64,0,0,0,.63,2.12,17.57,17.57,0,0,0,.91,2c.35.64.72,1.25,1.12,1.85s.83,1.16,1.26,1.73.84,1.14,1.28,1.7.87,1.12,1.28,1.7a30.37,30.37,0,0,1,2.17,3.53q.34.69.63,1.41a.78.78,0,0,0,.17.26c-.06.35-.12.71-.19,1.06a63.49,63.49,0,0,1-1.51,6.23c0,.16-.1.31-.14.47l.09-.32a55.08,55.08,0,0,1-1.92,5.31l-.09-.33a19.85,19.85,0,0,0-1.17-2.57c-.42-.81-.93-1.57-1.42-2.34s-1-1.52-1.38-2.32a14.46,14.46,0,0,1-.92-2.33.31.31,0,0,0-.3-.22l-.1,0a.3.3,0,0,0-.19.39c.13.49.29,1,.46,1.44s.41,1,.63,1.49c.44,1,.9,1.92,1.37,2.86,0,0,0,0,0,0,.41.84.83,1.67,1.2,2.53a14.39,14.39,0,0,1,.89,2.84c0,.23.08.46.11.7a51.05,51.05,0,0,1-2.53,4.8c-.32.53-.68,1-1,1.56l-.22.35c-1.62.79-3.24,1.61-4.83,2.46a126,126,0,0,0-36.75,29.69q-1.82,2.18-3.53,4.41c-1.27,1.65-2.46,3.36-3.65,5.06-2.22,3.18-4.58,6.27-7,9.26-1.66,2-3.4,4-5.17,5.91a35.69,35.69,0,0,0-.13-3.58c-.11-1.21-.29-2.41-.5-3.61.15-.23.3-.46.44-.7a13.65,13.65,0,0,0,.9-2,19.48,19.48,0,0,0,1-4.18c.1-.68.16-1.36.21-2s0-1.51.06-2.26c0-1.54,0-3.08.09-4.62a.26.26,0,0,0-.26-.24h0a.26.26,0,0,0-.24.27c-.07,1.49-.14,3-.25,4.47-.08,1.06-.21,2.13-.38,3.19a17.76,17.76,0,0,1-.81,3.27,15.44,15.44,0,0,1-.79,1.77c-.13.25-.28.5-.43.76-.25-1.16-.53-2.31-.85-3.45-.69-2.46-1.55-4.87-2.47-7.26a12,12,0,0,0,.54-1.63,13.21,13.21,0,0,0,.4-3.12,29.69,29.69,0,0,0-.76-6h0a28.24,28.24,0,0,1-.64-5.72.27.27,0,0,0-.26-.24h0a.26.26,0,0,0-.23.27,28,28,0,0,0,.07,2.9c.07,1,.18,2,.29,3s.21,2,.27,2.94a21.44,21.44,0,0,1,0,2.89,14.06,14.06,0,0,1-.49,2.65c-1.15-2.83-2.46-5.6-3.81-8.34-.6-1.2-1.23-2.39-1.84-3.59a16.17,16.17,0,0,0,.17-2.2,15.91,15.91,0,0,0-.25-2.48c-.14-.78-.32-1.56-.5-2.33s-.41-1.73-.57-2.6a20.4,20.4,0,0,1-.3-2.2.26.26,0,0,0-.25-.24h0a.26.26,0,0,0-.24.27,26,26,0,0,0,.38,2.75c.17.87.36,1.74.53,2.62h0c.14.75.26,1.51.34,2.27a15.21,15.21,0,0,1,0,2.24h0v0c0,.14,0,.28-.06.42-.23-.44-.45-.9-.69-1.35l0,.06c-1.33-2.51-2.68-5-4.08-7.5-1.29-2.31-2.61-4.59-3.95-6.86a.27.27,0,0,0-.24-.13.38.38,0,0,0-.19.05.32.32,0,0,0-.07.44q1.72,3,3.33,6l-.05-.08c1.14,2.14,2.23,4.3,3.25,6.5.57,1.24,1.12,2.5,1.65,3.76l-.24-.2a16.83,16.83,0,0,1-1.5-1.43c-.58-.64-1.13-1.32-1.67-2s-1.12-1.46-1.67-2.2a26.64,26.64,0,0,0-3.62-4.1.23.23,0,0,0-.16-.06.25.25,0,0,0-.19.09.25.25,0,0,0,0,.35c.31.28.61.56.89.86a48.86,48.86,0,0,1,4.1,5.69,23.54,23.54,0,0,0,2.21,2.77,9.2,9.2,0,0,0,2.49,1.9c.23.57.47,1.13.69,1.7,1,2.44,1.78,4.93,2.55,7.43.52,1.67,1,3.35,1.41,5-.35-.18-.7-.35-1-.56l.09.06-.11-.07h0a21.37,21.37,0,0,1-3.94-3.41c-1-1.13-2-2.31-3.07-3.46a26.88,26.88,0,0,0-3.38-3.28.28.28,0,0,0-.16,0,.25.25,0,0,0-.19.09.26.26,0,0,0,0,.35,17.28,17.28,0,0,1,1.83,1.69h0c1.77,1.92,3.18,4.14,4.87,6.13.43.51.89,1,1.36,1.46a12.93,12.93,0,0,0,1.51,1.26,10.91,10.91,0,0,0,1.74,1c.27.12.56.23.84.33.07.26.14.52.2.78.66,2.95,1.17,5.94,1.56,8.94-.34-.18-.68-.38-1-.58-.85-.54-1.66-1.14-2.46-1.76s-1.73-1.39-2.59-2.09-1.64-1.34-2.48-2a28.1,28.1,0,0,0-2.66-1.79.18.18,0,0,0-.1,0,.25.25,0,0,0-.23.14.25.25,0,0,0,.12.34l.35.21,0,0,0,0h0A24.85,24.85,0,0,1-9,1011.59c1,.91,2,1.89,3,2.82.48.44,1,.89,1.45,1.31s1.09.87,1.66,1.27a16.78,16.78,0,0,0,1.78,1.07l.2.09.06.46c.2,1.84.36,3.69.45,5.54.09,1.55.1,3.1.15,4.65-1.79,1.78-3.61,3.54-5.48,5.24a149.16,149.16,0,0,1-30.95,21.13c-3.52,1.79-7.08,3.47-10.67,5.12a2,2,0,0,0-1,.94,1.94,1.94,0,0,0-.09,1.46,1.9,1.9,0,0,0,2.4,1.13c4.44-1.62,8.75-3.54,13-5.59q6.11-3,11.88-6.5a129.33,129.33,0,0,0,20.7-15.92,159.18,159.18,0,0,0,17.68-20c1.37-1.79,2.69-3.62,4-5.43,1.45-2,3-3.9,4.52-5.79.66-.79,1.33-1.57,2-2.34,1.48-.33,3-.59,4.47-.8.48.55,1,1.08,1.51,1.58a21,21,0,0,0,2,1.66c.66.51,1.36,1,2.07,1.42s1.41.85,2.14,1.24c1.46.79,3,1.49,4.48,2.21s3.23,1.59,4.78,2.49a.33.33,0,0,0,.34-.56c-1.35-.79-2.73-1.54-4.11-2.28s-2.69-1.45-4-2.21l.11.06c-1.2-.7-2.39-1.42-3.52-2.24-.6-.42-1.18-.88-1.75-1.35s-1.07-1-1.58-1.47c-.24-.25-.46-.51-.7-.77l.9-.09a58.87,58.87,0,0,1,7.63-.17c1.28.06,2.56.15,3.83.26a34.7,34.7,0,0,0,4.27,3.86,46.61,46.61,0,0,0,5,3.32,56.24,56.24,0,0,0,5.4,2.65c2,.88,4,1.71,6,2.56a.38.38,0,0,0,.49-.19.37.37,0,0,0-.2-.49,86.82,86.82,0,0,1-9.44-4.63c-.92-.54-1.82-1.09-2.71-1.67s-1.84-1.29-2.73-2a46.75,46.75,0,0,1-3.59-3.15c3.16.36,6.32.85,9.45,1.4s6.45,1.19,9.67,1.78l.27.23a8.19,8.19,0,0,0,.83.58,16.2,16.2,0,0,0,1.73,1,25.06,25.06,0,0,0,3.85,1.43c1.32.4,2.65.78,4,1.19.64.2,1.28.41,1.91.63s1.37.53,2,.84a.31.31,0,0,0,.4-.17.3.3,0,0,0-.16-.39c-1-.48-2.06-.91-3.11-1.31s-2.19-.76-3.29-1.14a38.59,38.59,0,0,1-5.55-2.34l3.61.59a80.21,80.21,0,0,0,16.23,1.07.52.52,0,0,0,.47-.56.53.53,0,0,0-.57-.47c-1.4.07-2.79.06-4.19,0a96.86,96.86,0,0,1-15.52-2.21l-1.42-.3,1-.26c.67-.19,1.32-.44,2-.67s1.36-.48,2-.67a11.09,11.09,0,0,1,2.68-.42c.21,0,.41,0,.61,0a.26.26,0,0,0,.28-.22.24.24,0,0,0-.21-.28c-.29,0-.57,0-.86,0a13.9,13.9,0,0,0-1.81.13,24.65,24.65,0,0,0-2.81.6c-.94.24-1.87.48-2.81.69a14.16,14.16,0,0,1-2.89.34h-.22a.75.75,0,0,0-.26.05c-3.79-.84-7.58-1.72-11.39-2.49-1.6-.33-3.2-.63-4.81-.9.23-.11.45-.22.69-.32a20.56,20.56,0,0,1,2.44-.82c1.52-.42,3.06-.71,4.59-1.07a21.86,21.86,0,0,0,4.55-1.5.33.33,0,0,0,.17-.43.34.34,0,0,0-.31-.2.25.25,0,0,0-.12,0,13.1,13.1,0,0,1-2.26.85,25.88,25.88,0,0,1-3,.58c-1.09.17-2.19.3-3.29.46a18.1,18.1,0,0,0-3.15.77,7.53,7.53,0,0,0-1.41.66c-.21.12-.41.25-.62.39l-.32.28a76.52,76.52,0,0,0-8.69-.84c-.61,0-1.21,0-1.82,0s-1,0-1.52.05A30.36,30.36,0,0,1,40.72,996c.86-.31,1.71-.61,2.56-.94a19.07,19.07,0,0,0,2.53-1.23.35.35,0,0,0,.17-.17.36.36,0,0,0,0-.25.35.35,0,0,0-.29-.19l-.12,0a19.07,19.07,0,0,1-4.5,1.74c-1.4.39-2.81.76-4.17,1.29a12.64,12.64,0,0,0-1.85.9c-.3.18-.58.37-.85.57a5.59,5.59,0,0,0-.52.45c-.63,0-1.26.1-1.88.18l-.65.11q2-2.15,4.17-4.22,1.55-1.49,3.13-2.91a125.87,125.87,0,0,1,41-24.59,128.19,128.19,0,0,1,17.39-5c4.53-.92,9.1-1.61,13.7-2.11l.18,0a27.48,27.48,0,0,1,3.9.88,32.71,32.71,0,0,1,3.27,1.3l.24.24a13.48,13.48,0,0,1,1.79,2.64,24.67,24.67,0,0,1,1.82,5.75c.35,1.79.52,3.6.69,5.41.11,1.13.23,2.26.32,3.39s.2,2.34.32,3.5a53,53,0,0,0,1.12,6.63,32.08,32.08,0,0,0,2.43,6.69.39.39,0,0,0,.48.23.38.38,0,0,0,.23-.48A26.26,26.26,0,0,1,126,992.3c-.35-1.13-.64-2.28-.88-3.44a57.32,57.32,0,0,1-.91-8.27c-.08-1.43-.13-2.85-.16-4.28,0-1.2-.08-2.4-.17-3.6a28.43,28.43,0,0,0-1.25-6.85,15.54,15.54,0,0,0-.84-2c.21.13.44.26.65.4a43.4,43.4,0,0,1,8,6.89,68,68,0,0,1,4.58,5.73c1,1.36,1.87,2.76,2.75,4.18a.77.77,0,0,0,0,.45c.18.6.33,1.21.45,1.82a25.57,25.57,0,0,1,.41,3.38c.08,1.26.09,2.51.12,3.78s.08,2.56.22,3.83a24.46,24.46,0,0,0,.69,3.61,24.89,24.89,0,0,0,1.07,3c.42,1,.91,2,1.41,2.93,1,2,2.11,3.85,3.1,5.8v0c.49,1,1,2,1.39,3a.3.3,0,0,0,.57-.19c-.91-2.24-2-4.37-3.12-6.52a.35.35,0,0,0,0,.08c-.68-1.34-1.32-2.7-1.88-4.11-.29-.73-.55-1.47-.78-2.23s-.41-1.49-.57-2.25c-.12-.59-.23-1.18-.3-1.79s-.12-1.46-.15-2.2c0-1.39,0-2.8.06-4.19a31.05,31.05,0,0,0-.1-3.86c.87,1.45,1.73,2.9,2.58,4.37.65,1.11,1.29,2.22,2,3.32s1.41,2.2,2.17,3.26a57.21,57.21,0,0,0,4.88,5.88,56,56,0,0,0,4.87,4.51,5.66,5.66,0,0,0,.45,1.62,10.7,10.7,0,0,0,1,1.84,14.05,14.05,0,0,0,1.17,1.5c.47.54,1,1.06,1.48,1.56s1,.89,1.46,1.32l1.64,1.37c.53.46,1.08.92,1.6,1.4s1,1,1.46,1.46a18.74,18.74,0,0,1,2,2.68.23.23,0,0,0,.34.06.26.26,0,0,0,.07-.35,22.24,22.24,0,0,0-2.44-3.27c-.46-.53-.93-1.05-1.4-1.57s-1-1-1.45-1.57l0,0-1.5-1.68c-.52-.59-1.05-1.18-1.54-1.79a21.08,21.08,0,0,1-1.72-2.48,79.91,79.91,0,0,0,10.36,6.49,144.26,144.26,0,0,0,13.2,6.05.36.36,0,0,0,.3-.65,109.64,109.64,0,0,1-17.68-8.91,74.51,74.51,0,0,1-6.56-4.76l-.78-.67h.24a30.61,30.61,0,0,1,4.25.8c.71.18,1.42.36,2.14.52a22.61,22.61,0,0,0,2.3.41.25.25,0,0,0,.11-.49c-.42-.06-.82-.13-1.23-.22s-.82-.22-1.23-.34c-.88-.25-1.75-.55-2.62-.84a27.17,27.17,0,0,0-2.63-.76c-.41-.1-.82-.16-1.23-.22a8.42,8.42,0,0,0-1-.07h-.37l-.06,0c-1.29-1.18-2.54-2.41-3.73-3.7l.05,0-.06-.07-.06-.07,0,0a51.82,51.82,0,0,1-4.59-5.85c-1.45-2.16-2.68-4.45-3.92-6.73s-2.32-4.33-3.51-6.48l.25.07q1.09.33,2.16.72c.91.34,1.8.71,2.69,1.08l3,1.24a38.65,38.65,0,0,0,6,2.12.26.26,0,0,0,.3-.19.26.26,0,0,0-.19-.3,22.82,22.82,0,0,1-2.23-.68h0a35.19,35.19,0,0,1-3.39-1.49c-1.11-.55-2.18-1.16-3.27-1.73a35.63,35.63,0,0,0-3.31-1.55,18.17,18.17,0,0,0-2.88-.91c-1-1.72-2-3.43-3.11-5.11a51.41,51.41,0,0,0-9.81-11.49l-.46-.37.81.27.06,0h0c.72.27,1.43.57,2.15.87l2.27,1c.74.31,1.49.58,2.25.83a15.86,15.86,0,0,0,2.32.61.35.35,0,1,0,.16-.69,14.15,14.15,0,0,1-2-.55,26.54,26.54,0,0,1-2.81-1.31l-1.48-.8c-.5-.27-1-.52-1.5-.77a16.64,16.64,0,0,0-3.13-1.18,10.1,10.1,0,0,0-1.63-.28h-.12a38.7,38.7,0,0,0-3.44-2.07c-.52-.28-1.06-.53-1.6-.79,1.84-.1,3.67-.18,5.51-.24,9.37-.28,18.76.13,28.12.69,11.26.68,22.51,1.58,33.79,1.91,5.63.17,11.27.2,16.89-.09A111.83,111.83,0,0,0,215.73,960a1,1,0,0,0,.51.17c.41,0,.82,0,1.23.1a18.71,18.71,0,0,1,3.53.92c1.25.46,2.47,1,3.71,1.5.61.25,1.22.51,1.84.74s1.27.47,1.91.68c1.41.47,2.85.85,4.3,1.18s2.77.54,4.16.75,2.85.37,4.28.51c3,.27,5.91.36,8.86.4a.25.25,0,1,0,0-.5,87.28,87.28,0,0,1-9.69-.66,44.49,44.49,0,0,1-5.72-1.13c-1-.26-1.89-.55-2.82-.85s-1.9-.69-2.84-1.08l0,0c-2.06-.87-4-2.05-6-3a19.61,19.61,0,0,0-2-.77c3.74-.79,7.44-1.79,11.11-2.85,4.67-1.36,9.28-2.94,13.86-4.56l.35-.13c1.11-.12,2.21-.21,3.33-.25s2.48,0,3.73,0,2.51.12,3.77.21,2.54.2,3.8.33c2.54.26,5.07.54,7.61.79a62.55,62.55,0,0,0,7.5.33.25.25,0,0,0,.25-.25.25.25,0,0,0-.25-.25,50.91,50.91,0,0,1-7.6-.52h0l-2.7-.42c-1-.16-1.92-.32-2.87-.5-1.91-.35-3.82-.68-5.74-.95a49.47,49.47,0,0,0-5.44-.46c7.26-2.62,14.5-5.29,21.85-7.66q4.86-1.56,9.81-2.84a19.8,19.8,0,0,1,2,.15,62.91,62.91,0,0,1,6.92,1.56,34.38,34.38,0,0,0,3.47.7,15.77,15.77,0,0,0,3.43.14.25.25,0,0,0,.25-.25.25.25,0,0,0-.25-.25q-.68,0-1.35,0a13.94,13.94,0,0,1-1.45-.12h0a23.1,23.1,0,0,1-3.28-.71c-1.09-.3-2.17-.66-3.25-1a28.21,28.21,0,0,0-3.86-.94c1.27-.31,2.54-.6,3.82-.87,3.43-.71,6.89-1.29,10.37-1.7a94.74,94.74,0,0,1,11.29-.66C312,935.08,312,934.46,311.55,934.46Z"/><path class="cls-6" d="M74,940.69v0Z"/><path class="cls-6" d="M153.32,1001.59l0-.06,0,0Z"/><polygon class="cls-6" points="72.58 924.91 72.58 924.92 72.58 924.91 72.58 924.91"/><path class="cls-6" d="M67.3,916.74l0,0v0Z"/><path class="cls-5" d="M203.89,26.21c.6.68,1.19,1.38,1.73,2.06A50.73,50.73,0,0,1,214,43.38a35,35,0,0,1,1.23,4.39,30.65,30.65,0,0,1,.56,4.52,21.66,21.66,0,0,1-.13,3.69,20.18,20.18,0,0,1-.84,3.79,17.21,17.21,0,0,1-1.54,3.33A16.85,16.85,0,0,1,211,65.93a14.76,14.76,0,0,1-2.4,2,19,19,0,0,1-3.26,1.85,23.7,23.7,0,0,1-3.76,1.26,24.85,24.85,0,0,1-3.78.59,34,34,0,0,1-4.59.11,45.57,45.57,0,0,1-9.74-1.57A81.19,81.19,0,0,1,175,67.4c-2.53-1-5.18-2.11-8.12-3.47s-5.52-2.69-8.29-4.12-5.45-2.88-8-4.31-5-2.8-7.34-4.18l-.67-.39-.33-.19c-8-4.6-16.23-9.35-24.64-13.48l-.36-.18a112.48,112.48,0,0,0-27.86-9.86h0a73.27,73.27,0,0,0-15.72-1.31.2.2,0,0,1,.14.09.48.48,0,0,1,.12.35.54.54,0,0,1-.19.36.43.43,0,0,1-.32.09l-1.92-.29-1.65-.2-.46-.06H69.2l-.26,0-.55.06-.56.06a.27.27,0,0,1-.24-.09.29.29,0,0,1-.07-.2c-.8-.08-1.62-.17-2.43-.27a.71.71,0,0,1-.51-.24.72.72,0,0,1-.19-.55.63.63,0,0,1,0-.19,1.7,1.7,0,0,1,.18-2.34c3.37-2.43,6-4.24,8.54-5.86,2.71-1.72,5.53-3.36,8.39-4.87A101.57,101.57,0,0,1,98.91,4.46a93.6,93.6,0,0,1,18-3.69c3.33-.34,6.61-.53,9.72-.58s6.22,0,9.65.29a152.71,152.71,0,0,1,20.75,3,136.77,136.77,0,0,1,21.52,6,83.64,83.64,0,0,1,10.25,4.75,60.29,60.29,0,0,1,8.92,6,55.68,55.68,0,0,1,6.21,5.93"/><path class="cls-9" d="M203.92,26.18c.54.61,1.12,1.3,1.73,2.06a52.88,52.88,0,0,1,6.26,10A54,54,0,0,1,214,43.36a36.28,36.28,0,0,1,1.22,4.4,30.22,30.22,0,0,1,.57,4.53,21.66,21.66,0,0,1-.13,3.69,20,20,0,0,1-.84,3.8,17.23,17.23,0,0,1-1.55,3.33A16,16,0,0,1,211.07,66a12.78,12.78,0,0,1-1.57,1.43c.21-.47.39-.86.53-1.24a7.56,7.56,0,0,0,.48-2.79,7.41,7.41,0,0,0-.15-1.44,8.58,8.58,0,0,0-.4-1.32,10.19,10.19,0,0,0-1.6-2.73L208,57.4a14.3,14.3,0,0,0-2.26-2.06,18.36,18.36,0,0,0-1.86-1.25c-.22-.13-.44-.26-.67-.38-.4-.2-.81-.38-1.22-.57-1.13-.49-2.28-1-3.42-1.43l-.33-.14c-1.63-.66-3.24-1.32-4.86-2-2-.85-3.69-1.57-5.21-2.26-1.82-.83-3.33-1.57-4.77-2.34-.88-.48-1.67-.94-2.34-1.39a11.49,11.49,0,0,1-1.75-1.34q-.16-.15-.33-.33c-.11-.13-.22-.27-.32-.41a3.65,3.65,0,0,1-.22-.46,1.85,1.85,0,0,1,0-.23.75.75,0,0,1,0-.22.73.73,0,0,1,.07-.19,1.37,1.37,0,0,1,.15-.21,2,2,0,0,1,.38-.31,4.57,4.57,0,0,1,1-.45,11,11,0,0,1,1.5-.35c.32-.06.63-.11,1-.15s.64-.08,1-.09a19.6,19.6,0,0,1,2.87.23l.32,0,.16,0,1,.13c.44,0,.89.08,1.33.08a6.59,6.59,0,0,0,1.31-.1,4.14,4.14,0,0,0,1.17-.37,3.65,3.65,0,0,0,.93-.7,3.76,3.76,0,0,0,.68-1,6.17,6.17,0,0,0,.49-1.63,4,4,0,0,0,.08-.83,5.46,5.46,0,0,0,0-.57,5.28,5.28,0,0,0-.35-1.29,7.16,7.16,0,0,0-.6-1.12,9.6,9.6,0,0,0-.89-1.14,14.18,14.18,0,0,0-1.23-1.22,25.88,25.88,0,0,0-2.67-2c-.93-.62-1.95-1.23-3.19-1.94l-.69-.39-.69-.39c-.58-.33-1.16-.66-1.76-1a40.31,40.31,0,0,0-4.33-1.86c-1.48-.52-3-1-4.45-1.36-3.1-.8-6.27-1.38-9-1.86l-1-.18-.13,0c-2.6-.46-5.28-.94-7.89-1.53a52.09,52.09,0,0,1-6-1.75c-1.07-.38-2-.77-2.91-1.18s-1.56-.75-2.35-1.17c-.54-.3-1.06-.59-1.59-.94a8.35,8.35,0,0,1-1-.74l-.15-.16a2.09,2.09,0,0,1-.14-.17c0-.07-.06-.13-.08-.19v-.12l0-.12a1.37,1.37,0,0,1,.19-.17,3.26,3.26,0,0,1,.5-.21,11.52,11.52,0,0,1,1.37-.3l.65-.11,1-.17c.48-.09,1-.18,1.4-.31a4.34,4.34,0,0,0,1.1-.47,1.3,1.3,0,0,0,.56-.72,1.32,1.32,0,0,0-.2-1,2.93,2.93,0,0,0-.46-.62,5.06,5.06,0,0,0-.7-.68c-.36-.31-.72-.59-1.09-.86-.58-.4-1-.69-1.43-.94A28,28,0,0,0,136.27.83c-.7-.18-1.41-.34-2.12-.49.69,0,1.38,0,2.09.09a156,156,0,0,1,20.76,3,135.92,135.92,0,0,1,21.52,6,81.73,81.73,0,0,1,10.25,4.75,60.23,60.23,0,0,1,8.94,6,54.87,54.87,0,0,1,6.21,5.93"/><path class="cls-6" d="M203.87,36.54a.44.44,0,0,1,.06.51.46.46,0,0,1-.28.23.42.42,0,0,1-.33,0,25.72,25.72,0,0,0-4.4-2.06,37.45,37.45,0,0,0-9.21-2l.19,0c-1.67-.11-3.28-.18-5.07-.22a77.29,77.29,0,0,1,11.48,8,65.13,65.13,0,0,1,6.51,6.34A61.6,61.6,0,0,1,208,54a.41.41,0,0,1-.1.58.47.47,0,0,1-.64,0c-.92-1.37-1.91-2.73-2.94-4q-.78-.94-1.59-1.86a62.08,62.08,0,0,0-9.5-8.62,73.43,73.43,0,0,0-6.88-4.48,20.36,20.36,0,0,1,1.83,1.86l.3.34c.81.92,1.58,1.9,2.31,2.9a45.82,45.82,0,0,1,6.64,13,31.21,31.21,0,0,1,1.52,9.06.28.28,0,0,1-.27.28.27.27,0,0,1-.21-.09.36.36,0,0,1-.07-.17,25.88,25.88,0,0,0-.29-3.57,33.46,33.46,0,0,0-2.45-8,42.18,42.18,0,0,0-2.45-4.64,38.72,38.72,0,0,0-3.09-4.39c-.4-.49-.81-1-1.22-1.44-1-1.16-2.16-2.3-3.32-3.37a59.4,59.4,0,0,0-4.91-4L180.3,33l-.16-.11-.12-.08a3,3,0,0,0-.43-.29l-.18-.15a.76.76,0,0,1-.19-.45c-1.53-.69-3.09-1.36-4.63-2-3-1.19-6-2.23-8.83-3.08-2.46-.74-5-1.42-7.73-2.07a37.77,37.77,0,0,1,3.22,3.13c.17.19.35.38.51.57a56.28,56.28,0,0,1,5.16,6.85c.78,1.2,1.58,2.5,2.44,4s1.63,3,2.21,4.13c1.4,2.73,2.72,5.61,3.94,8.55.63,1.51,1.29,3.18,2.08,5.27a.4.4,0,0,1-.2.53.42.42,0,0,1-.47-.09.31.31,0,0,1,0-.1c-1.18-3.12-2.47-6.16-3.83-9-.68-1.45-1.43-2.91-2.22-4.35-.7-1.27-1.5-2.6-2.52-4.19-.68-1.05-1.45-2.17-2.35-3.39s-1.79-2.29-2.68-3.34c-.31-.38-.63-.74-1-1.11A66.58,66.58,0,0,0,157.14,27c-1.17-1-2.5-2.12-4-3.32-5.05-1-10.38-1.84-16.3-2.51h.06c-2.48-.25-4.72-.45-6.85-.61a11.25,11.25,0,0,1,1.14.7,48.28,48.28,0,0,1,6.24,5.07c1.07,1,2,1.93,2.75,2.8,1.06,1.22,1.91,2.22,2.66,3.16.4.51.8,1,1.18,1.53l1.24,1.68c.91,1.26,1.6,2.28,2.2,3.21a60.6,60.6,0,0,1,3.84,7,.27.27,0,0,1-.11.37.28.28,0,0,1-.38,0,49.08,49.08,0,0,0-3.1-5.55,49.62,49.62,0,0,0-4.58-6,50.64,50.64,0,0,0-3.93-4l-.31-.28-.59-.53a66.1,66.1,0,0,0-6-4.75,53.18,53.18,0,0,0-6.6-3.93c-.56-.28-1.11-.56-1.68-.81-2.72-.12-5.5-.2-8.28-.23-3.43,0-6.93,0-10.42.16a35.59,35.59,0,0,1,4,2.46,50.23,50.23,0,0,1,4.74,3.8c1.55,1.38,3,2.89,4.31,4.32a.39.39,0,0,1,0,.53.39.39,0,0,1-.53,0c-.69-.74-1.48-1.51-2.43-2.37a53.24,53.24,0,0,0-4.6-3.66,40.35,40.35,0,0,0-5-3,30.49,30.49,0,0,0-4-1.63l-.73-.22c-1.88.11-3.77.25-5.61.41-4.25.36-8.51.87-12.65,1.51l-.16,0c-3.13.5-5.93,1-8.49,1.58-2,.44-4.09,1-6.78,1.71-2.46.67-4.86,1.34-7.21,2.06a2.49,2.49,0,0,1-2.6-.75A2.39,2.39,0,0,1,57,26a2.51,2.51,0,0,1,1.68-3.11l.93-.29c1.86-.58,3.78-1.17,5.73-1.7,2.12-.58,4.4-1.13,6.75-1.64,2.69-.58,5.59-1.11,8.86-1.62,5-.78,10.2-1.33,15.85-1.67a34.33,34.33,0,0,1,4.07-2.54c.72-.39,1.44-.74,2.31-1.15s1.66-.76,2.51-1.11,1.54-.6,2.31-.88c.95-.35,1.82-.65,2.69-.94,1.81-.62,3.57-1.16,5-1.61a.49.49,0,0,1,.49.13.46.46,0,0,1,.09.17.46.46,0,0,1-.3.58c-1.83.56-3.47,1.11-5,1.68-.8.29-1.6.6-2.39.94s-1.55.68-2.37,1.07l-.06,0h0l-.1.05.08-.06c-.74.37-1.49.75-2.22,1.15s-1.56.9-2.2,1.3-1.08.69-1.6,1.06a194.63,194.63,0,0,1,23.56.24c1.56-.74,3.27-1.45,5.08-2.1,1.23-.43,2.49-.82,3.32-1.07,1.09-.33,2.23-.64,3.38-.92a65.94,65.94,0,0,1,13.72-1.87.35.35,0,0,1,.27.11.35.35,0,0,1,.08.22.38.38,0,0,1-.09.24.3.3,0,0,1-.23.11,48.9,48.9,0,0,0-6.73.71l.1-.05c-1.63.33-3.07.65-4.41,1s-2.77.76-4.36,1.29a70.43,70.43,0,0,0-6.63,2.66c4.81.39,9.71,1,14.53,1.83,4.39.74,8.73,1.67,12.9,2.75A41,41,0,0,1,161,19.2a46.91,46.91,0,0,1,7.14-.88c1.1,0,2.18,0,3.56,0,1.17,0,2.35.09,3.5.2s2.46.33,3.48.53c1.19.22,2.34.5,3.45.81a.38.38,0,0,1,.17.11.29.29,0,0,1,.07.28.31.31,0,0,1-.39.25,29.84,29.84,0,0,0-5.36-1l.07,0a39.85,39.85,0,0,0-5.75-.06,53.41,53.41,0,0,0-5.76.77c-1.5.27-3.1.63-5,1.12q-1,.27-2.1.57c1.37.35,2.84.79,4.36,1.28a116.77,116.77,0,0,1,19,7.83l.58.31c.35-.05.71-.09,1.07-.11s.94,0,1.41,0c.87,0,1.79.06,3,.18a41.8,41.8,0,0,1,5.81,1,52.24,52.24,0,0,1,5.59,1.7,29.85,29.85,0,0,1,5,2.34l.13.1"/><path class="cls-5" d="M9,160H9L9,160a16.1,16.1,0,0,0,5.07,1.62,19.06,19.06,0,0,0,5.11.06,15.88,15.88,0,0,0,4-1,15,15,0,0,0,3.44-1.93,18.89,18.89,0,0,0,5.16-6.27,33.07,33.07,0,0,0,3-8.64,65.45,65.45,0,0,0,1.36-10.64,171.8,171.8,0,0,0-.87-24.82c-.41-4.22-.94-8.41-1.62-13.4-.63-4.64-1.37-9.32-2-13.36-.57-3.64-1.17-7.27-1.77-10.91-.74-4.43-1.49-9-2.19-13.54-.46-3-1-6.54-1.39-10-.27-2.32-.56-5.07-.62-7.88a26.08,26.08,0,0,1,.09-3.16h0l0-.18a1.48,1.48,0,0,0,.56-.9,1.54,1.54,0,0,0-.8-1.72,1.66,1.66,0,0,0-.37-.14,1.79,1.79,0,0,0-1.19.21,15.19,15.19,0,0,0-3.75,2.53,1.31,1.31,0,0,0-.39,1c-.78.76-1.51,1.53-2.19,2.27-1.13,1.26-2.24,2.61-3.37,4.13a72.85,72.85,0,0,0-5.84,9.4A87.84,87.84,0,0,0,4,62.68c-1.3,3.45-2.46,7-3.44,10.66A156.52,156.52,0,0,0-3.93,99.81a174.36,174.36,0,0,0-.76,27.24A87.33,87.33,0,0,0-2.82,141a40.14,40.14,0,0,0,4.25,11.44A19.33,19.33,0,0,0,9,160"/><path class="cls-9" d="M8.94,160h0L9,160a16.27,16.27,0,0,0,5.1,1.61,17.85,17.85,0,0,0,2.67.21,1.93,1.93,0,0,0-.24-.25l-.15-.14A10.29,10.29,0,0,1,15.1,160a12.18,12.18,0,0,1-1.76-3.49,20.69,20.69,0,0,1-.86-4.15,39.44,39.44,0,0,1-.21-4.65c0-1.48.1-3.08.23-4.88.1-1.37.22-2.74.34-4.11l0-.38c.15-1.71.3-3.48.4-5.22.06-1.09.12-2.67.07-4.24a21.54,21.54,0,0,0-.4-3.67,12.82,12.82,0,0,0-.42-1.51,15.64,15.64,0,0,0-.84-1.8c-.22-.42-.46-.85-.72-1.26a7.85,7.85,0,0,0-.64-.84,2.46,2.46,0,0,0-.39-.34l-.1,0a.52.52,0,0,0-.13-.06l-.12,0H9.44l-.13.05h0l-.17.11a1.87,1.87,0,0,0-.26.32,6.06,6.06,0,0,0-.41.81c-.13.32-.25.65-.35,1-.18.54-.34,1.12-.51,1.7l-.24.85a22.57,22.57,0,0,1-.86,2.51,6.7,6.7,0,0,1-.8,1.43,2.65,2.65,0,0,1-1,.89,2.59,2.59,0,0,1-.68.19,3.59,3.59,0,0,1-.72,0A2.4,2.4,0,0,1,2.5,129a1.92,1.92,0,0,1-.38-.25,3.41,3.41,0,0,1-.86-1.12A7.33,7.33,0,0,1,.71,126a15.63,15.63,0,0,1-.29-2c0-.76-.07-1.55,0-2.34a49.2,49.2,0,0,1,.35-5c.16-1.44.39-3,.67-4.62.18-1,.38-2.1.6-3.14.17-.81.35-1.54.55-2.23.3-1,.63-2.07,1-3.1l.25-.77c.38-1.18.75-2.37,1-3.6.16-.65.28-1.24.37-1.81a17.23,17.23,0,0,0,.19-1.83,12.33,12.33,0,0,0-.2-3,4.58,4.58,0,0,0-.22-.77,4.83,4.83,0,0,0-.23-.52,4.33,4.33,0,0,0-.39-.62c-.14-.19-.29-.36-.44-.53l-.27-.28-.08-.08a8.87,8.87,0,0,1-1.07-1.25,10.77,10.77,0,0,1-.68-1.25c-.26-.56-.49-1.08-.68-1.59A24.42,24.42,0,0,1-.41,78.78c0-.43-.06-.87-.08-1.31A161.77,161.77,0,0,0-4,99.81a174.39,174.39,0,0,0-.76,27.24A86.14,86.14,0,0,0-2.86,141,40.35,40.35,0,0,0,1.4,152.43,19.32,19.32,0,0,0,8.94,160"/><path class="cls-6" d="M16.8,154.34a.65.65,0,0,0,.47.06.7.7,0,0,0,.52-.83,168.75,168.75,0,0,1-3.19-19.51,24.62,24.62,0,0,0,1,2.6c.39.87.84,1.76,1.41,2.82a41.82,41.82,0,0,0,7.34,10h0c.17.09.27.09.35,0a.25.25,0,0,0,.09-.2.24.24,0,0,0-.07-.18A30.72,30.72,0,0,1,21,144.62a38.18,38.18,0,0,1-2.48-4.25,40.82,40.82,0,0,1-1.85-4.46l0-.08s0-.07-.05-.07c-.44-1.39-.83-2.68-1.18-3.93-.43-1.49-.79-2.88-1.1-4.25a.69.69,0,0,0-.35-.45c-.44-6.27-.58-13-.43-19.92,0-1,.06-2,.1-3.07a14.36,14.36,0,0,0,.6,1.78c.44,1.15,1,2.33,1.61,3.61s1.22,2.35,1.86,3.47c1.41,2.46,2.78,4.63,4.19,6.65A74.44,74.44,0,0,0,27,126h0c.21.11.31.07.36,0a.3.3,0,0,0,.1-.19.31.31,0,0,0-.07-.2,61.47,61.47,0,0,1-4.58-5.92,51,51,0,0,1-3.21-5.37,47.65,47.65,0,0,1-2.47-5.81c-1-2.92-1.95-6.06-2.7-8.58l-.48-1.64c.3-5.21.77-10.46,1.4-15.62a25.8,25.8,0,0,0,1,2.59,65.28,65.28,0,0,0,2.91,5.89c1.18,2.13,2.22,3.85,3.29,5.4a51.54,51.54,0,0,0,4,5.08.28.28,0,0,0,.1.09.38.38,0,0,0,.46-.58A44,44,0,0,1,23.77,97a50.59,50.59,0,0,1-3.39-5.78,56.21,56.21,0,0,1-2.59-6.24l0,.19c-.41-1.29-.83-2.57-1.26-3.85l-.37-1.13L15.8,79c.37-2.71.78-5.36,1.21-7.85.49-2.84,1-5.33,1.41-7.61a33,33,0,0,0,1.69,3.85A43.79,43.79,0,0,0,22.79,72,41.34,41.34,0,0,0,26,76.28l.12.1a.42.42,0,0,0,.48-.06.43.43,0,0,0,.15-.29.41.41,0,0,0-.11-.31A33.17,33.17,0,0,1,22.15,69a36.32,36.32,0,0,1-1.77-4.16c-.43-1.21-.81-2.5-1.14-3.81l-.17-.68.09-.42C19.87,56.6,20.73,53,21.79,49c.92-3.48,1.95-7,3.05-10.49.53-1.67,1.11-3.41,1.73-5.16.36-1,.73-2,1.11-3,.26-.68.51-1.34.75-2a2.34,2.34,0,0,0-1.19-2.81,2.13,2.13,0,0,0-.35-.14,2.35,2.35,0,0,0-1.82.18A2.46,2.46,0,0,0,23.94,27c-.52,1.45-1,2.95-1.46,4.41l-.06.17-.21.7c-.53,1.64-1,3.37-1.64,5.43-1,3.61-2,7.41-2.88,11.32-.61,2.72-1.18,5.5-1.7,8.27a23.74,23.74,0,0,0-3.24,3.48c-.49.63-1,1.27-1.41,1.93s-1,1.47-1.41,2.18a49.37,49.37,0,0,0-2.36,4.37c-.65,1.37-1.27,2.86-1.86,4.41a.43.43,0,0,0,.21.52.45.45,0,0,0,.59-.24C6.86,73,7.27,72,7.74,71A45.75,45.75,0,0,1,14,61.64c.49-.54,1-1.07,1.5-1.6-.78,4.21-1.44,8.59-2,13-.1.78-.19,1.58-.28,2.37A24,24,0,0,0,9.87,80C8.9,81.7,8,83.45,7.11,85.38c-.34.74-.64,1.49-.94,2.25l-.2.5c-.38,1-.72,1.91-1,2.81-.34,1-.61,2-.83,2.86s-.45,1.82-.68,2.89a.45.45,0,0,0,.2.52.52.52,0,0,0,.44,0A.35.35,0,0,0,4.28,97c.15-.71.33-1.41.55-2.14s.5-1.53.77-2.28.5-1.28.76-1.92l.07-.16c.3-.71.62-1.41,1-2.11l0-.12h0c.48-.9,1-1.82,1.54-2.77s1.22-2.07,1.84-3c.36-.57.75-1.14,1.13-1.7l.09-.14.9-1.36c-.66,6.26-1.08,12.49-1.26,18.51l0,1.22-.22.26-.25.31c-.16.2-.3.41-.44.62-.42.62-.76,1.22-1,1.62a32.58,32.58,0,0,0-1.61,3.29,60.36,60.36,0,0,0-2.49,7.07c-.37,1.27-.69,2.47-.95,3.58s-.53,2.39-.77,3.58c-.43,2.1-.82,4.39-1.2,7a.33.33,0,0,0,.18.3.21.21,0,0,0,.12,0,.32.32,0,0,0,.33-.29c.13-.89.28-1.78.45-2.66.27-1.37.6-2.81,1-4.28s.87-3,1.31-4.33,1-2.86,1.58-4.29c.51-1.27,1.12-2.6,1.9-4.2.54-1.07,1.12-2.17,1.78-3.34l.24-.43c-.11,6.51.05,13,.47,19.44.09,1.46.19,2.91.31,4.36-.32.65-.62,1.34-.92,2.1s-.56,1.58-.87,2.63c-.46,1.55-.86,3.27-1.28,5.4-.17.88-.33,1.77-.47,2.65s-.26,1.83-.37,2.75c-.22,1.81-.4,3.62-.54,5.52a.29.29,0,0,0,.15.26l.1,0a.27.27,0,0,0,.29-.25,68.72,68.72,0,0,1,1-7.52c.25-1.28.49-2.37.73-3.33.33-1.29.74-2.53,1-3.34.34-1,.75-2.09,1.25-3.28l.23-.53a182.35,182.35,0,0,0,3.76,24.19.7.7,0,0,0,.36.46"/><path class="cls-10" d="M162.61,188.35l-.05-.22v0h0v-.07h0v0h0v0a83.07,83.07,0,0,1-1.5-20.09c.55-11.78,3-23.51,5.44-34.84l.17-.81,0-.13c2.5-11.78,5.08-24,5.6-36.21a91.16,91.16,0,0,0-.88-17.6,97.33,97.33,0,0,0-3.07-13.52A89.55,89.55,0,0,0,157.1,41.29a94.55,94.55,0,0,0-16.89-19,111.27,111.27,0,0,0-10.07-7.7A116.89,116.89,0,0,0,119,7.86,137,137,0,0,0,69-6.92,146,146,0,0,0,54-7.7c-3.81,0-7.64.15-11.39.46A139.21,139.21,0,0,0,16.81-2.68l-1.87.53-.25.07a2.1,2.1,0,0,0-1.13-1.26,2.08,2.08,0,0,0-.88-.19,2.31,2.31,0,0,0-1.7.79,18,18,0,0,0-2.64,4.1A38.44,38.44,0,0,0,6.45,6.11C5.88,7.78,5.39,9.43,5,11c-.32,1.32-.57,2.64-.79,3.87a99,99,0,0,0-1.37,14.2A130.93,130.93,0,0,0,5.36,58.16,154.93,154.93,0,0,0,9.1,73.38c1.45,4.8,3.15,9.71,5,14.6a186.57,186.57,0,0,0,13.49,27.86,136.15,136.15,0,0,0,17.71,23.62A102,102,0,0,0,55.4,148.8a102.25,102.25,0,0,0,14.65,9.7,105.36,105.36,0,0,0,16.53,7.2,133.11,133.11,0,0,0,17.77,4.72c2.76.54,5.7,1,9,1.44,1.3.17,2.59.32,3.89.46,1.49.17,3,.34,4.48.54a94.78,94.78,0,0,1,13.94,2.8l.25.08a52.21,52.21,0,0,1,5.39,2c.51.23,1,.47,1.54.72l.18.07a47.24,47.24,0,0,1,7.23,3.59l0,0a72,72,0,0,1,9,6.48l.07.06a41.31,41.31,0,0,1,3.76,3.37l.56.58c-.4-1.38-.77-2.82-1.09-4.25m5.13-91.58,0,.2,0-.54c0,.11,0,.22,0,.34M143.33,31.1l.1.12-.66-.7.56.58"/><path class="cls-3" d="M163.71,192.62c-.38-1.37-.75-2.8-1.08-4.28l0-.22,0,.12,0-.11V188a81.88,81.88,0,0,1-1.5-20.08c.54-11.78,3-23.49,5.43-34.82l.17-.82,0-.14c2.5-11.78,5.08-24,5.6-36.21a90.49,90.49,0,0,0-.88-17.6c-.12-.78-.25-1.56-.39-2.35a.21.21,0,0,0,0-.06,6.22,6.22,0,0,0-1-1.06l0,0,0,0,0,0a4.83,4.83,0,0,0-.9-.53,4.27,4.27,0,0,0-.91-.26h.06A5.09,5.09,0,0,0,167,74h.06a7,7,0,0,0-1.68.41c-.23.09-.46.19-.68.3a5.94,5.94,0,0,0-.59.38l.06,0a5.51,5.51,0,0,0-1,1l0,0a7.81,7.81,0,0,0-1.06,1.81v0a20.43,20.43,0,0,0-1.3,5v0c-.25,1.63-.42,3.28-.6,4.92s-.34,3.16-.61,4.72a18.51,18.51,0,0,1-1.12,4.14,6.39,6.39,0,0,1-2,2.71,4.71,4.71,0,0,1-1.67.77,6.27,6.27,0,0,1-2.16.08,11.52,11.52,0,0,1-2.71-.71,8,8,0,0,1-1.51-.79,12.1,12.1,0,0,1-1.33-1,22.4,22.4,0,0,1-2.78-3.06c-.88-1.16-1.7-2.36-2.48-3.58s-1.55-2.45-2.32-3.68c-.67-1-1.33-2.1-2.07-3.1l.05,0-1.29-1.68L135,80.92q-1.29-1.65-2.61-3.27c-1.82-2.22-3.69-4.4-5.64-6.5s-4-4.12-6.14-6c-.94-.84-1.91-1.64-2.9-2.43l0,0A69,69,0,0,0,112,58.6a47.7,47.7,0,0,0-6.69-3.66l.06,0a21.27,21.27,0,0,0-5.07-1.56h.07a10.77,10.77,0,0,0-2.6-.1h.07a7.29,7.29,0,0,0-1.72.4h0a5.23,5.23,0,0,0-2.27,1.69l0-.05A7.3,7.3,0,0,0,93,56.9s0,0,0,0a12.1,12.1,0,0,0-.76,2.77v-.06a14.3,14.3,0,0,0-.18,1.85A13.65,13.65,0,0,0,92.12,63v-.07a12.18,12.18,0,0,0,.33,1.9c.15.57.33,1.12.53,1.67a23.15,23.15,0,0,0,2.89,5.07h0A68.89,68.89,0,0,0,102,78.51c1.09,1.12,2.19,2.23,3.25,3.38s2,2.14,2.86,3.28a21.94,21.94,0,0,1,3.27,5.38,11.81,11.81,0,0,1,.74,2.8,10.36,10.36,0,0,1,.09,1.47,10.55,10.55,0,0,1-.13,1.59,5.6,5.6,0,0,1-.43,1.5,4.85,4.85,0,0,1-.29.49,2.13,2.13,0,0,1-.33.34,1.8,1.8,0,0,1-.43.29,3.45,3.45,0,0,1-.42.14,3,3,0,0,1-1,0,12,12,0,0,1-2.36-.6,17.78,17.78,0,0,0-2.69-.72h0a6,6,0,0,0-1.52,0,3.85,3.85,0,0,0-.49.08,4.32,4.32,0,0,0-.51.16,3.17,3.17,0,0,0-.49.24,2.45,2.45,0,0,0-.38.24,4,4,0,0,0-.59.5c-.14.15-.29.31-.42.48v0a5.67,5.67,0,0,0-.45.64c-.12.21-.23.42-.34.63h0s0,0,0,0v0a5.35,5.35,0,0,0-.24.67,6.25,6.25,0,0,0-.17.72s0,0,0-.06a6.22,6.22,0,0,0-.08,1,8,8,0,0,0,0,1,12.74,12.74,0,0,0,.8,3,.08.08,0,0,0,0,0,33.62,33.62,0,0,0,2.27,4.53c.92,1.57,1.9,3.1,2.84,4.66a48,48,0,0,1,2.57,4.59,21.59,21.59,0,0,1,.92,2.22,12.11,12.11,0,0,1,.54,2.07,7.68,7.68,0,0,1,0,2.62,10.45,10.45,0,0,1-.63,2.11,5.66,5.66,0,0,1-2,2.59,4.46,4.46,0,0,1-1.36.59,5.38,5.38,0,0,1-1.55.16,10.62,10.62,0,0,1-3.6-.83,26.82,26.82,0,0,1-4.13-2.12c-1.56-1-3.06-2-4.52-3.14-3.27-2.49-6.35-5.21-9.37-8s-5.81-5.48-8.69-8.24c-1.19-1.14-2.39-2.28-3.61-3.4-.93-.86-1.88-1.71-2.88-2.49a.1.1,0,0,1,0,0c-.35-.28-.72-.56-1.1-.81l-.44-.26c-.38-.21-.78-.39-1.17-.56h0a14.15,14.15,0,0,0-3.29-1h0a6.54,6.54,0,0,0-1.53,0h0a3.85,3.85,0,0,0-.49.08l-.46.14a3.74,3.74,0,0,0-.45.22L57,103a5.19,5.19,0,0,0-.62.62h0a3.53,3.53,0,0,0-.37.55,6.27,6.27,0,0,0-.29.58,8,8,0,0,0-.31.94,11.55,11.55,0,0,0-.24,1.17s0,0,0-.06a13.68,13.68,0,0,0-.15,1.57c0,.41,0,.81,0,1.22v0a10.68,10.68,0,0,0,.34,1.86,17.62,17.62,0,0,0,.54,1.7h0v0a29.16,29.16,0,0,0,3.8,6.61l0-.05a66.54,66.54,0,0,0,6.91,7.81q1.65,1.62,3.37,3.18L71.46,132q.57.51,1.17,1h0c.73.57,1.47,1.11,2.22,1.65l2.71,1.91c2,1.38,3.94,2.79,5.82,4.29,1.07.85,2.12,1.74,3.11,2.68A23.5,23.5,0,0,1,89,146.25,11.72,11.72,0,0,1,90.62,149a8.23,8.23,0,0,1,.41,1.39,6,6,0,0,1,.07.61c0,.36.05.73,0,1.09a8.59,8.59,0,0,1-.08,1,3.27,3.27,0,0,1-.14.62,3.06,3.06,0,0,1-.22.49,2.06,2.06,0,0,1-.29.37,1.73,1.73,0,0,1-.84.43,2.48,2.48,0,0,1-.47,0,3.17,3.17,0,0,1-.53,0,7.16,7.16,0,0,1-1.29-.32c-.46-.15-.91-.32-1.37-.49a18.66,18.66,0,0,0-3.13-.89l.06,0a6.54,6.54,0,0,0-.89-.09,5.79,5.79,0,0,0-.72,0,8,8,0,0,0-1.37.32c-.39.12-.77.25-1.15.39l.06,0a7.92,7.92,0,0,0-1.82,1h0a4,4,0,0,0-.7.67,3.46,3.46,0,0,0-.32.52h0a.17.17,0,0,1,0,.05v0a3.28,3.28,0,0,0-.15.51v0a2.83,2.83,0,0,0,0,.65,3.52,3.52,0,0,0,.2.79v0h0a6.2,6.2,0,0,0,.8,1.39h0a13.61,13.61,0,0,0,1.43,1.6,23.44,23.44,0,0,0,1.86,1.6h0c.62.48,1.25,1,1.9,1.4,1.51.59,3.06,1.15,4.63,1.69a133.31,133.31,0,0,0,17.79,4.72c2.66.52,5.61,1,9,1.45l3.88.46.4,0c1.36.16,2.72.31,4.08.5a94.09,94.09,0,0,1,13.94,2.79l.25.07a52.42,52.42,0,0,1,5.38,2c.51.23,1,.46,1.55.71l.18.07a48.12,48.12,0,0,1,7.22,3.6,72.78,72.78,0,0,1,9.06,6.49,44,44,0,0,1,3.83,3.43l.37.39.19.2ZM75.93,156.08h0M55.11,109.64s0,0,0,0,0,0,0,0m44.73-10s0,0,0,0,0,0,0,0m62.35-21.8s0,0,0,0,0,0,0,0M93,56.88l0,0,0,0m3.09-3.17h0Z"/><path class="cls-4" d="M33.68,31.81l-.06-.08.06.07Z"/><path class="cls-4" d="M33.62,31.73a.76.76,0,0,0-.08-.11l0,.05Z"/><path class="cls-4" d="M3.32-13.46c.15.62.27,1.25.42,1.86s.33,1.23.51,1.84c.39,1.34.83,2.65,1.29,4,1,2.7,2,5.36,3.21,8A133.7,133.7,0,0,0,16.63,17,222.08,222.08,0,0,0,37.25,45c3.6,4.26,7.36,8.4,11.15,12.48s7.67,8.21,11.66,12.16q2.05,2,4.14,4c.1.37.19.75.27,1.12,0-.06,0-.12,0-.17l.06.28,0,.1s0-.05,0-.08a34.67,34.67,0,0,1,.5,8.39v0h0c-.35,5.34-1.56,10.58-2.45,15.84-.22,1.27-.42,2.53-.55,3.81-.17,1.49-.27,3-.34,4.48a81.54,81.54,0,0,0,.15,9.51c.1,1.26.26,2.52.42,3.78s.33,2.52.51,3.77c.36,2.5.83,5,1.36,7.44s1.12,5,1.76,7.43,1.37,4.91,2.11,7.35a.29.29,0,0,0,.29.22.34.34,0,0,0,.34-.44c-1.11-3.63-2.06-7.32-2.85-11a99.26,99.26,0,0,1-1.79-12c-.17-2-.23-4-.23-6.08s0-4.07.13-6.1a68.43,68.43,0,0,1,1-8.68c.49-2.61,1.1-5.19,1.69-7.77s1.2-5.39,1.57-8.13c.2-1.44.32-2.89.39-4.34a25.87,25.87,0,0,0-.12-3.94c0-.35-.11-.7-.16-1.05q2.64,2.42,5.31,4.79c4.59,4.06,9.27,8,13.9,12,3.78,3.31,7.58,6.6,11.34,9.94,1.36,1.21,2.69,2.45,4,3.68.25.82.49,1.64.68,2.47A27.78,27.78,0,0,1,104,117a79.19,79.19,0,0,1-1.27,8.81c-.26,1.52-.52,3-.71,4.57s-.31,3.18-.4,4.78a56.39,56.39,0,0,0,.21,9c.15,1.48.37,3,.59,4.42s.5,3,.79,4.46c.25,1.3.55,2.6.85,3.89s.67,2.85,1,4.28a.36.36,0,0,0,.34.23l.11,0a.36.36,0,0,0,.21-.45c-.34-1.36-.66-2.73-1-4.1h0c-.32-1.54-.6-3.08-.85-4.63s-.44-3.08-.57-4.64-.18-3.08-.22-4.63,0-3.15.09-4.72c.07-1.31.18-2.62.32-3.92s.39-2.76.64-4.13c.48-2.64,1.13-5.23,1.67-7.85a38.34,38.34,0,0,0,.94-8,17.21,17.21,0,0,0-.34-3.2c1.06,1,2.12,2,3.16,3.08a202.59,202.59,0,0,1,18.29,21.19c1.13,1.51,2.23,3,3.32,4.56l.06.11a.7.7,0,0,0,0,.29c.13,1.2.31,2.39.46,3.59s.3,2.51.43,3.78.24,2.39.35,3.59l.36,3.78c.11,1.2.25,2.4.39,3.59s.32,2.53.53,3.79.4,2.34.65,3.5.61,2.53,1,3.77a.28.28,0,0,0,.27.19h.09a.29.29,0,0,0,.17-.36c-.23-.82-.44-1.64-.62-2.48a48.52,48.52,0,0,1-.84-6.58c-.14-2.28-.16-4.57-.18-6.86s-.06-4.56-.24-6.83c-.09-1.14-.22-2.27-.4-3.39q5.1,7.36,9.74,15.05c2.42,4,4.73,8.07,7,12.16s4.47,8.26,6.59,12.45a.29.29,0,0,0,.26.16.33.33,0,0,0,.3-.48c-2.58-5.1-5.18-10.2-7.89-15.25s-5.5-10-8.41-14.88q-3.3-5.52-6.83-10.91c.71.3,1.42.58,2.13.85,1.59.61,3.21,1.18,4.8,1.79a58.34,58.34,0,0,1,5.55,2.44,38.15,38.15,0,0,1,5.38,3.32,36.94,36.94,0,0,1,5.25,4.75.32.32,0,0,0,.2.08.27.27,0,0,0,.21-.09.28.28,0,0,0,0-.4,46.08,46.08,0,0,0-6-5.48,48.25,48.25,0,0,0-6.11-3.9c-1.05-.57-2.12-1.11-3.19-1.63s-2.2-1.05-3.31-1.54c-2.16-1-4.35-1.89-6.59-2.64q-5.08-7.55-10.72-14.7-5.32-6.75-11.25-13c-.37-.38-.75-.75-1.11-1.13.28.06.57.12.86.16a41.92,41.92,0,0,0,7.92.33c2.53-.06,5.06,0,7.59.09s5,.27,7.49.53a65.12,65.12,0,0,1,16,3.69,51.49,51.49,0,0,1,4.85,2.2,38.79,38.79,0,0,1,4.74,3c.5.38,1,.76,1.47,1.16a.34.34,0,0,0,.21.08.27.27,0,0,0,.2-.09.29.29,0,0,0,0-.41,44.23,44.23,0,0,0-6.55-4.5,47.56,47.56,0,0,0-7.21-3.24,75.17,75.17,0,0,0-15.61-3.56c-3.14-.42-6.29-.7-9.44-.93-1.53-.11-3.06-.2-4.6-.3s-3.11-.2-4.66-.36a28.14,28.14,0,0,1-6.48-1.38l-.45-.2q-4-4-8.08-8c-4.41-4.24-8.91-8.39-13.4-12.55Q79,81.08,73.6,75.88a39.88,39.88,0,0,0,5.34.74,55.68,55.68,0,0,0,7.75,0c2.6-.15,5.17-.5,7.74-.88l-.4.06c3-.43,5.94-.78,8.92-1.14s5.9-.63,8.86-.83,5.84-.3,8.77-.27,5.75.19,8.61.48l.63.07h-.14a59.86,59.86,0,0,1,14.91,3.58A55,55,0,0,1,157,84.54q2,1.47,3.83,3.12a.45.45,0,0,0,.29.1.38.38,0,0,0,.29-.12.41.41,0,0,0,0-.57,60.94,60.94,0,0,0-7.46-5.72A55.76,55.76,0,0,0,146,77.16a65.25,65.25,0,0,0-16.5-4.63,80.88,80.88,0,0,0-8.65-.83c-2.92-.14-5.85-.17-8.77-.12s-5.91.22-8.86.39-6,.44-8.93.68c-1.18.09-2.36.2-3.55.28s-2.4.12-3.6.14a64.34,64.34,0,0,1-7.35-.3,64.23,64.23,0,0,1-7.53-1.36c-1.23-.29-2.48-.59-3.68-1l-1-.34c-7.79-7.64-15.27-15.6-22.35-23.9.86.17,1.73.31,2.6.41a35.63,35.63,0,0,0,5.37.22,34.81,34.81,0,0,0,5.19-.6,52.11,52.11,0,0,0,9.24-2.64c3-1.13,5.9-2.42,8.84-3.65a68.11,68.11,0,0,1,15.63-4.86c1.18-.17,2.37-.3,3.56-.37s2.37-.07,3.55-.06a67.87,67.87,0,0,1,6.83.43,82.11,82.11,0,0,1,20,5.05,98.42,98.42,0,0,1,22.24,12.2l0,0c1.32,1,2.61,2,3.87,3a.54.54,0,0,0,.35.14.44.44,0,0,0,.33-.15.47.47,0,0,0,0-.68,102.06,102.06,0,0,0-35-19,74.62,74.62,0,0,0-19.61-3.23,48.5,48.5,0,0,0-5,.11,43.81,43.81,0,0,0-5,.69,66.56,66.56,0,0,0-9.21,2.58c-3.72,1.28-7.37,2.76-11.11,4a70.71,70.71,0,0,1-11.63,3,36.13,36.13,0,0,1-8.38.09,40.69,40.69,0,0,1-6.56-1.29q-4-4.81-7.73-9.78l.19.25-.19-.26-.1-.13-.16-.21.12.16A217.2,217.2,0,0,1,20.82,12.69a145,145,0,0,1-10-20.07C9.83-9.89,9-12.46,8-15l.25.62-.11-.3A2.58,2.58,0,0,0,7-16.18a2.49,2.49,0,0,0-1.85-.27A2.51,2.51,0,0,0,3.32-13.46Z"/><path class="cls-4" d="M64.47,74.72l0,.13v0S64.48,74.76,64.47,74.72Z"/></g></svg>