<svg xmlns="http://www.w3.org/2000/svg" viewBox="0 0 375 667"><defs><style>.cls-1{fill:#e9fffd;}.cls-2{fill:#d4f9f4;}.cls-3{fill:#1caca5;}.cls-4{fill:#001524;}.cls-5{fill:#f26419;}.cls-6{fill:#78290f;}.cls-7{fill:#f381c7;}.cls-8{fill:#e05619;}.cls-9{fill:#12968c;}</style></defs><g id="BACKGROUND"><rect class="cls-1" x="-0.23" y="-1.57" width="375.23" height="675.27"/></g><g id="OBJECTS"><path class="cls-2" d="M-6.18,153.61H-50.56V671.12l124.93,0H394.12c-1.32-2.93-2.74-5.65-4.12-8.29l0-.08,0-.07c-1-1.91-2-3.78-3-5.67-.88-1.61-1.86-3.27-3.15-5.4-2-3.26-4.24-6.57-6.88-10.13-8.48-11.42-18.54-20.18-29.89-26-9.67-5-20.3-7.63-32.52-8.07-.92,0-1.85,0-2.79,0-1.62,0-3.32,0-5.19.14-1.41.07-2.81.18-4.22.28s-2.77.2-4.15.27c-2.37.13-4.77.19-7.12.19-3.12,0-6.2-.11-9.15-.34-1.11-.08-2.3-.2-3.88-.39a79.13,79.13,0,0,1-16.09-3.72,66.16,66.16,0,0,1-16.17-8.31,77.08,77.08,0,0,1-8.9-7.56A82.84,82.84,0,0,1,228,577.42a105.23,105.23,0,0,1-6.29-10.16,127.55,127.55,0,0,1-5.61-11.93c-2.8-6.9-5.53-14.77-8.58-24.77-1.82-6-3.57-12-5.25-17.95-.83-2.88-1.65-5.76-2.48-8.63-3.12-10.73-5.67-18.73-8.26-25.92a161.05,161.05,0,0,0-10-22.71,100,100,0,0,0-6.35-10,106.53,106.53,0,0,0-7.76-9.66,88.35,88.35,0,0,0-33.73-23l-2-.74-.31-.11-.31-.12-1.66-.61c-1.24-.47-2.56-1-4.16-1.68-2.81-1.18-5.76-2.58-8.77-4.15a110.54,110.54,0,0,1-11.53-7c-2.71-1.94-5.38-4-7.92-6.16s-5.15-4.58-8-7.43a159.61,159.61,0,0,1-15.93-19.17c-2.3-3.26-4.35-6.33-6.27-9.38s-3.73-6.19-5.8-10c-3.4-6.29-6.76-13.4-10.26-21.74-1.48-3.59-3-7.44-4.5-11.44-1.43-3.81-2.94-8.07-4.75-13.4-3.19-9.38-6.06-18.81-8.44-26.8-2.49-8.36-4.92-17-7.28-25.29L25.7,247l-.57-2c-2.13-7.54-4.94-17.46-7.8-27.34C13.13,203,8.37,186.55,2.66,172a121.81,121.81,0,0,0-8.83-18.38Z"/><path class="cls-2" d="M381.06-4.14h-208c1,1.92,2.12,3.85,3.25,5.73a116.85,116.85,0,0,0,7.17,10.58,91.51,91.51,0,0,0,7.39,8.54,66.08,66.08,0,0,0,7.93,6.9,49.08,49.08,0,0,0,16.68,8.22,44.09,44.09,0,0,0,8.86,1.36c.78,0,1.53.05,2.23.05,2.55,0,5.19-.22,7.44-.43s4.53-.5,6.56-.76h.1c2.47-.31,5.56-.69,8.46-.92,2.16-.16,4.12-.24,6-.24a51.69,51.69,0,0,1,5.85.31,37.37,37.37,0,0,1,12.1,3.48A39.13,39.13,0,0,1,279.84,43,52.6,52.6,0,0,1,286,48.94c5.19,5.91,9.9,13.31,13.42,19.11,1.56,2.56,3.19,5.3,4.5,7.51l.06.1c2.69,4.53,5.47,9.21,8.32,13.6,2.31,3.58,4.63,6.85,6.9,9.74a95.47,95.47,0,0,0,8.18,9.09,85.45,85.45,0,0,0,9.32,8,56.24,56.24,0,0,0,9.4,5.58,35.37,35.37,0,0,0,15.12,3.54,32.64,32.64,0,0,0,9.16-1.33,38.63,38.63,0,0,0,10.71-5.31V-4.14Z"/><path class="cls-3" d="M192.62,501.38a10.64,10.64,0,0,0,.63,1.15c.43.67.84,1,1.21,1a.79.79,0,0,0,.57-.29,4.26,4.26,0,0,0,.78-1.67,15.38,15.38,0,0,0,.52-3.18,23.88,23.88,0,0,0-.77-7.07,30.88,30.88,0,0,0-1.93-5.65,10,10,0,0,0-1-1.7,6.44,6.44,0,0,0-.61-.76,1.63,1.63,0,0,0-.62-.38l-.05,0a.57.57,0,0,0-.18,0l-.22,0h-.07a1.58,1.58,0,0,0-.75.35,2.41,2.41,0,0,0-.6.82,8.38,8.38,0,0,0-.62,1.89,11,11,0,0,0-.2,1.55,19.77,19.77,0,0,0,0,2.68,21.8,21.8,0,0,0,.44,3.22,25.87,25.87,0,0,0,1.9,5.73,9.89,9.89,0,0,0,1.1,1.78Z"/><path class="cls-3" d="M204,542.82c-.07-.72-.15-1.37-.26-2a40.66,40.66,0,0,0-1-4.06c-.38-1.36-.84-2.76-1.39-4.28a37.41,37.41,0,0,0-3.56-7.57c-1.1-1.67-2-2.44-2.81-2.44a1.4,1.4,0,0,0-.8.27c-1.16.82-2.05,4.29-2.08,8.08a32.9,32.9,0,0,0,.42,5.33,42.83,42.83,0,0,0,1.08,5,44,44,0,0,0,1.43,4.34,39.54,39.54,0,0,0,1.84,4.14,20.29,20.29,0,0,0,2,3.08,5.26,5.26,0,0,0,1.67,1.56,2.13,2.13,0,0,0,1,.28,1.45,1.45,0,0,0,.88-.32,2.46,2.46,0,0,0,.53-.6,1.12,1.12,0,0,0,.23-.25,6,6,0,0,0,.87-2.64c0-.19,0-.38.07-.57.06-.38.12-.81.16-1.34a18.75,18.75,0,0,0,.08-2.26c0-.71,0-1.48-.12-2.26C204.15,543.76,204.09,543.27,204,542.82Z"/><path class="cls-3" d="M214.52,492.51a15.09,15.09,0,0,0-.46-2.88,8.13,8.13,0,0,0-.43-1.24,4.29,4.29,0,0,0-.45-.83,2.38,2.38,0,0,0-1.59-1.15h0c-.18,0-.38.26-.52.69a6.06,6.06,0,0,0-.22,2.34c.11,1,.22,1.75.34,2.47a16.59,16.59,0,0,0,.49,2.07c.16.63.31,1.16.45,1.63a5.29,5.29,0,0,0,.93,1.89.48.48,0,0,0,.36.18h.07a.28.28,0,0,0,.23.13c.14,0,.3-.13.43-.35a4.31,4.31,0,0,0,.42-1.64,9.14,9.14,0,0,0,0-1.48C214.56,493.79,214.56,493.18,214.52,492.51Z"/><path class="cls-3" d="M210.88,465.48c-.09-.56-.2-1.12-.34-1.75s-.27-1.19-.45-1.75a7.1,7.1,0,0,0-1.35-2.52.3.3,0,0,0-.2-.09.32.32,0,0,0-.19.07,1.21,1.21,0,0,0-.35.6,4.75,4.75,0,0,0-.2,1.07,7.77,7.77,0,0,0,.06,1.78,4.16,4.16,0,0,0,.14,1l.05.18q.21.76.42,1.5c.14.46.3.89.51,1.4.34.81.78,1.22,1.37,1.25.22,0,.41-.34.52-.91A5.6,5.6,0,0,0,210.88,465.48Z"/><path class="cls-3" d="M237.14,601.83a31.12,31.12,0,0,0-2.77-6.71,6.26,6.26,0,0,0-2-2.16,2.27,2.27,0,0,0-1-.4h-.08a1,1,0,0,0-.77.38,3.38,3.38,0,0,0-.78,1.48,8.89,8.89,0,0,0-.27,1.16,16.64,16.64,0,0,0-.2,2.21,16.47,16.47,0,0,0,.07,2.25,24.37,24.37,0,0,0,.34,2.54,29.74,29.74,0,0,0,1.15,4.3,19.61,19.61,0,0,0,1.65,3.6,8.91,8.91,0,0,0,.93,1.24,11.77,11.77,0,0,0,1,1.62c.56.74,1.07,1.1,1.54,1.1a1,1,0,0,0,.38-.08c.64-.28,1.21-1.53,1.53-3.34a16.59,16.59,0,0,0,.23-3,21.41,21.41,0,0,0-.31-3.37A27.11,27.11,0,0,0,237.14,601.83Z"/><path class="cls-3" d="M273.23,64.57a34.37,34.37,0,0,0-1-4.71,43.75,43.75,0,0,0-1.56-4.58,37.9,37.9,0,0,0-4.23-8.07,13.17,13.17,0,0,0-2.28-2.54,3.38,3.38,0,0,0-2.06-.92h0a2.31,2.31,0,0,0-1.87,1.35,9.19,9.19,0,0,0-.75,1.77,19.81,19.81,0,0,0-.6,2.39,25.57,25.57,0,0,0-.41,5.14,34.63,34.63,0,0,0,.52,5.37c0,.13,0,.26.07.39a4,4,0,0,0,.14,1.18c.14.48.29,1,.48,1.52s.28,1,.45,1.55a39.55,39.55,0,0,0,1.64,4.26A27.59,27.59,0,0,0,265.62,75a11,11,0,0,0,2,2,5.55,5.55,0,0,0,2.08,1.37,1.71,1.71,0,0,0,.55.09c.74,0,1.77-.52,2.44-3a25.24,25.24,0,0,0,.7-5.28c.05-1,.06-2,0-2.84S273.36,65.59,273.23,64.57Z"/><path class="cls-3" d="M288.33,46.76a10.19,10.19,0,0,0-.81-2.15,7.26,7.26,0,0,0-1-1.45,3.71,3.71,0,0,0-1-.87,2.32,2.32,0,0,0-1.12-.35,1.35,1.35,0,0,0-.88.32,2.43,2.43,0,0,0-.57,1.33,7.61,7.61,0,0,0-.12,1.4,7.08,7.08,0,0,0,.11,1.41,18.92,18.92,0,0,0,1.95,6.43,7.06,7.06,0,0,0,1.28,1.76,2.86,2.86,0,0,0,.5.42,3,3,0,0,0,.51.42.94.94,0,0,0,.45.14c.37,0,.68-.35.91-1a14.74,14.74,0,0,0,.26-4.92A16.81,16.81,0,0,0,288.33,46.76Z"/><path class="cls-3" d="M372.15,230.43a1.54,1.54,0,0,0,.71.2,1.07,1.07,0,0,0,.82-.41l.14-.17.13-.16a4.11,4.11,0,0,0,.43-1.3,10.11,10.11,0,0,0,0-3.47c-.14-.79-.31-1.55-.51-2.27,0-.19-.07-.38-.1-.56a10.87,10.87,0,0,0-.67-2.1,6,6,0,0,0-.88-1.46,3.44,3.44,0,0,0-1.23-1,1.78,1.78,0,0,0-.77-.25l-.2,0a.8.8,0,0,0-.43.23,2.59,2.59,0,0,0-.53.93,8.63,8.63,0,0,0-.37,2.65A15.73,15.73,0,0,0,369,224a13.79,13.79,0,0,0,.91,3.15,10.78,10.78,0,0,0,1,1.89A3.83,3.83,0,0,0,372.15,230.43Z"/><path class="cls-3" d="M375,284.39a22.21,22.21,0,0,0-.58-3.63,11.29,11.29,0,0,0-.9-2.5,4,4,0,0,0-1.14-1.44,1.67,1.67,0,0,0-1-.37,1.49,1.49,0,0,0-.36.05c-.16,0-.3.11-.44.34a3.45,3.45,0,0,0-.34,1,8.08,8.08,0,0,0,0,2.73,19.56,19.56,0,0,0,.54,2.12,12.25,12.25,0,0,0,.69,1.7,9.62,9.62,0,0,0,.82,1.56,2.73,2.73,0,0,0,1.11,1,1.2,1.2,0,0,0,.42.08,1.57,1.57,0,0,0,.7-.19c.15-.07.29-.36.38-.81A5.88,5.88,0,0,0,375,284.39Z"/><path class="cls-3" d="M363.63,228.55a21.49,21.49,0,0,0-.82-2.8,19.52,19.52,0,0,0-2.13-4.24,5.21,5.21,0,0,0-2.3-2.18l-.13,0a1.3,1.3,0,0,0-.45.12,1.48,1.48,0,0,0-.48.46l-.09.12a2.7,2.7,0,0,0-.4.63,8.8,8.8,0,0,0-.68,2.05,19.83,19.83,0,0,0,0,7.3,21.36,21.36,0,0,0,1.76,5.36,10.77,10.77,0,0,0,.89,1.53,6.61,6.61,0,0,0,1.2,1.41,1.53,1.53,0,0,0,.94.42h.1a.88.88,0,0,1,1-.12,1.08,1.08,0,0,0,.42-.08c.29-.11.58-.54.9-1.33a11.59,11.59,0,0,0,.56-2.66,16.76,16.76,0,0,0,.08-3.33A18.37,18.37,0,0,0,363.63,228.55Z"/><path class="cls-3" d="M3.12,310.73A5.06,5.06,0,0,0,2,309a.24.24,0,0,0-.18-.09c-.18,0-.36.23-.49.62a3.59,3.59,0,0,0-.12.47.78.78,0,0,0-.2.35,4.22,4.22,0,0,0,0,2.12,14.22,14.22,0,0,0,1.21,3.2,1.52,1.52,0,0,0,.75.71.51.51,0,0,0,.21,0,1.16,1.16,0,0,0,.58-.19A1.82,1.82,0,0,0,4.14,315,4.86,4.86,0,0,0,4,313.33,22.8,22.8,0,0,0,3.12,310.73Z"/><path class="cls-3" d="M10.78,208.25A26.36,26.36,0,0,0,9,202.75a15.39,15.39,0,0,0-2.38-3.95,3.9,3.9,0,0,0-1-.89,2.21,2.21,0,0,0-.66-.25h-.1a1.44,1.44,0,0,0-.61.19,1.85,1.85,0,0,0-.49.51l-.12.15a3.81,3.81,0,0,0-.41.7,10.83,10.83,0,0,0-.93,3.05A16.64,16.64,0,0,0,2,204.06c0,.55-.05,1-.06,1.42s0,.84,0,1.18v.28a20.38,20.38,0,0,0,.38,3.2,26,26,0,0,0,1.78,5.69,14.35,14.35,0,0,0,2.17,3.53,4.15,4.15,0,0,0,.89.85,2,2,0,0,0,1,.4h.13a1.89,1.89,0,0,0,1.29-1,8.54,8.54,0,0,0,.65-1.35,10.73,10.73,0,0,0,.34-1.16,14.26,14.26,0,0,0,.43-2.51,23,23,0,0,0,.08-3.43A17.79,17.79,0,0,0,10.78,208.25Z"/><path class="cls-3" d="M19.58,338.5a12.48,12.48,0,0,0-.79-2.35,6.8,6.8,0,0,0-.87-1.38,3.42,3.42,0,0,0-1-.87,2,2,0,0,0-1.08-.36,1.39,1.39,0,0,0-.79.25,2,2,0,0,0-.53,1.19,8.5,8.5,0,0,0-.11,2.09c.06.75.15,1.47.25,2.14s.22,1.14.35,1.66l.06.24a12.44,12.44,0,0,0,.41,1.28,13.36,13.36,0,0,0,.61,1.38,6.85,6.85,0,0,0,1.26,1.72,2.91,2.91,0,0,0,.51.43,2.25,2.25,0,0,0,.66.43l.17,0,.05,0,.05,0h0c.17,0,.33-.13.48-.38l0-.05a2.4,2.4,0,0,0,.34-.77,13.12,13.12,0,0,0,.23-4.29A18.47,18.47,0,0,0,19.58,338.5Zm-2.11.65-.18-.27c.2.2.35.36.5.53l.16.25A3.9,3.9,0,0,1,17.47,339.15Z"/><path class="cls-3" d="M311.59,586.34a4.11,4.11,0,0,0-.51.27,6.63,6.63,0,0,0-1.49,1.17,8.73,8.73,0,0,0-1.94,3.27,16.89,16.89,0,0,0-.92,4.14,29,29,0,0,0-.1,4.39,30.61,30.61,0,0,0,.43,3.95c.16.9.38,1.78.57,2.53.29,1.09.62,2.18,1,3.22a42.69,42.69,0,0,0,6.26,11.43,56.46,56.46,0,0,0,4.4,5.14c-.33-.21-.71-.42-1.21-.68a29.42,29.42,0,0,0-7.1-2.74,13.08,13.08,0,0,0-3.55-.34,9.64,9.64,0,0,0-3.12.7l-.53.23a5.33,5.33,0,0,0-2.81,2.81,6,6,0,0,0,.12,3.94,12.49,12.49,0,0,0,.95,2.06,19.12,19.12,0,0,0,1.25,1.9,30.7,30.7,0,0,0,3.1,3.54,11.41,11.41,0,0,0-2.59-.28,6.76,6.76,0,0,0-1.44.17,5.72,5.72,0,0,0-1.08.38,4.77,4.77,0,0,0-.44.24,4.14,4.14,0,0,0-1.78,2.56,6.61,6.61,0,0,0-.19,1.67,6.8,6.8,0,0,0,.22,1.52,8.51,8.51,0,0,0,1.32,2.74,14.69,14.69,0,0,0,2.22,2.49,22.14,22.14,0,0,0,2.75,2.13l.49.31a3.91,3.91,0,0,0-1,.12,5.32,5.32,0,0,0-1.08.39,4.71,4.71,0,0,0-.58.32,5.08,5.08,0,0,0-1.42,1.43,6.4,6.4,0,0,0-1.06,3.06,8.79,8.79,0,0,0,.29,3,12.68,12.68,0,0,0,1.26,2.9,23.53,23.53,0,0,0,4.26,5.25,36.61,36.61,0,0,0,4.81,3.9,38.68,38.68,0,0,0,6.42,3.51,53.39,53.39,0,0,0,8.38,2.84,59.83,59.83,0,0,0,8.6,1.52,55.84,55.84,0,0,0,17.78-.86,49,49,0,0,0,8.31-2.57c.81-.33,1.6-.68,2.35-1A50.18,50.18,0,0,0,381,660.67a64,64,0,0,0,5.06-7.29,65.49,65.49,0,0,0,4.05-7.85,53.73,53.73,0,0,0,2.65-7.92,43.49,43.49,0,0,0,1.3-8.29,34.08,34.08,0,0,0-.48-8.34,25.82,25.82,0,0,0-2.77-7.77,12.46,12.46,0,0,0-4.47-4.73,8.58,8.58,0,0,0-5.22-1.2,7,7,0,0,0-2.16.62l-.27.14a7.37,7.37,0,0,0-2.12,1.72,8.22,8.22,0,0,0-1.25,2,30.8,30.8,0,0,0-1.3-4.44,26.32,26.32,0,0,0-2.14-4.4A15.6,15.6,0,0,0,369,599.4a10.73,10.73,0,0,0-1.81-1.28,8.35,8.35,0,0,0-2-.78,6.21,6.21,0,0,0-4.19.37l-.07,0a8.27,8.27,0,0,0-3.14,2.9,16.26,16.26,0,0,0-2,4.17c-.23.73-.43,1.48-.6,2.22a1.28,1.28,0,0,0-.05-.38c-.36-1.49-.7-2.79-1.07-4a37,37,0,0,0-1.55-4.17,20.76,20.76,0,0,0-2.22-3.9,12.85,12.85,0,0,0-1.44-1.61,8.13,8.13,0,0,0-1.64-1.18,6.89,6.89,0,0,0-3.87-.81,6.31,6.31,0,0,0-2.39.62,6.73,6.73,0,0,0-1,.57,7.33,7.33,0,0,0-2.15,2.67,13.13,13.13,0,0,0-1.13,3.55,23.69,23.69,0,0,0-.35,4,30.82,30.82,0,0,0,.21,4c-.55-1.13-1.22-2.35-2-3.64a60.53,60.53,0,0,0-5.73-8.21,38.3,38.3,0,0,0-3.47-3.68,23.93,23.93,0,0,0-3.6-2.77,16.7,16.7,0,0,0-4-1.85,9.68,9.68,0,0,0-4.76-.38,8.15,8.15,0,0,0-1,.28,3.9,3.9,0,0,0-.47.2"/><path class="cls-4" d="M325.09,613.81l0,0-.08-.13Z"/><path class="cls-4" d="M363.86,662.58l0,.06h0Z"/><path class="cls-4" d="M363.9,662.64l0,.06,0-.06Z"/><path class="cls-4" d="M381.58,610.69l-.12,0a.31.31,0,0,0-.16.26q-.07,2.1-.33,4.2a51.61,51.61,0,0,1-1.22,6.16c-.25,1-.56,2-.89,3s-.71,1.92-1.1,2.86v0a48.29,48.29,0,0,1-6.13,10.66c-.66.86-1.36,1.69-2.08,2.5s-1.54,1.64-2.34,2.42-1.66,1.54-2.5,2.29-1.72,1.47-2.61,2.16l-2.2,1.7-1.33,1-.25-.34c-1.11-1.48-2.26-2.93-3.42-4.37a25.7,25.7,0,0,0,1.94-2.9,37.3,37.3,0,0,0,1.84-3.69c.58-1.33,1.1-2.68,1.57-4.05.23-.68.42-1.36.61-2l.57-2.07c.18-.7.36-1.4.52-2.11s.3-1.42.44-2.13c.28-1.43.53-2.88.72-4.33v0l.06-.46s0,.07,0,.1c0-.18,0-.35.07-.53h0a95.55,95.55,0,0,0,.67-16.82c-.06-1.25-.15-2.5-.26-3.75a.15.15,0,0,0-.14-.14l-.06,0a.12.12,0,0,0-.08.12,79.09,79.09,0,0,1,.26,8c-.05,2.84-.22,5.68-.54,8.51-.05.39-.09.78-.14,1.16-.17,1.31-.37,2.62-.62,3.92s-.53,2.62-.85,3.92-.69,2.57-1.08,3.84-.87,2.56-1.39,3.8h0l-.33.8v0c-.37.87-.75,1.74-1.17,2.59s-.92,1.82-1.43,2.71-1,1.74-1.58,2.58l-.81,1.21-.09.13q-2.75-3.32-5.63-6.51l-1.61-1.75,0,0c.09-.31.17-.63.24-1,.15-.62.27-1.24.37-1.87a40.63,40.63,0,0,0,.44-4.11c.08-1.39.12-2.77.09-4.15s-.1-2.86-.21-4.29-.28-2.89-.48-4.33c-.1-.73-.22-1.47-.33-2.2s-.22-1.43-.34-2.14c-.24-1.4-.51-2.8-.8-4.2s-.59-2.68-.92-4c-.52-2.07-1.1-4.13-1.71-6.18a.2.2,0,0,0-.29-.11.18.18,0,0,0-.1.23c.62,2.1,1.14,4.23,1.59,6.37.25,1.16.47,2.32.68,3.49s.42,2.44.6,3.66l.27,2.08c.09.72.15,1.44.21,2.16.12,1.44.2,2.89.26,4.34a70.59,70.59,0,0,1-.14,8.48c-.07.81-.16,1.61-.26,2.42s-.29,1.91-.48,2.86c-.06.29-.12.59-.19.89-.81-.88-1.62-1.76-2.44-2.63-1.88-2-3.79-4-5.67-6L333.89,622q-.87-.93-1.71-1.89a42.87,42.87,0,0,0-.61-5.06,41.86,41.86,0,0,0-1.19-4.82c-1-3.16-2.19-6.23-3.33-9.33-.58-1.58-1.16-3.16-1.71-4.75a.13.13,0,0,0-.17-.1h0a.14.14,0,0,0-.08.16q.81,2.38,1.64,4.77c.54,1.57,1.07,3.15,1.54,4.74a67.16,67.16,0,0,1,2.14,9.62c.14,1,.24,2,.31,3.08-1.7-2-3.34-4-4.9-6.07-.58-.79-1.17-1.57-1.73-2.38s-1.15-1.7-1.71-2.57c0,0,.05.08.07.13l-.43-.67.08.12c-.84-1.29-1.67-2.57-2.44-3.89s-1.54-2.66-2.3-4c-1.54-2.74-3-5.54-4.37-8.36a.19.19,0,0,0-.27-.09.19.19,0,0,0-.09.26c1,2,1.91,4,2.9,5.94s2,3.94,3,5.87,2,3.73,3.1,5.56c.55.93,1.13,1.85,1.7,2.78s1.15,1.84,1.74,2.75c1.39,2.11,2.83,4.19,4.36,6.19-.58-.27-1.17-.54-1.75-.83-.76-.39-1.51-.79-2.25-1.22s-1.53-.92-2.27-1.41a40.36,40.36,0,0,1-4.28-3.31l0,0a46.41,46.41,0,0,1-7.47-8.36.17.17,0,0,0-.2,0l0,0a.17.17,0,0,0,0,.23q1.27,1.86,2.68,3.62c.49.59,1,1.18,1.47,1.76s1,1.14,1.56,1.7c1.07,1.12,2.19,2.18,3.36,3.2s2.38,2,3.64,2.87a31.26,31.26,0,0,0,3.57,2.22q1,.51,2,.93c.34.14.67.27,1,.39a5.84,5.84,0,0,0,.59.2l1.53,1.84c.9,1.07,1.81,2.14,2.73,3.19,1.8,2.09,3.59,4.18,5.41,6.25q1.51,1.72,3,3.47c-.66-.1-1.33-.18-2-.25-1.43-.14-2.87-.25-4.3-.36-2.83-.2-5.67-.44-8.49-.8-2.07-.25-4.13-.58-6.17-1-1.75-.38-3.48-.83-5.19-1.37a35.94,35.94,0,0,1-5.19-2.11h0a37.71,37.71,0,0,1-5.29-3.25.26.26,0,0,0-.27,0,.2.2,0,0,0-.11.09.28.28,0,0,0,.07.39,43.55,43.55,0,0,0,3.71,2.48,39.62,39.62,0,0,0,3.83,2c1.28.58,2.59,1.11,3.92,1.58s2.65.87,4,1.21a78.15,78.15,0,0,0,8.34,1.6c1.4.2,2.82.37,4.23.55s2.84.33,4.27.48c2,.21,4.06.41,6.11.5l.86,1q2.69,3.12,5.33,6.3l-3.31,1c-1.38.38-2.76.75-4.16,1.07a66.92,66.92,0,0,1-8.08,1.41c-1,.11-2,.19-3,.24h0a56.31,56.31,0,0,1-14.18-1.23,74,74,0,0,1-12.67-4,.21.21,0,0,0-.19,0,.25.25,0,0,0-.13.14.24.24,0,0,0,.15.32,78.64,78.64,0,0,0,16.21,5,58.51,58.51,0,0,0,7.92.88,63.91,63.91,0,0,0,8.07-.17,54.73,54.73,0,0,0,7.2-1.13c1.23-.28,2.46-.6,3.67-1s2.39-.76,3.55-1.22c1,1.21,2,2.43,3,3.67l.12.15-.63.56-.84.74q-.79.69-1.62,1.32a32.91,32.91,0,0,1-3.73,2.46,36.67,36.67,0,0,1-4.09,2,45.1,45.1,0,0,1-5.45,1.79,50.74,50.74,0,0,1-5.75,1.11,55.75,55.75,0,0,1-14,0,51,51,0,0,1-13.09-3.36c-.47-.2-.94-.4-1.41-.62a.3.3,0,0,0-.26,0,.26.26,0,0,0-.11.1.27.27,0,0,0,.1.37A53.05,53.05,0,0,0,320,661.59a57.07,57.07,0,0,0,8.47.5,55.05,55.05,0,0,0,8.49-.79,41,41,0,0,0,15.36-5.85,26.87,26.87,0,0,0,2.39-1.73c.38-.3.74-.62,1.1-.94l.67-.67q1.68,2.19,3.29,4.43c1.41,2,2.75,4,4.09,6l-.08-.12.12.18h0l.08.13,0-.07c.51.78,1,1.57,1.53,2.35a1.35,1.35,0,0,0,.54.36,1.31,1.31,0,0,0,1,0,1.28,1.28,0,0,0,.59-1.7c-.64-1.26-1.36-2.48-2.09-3.69s-1.57-2.48-2.38-3.7c-1-1.48-2-2.93-3-4.37q.39-.23.78-.48c.75-.5,1.48-1,2.2-1.6a47,47,0,0,0,3.67-3.24c.58-.56,1.13-1.15,1.68-1.75s1.07-1.2,1.58-1.82,1.07-1.34,1.58-2,.94-1.28,1.4-1.93a48.55,48.55,0,0,0,4.68-8.28,45,45,0,0,0,1.71-4.54c.49-1.53.91-3.1,1.26-4.67a45.84,45.84,0,0,0,.81-4.66v0a59.11,59.11,0,0,0,.46-5.95A.3.3,0,0,0,381.58,610.69Z"/><path class="cls-5" d="M326.92,84.94a11.82,11.82,0,0,0,1,1.42,9.48,9.48,0,0,0,1.7,1.62A13.88,13.88,0,0,0,339,90.49a12.92,12.92,0,0,0,2.82-.66,15.74,15.74,0,0,0,2.69-1.28,22.51,22.51,0,0,0,4.89-4.07,41.33,41.33,0,0,0,4.45-5.82,66.93,66.93,0,0,0,3.93-7.1c1.42-2.92,2.76-6,4.09-9.43a.37.37,0,0,0,0-.11c.88-2.27,1.76-4.68,2.68-7.36,1.79-5.2,3.53-10.88,5.46-17.86,1.16-4.17,2.27-8.43,3.35-12.55l.88-3.36c.16-.63.33-1.27.5-1.91l.23-.46c.34-.66.67-1.39,1-2.25a19.57,19.57,0,0,0,1.41-4.87,8.51,8.51,0,0,0,.1-1.22,5.82,5.82,0,0,0,0-.71c.1-.3.22-.59.33-.88l.09-.22a.32.32,0,0,0,0-.27.18.18,0,0,0-.1-.09.26.26,0,0,0-.23,0,.2.2,0,0,0-.13.12c-.05.1-.09.21-.14.31a2,2,0,0,0-.1-.35,5.31,5.31,0,0,0-.23-.55l-.06-.1a4.5,4.5,0,0,0-.31-.45,3.4,3.4,0,0,0-1.78-1.15l-.24-.07.05,0,0,0a36.08,36.08,0,0,0,2.94-4,15,15,0,0,0,1.78-3.85,6,6,0,0,0,0-3.51,6,6,0,0,0-.37-.81,5,5,0,0,0-.58-.77,5.06,5.06,0,0,0-1.26-1,6.12,6.12,0,0,0-1.53-.64,9,9,0,0,0-1.78-.3,15.72,15.72,0,0,0-3.95.27,31.91,31.91,0,0,0-4.3,1.09,83.24,83.24,0,0,0-9.12,3.64c-1.42.65-2.85,1.33-4.24,2l-.27.13-.69.33-.37.18c-1.08.51-2.3,1.1-3.5,1.59-.66.27-1.33.49-2,.7-1.13.38-2.35.74-3.75,1.1-2.19.58-4.57,1.09-7.72,1.66-1.59.29-3.17.56-4.76.83l-.16,0c-3.52.6-7.17,1.22-10.7,2A61.4,61.4,0,0,0,311,8.54a32.09,32.09,0,0,0-6.25,3,23.86,23.86,0,0,0-2.43,1.81,16.84,16.84,0,0,0-1.94,1.93,12.49,12.49,0,0,0-2.56,4.53,8.29,8.29,0,0,0,0,4.81,8.73,8.73,0,0,0,.75,1.7A11.45,11.45,0,0,0,301,29.2a21.84,21.84,0,0,0,5.49,3.3,32,32,0,0,0,5.8,1.89,38.7,38.7,0,0,0,6.15.84,44.71,44.71,0,0,0,6.22-.07,61.78,61.78,0,0,0,12.44-2.29c1.91-.56,3.85-1.24,5.78-2s3.64-1.56,5.34-2.43c.93-.47,1.84-1,2.7-1.48-.8,1-1.61,1.95-2.4,2.94-3.45,4.32-6.69,8.79-9.62,13.28-1.46,2.24-2.91,4.58-4.3,7-.8,1.37-1.73,3-2.58,4.66a82.06,82.06,0,0,0-4,9.27,47,47,0,0,0-2.64,10.71,17.14,17.14,0,0,0,1.21,9.57c.1.2.2.4.31.59"/><path class="cls-6" d="M373.23,8.87c-1.24,1.62-2.47,3.24-3.68,4.88q-2.66,3.59-5.22,7.25c-.4.27-.8.53-1.21.78a22.9,22.9,0,0,1-2.49,1.34,21.78,21.78,0,0,1-2.72,1,23.06,23.06,0,0,1-2.73.65.26.26,0,0,0-.21.3l0,.08a.26.26,0,0,0,.27.13,27.36,27.36,0,0,0,2.69-.57,22.45,22.45,0,0,0,2.67-.86c.42-.16.84-.34,1.25-.53s.85-.42,1.26-.65l-.82,1.2q-2.25,3.29-4.38,6.65c-.74.71-1.51,1.4-2.31,2.05-.48.38-1,.76-1.47,1.12s-1,.72-1.58,1.05a30.23,30.23,0,0,1-2.79,1.53,30.7,30.7,0,0,1-2.88,1.27.19.19,0,0,0-.09.24v0a.18.18,0,0,0,.23.07c1.08-.4,2.14-.84,3.19-1.32s2.09-1,3.11-1.61c.5-.29,1-.59,1.48-.91s1-.64,1.44-1l.15-.11c-.33.54-.67,1.07-1,1.61q-2.4,4-4.6,8c-.12.14-.24.28-.37.41A37.22,37.22,0,0,1,343,49.2a34.64,34.64,0,0,1-4.35,2.28.25.25,0,0,0-.13.33v0a.25.25,0,0,0,.32.1,38.35,38.35,0,0,0,3.66-1.75c.62-.34,1.24-.7,1.85-1.07s1.27-.8,1.9-1.22,1.19-.83,1.76-1.27c.4-.32.8-.65,1.19-1a.3.3,0,0,0,0,.08c-1.21,2.29-2.36,4.62-3.46,7-.5,1-1,2.11-1.43,3.17-1.08,1.26-2.17,2.5-3.3,3.71-.63.68-1.27,1.33-1.93,2s-1.34,1.28-2,1.89-1.42,1.17-2.15,1.73-1.48,1.06-2.26,1.54h0c-.84.52-1.7,1-2.58,1.43a.2.2,0,0,0-.1.25v0a.19.19,0,0,0,.25.07c.71-.34,1.42-.71,2.11-1.11s1.35-.81,2-1.25a44.7,44.7,0,0,0,3.95-2.92c.63-.52,1.26-1.05,1.86-1.6s1.19-1.13,1.76-1.72.87-.92,1.28-1.39c-.17.42-.35.84-.53,1.26v0h0l0,.09h0c-.77,1.89-1.52,3.79-2.21,5.71s-1.35,3.91-2,5.87c-.15.44-.28.88-.42,1.33a39,39,0,0,1-3.2,4,30.13,30.13,0,0,1-5.22,4.4.2.2,0,0,0-.05.25s0,0,0,0a.19.19,0,0,0,.27,0c.85-.56,1.67-1.14,2.47-1.76s1.59-1.29,2.34-2,1.46-1.41,2.14-2.16c.2-.24.41-.48.6-.72q-1.23,4.17-2.16,8.43c-.22,1-.44,2-.63,3.08a.24.24,0,0,0,0,.2.23.23,0,0,0,.16.12.26.26,0,0,0,.32-.19c.3-1.54.64-3.08,1-4.6s.82-3.07,1.28-4.58c.18-.59.36-1.18.55-1.76a11.49,11.49,0,0,0,.09,1.18,16.27,16.27,0,0,0,.7,3.09A17.28,17.28,0,0,0,340,82.66c0,.09.09.17.14.26a17.79,17.79,0,0,0,1.75,2.47.16.16,0,1,0,.26-.2,16.24,16.24,0,0,1-1.26-1.73,17,17,0,0,1-.87-1.63,14,14,0,0,1-.69-1.83h0a15.65,15.65,0,0,1-.61-3.74c0-.93,0-1.86,0-2.78a.41.41,0,0,0-.08-.24c.58-1.69,1.19-3.36,1.86-5,.79-1.91,1.63-3.8,2.48-5.68.23-.52.48-1,.72-1.55,0,.21,0,.41,0,.61a31,31,0,0,0,.7,4.31,36.82,36.82,0,0,0,1.29,4.23,36.45,36.45,0,0,0,1.7,4c.31.62.64,1.23,1,1.82l.48.81a.16.16,0,0,0,.2.08.16.16,0,0,0,.07-.2,33,33,0,0,1-1.81-3.49,33.64,33.64,0,0,1-1.5-4,30.86,30.86,0,0,1-1.34-7.38c0-.71,0-1.42,0-2.12l0-.42c.38-.78.76-1.56,1.16-2.34q2.71-5.26,5.66-10.4c0,.55,0,1.1,0,1.66,0,.74.1,1.49.19,2.23s.21,1.5.36,2.24.31,1.49.5,2.23.41,1.46.65,2.17a40.37,40.37,0,0,0,1.64,4.16c.37.81.76,1.61,1.18,2.39h0a.15.15,0,0,0,.19.06.16.16,0,0,0,.07-.19,30,30,0,0,1-2.28-5.54,40.69,40.69,0,0,1-1-4.33c-.14-.72-.24-1.44-.32-2.17s-.14-1.45-.17-2.17c0-.91,0-1.81,0-2.72,0-.43.05-.87.09-1.3,0-.22,0-.44.05-.65,1.93-3.28,3.94-6.51,6-9.71l.48-.74A26.74,26.74,0,0,0,359,37a30.51,30.51,0,0,0,.6,4c.29,1.34.66,2.65,1.07,3.95s.9,2.63,1.38,3.93c0,0,0,0,0,0a.22.22,0,0,0,.39-.21c-.39-1.09-.75-2.18-1.09-3.29h0v0a36.09,36.09,0,0,1-1.59-8.8,31,31,0,0,1,.1-3.73.5.5,0,0,0,0-.12c1.6-2.46,3.22-4.92,4.86-7.35,0,.18,0,.36.05.54a22.27,22.27,0,0,0,.56,2.93c.25.95.53,1.89.87,2.81a27.61,27.61,0,0,0,1.26,2.9h0a.13.13,0,0,0,.18.06.13.13,0,0,0,.07-.18,20.86,20.86,0,0,1-1.21-3.13v.05c-.16-.56-.31-1.11-.43-1.68s-.22-1.19-.31-1.79c-.16-1.18-.26-2.38-.31-3.57v-.05q3.31-4.89,6.73-9.71l3.3-4.65,1.68-2.34c.28-.38.55-.77.83-1.16s.52-.78.8-1.16a1.08,1.08,0,0,0-.41-1.49,1.11,1.11,0,0,0-.82-.12l-.26.11a1.18,1.18,0,0,0-.39.38C375.66,5.67,374.45,7.28,373.23,8.87Z"/><path class="cls-6" d="M308.1,14.59a.13.13,0,0,0,0,.12.12.12,0,0,0,.08.06c1.37.38,2.73.81,4.07,1.27a43.31,43.31,0,0,1,4.07,1.65c.64.31,1.28.63,1.91,1s1.26.72,1.88,1.11a30.25,30.25,0,0,1,3.48,2.56l.53.47c-1.33.25-2.67.49-4,.7-.88.14-1.77.26-2.65.37-1.48.18-3,.34-4.45.47a13.55,13.55,0,0,0-2.49-1.74c-.49-.28-1-.53-1.52-.77s-1.05-.46-1.58-.67c-1-.4-2.1-.75-3.17-1.06s-2.17-.6-3.26-.86a.15.15,0,0,0-.18.09.17.17,0,0,0,0,.12.14.14,0,0,0,.07.06c1.12.27,2.24.59,3.33,1a30.07,30.07,0,0,1,3.24,1.31,21.85,21.85,0,0,1,2.7,1.54,16.62,16.62,0,0,1,1.52,1.13c-3.43.27-6.87.42-10.31.39a.51.51,0,0,0-.5.5.54.54,0,0,0,.06.25.53.53,0,0,0,.43.25c3.59,0,7.17,0,10.74-.26l-.13.14A16,16,0,0,1,310.48,27a15.48,15.48,0,0,1-1.66,1.11,16.81,16.81,0,0,1-2.35,1.11.2.2,0,0,0-.1.25s0,0,0,0a.2.2,0,0,0,.23.08,19.91,19.91,0,0,0,3.66-1.84A16.55,16.55,0,0,0,312,26.49c.25-.21.48-.44.72-.67s.19-.2.28-.31l1.28-.08c2.19-.17,4.37-.4,6.55-.67,1.23-.14,2.45-.31,3.67-.5-.19.29-.39.57-.6.85a17,17,0,0,1-1.54,1.74c-.36.36-.73.71-1.11,1s-.81.67-1.23,1a26.45,26.45,0,0,1-2.69,1.76h0c-.68.39-1.39.74-2.1,1.07a.15.15,0,0,0-.08.19h0a.15.15,0,0,0,.18.06c1-.45,2-.95,2.92-1.49.5-.28,1-.57,1.46-.88s1-.65,1.45-1,.94-.7,1.38-1.08.85-.78,1.26-1.19A17,17,0,0,0,324.94,25a10.51,10.51,0,0,0,.64-1c.62-.1,1.25-.19,1.87-.3,2.19-.4,4.37-.85,6.54-1.37,1.28-.3,2.55-.64,3.82-1-.52.87-1.05,1.72-1.64,2.54a24.08,24.08,0,0,1-2.47,2.88h0a26.35,26.35,0,0,1-2.38,2.09,25.14,25.14,0,0,1-2.6,1.75l-.14.08a.15.15,0,0,0-.08.19h0a.14.14,0,0,0,.17.07,29.9,29.9,0,0,0,2.95-1.86,29.67,29.67,0,0,0,2.81-2.33,25.56,25.56,0,0,0,2.4-2.59,17,17,0,0,0,2-3,.19.19,0,0,0,0-.1l1.53-.44a90.38,90.38,0,0,0,9.68-3.54c-.18.44-.37.89-.56,1.32-.29.63-.6,1.25-.95,1.85a27.51,27.51,0,0,1-2.23,3.25c-.81,1-1.68,2-2.59,2.88l-.3.3a.19.19,0,0,0-.05.24v0a.2.2,0,0,0,.27,0c.75-.74,1.5-1.49,2.21-2.27s1.41-1.62,2.06-2.46a23.54,23.54,0,0,0,1.79-2.64c.27-.45.52-.92.75-1.39a9.51,9.51,0,0,0,.55-1.46l0-.09s0,0,0,0c.62-.28,1.25-.55,1.86-.84a76.78,76.78,0,0,0,11.36-6.55,61.61,61.61,0,0,0,10-8.62c.23-.25.47-.51.69-.78s.5-.61.76-.9a1.06,1.06,0,0,0,.3-.71,1.05,1.05,0,0,0-.29-.71,1,1,0,0,0-1.42,0c-.35.38-.74.74-1.11,1.1L372.11-.22c-.74.73-1.51,1.44-2.28,2.13-1.5,1.34-3.06,2.62-4.65,3.83a79.27,79.27,0,0,1-8.78,5.74,15.39,15.39,0,0,0-1.87-1.83,21.8,21.8,0,0,0-2.94-2.1,32.66,32.66,0,0,0-3.1-1.63c-1.07-.5-2.17-1-3.28-1.39a.18.18,0,0,0-.21.25.28.28,0,0,0,.1.09c.68.26,1.35.54,2,.85h0a27.23,27.23,0,0,1,3,1.68,26.25,26.25,0,0,1,2.7,2c.6.52,1.18,1.06,1.73,1.64.31.32.6.66.9,1-1.69.93-3.4,1.79-5.14,2.6a18.22,18.22,0,0,0-2.92-2.16,32.29,32.29,0,0,0-4.07-2.05c-1.41-.59-2.84-1.13-4.28-1.63s-2.83-.94-4.26-1.38c-.13,0-.21.12-.16.21a.12.12,0,0,0,.08.06c1.21.38,2.42.77,3.62,1.2s2.46.93,3.65,1.49h0l0,0h0a30.71,30.71,0,0,1,3.14,1.71c.51.32,1,.65,1.5,1s.92.69,1.36,1.07.64.56.95.86c.05,0,.09.1.14.15-1.1.49-2.22,1-3.35,1.43q-3,1.21-6.14,2.25l-1.15.38c-.39-.34-.79-.67-1.19-1q-.94-.7-1.92-1.35a41,41,0,0,0-4.06-2.34,55.27,55.27,0,0,0-8.68-3.5c-1-.3-1.92-.57-2.89-.82a.24.24,0,0,0-.29.14.22.22,0,0,0,0,.19.19.19,0,0,0,.12.09,48.73,48.73,0,0,1,8.53,3.06c.75.35,1.48.73,2.21,1.13s1.45.84,2.16,1.29a34.9,34.9,0,0,1,4,3h0l.59.51c-1.29.39-2.58.76-3.88,1.11-2.15.58-4.32,1.08-6.5,1.53l-1.11.21a21.62,21.62,0,0,0-3.49-2.59c-.68-.41-1.37-.8-2.08-1.16s-1.42-.7-2.15-1-1.47-.61-2.21-.9-1.49-.55-2.25-.81c-1.49-.52-3-1-4.54-1.39l-.55-.15A.14.14,0,0,0,308.1,14.59Z"/><polygon class="cls-7" points="341.91 10.38 341.92 10.38 341.91 10.38 341.91 10.38"/><path class="cls-7" d="M341.92,10.38l0,0,0,0Z"/><path class="cls-3" d="M323.45,20.53c-3,5.28-5.54,10.88-8,16.29-1.2,2.6-2.44,5.3-3.7,7.92s-2.51,5-3.74,7.28c-.81,1.48-1.56,2.76-2.28,3.92s-1.24,1.94-1.86,2.82a4.42,4.42,0,0,1-.39.47l-.09.12a.54.54,0,0,0-.08.19c4.27-.64,8.57-1.1,12.85-1.74l3.1-.57,2.4-.42c2.08-.37,4.23-.75,6.34-1.16a81.08,81.08,0,0,0,8.14-2,54.84,54.84,0,0,0,7.41-2.91A52.32,52.32,0,0,0,356.57,42a54.3,54.3,0,0,0,9.3-11.35c.37-.6.73-1.2,1.08-1.81a64.2,64.2,0,0,0,4.8-10.59l.14.11a.81.81,0,0,0,.61.06A.89.89,0,0,0,373,18c.71-1,1.34-2,1.94-3,1-1.63,1.88-3.17,2.66-4.7a38.49,38.49,0,0,0,2.14-5,16.06,16.06,0,0,0,.92-4.84,7,7,0,0,0-1.14-4.16,6.81,6.81,0,0,0-.74-.87,7.11,7.11,0,0,0-1-.77,9.82,9.82,0,0,0-2.29-1,23.44,23.44,0,0,0-5.73-1,51,51,0,0,0-6.17,0,49.57,49.57,0,0,0-11.48,1.91,40.5,40.5,0,0,0-12.15,6,46.08,46.08,0,0,0-9.28,9,74,74,0,0,0-4.86,7c-.77,1.23-1.54,2.53-2.35,4m49.76-7A92.2,92.2,0,0,0,376.07-3.7c.27.14.52.29.76.44a5.38,5.38,0,0,1,.74.68,5,5,0,0,1,.5.84,6.21,6.21,0,0,1,.34,1.2,10.43,10.43,0,0,1,0,2.1,21.79,21.79,0,0,1-1.27,4.84,51.12,51.12,0,0,1-2.91,6.16c-.5.91-1,1.8-1.54,2.71.17-.58.34-1.15.5-1.73"/><path class="cls-3" d="M325.77,16.54c-.75,1.22-1.52,2.52-2.34,4-3,5.29-5.51,10.84-8,16.2l0,0-.23.5c-1.07,2.33-2.28,5-3.49,7.47s-2.5,5-3.74,7.28c-.82,1.48-1.56,2.76-2.28,3.91s-1.24,1.95-1.86,2.83c-.13.16-.25.32-.39.47l-.09.11a.66.66,0,0,0-.08.21c2.23-.31,4.5-.6,6.33-.83l.12,0h.09c2.08-.27,4.24-.54,6.33-.85l3.1-.57.42-.08,2-.35.31,0,.12,0c1.84-.33,3.92-.69,5.91-1.08a82.22,82.22,0,0,0,8.15-2,55.89,55.89,0,0,0,7.41-2.91,52.27,52.27,0,0,0,11.71-7.6,1.08,1.08,0,0,0-.08-.19,2.2,2.2,0,0,0-.28-.36,2.41,2.41,0,0,0-.4-.33l-.27-.11a2.67,2.67,0,0,0-.73-.11,8.87,8.87,0,0,0-1.24.1c-.45.07-1,.17-1.53.31l-.78.2c-1.38.38-2.8.84-4.06,1.25l-.16.06-2.09.67c-.46.15-1.17.37-1.9.56a14.69,14.69,0,0,1-1.6.36,4.81,4.81,0,0,1-.65.08,2.43,2.43,0,0,1-.54,0,1.2,1.2,0,0,1-.41-.11.74.74,0,0,1-.29-.22.63.63,0,0,1-.11-.35,1.35,1.35,0,0,1,.08-.46,2.69,2.69,0,0,1,.25-.56l.12-.19c.11-.18.23-.35.35-.52a22,22,0,0,1,1.62-1.92c.74-.79,1.57-1.62,2.69-2.69l1.63-1.55L345,37l2-2a44.56,44.56,0,0,0,7-8.26l.13-.21c.27-.45.5-.86.71-1.25s.35-.68.5-1a14.37,14.37,0,0,0,.61-1.66,10.77,10.77,0,0,0,.46-2.68,5.89,5.89,0,0,0-.14-1.61,3.66,3.66,0,0,0-.33-.88,3.23,3.23,0,0,0-.43-.58,2.83,2.83,0,0,0-.5-.4,3.21,3.21,0,0,0-.7-.3,2.76,2.76,0,0,0-.47-.1,5.48,5.48,0,0,0-.57-.05,6.46,6.46,0,0,0-1.4.14,5.77,5.77,0,0,0-1.47.6,9.29,9.29,0,0,0-1.52,1.05,19.17,19.17,0,0,0-1.55,1.38l-.08.07-.17.18c-.52.51-1,1-1.54,1.57l-.15.15-.63.67c-.67.69-1.44,1.48-2.28,2.21a11.52,11.52,0,0,1-2.28,1.61,4.41,4.41,0,0,1-2.26.51,2.21,2.21,0,0,1-.94-.26,1.46,1.46,0,0,1-.56-.57,2.36,2.36,0,0,1-.22-.84,4.63,4.63,0,0,1,.05-1,10.6,10.6,0,0,1,.26-1.21c.11-.44.24-.87.38-1.3s.22-.67.33-1c.18-.56.36-1.11.53-1.67.12-.4.24-.85.33-1.31a7.68,7.68,0,0,0,.15-1.1,3.15,3.15,0,0,0-.07-.74,5.29,5.29,0,0,0-.54-1.41,3,3,0,0,0-.32-.49,4.16,4.16,0,0,0-.32-.39,3,3,0,0,0-.35-.31,4.33,4.33,0,0,0-.37-.27,3.17,3.17,0,0,0-.49-.24c-.13-.06-.28-.11-.42-.16a5.3,5.3,0,0,0-.68-.15,4.74,4.74,0,0,0-.65-.05,5.73,5.73,0,0,0-1,0,7.87,7.87,0,0,0-1,.19,12.34,12.34,0,0,0-3.11,1.23,13.33,13.33,0,0,0-1.71,1.13c-.46.68-.93,1.42-1.45,2.25"/><path class="cls-4" d="M378.13,2.11a54.68,54.68,0,0,0-6.93,1.45l-.66.19a.76.76,0,0,0-.21-.55c-.41-.4-.86-.76-1.31-1.12s-.94-.68-1.43-1a24.29,24.29,0,0,0-3.13-1.71,30.74,30.74,0,0,0-3.35-1.27c-1.1-.36-2.23-.63-3.36-.91a.16.16,0,0,0-.18.08.16.16,0,0,0,.09.25c.74.19,1.48.41,2.2.67s1.46.55,2.18.87h0a23.15,23.15,0,0,1,5,3c.39.33.75.68,1.1,1s.62.69.91,1c-1.47.45-2.92,1-4.35,1.51-.65.25-1.3.52-1.94.79-.6-.25-1.21-.49-1.83-.69s-1.38-.4-2.08-.56a20.77,20.77,0,0,0-4.22-.49q-1,0-2.1,0c-.7,0-1.4.11-2.09.19s-1.4.22-2.09.35-1.4.28-2.1.45c-1.36.34-2.69.76-4,1.21a.16.16,0,0,0-.09.07.16.16,0,0,0,0,.1.15.15,0,0,0,.18.1c1.13-.38,2.27-.72,3.44-1a27.83,27.83,0,0,1,3.49-.65,28.42,28.42,0,0,1,3.19-.18,21.34,21.34,0,0,1,3.09.25,20.24,20.24,0,0,1,2.43.53A17.49,17.49,0,0,1,360.4,7h0l.54.26a76.75,76.75,0,0,0-8.55,4.65c-1.85,1.17-3.64,2.44-5.38,3.76a24.54,24.54,0,0,0-3.6.58c-.74.17-1.48.38-2.21.61s-1.45.5-2.17.79-1.45.58-2.16.91-1.39.67-2.07,1-1.36.73-2,1.12-1.32.79-2,1.19c-.88.54-1.74,1.09-2.61,1.65a.1.1,0,0,0-.05.06.15.15,0,0,0,0,.17.18.18,0,0,0,.24.07c1.3-.83,2.64-1.61,4-2.31.68-.35,1.38-.69,2.08-1s1.4-.64,2.11-.93h0c.77-.31,1.55-.61,2.33-.89s1.58-.5,2.38-.72a32.85,32.85,0,0,1,3.82-.82c-1.21,1-2.4,2-3.56,3.05-1.73,1.57-3.38,3.21-5,4.92C334.83,27,333.15,29,331.51,31l-.53.64-.45.07c-.28.05-.56.12-.84.19-.52.14-1,.32-1.55.5a25.83,25.83,0,0,0-3,1.38c-.49.26-1,.55-1.43.83s-.93.6-1.38.92c-.87.62-1.71,1.28-2.53,2l0,0a.15.15,0,0,0,0,.17.14.14,0,0,0,.2,0l.58-.46h0a21.72,21.72,0,0,1,2.66-1.69c.49-.26,1-.52,1.48-.75s.95-.43,1.43-.63q1.29-.51,2.64-.93l1.19-.34-2.06,2.5-3.62,4.41c-1.93,2.35-3.93,4.66-6,6.88-.44.14-.89.27-1.32.43s-1,.39-1.54.62c-1,.45-2.05,1-3,1.52a.12.12,0,0,0-.05,0,.14.14,0,0,0,0,.14.16.16,0,0,0,.2.06,28,28,0,0,1,3-1.42c.7-.28,1.42-.52,2.14-.73l-.95,1a64.71,64.71,0,0,1-8.9,7.63.23.23,0,0,0-.07.07.29.29,0,0,0,0,.32.28.28,0,0,0,.39.05,74.19,74.19,0,0,0,6.11-4.77c1.4-1.22,2.74-2.5,4.06-3.8l-.09.62c-.08.52-.19,1-.32,1.55s-.33,1.11-.53,1.65a12,12,0,0,1-.78,1.66c-.22.39-.45.77-.7,1.13a10.64,10.64,0,0,1-.83,1,.17.17,0,0,0,0,.23.16.16,0,0,0,.22,0,17.9,17.9,0,0,0,2.6-4,15.66,15.66,0,0,0,.88-2.27,11,11,0,0,0,.29-1.13,8.69,8.69,0,0,0,.18-1.23,1,1,0,0,0,0-.17l.52-.52c3.6-3.68,6.95-7.59,10.33-11.46l.71-.8v.13q0,.93,0,1.86c0,.69-.09,1.37-.16,2a26,26,0,0,1-.73,4h0v0h0A37.31,37.31,0,0,1,326.27,51l0,0-.41.7a.17.17,0,0,0,0,.23.15.15,0,0,0,.23,0,43.61,43.61,0,0,0,2.13-4A40.81,40.81,0,0,0,330,43.49,44.7,44.7,0,0,0,331.24,39a25.52,25.52,0,0,0,.59-4.6,13.38,13.38,0,0,0-.05-1.42c1.78-2,3.59-3.95,5.45-5.85a87.3,87.3,0,0,1,8.22-7.4c.79-.62,1.59-1.22,2.41-1.8q-.12.47-.21.93a20.52,20.52,0,0,0-.28,2.47c-.06.83-.09,1.66-.11,2.49s-.05,1.67-.09,2.51-.1,1.66-.17,2.48-.16,1.63-.26,2.44a47.94,47.94,0,0,1-.86,4.76c-.09.39-.19.79-.29,1.18h0a43.38,43.38,0,0,1-3.29,8.66.18.18,0,0,0,.1.22.17.17,0,0,0,.21-.1,47.67,47.67,0,0,0,2-4.56,46.12,46.12,0,0,0,1.47-4.63c.41-1.54.74-3.11,1-4.69s.49-3.23.66-4.86c.07-.7.14-1.4.2-2.1s.11-1.46.17-2.19a28.37,28.37,0,0,1,.66-4.21c.17-.63.36-1.26.59-1.87v0c1.69-1.15,3.41-2.24,5.18-3.27a73,73,0,0,1,7.56-3.78l-.06.23c-.18.71-.33,1.44-.44,2.17-.23,1.47-.36,2.95-.46,4.43-.19,3-.19,6-.45,9a32.83,32.83,0,0,1-.89,5.47v0c-.2.74-.41,1.47-.67,2.19a.14.14,0,0,0,.07.18.15.15,0,0,0,.19-.08c.26-.71.5-1.44.7-2.17s.37-1.43.51-2.15c.3-1.46.5-2.95.66-4.44.32-3,.45-6,.85-8.91.09-.67.2-1.35.33-2s.29-1.37.46-2,.3-1.07.47-1.61c.08-.28.17-.56.25-.84A71.08,71.08,0,0,1,372,6.31c2.16-.57,4.34-1,6.54-1.4a1.47,1.47,0,0,0,.95-.56,1.42,1.42,0,0,0-1.32-2.24Z"/><path class="cls-4" d="M329.85,42.11v0h0Z"/><path class="cls-8" d="M11.21,653.76c-4.17.87-7.94,3.17-11.38,5.53l-.21,0a.64.64,0,0,0-.57.32.65.65,0,0,0-.07.51.66.66,0,0,0,.31.4c1,.68,2,1.38,3,2.08,1.64,1.15,3.34,2.34,5.07,3.41a25.42,25.42,0,0,0,8.41,3.54,19.93,19.93,0,0,0,3.81.37c.39,0,.77,0,1.16,0a24.54,24.54,0,0,0,5-.83,54.18,54.18,0,0,0,9.26-3.7l1.4-.67,1.74-.84c1-.48,2.09-1,3.24-1.45l.31-.12c.24-.1.48-.19.71-.3l.27-.1a.37.37,0,0,0,.18-.14,44.22,44.22,0,0,1-9-2,45.58,45.58,0,0,1-4.62-1.81c-.76-.35-1.52-.72-2.26-1.11l-.85-.45-1-.41a49.65,49.65,0,0,0-4.85-1.8,20.35,20.35,0,0,0-4.72-.79h-.67a18,18,0,0,0-3.67.39"/><path class="cls-8" d="M29.11,599.53l-.27.29c-.4.43-.81.87-1.2,1.32s-.91,1.1-1.37,1.7a36.45,36.45,0,0,0-2.42,3.71,34.45,34.45,0,0,0-3.33,8.24,32.12,32.12,0,0,0-1.06,8.75,24.41,24.41,0,0,0,.45,4.33,42,42,0,0,0,1.22,4.37l0,.06.07.22c.39,1.21.79,2.46,1.1,3.71l0,.06a16.12,16.12,0,0,1,.53,4.07,10.78,10.78,0,0,1-.12,1.27.29.29,0,0,0,.09.26.53.53,0,0,0,.19.32.56.56,0,0,0,.35.13h.06a.6.6,0,0,0,.37-.2l.85-.82c.64-.6,1.22-1.1,1.79-1.54s1.36-1,1.95-1.44l1-.71c1-.67,2-1.37,2.91-2.11a16,16,0,0,0,4.92-6.38,13.93,13.93,0,0,0,.92-3.83,16.32,16.32,0,0,0-.15-4.22A15.61,15.61,0,0,0,37,617.42a23.47,23.47,0,0,0-1.7-3.15c-.5-.81-1-1.61-1.58-2.38s-.86-1.24-1.27-1.88a.76.76,0,0,1-.08-.11,15.61,15.61,0,0,1-1-1.46,17.49,17.49,0,0,1-1.59-3.18,13.7,13.7,0,0,1-.5-1.69,9.88,9.88,0,0,1-.23-1.72,9,9,0,0,1,.08-1.79c0-.2.07-.41.12-.61l-.11.08"/><path class="cls-8" d="M47.72,634.26a.47.47,0,0,0-.46.46.45.45,0,0,0,.1.29.7.7,0,0,0,.17.56c.16.18.31.37.46.57a12.12,12.12,0,0,1,1.4,2.5A31,31,0,0,1,51,646.05c.07.52.13,1,.2,1.56a35.67,35.67,0,0,0,.87,4.44,30.4,30.4,0,0,0,1.44,4.07,23.1,23.1,0,0,0,4.28,6.54,26.26,26.26,0,0,0,6.34,4.87,35.62,35.62,0,0,0,4.15,2,33.82,33.82,0,0,0,5.12,1.56c2,.46,4.15.79,6.2,1.09l1.09.1h0c1.33.1,2.67.15,4,.24s2.69.19,4,.4a18.89,18.89,0,0,1,3.85,1,12.83,12.83,0,0,1,1.8.84c.2.12.4.23.59.36a21,21,0,0,0-2.28-3.29,17.41,17.41,0,0,0-2.54-2.56c-1.11-1-2.31-1.81-3.47-2.65-.75-.54-1.53-1.11-2.28-1.69h0l0,0-.06,0,.06,0c-.79-.62-1.48-1.21-2.11-1.81a19.7,19.7,0,0,1-2-2.24A41.92,41.92,0,0,1,76,653.05c-.19-.41-.38-.83-.58-1.25a33.84,33.84,0,0,0-2.06-3.87,31.59,31.59,0,0,0-2.49-3.44,28.51,28.51,0,0,0-6.06-5.4,28,28,0,0,0-7.33-3.44,32.94,32.94,0,0,0-9.69-1.39Z"/><path class="cls-8" d="M97.64,600.44l-.13,0c-.67.18-1.35.36-2,.56s-1.35.42-2,.66a39.72,39.72,0,0,0-3.93,1.62,36.63,36.63,0,0,0-7.13,4.39,37.42,37.42,0,0,0-5.95,5.92A38.48,38.48,0,0,0,74,617.1c-.72,1.13-1.39,2.3-2,3.34l-.26.45a40.55,40.55,0,0,1-5.91,8.56l.06,0A16.78,16.78,0,0,1,62.54,632l.07,0a16.73,16.73,0,0,1-1.9.93h-.17a.58.58,0,0,0-.55.5.6.6,0,0,0,.12.44.56.56,0,0,0,.37.21,28.51,28.51,0,0,0,2.94.15c.84,0,1.7,0,2.57-.11a44.17,44.17,0,0,0,4.58-.65,38.7,38.7,0,0,0,8.16-2.51,27.16,27.16,0,0,0,7.14-4.52,22.61,22.61,0,0,0,2.9-3.13,15.54,15.54,0,0,0,1.1-1.62,16.56,16.56,0,0,0,.82-1.63,21,21,0,0,0,.94-2.76c.24-.89.47-1.86.72-3.07.11-.55.21-1.1.32-1.64s.26-1.37.4-2.06v0c.1-.63.2-1.26.32-1.89a19.72,19.72,0,0,1,.87-3.27,11.85,11.85,0,0,1,1.55-2.89A10.63,10.63,0,0,1,97,601.15a9.68,9.68,0,0,1,.85-.71h-.18"/><path class="cls-8" d="M138.39,617.1a49,49,0,0,0-6.47,1.07,45.71,45.71,0,0,0-12,4.62c-2.54,1.38-5,3-7.4,4.53-1.81,1.17-3.68,2.38-5.56,3.49a56.1,56.1,0,0,1-5.08,2.65,37.15,37.15,0,0,1-5.41,2l-.06,0-.94.23a.94.94,0,0,0-.48-.16h-.09a.76.76,0,0,0-.5.29.82.82,0,0,0-.15.57.77.77,0,0,0,.29.48,53.51,53.51,0,0,0,5.61,3.53,44.27,44.27,0,0,0,6,2.7,37.15,37.15,0,0,0,6.4,1.72,31.8,31.8,0,0,0,5.47.47h.45a31.17,31.17,0,0,0,9.54-1.71,47.28,47.28,0,0,0,8.48-3.93c2.68-1.53,5.3-3.25,7.84-4.92l3.24-2.11c.72-.5,1.44-1,2.18-1.45s1.67-1,2.51-1.53,1.51-.89,2.28-1.32c1.39-.8,2.8-1.56,4.25-2.24a31.31,31.31,0,0,1,4.48-1.76,20.73,20.73,0,0,1,4.54-.89c.39,0,.78,0,1.17,0s.73,0,1.09,0,.76.07,1.14.13l-.16-.09c-1.13-.56-2.25-1.08-3.33-1.54s-2-.84-3.26-1.28c-2-.71-4.16-1.36-6.36-1.91A61.42,61.42,0,0,0,145,616.89l-1.62,0c-1.69,0-3.37.08-5,.23"/><path class="cls-5" d="M14.88,653.35a18.29,18.29,0,0,0-3.68.39c-4.16.87-7.93,3.17-11.39,5.53a.49.49,0,0,0-.19,0,.67.67,0,0,0-.59.34.66.66,0,0,0-.07.53.65.65,0,0,0,.31.41c1,.68,2,1.38,3,2.08l.06,0c1.44,1,3.23,2.26,5,3.37a25.46,25.46,0,0,0,8.4,3.54h.54a6.19,6.19,0,0,0,1.28-.12,3.47,3.47,0,0,0,.65-.23,1.89,1.89,0,0,0,.31-.22,1.32,1.32,0,0,0,.22-.26.9.9,0,0,0,.13-.28,1.51,1.51,0,0,0,.07-.39,2.72,2.72,0,0,0-.07-.61c0-.06,0-.15-.07-.23a1.42,1.42,0,0,0-.08-.18,2.65,2.65,0,0,0-.27-.37,4.81,4.81,0,0,0-.87-.71c-.36-.22-.7-.41-1.08-.61l-.29-.15-.67-.35-.4-.24a1.18,1.18,0,0,1-.28-.22.6.6,0,0,1-.18-.23.26.26,0,0,1,0-.1V664a.46.46,0,0,1,.07-.14l.09-.09a.89.89,0,0,1,.29-.17,3,3,0,0,1,.53-.17c.23-.06.47-.1.7-.15l.54-.08.48-.07.33,0h.11a7.6,7.6,0,0,1,1.16.11c.67.1,1.35.23,2,.37l.46.09.55.11a25.34,25.34,0,0,0,3.24.42h.37A6.22,6.22,0,0,0,27,664a3.1,3.1,0,0,0,.69-.25,2.44,2.44,0,0,0,.39-.28,1.42,1.42,0,0,0,.25-.3,1.76,1.76,0,0,0,.22-.46,1.17,1.17,0,0,0,0-.64,1.88,1.88,0,0,0-.14-.34,2.13,2.13,0,0,0-.29-.4,4,4,0,0,0-.76-.62A10.74,10.74,0,0,0,26,660l-.66-.28-.26-.11-.06,0-.32-.13c-.66-.28-1.32-.5-1.87-.68l-.47-.15c-.43-.14-.82-.26-1.2-.4a10.15,10.15,0,0,1-1.54-.67,6.24,6.24,0,0,1-1.28-.94,5.13,5.13,0,0,1-.6-.65,3,3,0,0,1-.3-.4,1.4,1.4,0,0,1-.16-.26,1.3,1.3,0,0,1-.12-.57,2.72,2.72,0,0,1,0-.28v-.18c0-.07,0-.16,0-.26a1.22,1.22,0,0,0-.07-.17,1.34,1.34,0,0,0-.16-.23c-.07-.06-.13-.13-.21-.19-.39,0-.79-.08-1.17-.09h-.67"/><path class="cls-5" d="M28.72,611.56h-.1a1.34,1.34,0,0,0-.38.1,3.12,3.12,0,0,0-.53.29,4.31,4.31,0,0,0-.4.32,2.76,2.76,0,0,0-.29.3,3.28,3.28,0,0,0-.27.38,3.23,3.23,0,0,0-.22.41,8.58,8.58,0,0,0-.58,2.09c0,.21-.07.43-.11.64-.07.43-.13.86-.22,1.28a7.74,7.74,0,0,1-.57,1.78,4.09,4.09,0,0,1-.5.77,3.23,3.23,0,0,1-.64.59,1.64,1.64,0,0,1-.44.25,1.17,1.17,0,0,1-.33.09l-.2,0h-.15l-.44,0H21.8l-.24,0-.17,0-.13.06-.14.09a1.32,1.32,0,0,0-.25.21l-.13.14a2.53,2.53,0,0,0-.27.46,3.58,3.58,0,0,0-.27.89,10.79,10.79,0,0,0,0,2.78l0,.12c0,.34.07.7.11,1.06.08.61.18,1.21.27,1.67l.09.49.07.4c.16.8.33,1.7.44,2.57.05.31.08.61.11.92.34,1.06.72,2.26,1,3.44l0,0a16.07,16.07,0,0,1,.52,4.07,9.69,9.69,0,0,1-.11,1.27.3.3,0,0,0,.09.27.56.56,0,0,0,.19.33.64.64,0,0,0,.37.13h.06a.63.63,0,0,0,.38-.21l.86-.82c.65-.61,1.24-1.12,1.78-1.54s1.37-1,1.95-1.44l1-.71.08-.06c.91-.62,1.93-1.33,2.84-2.06a15.91,15.91,0,0,0,4.92-6.38l.19-.52c.05-.44.08-.88.1-1.32,0-.7.06-1.35.06-2a17.74,17.74,0,0,0-.09-1.91c0-.41-.09-.77-.15-1.1a7.15,7.15,0,0,0-.24-.87,2.92,2.92,0,0,0-.29-.56,1.7,1.7,0,0,0-.22-.24l-.17-.11-.18-.06h-.21a1.35,1.35,0,0,0-.31.07,1.88,1.88,0,0,0-.5.29,2.48,2.48,0,0,0-.36.28l-.3.3a1.7,1.7,0,0,0-.2.33,6.7,6.7,0,0,0-.28.83c-.07.27-.13.54-.19.81l0,.12,0,.11c-.07.31-.13.57-.21.83a4.09,4.09,0,0,1-.3.81,2,2,0,0,1-.22.35,1.89,1.89,0,0,1-.23.25,1.12,1.12,0,0,1-.28.16,1.32,1.32,0,0,1-.32.07h-.06a1.56,1.56,0,0,1-.69-.17,1.49,1.49,0,0,1-.49-.41,4,4,0,0,1-.27-.44c-.07-.17-.13-.33-.19-.5a7,7,0,0,1-.24-1.3,18.88,18.88,0,0,1-.05-3.08c0-.65.07-1.29.11-1.94l.07-.92c0-.32,0-.65,0-1,0-.12,0-.23,0-.35v-.16c0-.2,0-.4-.05-.6,0-.46-.1-.86-.17-1.24a8.5,8.5,0,0,0-.32-1.16,3.38,3.38,0,0,0-.38-.74,1.66,1.66,0,0,0-.26-.27,1,1,0,0,0-.24-.15.83.83,0,0,0-.22-.08h-.18"/><path class="cls-5" d="M87.7,612.16l-.26,0a2.81,2.81,0,0,0-.49.16,4.25,4.25,0,0,0-.77.51A9.23,9.23,0,0,0,85.1,614c-.39.48-.75,1-1,1.4l-.39.56-.42.59c-.24.35-.5.71-.78,1.05a5,5,0,0,1-.71.76,1.45,1.45,0,0,1-.33.22,3.65,3.65,0,0,1-.59.25A2.56,2.56,0,0,1,80,619l-.29,0a2.15,2.15,0,0,1-.82-.33,4.92,4.92,0,0,1-.68-.55,5.89,5.89,0,0,0-.61-.51,1.78,1.78,0,0,0-.4-.22,1.57,1.57,0,0,0-.31-.08h-.12l-.26,0a2.35,2.35,0,0,0-.51.17,4.73,4.73,0,0,0-1,.69c-.24.21-.44.38-.63.57a29.75,29.75,0,0,0-3,3.71c-.48.66-1,1.39-1.57,2.08-.29.37-.59.72-.88,1a25.56,25.56,0,0,1-3.12,3.92h.09A18.92,18.92,0,0,1,62.53,632h.08c-.69.34-1.34.65-1.91.89l-.06,0h-.1a.61.61,0,0,0-.58.52.63.63,0,0,0,.13.45.6.6,0,0,0,.39.22,28.8,28.8,0,0,0,2.94.15c.81,0,1.68,0,2.57-.1a45.51,45.51,0,0,0,4.58-.66,38.26,38.26,0,0,0,8.17-2.51,27.48,27.48,0,0,0,7.15-4.53c.47-.42.92-.85,1.34-1.3v-.06a.66.66,0,0,0,0-.2.88.88,0,0,0,0-.15l-.06-.1-.14-.14-.27-.13a2.75,2.75,0,0,0-.66-.13h-.84l-.28,0a7.2,7.2,0,0,0-.78.19l-.9.27-.91.29-.13,0-.92.29-.92.28c-.26.07-.51.13-.78.18a3.19,3.19,0,0,1-.52.06H79a.75.75,0,0,1-.23,0,.34.34,0,0,1-.15-.09.25.25,0,0,1-.1-.2.53.53,0,0,1,0-.23,1.24,1.24,0,0,1,.17-.3,3.58,3.58,0,0,1,.3-.36,14.09,14.09,0,0,1,1.14-1.09l.55-.46.46-.35.25-.2c.25-.18.48-.37.72-.55.77-.61,1.4-1.12,2-1.61.9-.76,1.63-1.43,2.3-2.09a17.76,17.76,0,0,0,1.91-2.2,6.59,6.59,0,0,0,.8-1.43,3.13,3.13,0,0,0,.17-.74,2.15,2.15,0,0,0,0-.42,2,2,0,0,0-.12-.37,1.6,1.6,0,0,0-.21-.32,2.07,2.07,0,0,0-.37-.34,2.32,2.32,0,0,0-.41-.22,1.76,1.76,0,0,0-.37-.08H87.7"/><path class="cls-5" d="M47.82,634.24h-.1a.49.49,0,0,0-.49.48.44.44,0,0,0,.12.3.61.61,0,0,0,.16.56l.47.57a12.3,12.3,0,0,1,1.39,2.5A30,30,0,0,1,50.94,646l.07.5.06.5.08.58a37,37,0,0,0,.87,4.45,30,30,0,0,0,1.44,4.07c.42.67.82,1.26,1.23,1.8a13.49,13.49,0,0,0,1.51,1.72,6.09,6.09,0,0,0,1.27.93,3.11,3.11,0,0,0,.76.29,2.52,2.52,0,0,0,.48,0h.07a1.93,1.93,0,0,0,.48-.08,2,2,0,0,0,.45-.21,3,3,0,0,0,.59-.49,1.46,1.46,0,0,0,.16-.19,1.88,1.88,0,0,0,.12-.18,2.7,2.7,0,0,0,.17-.47,4.53,4.53,0,0,0,0-.77,10.72,10.72,0,0,0-.38-2.07c-.05-.2-.11-.39-.16-.58l-.14-.52c-.09-.32-.17-.64-.23-1a3.94,3.94,0,0,1-.11-.86,1.83,1.83,0,0,1,0-.35,1.38,1.38,0,0,1,.08-.27,1.2,1.2,0,0,1,.16-.25,1,1,0,0,1,.2-.15,1,1,0,0,1,.31-.09.82.82,0,0,1,.22,0h.11a2,2,0,0,1,.82.29,4.34,4.34,0,0,1,.86.69,10.21,10.21,0,0,1,.9,1c.29.38.59.79.9,1.26.64,1,1.23,2,1.73,2.8l.39.67c.37.64.74,1.28,1.13,1.91a12.64,12.64,0,0,0,.72,1.08,4.83,4.83,0,0,0,.37.42c.2.21.4.41.61.61a11.48,11.48,0,0,0,2.24,1.67,4.41,4.41,0,0,0,1.06.4,2.42,2.42,0,0,0,.47,0h.07a1.36,1.36,0,0,0,.36,0,1.46,1.46,0,0,0,.28-.13,2.39,2.39,0,0,0,.26-.21,1.92,1.92,0,0,0,.27-.39,3.32,3.32,0,0,0,.27-.75,6.29,6.29,0,0,0,.14-1.58,4.64,4.64,0,0,0-.09-.77c0-.24-.1-.47-.17-.73a9.34,9.34,0,0,0-1-2A26,26,0,0,0,71,655.37c-.5-.58-1-1.16-1.46-1.76-.26-.33-.59-.78-.9-1.25a9.07,9.07,0,0,1-.69-1.26,6,6,0,0,1-.43-1.3,5.12,5.12,0,0,1-.1-1.3.14.14,0,0,1,0-.09l.09,0a3.12,3.12,0,0,1,1.34.34,9.3,9.3,0,0,1,1.37.82c.29.2.57.41.85.62l.49.37a8.3,8.3,0,0,0,1.18.78,2.61,2.61,0,0,0,.56.21.85.85,0,0,0,.25,0,.71.71,0,0,0,.21,0l.13-.07.15-.12a1.9,1.9,0,0,0,.4-.92c0-.14.06-.32.08-.49-.37-.71-.75-1.37-1.15-2a29.53,29.53,0,0,0-2.5-3.44,27.82,27.82,0,0,0-6.06-5.41,28.31,28.31,0,0,0-7.33-3.44,33.06,33.06,0,0,0-9.7-1.39"/><path class="cls-5" d="M121.93,621.71h0c-.67.34-1.35.69-2,1.06-2.51,1.36-4.94,2.94-7.29,4.46l-.11.07-.09.06-.07,0c-1.56,1-3.51,2.27-5.4,3.39a57.16,57.16,0,0,1-5.08,2.65,37.46,37.46,0,0,1-5.4,2l-.06,0h-.08c-.29.08-.58.16-.87.22a.82.82,0,0,0-.47-.17h-.09a.79.79,0,0,0-.52.3.8.8,0,0,0-.15.58.76.76,0,0,0,.3.5,51.49,51.49,0,0,0,5.62,3.53,43.6,43.6,0,0,0,6,2.7,37.05,37.05,0,0,0,6.41,1.73,32,32,0,0,0,5.47.46h.45a29.67,29.67,0,0,0,7.15-1,2.08,2.08,0,0,0-.42-.26,12.48,12.48,0,0,0-1.58-.69c-.57-.21-1.18-.42-1.88-.63-1.21-.38-2.31-.67-3.35-.9l-.58-.12h-.3a.18.18,0,0,1-.13,0,.18.18,0,0,1,0-.14s0-.06.08-.07a4.89,4.89,0,0,1,2-1,15.82,15.82,0,0,1,2.61-.35c.39,0,.78,0,1.17-.06l1.61-.1a13.15,13.15,0,0,0,2.52-.4,5,5,0,0,0,1.08-.47,4.07,4.07,0,0,0,.65-.53,2,2,0,0,0,.23-.3c.07-.1.13-.2.19-.3a2.92,2.92,0,0,0,.26-.68,2,2,0,0,0,0-.33,1.15,1.15,0,0,0,0-.22l-.09-.2-.18-.21A2.54,2.54,0,0,0,129,636l-.57-.26-.06,0-.45-.19a2.38,2.38,0,0,1-.44-.25.85.85,0,0,1-.27-.31.63.63,0,0,1,0-.43,1.12,1.12,0,0,1,.1-.27c.06-.09.11-.18.18-.27a5.48,5.48,0,0,1,.68-.7c.13-.12.27-.24.4-.34a4,4,0,0,1,.34-.23,5.71,5.71,0,0,1,1.05-.52,9.9,9.9,0,0,1,1.23-.37,26.15,26.15,0,0,1,2.86-.5l.69-.09.37,0c.67-.08,1.34-.16,2-.26a22.37,22.37,0,0,0,2.92-.62,7.76,7.76,0,0,0,1.94-.85,5.44,5.44,0,0,0,1-.81,4.8,4.8,0,0,0,.65-.92,5.14,5.14,0,0,0,.42-1.16,3.92,3.92,0,0,0,.09-1,2.69,2.69,0,0,0-.1-.59,2.28,2.28,0,0,0-.2-.45,2.37,2.37,0,0,0-.35-.42,3.41,3.41,0,0,0-.57-.4,5,5,0,0,0-1.13-.4,9.83,9.83,0,0,0-2-.18h-.61a19.67,19.67,0,0,0-2.49.26l-1.06.2-.37.08-.07,0q-.4.09-.78.21c-.47.14-.94.3-1.42.47l-.18.06c-.54.19-1.08.38-1.63.55a14.79,14.79,0,0,1-1.7.42,8,8,0,0,1-1.46.15h-.12a4.91,4.91,0,0,1-.85-.08,3.47,3.47,0,0,1-.69-.19,3.73,3.73,0,0,1-.66-.31,3.27,3.27,0,0,1-.53-.42,4.87,4.87,0,0,1-.51-.57l-.35-.48,0-.07a7.53,7.53,0,0,0-.86-1.05,1.47,1.47,0,0,0-.29-.23,1.67,1.67,0,0,0-.28-.18,3,3,0,0,0-.45-.19l-.34-.1-.12,0h0"/><polygon class="cls-6" points="129.02 636.01 129.02 636.01 129.02 636 129.02 636.01"/><path class="cls-6" d="M161.65,621.81q-3,0-6.05.32c-2.09.22-4.16.57-6.22,1-.6.12-1.18.26-1.77.39l.36-.32,1.14-1.06a15.19,15.19,0,0,1,2.37-1.79c.24-.13.48-.26.73-.38a8,8,0,0,1,.8-.34.14.14,0,0,0,.08-.19.16.16,0,0,0-.13-.08h-.06a12.25,12.25,0,0,0-1.8.84,14.76,14.76,0,0,0-1.63,1.07c-.51.38-1,.77-1.49,1.18s-.94.83-1.39,1.28l-.59.15h-.27a.24.24,0,0,0-.2.12c-2.59.64-5.15,1.38-7.69,2.17-3.38,1-6.73,2.18-10.09,3.28.44-.37.88-.75,1.31-1.15.92-.86,1.79-1.78,2.69-2.67s1.79-1.76,2.75-2.57a23.94,23.94,0,0,1,3.14-2.25h0c.48-.28,1-.54,1.48-.78a.18.18,0,0,0,.09-.24.18.18,0,0,0-.16-.11l-.07,0a24.85,24.85,0,0,0-3.72,2.19,39.42,39.42,0,0,0-3.27,2.65l-3.13,2.8c-1.07.95-2.15,1.9-3.27,2.8-3.78,1.2-7.61,2.29-11.49,3.12q-2.37.5-4.77.84a1,1,0,0,1,.09-.13,13.12,13.12,0,0,1,1-1.13,27.19,27.19,0,0,1,5.7-4.11,35.73,35.73,0,0,0,5.85-4,.13.13,0,0,0,0-.19.13.13,0,0,0-.11-.06.11.11,0,0,0-.08,0,21.29,21.29,0,0,1-3.51,2.46h0c-1.93,1.13-3.93,2.13-5.8,3.34a13.79,13.79,0,0,0-4.13,3.88c-1.62.21-3.25.37-4.88.45-.9,0-1.8.06-2.7.05s-2-.07-3-.11c-2.07-.08-4.14-.19-6.21-.31h0c-8.3-.52-16.61-1.33-24.93-1.64.6-.28,1.18-.58,1.76-.9a29.59,29.59,0,0,0,6.11-4.64h0a11.09,11.09,0,0,0,1.69-.37A11.46,11.46,0,0,0,78,626a20.49,20.49,0,0,0,3-1.84c1-.69,1.91-1.45,2.86-2.18a32.67,32.67,0,0,1,3-2.14.15.15,0,0,0,0-.2.14.14,0,0,0-.12-.06l-.08,0c-.72.44-1.42.9-2.12,1.38l-2,1.42a29.12,29.12,0,0,1-4,2.49,14.59,14.59,0,0,1-2.94,1,57.89,57.89,0,0,0,3.78-4.49c1.53-2,2.92-4.06,4.38-6.1h.05a10.64,10.64,0,0,0,1.69-.84c.54-.34,1.06-.71,1.57-1.09s1-.8,1.49-1.21,1-.84,1.54-1.24a.16.16,0,0,0,0-.2.14.14,0,0,0-.12-.06.08.08,0,0,0-.07,0c-.5.38-1,.75-1.52,1.11s-1,.73-1.58,1.07a23.63,23.63,0,0,1-2.25,1.27,65.16,65.16,0,0,1,7.79-9.35.22.22,0,0,0,0-.3.2.2,0,0,0-.14,0,.25.25,0,0,0-.17.08,65.13,65.13,0,0,0-5.31,5.71c-.83,1-1.64,2-2.44,3l.12-.51c.19-.9.34-1.81.58-2.7a10.58,10.58,0,0,1,.37-1.08,8.41,8.41,0,0,1,.52-1,7.74,7.74,0,0,1,.78-1,.14.14,0,0,0,0-.2l-.09,0a.16.16,0,0,0-.11,0c-.23.26-.45.54-.66.83a8.3,8.3,0,0,0-.49.81,11.31,11.31,0,0,0-.77,1.87c-.2.6-.35,1.22-.51,1.83s-.33,1.3-.51,1.95c0,.14-.09.28-.13.42L82,616.34q-1.83,2.29-3.73,4.5c-.86,1-1.75,1.93-2.66,2.86.24-.6.44-1.22.62-1.84.24-.86.41-1.73.59-2.6s.4-1.75.64-2.61a19.55,19.55,0,0,1,.69-2,.19.19,0,0,0-.09-.25H78a.19.19,0,0,0-.18.11c-.39,1-.74,1.94-1,2.93s-.58,1.9-.9,2.84-.64,1.86-1,2.78a20.56,20.56,0,0,1-1.32,2.66h0v0h0v0h0v0c-.75.66-1.52,1.31-2.32,1.91a27.26,27.26,0,0,1-7,3.77,38.81,38.81,0,0,1-3.76,1.16c-2.27,0-4.55.05-6.82.17a87.36,87.36,0,0,0-19.06,3.09,72.18,72.18,0,0,0-9.24,3.33c.18-.34.35-.69.5-1l.6-.46c.31-.25.63-.49,1-.73.64-.48,1.27-1,1.89-1.46a20.48,20.48,0,0,0,1.7-1.52c.27-.28.51-.56.75-.86s.44-.55.65-.85a10.87,10.87,0,0,0,.95-1.7,15.45,15.45,0,0,0,.73-1.85c.45-1.33.8-2.69,1.23-4a.18.18,0,0,0-.12-.22h0a.18.18,0,0,0-.17.13c-.26.8-.5,1.6-.76,2.39s-.51,1.53-.83,2.27v0a13.77,13.77,0,0,1-.74,1.49,12.66,12.66,0,0,1-1,1.47c-.18.22-.37.44-.56.64s-.46.44-.7.66c-.48.42-1,.82-1.51,1.21l.05,0c-.67.49-1.36,1-2,1.46l-.37.27c.2-.56.39-1.13.56-1.71.24-.78.44-1.57.61-2.37a32.85,32.85,0,0,0,.6-4.06,13.68,13.68,0,0,0,.89-1.35,13.21,13.21,0,0,0,.76-1.56,19.8,19.8,0,0,0,1-3.18c.26-1.09.46-2.19.7-3.29a25.31,25.31,0,0,1,1-3.4.17.17,0,0,0-.12-.2h0a.18.18,0,0,0-.16.12,38.9,38.9,0,0,0-1.3,4.64,28.39,28.39,0,0,1-1.35,4.5,13.43,13.43,0,0,1-.68,1.37c-.17.3-.36.58-.55.86a28.92,28.92,0,0,0-.18-4.26c-.2-1.77-.51-3.54-.78-5.31a.16.16,0,0,0,0-.13,4.05,4.05,0,0,0-.12-.47l-.09-.64a7.13,7.13,0,0,0,.57-1.54c.16-.6.27-1.21.37-1.82s.2-1.23.34-1.84a10.27,10.27,0,0,1,.58-1.86l.07-.15a.2.2,0,0,0,0-.15.21.21,0,0,0-.08-.11.17.17,0,0,0-.1,0,.18.18,0,0,0-.16.09,10.71,10.71,0,0,0-.62,1.72c-.18.63-.32,1.27-.46,1.91s-.28,1.27-.45,1.9c-.07.23-.15.46-.22.68a27.54,27.54,0,0,1-.2-4.16h0a17.61,17.61,0,0,1,.67-4.2q.21-.69.48-1.35a.18.18,0,0,0-.18-.24.14.14,0,0,0-.14.1,16.72,16.72,0,0,0-1.16,4.88,28.11,28.11,0,0,0,.06,4.94c0,.23,0,.45.07.68l-.36-.43c-.56-.62-1.17-1.18-1.73-1.79h0c-.18-.2-.34-.4-.5-.61a7.92,7.92,0,0,1-.42-.69h0v0h0a5.36,5.36,0,0,1-.25-.62.14.14,0,0,0-.13-.1h-.05a.14.14,0,0,0-.08.18,5.37,5.37,0,0,0,.67,1.41,13,13,0,0,0,1,1.25c.35.4.7.79,1,1.2a8.48,8.48,0,0,1,.84,1.3v0l0,.05,0-.05a3.69,3.69,0,0,1,.17.42c.11.94.23,1.89.33,2.83a42.64,42.64,0,0,1,.3,5.05c0,.2,0,.41,0,.61v.08c0,.48-.07,1-.12,1.43a8,8,0,0,0-.64-1.05,22.16,22.16,0,0,0-1.47-1.74l.05.06c-.29-.33-.59-.64-.88-1a13.37,13.37,0,0,1-.89-1.1,9,9,0,0,1-.8-1.29,8.28,8.28,0,0,1-.62-1.75.14.14,0,0,0-.15-.11h-.05a.16.16,0,0,0-.1.2,8.29,8.29,0,0,0,.36,1.2,9.33,9.33,0,0,0,.52,1.11,11.22,11.22,0,0,0,.63,1.05c.22.33.46.65.71,1s.47.64.72.95.49.64.72,1a17,17,0,0,1,1.23,2c.13.26.25.53.36.8a.42.42,0,0,0,.09.14c0,.2-.07.4-.1.6-.23,1.19-.52,2.36-.86,3.52l-.08.26a1.09,1.09,0,0,0,.05-.17,29.66,29.66,0,0,1-1.08,3c0-.06,0-.12-.05-.18a11.13,11.13,0,0,0-.66-1.45c-.24-.46-.53-.89-.81-1.33s-.55-.85-.78-1.31a10.05,10.05,0,0,1-.52-1.32.17.17,0,0,0-.17-.11h0a.19.19,0,0,0-.11.23c.08.27.17.54.26.81s.23.56.36.84c.25.55.51,1.08.77,1.62v0c.23.47.47.94.68,1.43a8.24,8.24,0,0,1,.5,1.6c0,.13,0,.26.06.39a30.51,30.51,0,0,1-1.42,2.72c-.19.3-.39.58-.58.88l-.13.2c-.91.44-1.83.9-2.73,1.39A71,71,0,0,0-1.09,658.64c-.69.82-1.35,1.65-2,2.49S-4.48,663-5.15,664c-1.26,1.79-2.59,3.54-4,5.23-.93,1.14-1.92,2.25-2.92,3.34a19.67,19.67,0,0,0-.07-2c-.06-.68-.16-1.36-.28-2,.08-.13.17-.26.24-.39a7,7,0,0,0,.51-1.12,10.8,10.8,0,0,0,.58-2.37c.06-.38.09-.76.12-1.15s0-.84,0-1.27c0-.87,0-1.74.05-2.61a.14.14,0,0,0-.14-.13h0c-.09,0-.13.07-.14.15,0,.84-.07,1.68-.14,2.52,0,.6-.12,1.21-.21,1.8a10.65,10.65,0,0,1-.46,1.85,7.4,7.4,0,0,1-.44,1c-.08.15-.16.29-.25.43q-.21-1-.48-2c-.39-1.39-.87-2.75-1.39-4.1a7.6,7.6,0,0,0,.3-.92,7.52,7.52,0,0,0,.23-1.76,16.92,16.92,0,0,0-.43-3.4h0a16,16,0,0,1-.36-3.23.15.15,0,0,0-.15-.14h0a.15.15,0,0,0-.14.15c0,.55,0,1.1,0,1.64s.11,1.13.17,1.7.11,1.1.15,1.66a11.09,11.09,0,0,1,0,1.63A7,7,0,0,1-15,660c-.65-1.6-1.38-3.16-2.15-4.71-.34-.68-.69-1.35-1-2a8.64,8.64,0,0,0,.1-1.24,8.21,8.21,0,0,0-.15-1.4c-.07-.45-.17-.89-.28-1.32s-.22-1-.32-1.47S-19,647-19,646.58a.14.14,0,0,0-.14-.14h0a.16.16,0,0,0-.13.15,13.94,13.94,0,0,0,.22,1.56c.09.49.2,1,.29,1.48h0c.08.42.15.85.19,1.28a7.7,7.7,0,0,1,0,1.27h0v0l0,.24-.4-.77,0,0c-.75-1.42-1.51-2.84-2.3-4.24s-1.48-2.59-2.23-3.88a.16.16,0,0,0-.14-.07.2.2,0,0,0-.11,0,.19.19,0,0,0,0,.25c.65,1.11,1.28,2.24,1.88,3.38l0,0c.64,1.21,1.26,2.43,1.83,3.67.33.7.64,1.41.93,2.12l-.13-.11a9.26,9.26,0,0,1-.85-.81c-.33-.36-.64-.75-.94-1.14l-.95-1.24a14.55,14.55,0,0,0-2-2.32l-.09,0a.16.16,0,0,0-.11.05.14.14,0,0,0,0,.2c.17.15.34.32.5.48a29.06,29.06,0,0,1,2.32,3.21,12.66,12.66,0,0,0,1.25,1.57,4.88,4.88,0,0,0,1.4,1.07c.13.32.27.64.39,1,.54,1.38,1,2.79,1.44,4.2.3.94.55,1.9.8,2.85-.2-.1-.4-.2-.58-.31l.05,0-.06,0h0A12.42,12.42,0,0,1-19,659.62c-.59-.64-1.15-1.3-1.73-2a15.26,15.26,0,0,0-1.91-1.86.14.14,0,0,0-.09,0,.16.16,0,0,0-.11.05.15.15,0,0,0,0,.2,9.36,9.36,0,0,1,1,1h0c1,1.08,1.8,2.34,2.75,3.46.25.29.51.56.77.83a8.31,8.31,0,0,0,.86.71,6.47,6.47,0,0,0,1,.58,3.41,3.41,0,0,0,.48.18c0,.15.07.3.1.44.38,1.67.67,3.36.89,5.06l-.57-.33c-.48-.31-.94-.65-1.39-1s-1-.79-1.47-1.18-.92-.76-1.4-1.13a15.13,15.13,0,0,0-1.5-1h-.06a.14.14,0,0,0-.13.08.15.15,0,0,0,.07.19l.2.12h0l0,0h0a13.89,13.89,0,0,1,1.78,1.38c.58.51,1.12,1.07,1.68,1.6.27.25.54.5.83.74s.61.49.93.71a10.27,10.27,0,0,0,1,.61l.12.05,0,.26c.12,1,.21,2.08.26,3.13.05.87.06,1.75.08,2.62-1,1-2,2-3.1,3A84.08,84.08,0,0,1-35.07,690c-2,1-4,2-6,2.89a1.15,1.15,0,0,0-.6.53,1.14,1.14,0,0,0-.05.83,1.08,1.08,0,0,0,1.36.64c2.5-.92,4.94-2,7.34-3.16s4.54-2.34,6.71-3.67a73,73,0,0,0,11.69-9,90,90,0,0,0,10-11.3c.78-1,1.52-2,2.27-3.07s1.68-2.21,2.56-3.27c.37-.45.75-.89,1.13-1.32.83-.19,1.68-.34,2.52-.46.27.31.56.61.85.9a12.55,12.55,0,0,0,1.12.93c.38.29.77.55,1.17.8s.8.49,1.21.71c.83.44,1.68.84,2.53,1.25s1.83.89,2.7,1.4a.18.18,0,0,0,.23,0,.2.2,0,0,0,0-.27c-.76-.44-1.54-.87-2.32-1.28s-1.52-.82-2.26-1.25l.06,0a23,23,0,0,1-2-1.26c-.34-.24-.67-.5-1-.76s-.6-.55-.89-.84c-.14-.13-.26-.29-.39-.43l.5,0a34.46,34.46,0,0,1,4.31-.1c.73,0,1.45.09,2.17.15a19.93,19.93,0,0,0,2.41,2.18,23.3,23.3,0,0,0,2.85,1.87,31.74,31.74,0,0,0,3,1.5c1.13.5,2.26,1,3.39,1.45a.2.2,0,0,0,.27-.11.2.2,0,0,0-.11-.27,49.66,49.66,0,0,1-5.33-2.62c-.52-.31-1-.62-1.53-.95s-1-.72-1.54-1.11c-.71-.56-1.38-1.16-2-1.78,1.79.2,3.57.48,5.34.79l5.46,1,.15.13a5,5,0,0,0,.47.33,7.17,7.17,0,0,0,1,.54,14.57,14.57,0,0,0,2.17.81L30,664l1.07.35c.39.14.78.3,1.15.47a.17.17,0,0,0,.23-.09.17.17,0,0,0-.09-.22c-.58-.27-1.17-.51-1.76-.74s-1.24-.43-1.86-.64a22.11,22.11,0,0,1-3.13-1.33l2,.34a46.31,46.31,0,0,0,9.18.6.29.29,0,0,0-.06-.58c-.79,0-1.58,0-2.37,0a55.3,55.3,0,0,1-8.77-1.25l-.8-.17.55-.14c.38-.11.75-.25,1.12-.38s.77-.27,1.16-.39a6.5,6.5,0,0,1,1.52-.23l.34,0a.15.15,0,0,0,.16-.13.13.13,0,0,0-.12-.15,3.85,3.85,0,0,0-.48,0,7.13,7.13,0,0,0-1,.07,12.89,12.89,0,0,0-1.59.34c-.52.14-1,.27-1.58.39a7.57,7.57,0,0,1-1.64.19h-.12a.32.32,0,0,0-.14,0c-2.15-.48-4.29-1-6.44-1.41-.9-.18-1.81-.35-2.72-.51l.39-.18a13.13,13.13,0,0,1,1.38-.46c.86-.23,1.73-.4,2.6-.61a12.18,12.18,0,0,0,2.56-.84.19.19,0,0,0,.1-.24.19.19,0,0,0-.17-.12l-.07,0a7.27,7.27,0,0,1-1.28.47,12.58,12.58,0,0,1-1.71.33c-.62.1-1.24.17-1.86.26a9.65,9.65,0,0,0-1.78.44,3.87,3.87,0,0,0-.8.37c-.12.07-.24.14-.35.22l-.18.16a40.39,40.39,0,0,0-4.91-.47c-.34,0-.69,0-1,0l-.86,0a18.36,18.36,0,0,1,2.78-1.17l1.45-.53a11.12,11.12,0,0,0,1.43-.7.2.2,0,0,0,.09-.09.17.17,0,0,0,0-.14.18.18,0,0,0-.16-.11l-.07,0a11,11,0,0,1-2.54,1,23.68,23.68,0,0,0-2.35.73,6.37,6.37,0,0,0-1,.51,4,4,0,0,0-.48.32,3.61,3.61,0,0,0-.3.25c-.35,0-.7.06-1.06.11l-.36.06c.77-.81,1.55-1.61,2.35-2.39.58-.55,1.17-1.1,1.77-1.64a74.52,74.52,0,0,1,15.11-10.38,73,73,0,0,1,8.06-3.51,71.14,71.14,0,0,1,9.83-2.81c2.55-.52,5.14-.91,7.73-1.19h.1a15.34,15.34,0,0,1,2.21.5,16.14,16.14,0,0,1,1.85.73l.13.14a7.24,7.24,0,0,1,1,1.49,13.67,13.67,0,0,1,1,3.25c.2,1,.29,2,.39,3.05.06.64.13,1.28.18,1.91s.11,1.32.18,2a31.55,31.55,0,0,0,.63,3.75,18.68,18.68,0,0,0,1.37,3.77.23.23,0,0,0,.28.14.22.22,0,0,0,.13-.27,16.29,16.29,0,0,1-.79-2c-.2-.64-.36-1.29-.5-2a34.92,34.92,0,0,1-.51-4.67c0-.81-.07-1.61-.09-2.42s0-1.35-.1-2a15.9,15.9,0,0,0-.7-3.87,9.07,9.07,0,0,0-.48-1.11l.37.22a24.56,24.56,0,0,1,4.55,3.9,36.5,36.5,0,0,1,2.58,3.23c.55.77,1.06,1.56,1.56,2.36a.46.46,0,0,0,0,.26c.1.34.18.68.26,1a15.16,15.16,0,0,1,.23,1.9c0,.71.05,1.43.06,2.14s0,1.45.13,2.17a12.76,12.76,0,0,0,.39,2,13,13,0,0,0,.6,1.72c.24.57.51,1.11.8,1.66.57,1.09,1.19,2.17,1.75,3.27v0c.28.56.55,1.13.79,1.71a.17.17,0,0,0,.21.1.16.16,0,0,0,.11-.21c-.52-1.27-1.15-2.47-1.76-3.69,0,0,0,0,0,0-.38-.76-.74-1.53-1.06-2.32-.16-.42-.31-.83-.44-1.26s-.23-.84-.32-1.27-.13-.67-.17-1-.07-.83-.08-1.24c0-.79,0-1.59,0-2.38a19.89,19.89,0,0,0,0-2.18c.48.83,1,1.65,1.45,2.47.37.63.73,1.26,1.11,1.88s.8,1.24,1.23,1.84a31.25,31.25,0,0,0,2.75,3.32,33.08,33.08,0,0,0,2.75,2.55,3.23,3.23,0,0,0,.26.92,5.61,5.61,0,0,0,.58,1,8.69,8.69,0,0,0,.66.84c.27.31.55.6.84.88s.54.51.82.75l.93.77c.3.26.61.52.9.79a10.7,10.7,0,0,1,.82.83A10.49,10.49,0,0,1,81.22,671a.13.13,0,0,0,.19,0,.15.15,0,0,0,0-.2A12.36,12.36,0,0,0,80.07,669c-.26-.3-.52-.59-.79-.88s-.54-.59-.81-.89h0l-.85-1c-.3-.33-.59-.67-.87-1a12.05,12.05,0,0,1-1-1.4,47.82,47.82,0,0,0,5.85,3.67c2.42,1.28,4.92,2.38,7.45,3.41a.21.21,0,0,0,.18-.37,60.67,60.67,0,0,1-10-5,42.16,42.16,0,0,1-3.71-2.69l-.44-.37h.14a17.8,17.8,0,0,1,2.4.45c.4.1.8.21,1.21.3s.86.17,1.3.23a.14.14,0,0,0,.16-.11.14.14,0,0,0-.1-.17,5.4,5.4,0,0,1-.7-.13l-.69-.18c-.5-.15-1-.32-1.48-.48a12.7,12.7,0,0,0-1.49-.43q-.34-.08-.69-.12a3.69,3.69,0,0,0-.58,0h-.23c-.74-.66-1.44-1.36-2.11-2.09l0,0,0,0,0,0h0a29.37,29.37,0,0,1-2.59-3.3c-.82-1.22-1.52-2.52-2.22-3.81s-1.31-2.44-2-3.65l.14,0c.41.13.82.26,1.22.41s1,.4,1.52.61l1.67.7a22.52,22.52,0,0,0,3.37,1.2.14.14,0,0,0,.07-.28,10.77,10.77,0,0,1-1.26-.38h0a18.28,18.28,0,0,1-1.92-.84c-.63-.31-1.23-.65-1.85-1s-1.23-.61-1.87-.87a10.3,10.3,0,0,0-1.63-.52c-.56-1-1.14-1.94-1.75-2.88a29,29,0,0,0-5.54-6.49l-.26-.21.45.15h0c.41.15.81.32,1.21.49l1.29.54c.41.17.84.33,1.26.47a8.52,8.52,0,0,0,1.32.34.2.2,0,0,0,.24-.15.21.21,0,0,0-.15-.24,7.5,7.5,0,0,1-1.15-.31,12.05,12.05,0,0,1-1.59-.74c-.28-.14-.55-.3-.83-.45l-.85-.43a9.47,9.47,0,0,0-1.77-.67,5.71,5.71,0,0,0-.92-.16h-.06a19.35,19.35,0,0,0-1.95-1.17l-.9-.45c1-.06,2.07-.1,3.11-.13,5.29-.16,10.6.07,15.88.38,6.36.39,12.72.9,19.09,1.08,3.18.1,6.37.12,9.54,0a61.49,61.49,0,0,0,6.92-.74.59.59,0,0,0,.29.1l.7.05a10.63,10.63,0,0,1,2,.53c.71.25,1.4.55,2.09.84.35.14.69.29,1,.42s.71.26,1.07.38c.8.27,1.61.48,2.43.67s1.57.3,2.35.42,1.61.21,2.42.29c1.66.16,3.34.21,5,.23a.15.15,0,0,0,.14-.14.16.16,0,0,0-.14-.15,47.88,47.88,0,0,1-5.48-.37,25.27,25.27,0,0,1-3.23-.64c-.54-.14-1.07-.31-1.59-.48s-1.08-.39-1.61-.6h0c-1.16-.5-2.24-1.17-3.39-1.68a11.73,11.73,0,0,0-1.12-.43c2.11-.45,4.2-1,6.28-1.61,2.63-.77,5.24-1.66,7.83-2.58l.2-.07c.62-.07,1.25-.12,1.87-.14s1.41,0,2.11,0,1.42.07,2.13.12,1.44.12,2.15.19l4.3.44a35.3,35.3,0,0,0,4.24.19.14.14,0,0,0,0-.28,29.4,29.4,0,0,1-4.3-.29h0c-.51-.07-1-.15-1.52-.24l-1.63-.28q-1.62-.3-3.24-.54a26.29,26.29,0,0,0-3.07-.25c4.1-1.49,8.19-3,12.34-4.33q2.75-.88,5.54-1.61a11.13,11.13,0,0,1,1.15.09,35.55,35.55,0,0,1,3.91.88c.64.16,1.3.3,2,.4a9,9,0,0,0,1.94.07.14.14,0,0,0,.14-.14c0-.07-.07-.15-.14-.14-.26,0-.51,0-.77,0s-.55,0-.82-.07h0a13.1,13.1,0,0,1-1.86-.4c-.61-.17-1.22-.38-1.83-.56a16.11,16.11,0,0,0-2.18-.53c.72-.18,1.44-.34,2.16-.49,1.93-.4,3.89-.73,5.85-1a54.47,54.47,0,0,1,6.38-.37C161.9,622.16,161.87,621.81,161.65,621.81Z"/><path class="cls-6" d="M27.45,625.33v0Z"/><path class="cls-6" d="M72.27,659.73l0,0,0,0Z"/><polygon class="cls-6" points="26.66 616.42 26.66 616.42 26.66 616.42 26.66 616.42"/><path class="cls-6" d="M23.67,611.8h0Z"/><path class="cls-9" d="M77.51,103.17l0-.12v0h0v0h0a46.75,46.75,0,0,1-.84-11.35C76.93,85,78.34,78.36,79.7,72l.09-.46,0-.07C81.22,64.77,82.68,57.89,83,51A52.15,52.15,0,0,0,82.48,41a55.3,55.3,0,0,0-1.74-7.63A50.32,50.32,0,0,0,74.4,20.11,52.93,52.93,0,0,0,64.86,9.35,60,60,0,0,0,59.17,5a66.73,66.73,0,0,0-6.29-3.78A77.39,77.39,0,0,0,24.63-7.13a83.39,83.39,0,0,0-8.49-.44c-2.16,0-4.32.09-6.44.26A79,79,0,0,0-4.84-4.74l-1.06.3L-6-4.4a1.21,1.21,0,0,0-.64-.71,1.25,1.25,0,0,0-.5-.11,1.34,1.34,0,0,0-1,.45A10.38,10.38,0,0,0-9.63-2.45,22.66,22.66,0,0,0-10.7.23c-.32,1-.6,1.87-.81,2.76s-.33,1.49-.45,2.19a54.63,54.63,0,0,0-.78,8,73.71,73.71,0,0,0,1.43,16.44A86.05,86.05,0,0,0-9.2,38.23c.82,2.71,1.78,5.49,2.84,8.25A106.66,106.66,0,0,0,1.27,62.22a76.54,76.54,0,0,0,10,13.34A57,57,0,0,0,17,80.83a57.7,57.7,0,0,0,8.28,5.48,58.9,58.9,0,0,0,9.34,4.07,76,76,0,0,0,10,2.67c1.55.3,3.21.57,5.08.81.73.1,1.46.18,2.19.26s1.69.19,2.54.31A53.58,53.58,0,0,1,62.29,96l.14,0a29.21,29.21,0,0,1,3.05,1.12c.29.12.58.26.87.4l.1,0a27.2,27.2,0,0,1,4.08,2h0a40.85,40.85,0,0,1,5.1,3.66l0,0a25.69,25.69,0,0,1,2.13,1.91l.31.33c-.22-.79-.43-1.59-.62-2.41m2.9-51.73v.11c0-.1,0-.2,0-.3v.19M66.62,14.35l.06.06L66.31,14l.31.33"/><path class="cls-3" d="M78.14,105.58c-.22-.77-.42-1.58-.61-2.41l0-.12,0,.06V103a46.2,46.2,0,0,1-.85-11.35C77,85,78.35,78.37,79.71,72l.09-.46,0-.08C81.23,64.77,82.69,57.89,83,51A51.43,51.43,0,0,0,82.49,41c-.07-.44-.14-.88-.22-1.32l0,0a4,4,0,0,0-.56-.6h0a2.33,2.33,0,0,0-.5-.31,3.07,3.07,0,0,0-.52-.14h0a2.91,2.91,0,0,0-.66,0h0a4,4,0,0,0-1,.23,2.59,2.59,0,0,0-.38.17,2.66,2.66,0,0,0-.33.21l0,0a3.3,3.3,0,0,0-.57.55l0,0a4.62,4.62,0,0,0-.6,1v0a11.61,11.61,0,0,0-.74,2.85h0c-.14.92-.23,1.85-.33,2.78S76,48.12,75.86,49a10.51,10.51,0,0,1-.63,2.34,3.59,3.59,0,0,1-1.13,1.53,2.53,2.53,0,0,1-.94.44,3.58,3.58,0,0,1-1.22,0,6.76,6.76,0,0,1-1.53-.4,4.87,4.87,0,0,1-.85-.44,7.34,7.34,0,0,1-.76-.59,12.2,12.2,0,0,1-1.56-1.73c-.5-.65-1-1.33-1.41-2s-.87-1.38-1.31-2.08-.75-1.18-1.17-1.75l0,0-.73-.95-.72-.93c-.49-.62-1-1.24-1.48-1.85-1-1.25-2.08-2.48-3.18-3.67S55,34.64,53.8,33.57c-.53-.48-1.08-.94-1.64-1.38l0,0c-1-.82-2.14-1.61-3.26-2.33a27.17,27.17,0,0,0-3.78-2.07l0,0a12,12,0,0,0-2.86-.89h0a6,6,0,0,0-1.47-.06h0a3.51,3.51,0,0,0-1,.22h0a2.82,2.82,0,0,0-.72.4,3.24,3.24,0,0,0-.56.55l0,0a4.41,4.41,0,0,0-.52.89h0a6.6,6.6,0,0,0-.44,1.56v0a7.46,7.46,0,0,0-.1,1,6.47,6.47,0,0,0,0,.88.08.08,0,0,0,0,0,7.61,7.61,0,0,0,.19,1.08c.09.32.19.63.3.94a13.33,13.33,0,0,0,1.64,2.86h0a38.08,38.08,0,0,0,3.48,3.92c.62.63,1.24,1.26,1.84,1.91s1.1,1.21,1.61,1.85a12.13,12.13,0,0,1,1.85,3A6.71,6.71,0,0,1,49,49.51a7.7,7.7,0,0,1,0,.83,6.84,6.84,0,0,1-.08.9,3.17,3.17,0,0,1-.24.85c0,.09-.1.18-.16.27a1.8,1.8,0,0,1-.19.2,1,1,0,0,1-.24.16l-.24.08a1.91,1.91,0,0,1-.53,0,7.74,7.74,0,0,1-1.34-.34,11.36,11.36,0,0,0-1.52-.41h0a3.53,3.53,0,0,0-.86,0l-.27,0c-.1,0-.19.06-.29.09l-.28.13-.21.14a3,3,0,0,0-.33.28,2.91,2.91,0,0,0-.24.27h0a3,3,0,0,0-.25.37,3.9,3.9,0,0,0-.19.35h0v0h0a2.43,2.43,0,0,0-.13.38,2.73,2.73,0,0,0-.1.41v0a3.29,3.29,0,0,0,0,.54,4.93,4.93,0,0,0,0,.55,6.71,6.71,0,0,0,.45,1.72v0a18,18,0,0,0,1.28,2.56c.52.89,1.07,1.75,1.6,2.63a26.32,26.32,0,0,1,1.45,2.59,10.32,10.32,0,0,1,.52,1.25A8.07,8.07,0,0,1,47,67.49,4.38,4.38,0,0,1,47,69a5.24,5.24,0,0,1-.36,1.19,3.07,3.07,0,0,1-1.15,1.46,2.6,2.6,0,0,1-.76.34,3.29,3.29,0,0,1-.88.09,6.39,6.39,0,0,1-2-.47,15.64,15.64,0,0,1-2.34-1.2c-.88-.55-1.73-1.15-2.55-1.77-1.84-1.41-3.59-3-5.29-4.51S28.33,61,26.7,59.45c-.68-.64-1.35-1.29-2-1.92-.53-.48-1.06-1-1.63-1.41l0,0c-.2-.16-.41-.32-.62-.46l-.25-.15c-.21-.12-.44-.21-.66-.31h0a7.58,7.58,0,0,0-1.86-.58h0a4.17,4.17,0,0,0-.86,0h0l-.27,0-.27.08a1.42,1.42,0,0,0-.25.12l-.17.11a2.38,2.38,0,0,0-.36.35h0c-.07.09-.14.2-.21.31a3.36,3.36,0,0,0-.16.33,4.11,4.11,0,0,0-.17.53c-.06.21-.1.44-.14.66v0a6.71,6.71,0,0,0-.09.89c0,.23,0,.46,0,.69h0a7.72,7.72,0,0,0,.19,1c.09.32.19.64.31,1h0s0,0,0,0v0a16.47,16.47,0,0,0,2.14,3.73s0,0,0,0a38,38,0,0,0,3.91,4.41c.62.62,1.25,1.21,1.9,1.8l.8.72c.22.19.44.38.67.56h0c.41.32.83.62,1.26.93l1.53,1.08c1.11.78,2.22,1.57,3.28,2.42.61.48,1.2,1,1.76,1.51a14.07,14.07,0,0,1,1.43,1.56,6.65,6.65,0,0,1,.91,1.54,4.12,4.12,0,0,1,.23.78c0,.12,0,.23,0,.35s0,.41,0,.62a5.09,5.09,0,0,1,0,.56,2,2,0,0,1-.08.35,1.2,1.2,0,0,1-.13.28.83.83,0,0,1-.16.21,1,1,0,0,1-.48.24.74.74,0,0,1-.26,0l-.3,0a4.61,4.61,0,0,1-.73-.19c-.26-.08-.51-.18-.77-.27a9.14,9.14,0,0,0-1.77-.5h0a4.38,4.38,0,0,0-.51,0,2.81,2.81,0,0,0-.41,0,5.09,5.09,0,0,0-.77.19c-.22.06-.44.14-.65.22l0,0a4.77,4.77,0,0,0-1,.55h0a1.8,1.8,0,0,0-.4.38,1.75,1.75,0,0,0-.18.29h0v0h0v0a2.45,2.45,0,0,0-.08.29h0v0a1.53,1.53,0,0,0,0,.37,2.3,2.3,0,0,0,.12.45h0a3.37,3.37,0,0,0,.45.78h0a7.57,7.57,0,0,0,.8.9c.34.32.69.62,1.05.91h0c.35.27.71.53,1.08.79.85.33,1.72.65,2.61,1a75.72,75.72,0,0,0,10,2.67c1.51.29,3.17.56,5.08.81.73.1,1.46.18,2.19.26l.23,0,2.31.28A53,53,0,0,1,62.29,96l.14,0a29.25,29.25,0,0,1,3,1.12c.29.12.58.26.87.4l.11,0a27.69,27.69,0,0,1,4.08,2,41,41,0,0,1,5.11,3.67,23.54,23.54,0,0,1,2.17,1.94l.21.21.11.11h0ZM28.55,84.94h0M16.79,58.71v0M42.06,53h0M77.28,40.72v0M38.2,28.91v0m1.74-1.79h0Z"/><path class="cls-4" d="M4.69,14.75l0-.05,0,0Z"/><path class="cls-4" d="M4.65,14.7l0-.06,0,0Z"/><path class="cls-4" d="M-12.46-10.82c.08.35.14.7.23,1.05s.19.69.29,1c.22.75.47,1.49.73,2.24.54,1.52,1.15,3,1.81,4.5A76.19,76.19,0,0,0-4.95,6.38,124.9,124.9,0,0,0,6.7,22.18c2,2.41,4.16,4.75,6.3,7.05s4.33,4.64,6.59,6.87c.77.76,1.55,1.51,2.34,2.26.05.2.1.42.15.63a.44.44,0,0,1,0-.1l0,.16v0a19.29,19.29,0,0,1,.29,4.74h0a88,88,0,0,1-1.39,9c-.12.71-.23,1.43-.31,2.15s-.15,1.68-.19,2.53a43.75,43.75,0,0,0,.09,5.37c.05.71.14,1.42.23,2.13s.19,1.43.29,2.14c.2,1.4.47,2.81.77,4.2s.63,2.8,1,4.19.77,2.78,1.2,4.16a.15.15,0,0,0,.16.12.19.19,0,0,0,.19-.25c-.63-2.05-1.16-4.13-1.61-6.23a57.6,57.6,0,0,1-1-6.79c-.1-1.14-.13-2.29-.13-3.43s0-2.3.07-3.45a40.38,40.38,0,0,1,.56-4.9c.28-1.47.62-2.93.95-4.39s.69-3,.9-4.59q.16-1.23.21-2.46a13.73,13.73,0,0,0-.06-2.22,5.58,5.58,0,0,0-.1-.59c1,.91,2,1.81,3,2.7,2.59,2.3,5.23,4.53,7.84,6.81,2.14,1.87,4.29,3.73,6.41,5.61.77.69,1.52,1.39,2.27,2.08.15.46.28.93.39,1.4a15.68,15.68,0,0,1,.27,3.81,43.92,43.92,0,0,1-.72,5c-.15.85-.29,1.71-.4,2.58s-.17,1.8-.22,2.7a31.91,31.91,0,0,0,.11,5.08c.09.84.21,1.67.34,2.5s.28,1.68.44,2.52.31,1.47.48,2.2.38,1.61.59,2.41a.2.2,0,0,0,.19.13h.06a.2.2,0,0,0,.12-.25c-.19-.77-.37-1.54-.54-2.32h0c-.18-.87-.34-1.74-.48-2.62S44.1,81,44,80.16s-.11-1.74-.13-2.61,0-1.78.05-2.67c0-.74.1-1.48.19-2.21s.22-1.57.36-2.34c.27-1.49.64-3,.94-4.43A20.83,20.83,0,0,0,46,61.38a9.09,9.09,0,0,0-.19-1.8c.6.57,1.2,1.15,1.78,1.74a114.38,114.38,0,0,1,10.34,12c.63.85,1.26,1.71,1.87,2.57l0,.06a.33.33,0,0,0,0,.17c.07.68.17,1.35.26,2s.17,1.42.24,2.13.13,1.35.2,2,.14,1.42.2,2.13.14,1.36.22,2,.18,1.43.3,2.14.23,1.32.37,2,.35,1.43.56,2.13a.14.14,0,0,0,.15.11h.05a.17.17,0,0,0,.1-.2c-.14-.46-.26-.93-.36-1.4a27.41,27.41,0,0,1-.47-3.72c-.08-1.29-.09-2.58-.11-3.87s0-2.58-.13-3.86c0-.64-.12-1.28-.22-1.92Q64,82,66.65,86.32c1.36,2.26,2.67,4.56,3.94,6.88s2.53,4.66,3.73,7a.16.16,0,0,0,.14.1.19.19,0,0,0,.18-.27c-1.46-2.89-2.93-5.77-4.46-8.62s-3.11-5.64-4.76-8.4c-1.24-2.08-2.52-4.14-3.85-6.16l1.2.47c.9.35,1.82.67,2.72,1,1.06.42,2.11.86,3.13,1.38a21,21,0,0,1,3,1.88,20.44,20.44,0,0,1,3,2.68.17.17,0,0,0,.12,0,.18.18,0,0,0,.12,0,.17.17,0,0,0,0-.23A25.31,25.31,0,0,0,71.49,81,28.8,28.8,0,0,0,68,78.76c-.59-.32-1.2-.62-1.8-.92S65,77.25,64.37,77a38.46,38.46,0,0,0-3.72-1.49c-1.92-2.84-3.93-5.62-6.06-8.31s-4.13-5-6.36-7.34c-.2-.22-.41-.43-.62-.64l.49.09a23.83,23.83,0,0,0,4.47.19c1.43,0,2.86,0,4.29.05s2.82.15,4.23.3a36,36,0,0,1,9,2.08,27,27,0,0,1,2.74,1.24,21.88,21.88,0,0,1,2.68,1.68l.83.65a.21.21,0,0,0,.12,0,.17.17,0,0,0,.11-.28,24,24,0,0,0-3.7-2.54,26.52,26.52,0,0,0-4.07-1.83,42.41,42.41,0,0,0-8.82-2c-1.77-.23-3.55-.39-5.33-.52l-2.6-.17c-.88-.06-1.76-.11-2.63-.2a15.73,15.73,0,0,1-3.66-.79l-.26-.11Q43.29,54.78,41,52.55c-2.49-2.4-5-4.74-7.57-7.09-2.07-1.92-4.13-3.87-6.18-5.82a23.84,23.84,0,0,0,3,.42,32,32,0,0,0,4.38,0c1.47-.08,2.92-.28,4.37-.49l-.22,0c1.67-.24,3.35-.44,5-.64s3.34-.36,5-.47,3.3-.17,5-.16,3.25.11,4.87.28l.35,0h-.08a34,34,0,0,1,8.43,2,30.71,30.71,0,0,1,7,3.86c.75.55,1.47,1.13,2.16,1.75a.23.23,0,0,0,.33,0,.24.24,0,0,0,0-.33,34.8,34.8,0,0,0-4.21-3.23,32,32,0,0,0-4.44-2.37,37.17,37.17,0,0,0-9.31-2.61A47.3,47.3,0,0,0,54,37.28c-1.65-.08-3.3-.09-5-.06s-3.34.12-5,.21-3.36.25-5,.39l-2,.15c-.68.05-1.36.07-2,.08a34,34,0,0,1-4.16-.17,36,36,0,0,1-4.25-.76c-.7-.17-1.4-.33-2.08-.55l-.57-.19c-4.39-4.32-8.62-8.81-12.62-13.5.49.09,1,.17,1.47.23a20.48,20.48,0,0,0,3,.12,19.33,19.33,0,0,0,2.94-.34,29,29,0,0,0,5.22-1.49c1.68-.64,3.33-1.36,5-2.06a38,38,0,0,1,8.83-2.74c.67-.1,1.33-.17,2-.21s1.34-.05,2,0c1.28,0,2.57.11,3.85.24a46.25,46.25,0,0,1,11.28,2.86,55.49,55.49,0,0,1,12.57,6.89h0c.74.54,1.47,1.11,2.19,1.69a.26.26,0,0,0,.19.07A.24.24,0,0,0,72,28a.27.27,0,0,0,0-.38A57.86,57.86,0,0,0,52.22,16.91a42,42,0,0,0-11.07-1.82,26.36,26.36,0,0,0-2.81.06,23.87,23.87,0,0,0-2.8.39A37.5,37.5,0,0,0,30.34,17c-2.11.72-4.17,1.55-6.28,2.25A40.39,40.39,0,0,1,17.49,21a20.22,20.22,0,0,1-4.73.05,22.33,22.33,0,0,1-3.71-.73c-1.49-1.81-3-3.65-4.36-5.52l.1.14-.11-.15,0-.07-.09-.12.07.09A121.72,121.72,0,0,1-2.58,4,81.51,81.51,0,0,1-8.23-7.39c-.56-1.42-1-2.87-1.6-4.28l.14.35-.06-.17a1.47,1.47,0,0,0-.65-.87,1.4,1.4,0,0,0-1-.15A1.4,1.4,0,0,0-12.46-10.82Z"/><path class="cls-4" d="M22.08,39s0,0,0,.07h0Z"/></g></svg>