<svg xmlns="http://www.w3.org/2000/svg" viewBox="0 0 834 1194"><defs><style>.cls-1{fill:#e9fffd;}.cls-2{fill:#d4f9f4;}.cls-3{fill:#1caca5;}.cls-4{fill:#001524;}.cls-5{fill:#f26419;}.cls-6{fill:#78290f;}.cls-7{fill:#f381c7;}.cls-8{fill:#e05619;}.cls-9{fill:#f77441;}.cls-10{fill:#12968c;}</style></defs><g id="BACKGROUND"><rect class="cls-1" width="834" height="1195.42"/></g><g id="OBJECTS"><path class="cls-2" d="M-2.44,279.25h-102l0,180.19v736l287.1,0H917.5c-3-5.18-6.31-10-9.47-14.67l-.1-.14-.09-.13c-2.3-3.39-4.56-6.7-7-10-2-2.83-4.26-5.77-7.24-9.54-4.57-5.78-9.74-11.64-15.82-17.94a194.92,194.92,0,0,0-68.68-46.11c-22.22-8.85-46.66-13.52-74.72-14.29-2.14-.06-4.28-.08-6.42-.08-3.72,0-7.63.08-11.94.24-3.23.13-6.46.31-9.69.49s-6.37.36-9.53.49c-5.46.22-11,.33-16.38.33-7.15,0-14.23-.2-21-.6-2.54-.15-5.29-.36-8.91-.69a230.07,230.07,0,0,1-37-6.58,160,160,0,0,1-57.62-28.1,167,167,0,0,1-20.28-18.53,185.28,185.28,0,0,1-14.47-18A210.23,210.23,0,0,1,508.3,990.4a444.16,444.16,0,0,1-19.73-43.84c-4.18-10.55-8.19-21.34-12.06-31.78-1.9-5.1-3.79-10.2-5.71-15.28-7.16-19-13-33.15-19-45.89a259,259,0,0,0-23-40.2,179.12,179.12,0,0,0-14.59-17.67,206.28,206.28,0,0,0-17.84-17.11A197.4,197.4,0,0,0,359,753.85a228.54,228.54,0,0,0-40.13-16c-1.5-.45-3-.88-4.5-1.31l-.71-.2-.71-.2-3.82-1.09c-2.84-.83-5.88-1.77-9.56-3-6.46-2.08-13.25-4.56-20.16-7.35a271,271,0,0,1-26.49-12.47c-6.24-3.43-12.37-7.1-18.21-10.9s-11.83-8.1-18.31-13.15a314.77,314.77,0,0,1-36.61-33.93c-5.29-5.78-10-11.21-14.41-16.61-4.21-5.14-8.57-10.95-13.34-17.74a399.23,399.23,0,0,1-23.57-38.48c-3.41-6.36-6.89-13.17-10.34-20.25-3.29-6.75-6.77-14.29-10.93-23.72C99.87,520.88,93.28,504.18,87.81,490c-5.73-14.81-11.32-30-16.73-44.77l-.26-.73L69.5,441c-4.89-13.35-11.35-30.91-17.9-48.4-9.66-25.79-20.6-55-33.72-80.76A199,199,0,0,0-2.43,279.26Z"/><path class="cls-2" d="M887.48,0H409.58c2.35,3.39,4.86,6.8,7.46,10.14a215,215,0,0,0,16.48,18.73,184.38,184.38,0,0,0,17,15.12A148.24,148.24,0,0,0,468.72,56.2a129.1,129.1,0,0,0,38.34,14.56,127.86,127.86,0,0,0,20.34,2.39c1.8.07,3.53.1,5.14.1,5.87,0,11.93-.38,17.09-.76s10.43-.89,15.09-1.34l.21,0c5.7-.55,12.78-1.23,19.46-1.63,5-.28,9.46-.42,13.78-.42,4.78,0,9.18.17,13.44.53a106.21,106.21,0,0,1,27.8,6.17,96.64,96.64,0,0,1,15.47,7.72A113.49,113.49,0,0,1,669,94c11.91,10.45,22.74,23.56,30.85,33.82,3.58,4.53,7.33,9.39,10.34,13.3l.13.17c6.18,8,12.58,16.31,19.11,24.08,5.31,6.33,10.64,12.13,15.85,17.25a199.31,199.31,0,0,0,18.82,16.08,190.34,190.34,0,0,0,21.42,14.18,141.32,141.32,0,0,0,21.58,9.88A102.15,102.15,0,0,0,841.81,229a95.29,95.29,0,0,0,21.06-2.36,101,101,0,0,0,24.62-9.4V0Z"/><path class="cls-3" d="M427.47,958.23a20,20,0,0,0,1.4,2.39c1,1.39,1.87,2.1,2.7,2.1a1.73,1.73,0,0,0,1.26-.62,8.63,8.63,0,0,0,1.74-3.47,30,30,0,0,0,1.17-6.63A46.67,46.67,0,0,0,434,937.24a62.43,62.43,0,0,0-4.29-11.78,21.11,21.11,0,0,0-2.15-3.55,12.56,12.56,0,0,0-1.36-1.58,3.71,3.71,0,0,0-1.37-.8l-.12,0a1.27,1.27,0,0,0-.39-.06,2.73,2.73,0,0,0-.49.06h-.09l-.08,0a3.65,3.65,0,0,0-1.67.74,5,5,0,0,0-1.33,1.7,16.58,16.58,0,0,0-1.38,3.95,21.16,21.16,0,0,0-.46,3.24,39.65,39.65,0,0,0,0,5.58,42.74,42.74,0,0,0,1,6.72A51.17,51.17,0,0,0,424,953.38a19.15,19.15,0,0,0,2.47,3.72C426.8,957.5,427.13,957.88,427.47,958.23Z"/><path class="cls-3" d="M452.89,1044.66c-.16-1.51-.36-2.87-.6-4.16a82.56,82.56,0,0,0-2.17-8.47c-.86-2.83-1.88-5.74-3.11-8.91a75.31,75.31,0,0,0-7.94-15.8c-2.45-3.47-4.43-5.09-6.26-5.09a3.18,3.18,0,0,0-1.78.57c-2.58,1.7-4.58,8.94-4.65,16.84a68,68,0,0,0,.95,11.13,85.32,85.32,0,0,0,2.41,10.34,87.8,87.8,0,0,0,3.18,9.05,82,82,0,0,0,4.11,8.64,43.22,43.22,0,0,0,4.36,6.42,11.49,11.49,0,0,0,3.74,3.26,5,5,0,0,0,2.14.57,3.28,3.28,0,0,0,2-.67,5.37,5.37,0,0,0,1.18-1.23,4.36,4.36,0,0,0,.52-.53,11.91,11.91,0,0,0,1.93-5.51c.06-.39.11-.79.16-1.19.14-.78.26-1.69.37-2.79a40.86,40.86,0,0,0,.18-4.72c0-1.49-.1-3.09-.29-4.71C453.17,1046.62,453,1045.6,452.89,1044.66Z"/><path class="cls-3" d="M476.29,939.73a29.09,29.09,0,0,0-1-6,17.18,17.18,0,0,0-1-2.59,9,9,0,0,0-1-1.75,5.38,5.38,0,0,0-3.53-2.39h-.08c-.41,0-.85.54-1.17,1.44a12.25,12.25,0,0,0-.48,4.87c.25,2,.49,3.64.76,5.16a32.79,32.79,0,0,0,1.1,4.3c.35,1.32.67,2.43,1,3.4a10.55,10.55,0,0,0,2.05,4,1.11,1.11,0,0,0,.81.39h.16a.65.65,0,0,0,.5.26,1.33,1.33,0,0,0,1-.72,8.53,8.53,0,0,0,.93-3.43,16,16,0,0,0,0-3.09A34.49,34.49,0,0,0,476.29,939.73Z"/><path class="cls-3" d="M468.16,883.35c-.19-1.17-.43-2.33-.75-3.65-.28-1.15-.61-2.48-1-3.65a14.8,14.8,0,0,0-3-5.26.69.69,0,0,0-.46-.19.72.72,0,0,0-.41.15,2.51,2.51,0,0,0-.78,1.25,9.33,9.33,0,0,0-.45,2.23,14,14,0,0,0,.14,3.73,9.05,9.05,0,0,0,.3,2.09l.11.36c.31,1.06.63,2.11.95,3.13a30.82,30.82,0,0,0,1.13,2.92c.75,1.7,1.74,2.55,3,2.61.49,0,.93-.71,1.17-1.91A10.8,10.8,0,0,0,468.16,883.35Z"/><path class="cls-3" d="M526.71,1167.73a53.86,53.86,0,0,0-1.9-5.38,54.74,54.74,0,0,0-4.27-8.61,13.4,13.4,0,0,0-4.44-4.51,5.38,5.38,0,0,0-2.33-.84h-.17a2.25,2.25,0,0,0-1.73.79,7.06,7.06,0,0,0-1.74,3.08,17.8,17.8,0,0,0-.59,2.42,36.09,36.09,0,0,0-.3,9.3,50.77,50.77,0,0,0,.77,5.29,58.74,58.74,0,0,0,2.56,9,38.33,38.33,0,0,0,3.69,7.51,18.62,18.62,0,0,0,2,2.6,25.3,25.3,0,0,0,2.29,3.38c1.25,1.54,2.37,2.28,3.43,2.28a2.33,2.33,0,0,0,.85-.16c1.42-.58,2.69-3.19,3.41-7a33,33,0,0,0,.51-6.27,42.49,42.49,0,0,0-.69-7A54.3,54.3,0,0,0,526.71,1167.73Z"/><path class="cls-3" d="M607.15,47.21a65.15,65.15,0,0,0-2.2-9.82,85.67,85.67,0,0,0-3.47-9.55A76.77,76.77,0,0,0,592.05,11,27.93,27.93,0,0,0,587,5.7a7.86,7.86,0,0,0-4.59-1.92h-.07c-1.59,0-3,1-4.18,2.82a18.58,18.58,0,0,0-1.66,3.69,37.85,37.85,0,0,0-1.34,5A50.44,50.44,0,0,0,574.22,26a69.42,69.42,0,0,0,1.16,11.21c0,.27.11.54.16.81a8.63,8.63,0,0,0,.31,2.46c.31,1,.66,2,1.07,3.18.29,1,.62,2,1,3.22a80.45,80.45,0,0,0,3.63,8.89A57.43,57.43,0,0,0,590.18,69a23.25,23.25,0,0,0,4.54,4.13A12.41,12.41,0,0,0,599.35,76a4.59,4.59,0,0,0,1.21.17c1.67,0,4-1.07,5.45-6.2a49.06,49.06,0,0,0,1.56-11c.1-2.18.13-4.12.08-5.93A49.38,49.38,0,0,0,607.15,47.21Z"/><path class="cls-3" d="M640.8,10.07A20.76,20.76,0,0,0,639,5.58a15,15,0,0,0-2.18-3A8.13,8.13,0,0,0,634.49.73,5.52,5.52,0,0,0,632,0a3.09,3.09,0,0,0-2,.68,4.73,4.73,0,0,0-1.27,2.76,15.64,15.64,0,0,0-.29,2.93,15.25,15.25,0,0,0,.26,2.94,38.15,38.15,0,0,0,4.33,13.42,15.48,15.48,0,0,0,2.86,3.67,6.55,6.55,0,0,0,1.12.86,6.16,6.16,0,0,0,1.14.88,2.2,2.2,0,0,0,1,.29c.83,0,1.51-.72,2-2.15,1-2.86.82-7.65.6-10.25A33.14,33.14,0,0,0,640.8,10.07Z"/><path class="cls-3" d="M827.65,393.13a3.73,3.73,0,0,0,1.58.42,2.48,2.48,0,0,0,1.83-.86l.3-.35.3-.34a8.18,8.18,0,0,0,1-2.72,20,20,0,0,0,0-7.23c-.32-1.65-.71-3.24-1.14-4.73-.07-.4-.15-.79-.23-1.17a23,23,0,0,0-1.48-4.39,12.6,12.6,0,0,0-2-3,7.78,7.78,0,0,0-2.75-2.05,4.11,4.11,0,0,0-1.72-.53,2.28,2.28,0,0,0-.44.05,1.9,1.9,0,0,0-1,.48,5.09,5.09,0,0,0-1.18,1.95,16.76,16.76,0,0,0-.81,5.52,30.76,30.76,0,0,0,.52,5.56,26.71,26.71,0,0,0,2,6.57,22.46,22.46,0,0,0,2.2,4A8.33,8.33,0,0,0,827.65,393.13Z"/><path class="cls-3" d="M834,505.68a44.81,44.81,0,0,0-1.29-7.59,23.27,23.27,0,0,0-2-5.2,8.33,8.33,0,0,0-2.54-3,3.77,3.77,0,0,0-2.22-.78,3.06,3.06,0,0,0-.79.1,1.22,1.22,0,0,0-1,.7,6.67,6.67,0,0,0-.76,2.14,15.78,15.78,0,0,0,0,5.69,40,40,0,0,0,1.2,4.43,25.89,25.89,0,0,0,1.56,3.55,18.15,18.15,0,0,0,1.82,3.24,5.84,5.84,0,0,0,2.47,2.12,2.51,2.51,0,0,0,.93.17,3.88,3.88,0,0,0,1.56-.39c.34-.15.64-.75.86-1.69A12.3,12.3,0,0,0,834,505.68Z"/><path class="cls-3" d="M808.66,389.21a46.77,46.77,0,0,0-1.83-5.85,39.9,39.9,0,0,0-4.75-8.84c-1.33-1.83-3.11-4-5.13-4.54a1,1,0,0,0-.3,0,2.89,2.89,0,0,0-1,.25,3.15,3.15,0,0,0-1.08.95l-.21.25a5.39,5.39,0,0,0-.88,1.33A18.59,18.59,0,0,0,792,377c-1.21,4.86-.71,11.24.09,15.22A41.66,41.66,0,0,0,796,403.38a22.76,22.76,0,0,0,2,3.2,13.72,13.72,0,0,0,2.67,2.93,3.6,3.6,0,0,0,2.11.88h.21a2.76,2.76,0,0,0,1.26-.49,2.42,2.42,0,0,0,1,.24,3,3,0,0,0,.94-.17c.64-.24,1.28-1.12,2-2.77a23.13,23.13,0,0,0,1.26-5.56,32.59,32.59,0,0,0,.17-6.93A33.71,33.71,0,0,0,808.66,389.21Z"/><path class="cls-3" d="M5.06,560.6a11,11,0,0,0-2.54-3.55.58.58,0,0,0-.4-.19c-.4,0-.81.49-1.1,1.3a7.83,7.83,0,0,0-.26,1,1.53,1.53,0,0,0-.44.72,8,8,0,0,0,0,4.43A28.19,28.19,0,0,0,3,571a3.38,3.38,0,0,0,1.67,1.47,1.58,1.58,0,0,0,.47.07,2.75,2.75,0,0,0,1.3-.4,3.82,3.82,0,0,0,.91-2.57A9.43,9.43,0,0,0,7,566,50.08,50.08,0,0,0,5.06,560.6Z"/><path class="cls-3" d="M22.13,346.86a53,53,0,0,0-4.05-11.47,32.35,32.35,0,0,0-5.32-8.24,8,8,0,0,0-2.29-1.85A4.75,4.75,0,0,0,9,324.78a.93.93,0,0,0-.23,0,3.51,3.51,0,0,0-1.35.39,4.18,4.18,0,0,0-1.1,1.06l-.26.33A7.54,7.54,0,0,0,5.15,328a21.36,21.36,0,0,0-2.07,6.37,35.75,35.75,0,0,0-.48,3.78c-.07,1.14-.12,2.11-.14,3s0,1.74.07,2.46l0,.58a40.57,40.57,0,0,0,.85,6.68,51.4,51.4,0,0,0,4,11.85,30.23,30.23,0,0,0,4.84,7.38,9.15,9.15,0,0,0,2,1.76,4.64,4.64,0,0,0,2.28.84l.3,0c1.07-.14,1.9-.76,2.87-2.12a15.9,15.9,0,0,0,1.43-2.81,17.55,17.55,0,0,0,.78-2.43,27.67,27.67,0,0,0,.94-5.22,47.16,47.16,0,0,0,.19-7.16A35,35,0,0,0,22.13,346.86Z"/><path class="cls-3" d="M41.74,618.51A23.87,23.87,0,0,0,40,613.62a13.27,13.27,0,0,0-1.93-2.88,7.56,7.56,0,0,0-2.12-1.82,4.82,4.82,0,0,0-2.41-.75,3.27,3.27,0,0,0-1.76.52,4.14,4.14,0,0,0-1.18,2.49,15.3,15.3,0,0,0-.24,4.35c.14,1.57.32,3.08.55,4.47a34.24,34.24,0,0,0,.79,3.47l.13.49a20.88,20.88,0,0,0,.92,2.68,25.15,25.15,0,0,0,1.35,2.87,14.86,14.86,0,0,0,2.8,3.58A8,8,0,0,0,38,634a4.74,4.74,0,0,0,1.48.89,1.33,1.33,0,0,0,.38.07l.11,0,.12,0h0c.39,0,.74-.26,1.08-.79l.06-.1a5,5,0,0,0,.76-1.6,25.42,25.42,0,0,0,.51-8.95A33.44,33.44,0,0,0,41.74,618.51ZM37,619.88c-.14-.18-.27-.38-.4-.57.44.41.79.75,1.11,1.11.12.17.24.34.35.52A11.78,11.78,0,0,1,37,619.88Z"/><path class="cls-3" d="M725.46,1044.13a9.84,9.84,0,0,0-.91.48,11.65,11.65,0,0,0-2.64,2.07,15.59,15.59,0,0,0-3.44,5.79,30.88,30.88,0,0,0-1.62,7.32,52.55,52.55,0,0,0-.18,7.77,56.56,56.56,0,0,0,.77,7c.28,1.59.67,3.15,1,4.47.51,1.94,1.1,3.86,1.75,5.71A76,76,0,0,0,731.27,1105a100.34,100.34,0,0,0,7.81,9.11c-.59-.38-1.26-.75-2.15-1.21a52.46,52.46,0,0,0-12.57-4.86,23.7,23.7,0,0,0-6.28-.59,17.19,17.19,0,0,0-5.53,1.23c-.31.13-.63.26-.94.41a9.47,9.47,0,0,0-5,5,10.5,10.5,0,0,0,.21,7,20.87,20.87,0,0,0,1.69,3.64,31.76,31.76,0,0,0,2.2,3.37,55.43,55.43,0,0,0,5.49,6.27,19.94,19.94,0,0,0-4.58-.49,10.66,10.66,0,0,0-2.55.3,9.53,9.53,0,0,0-1.91.67,7.43,7.43,0,0,0-.78.42,7.34,7.34,0,0,0-3.15,4.53,11.74,11.74,0,0,0-.34,3,11.47,11.47,0,0,0,.39,2.68,15.37,15.37,0,0,0,2.33,4.86,26.27,26.27,0,0,0,3.94,4.41,38.4,38.4,0,0,0,4.87,3.76l.86.56a7,7,0,0,0-1.73.22,10.16,10.16,0,0,0-1.92.68,10.3,10.3,0,0,0-1,.56,9.37,9.37,0,0,0-2.52,2.54,11.56,11.56,0,0,0-1.88,5.42,15.57,15.57,0,0,0,.53,5.37,21.89,21.89,0,0,0,2.23,5.13,42,42,0,0,0,7.53,9.29,65.84,65.84,0,0,0,8.52,6.91,70.81,70.81,0,0,0,11.37,6.21,95.7,95.7,0,0,0,14.83,5,106.43,106.43,0,0,0,15.23,2.69,99.17,99.17,0,0,0,31.48-1.51,89.25,89.25,0,0,0,14.71-4.55c1.43-.6,2.83-1.22,4.15-1.85A88.32,88.32,0,0,0,826,1196a92.61,92.61,0,0,0,22.28-20.23,121.78,121.78,0,0,0,16.11-26.81,94.2,94.2,0,0,0,4.71-14,79,79,0,0,0,2.3-14.68,60.66,60.66,0,0,0-.85-14.75,45.85,45.85,0,0,0-4.91-13.76,22,22,0,0,0-7.92-8.38,15.21,15.21,0,0,0-9.24-2.12,12.14,12.14,0,0,0-3.82,1.1,4.16,4.16,0,0,0-.47.24,13.15,13.15,0,0,0-3.76,3,14.78,14.78,0,0,0-2.21,3.59,54.73,54.73,0,0,0-2.31-7.87,45.85,45.85,0,0,0-3.78-7.78,27.61,27.61,0,0,0-5.18-6.28,18.82,18.82,0,0,0-3.2-2.26,13.91,13.91,0,0,0-3.55-1.39,11,11,0,0,0-7.41.65l-.13.06a14.72,14.72,0,0,0-5.56,5.13,29.22,29.22,0,0,0-3.46,7.39c-.41,1.29-.76,2.62-1.06,3.93a2.71,2.71,0,0,0-.09-.68c-.63-2.64-1.24-4.94-1.89-7.07a66.54,66.54,0,0,0-2.74-7.39,36.8,36.8,0,0,0-3.94-6.9,22,22,0,0,0-2.55-2.85,14.54,14.54,0,0,0-2.9-2.1,12.15,12.15,0,0,0-6.84-1.43,11.56,11.56,0,0,0-4.24,1.1,11.26,11.26,0,0,0-1.69,1,12.94,12.94,0,0,0-3.82,4.72,23.19,23.19,0,0,0-2,6.29,40.2,40.2,0,0,0-.63,7.13,56.11,56.11,0,0,0,.38,7c-1-2-2.16-4.16-3.5-6.44A108.15,108.15,0,0,0,756,1058.64a67.25,67.25,0,0,0-6.15-6.5,43.14,43.14,0,0,0-6.36-4.91,29.83,29.83,0,0,0-7-3.27,17,17,0,0,0-8.43-.68,13.89,13.89,0,0,0-1.79.49c-.29.11-.56.23-.83.36"/><path class="cls-4" d="M749.36,1092.76l0,0-.16-.24Z"/><path class="cls-4" d="M818,1179.09l.08.11h0A1,1,0,0,0,818,1179.09Z"/><path class="cls-4" d="M818.06,1179.2l.06.1-.06-.09Z"/><path class="cls-4" d="M849.36,1087.24a.46.46,0,0,0-.21,0,.51.51,0,0,0-.29.46c-.08,2.49-.28,5-.59,7.43a89.87,89.87,0,0,1-2.14,10.91c-.46,1.78-1,3.53-1.59,5.27s-1.26,3.4-1.95,5.07l0-.07a86.36,86.36,0,0,1-10.86,18.87q-1.75,2.28-3.69,4.42c-1.32,1.48-2.72,2.9-4.14,4.28s-2.93,2.74-4.43,4.07-3,2.59-4.61,3.82c-1.29,1-2.6,2-3.9,3-.79.59-1.57,1.19-2.35,1.8l-.44-.6c-2-2.62-4-5.18-6.06-7.73a44.3,44.3,0,0,0,3.43-5.15,66.3,66.3,0,0,0,3.27-6.53c1-2.35,1.95-4.75,2.77-7.17.4-1.19.76-2.4,1.09-3.61s.67-2.44,1-3.67.64-2.47.92-3.72.53-2.51.78-3.77c.51-2.54.94-5.1,1.27-7.67v0c0-.27.07-.54.1-.81a.88.88,0,0,1,0,.17l.12-.94h0a167.55,167.55,0,0,0,1.18-29.79c-.1-2.21-.26-4.42-.45-6.62a.26.26,0,0,0-.25-.25.26.26,0,0,0-.25.25c.39,4.7.55,9.43.47,14.15-.09,5-.4,10.06-1,15.07-.08.68-.17,1.37-.25,2.06-.31,2.32-.65,4.64-1.11,6.93s-.93,4.64-1.5,6.94-1.21,4.56-1.9,6.8-1.54,4.53-2.46,6.73h0c-.2.46-.39.94-.59,1.4l0,0c-.66,1.55-1.34,3.07-2.08,4.58s-1.64,3.23-2.54,4.81-1.82,3.07-2.8,4.56c-.47.72-.95,1.43-1.43,2.14l-.16.24q-4.86-5.87-10-11.53c-.94-1-1.89-2.07-2.84-3.11l0-.08c.16-.56.3-1.11.43-1.67.26-1.1.47-2.21.65-3.33.39-2.4.64-4.84.79-7.27s.2-4.9.16-7.35-.19-5.06-.38-7.58-.5-5.13-.84-7.67c-.19-1.3-.4-2.6-.6-3.9s-.39-2.53-.6-3.79c-.41-2.48-.9-5-1.41-7.43s-1-4.75-1.64-7.12c-.91-3.67-1.93-7.31-3-10.93a.36.36,0,0,0-.52-.21.34.34,0,0,0-.18.41c1.1,3.71,2,7.48,2.82,11.28.44,2,.83,4.11,1.2,6.17s.75,4.32,1.05,6.49c.17,1.23.33,2.45.48,3.68s.27,2.54.37,3.82c.22,2.56.37,5.12.47,7.68a123.41,123.41,0,0,1-.25,15c-.11,1.43-.27,2.85-.45,4.28-.23,1.69-.52,3.38-.85,5.06-.11.53-.22,1.05-.34,1.58q-2.14-2.34-4.31-4.66c-3.34-3.57-6.71-7.09-10.05-10.66l-5.09-5.43c-1-1.1-2-2.21-3-3.34a76.87,76.87,0,0,0-1.08-9,78,78,0,0,0-2.1-8.53c-1.71-5.6-3.88-11-5.9-16.53-1-2.79-2.06-5.59-3-8.4a.25.25,0,0,0-.31-.18l0,0a.24.24,0,0,0-.14.29c1,2.82,1.93,5.63,2.9,8.45s1.89,5.56,2.72,8.38a116.52,116.52,0,0,1,3.79,17c.25,1.82.43,3.63.56,5.46-3-3.48-5.92-7.05-8.67-10.75-1-1.39-2.07-2.78-3.07-4.2s-2-3-3-4.55l.14.22-.77-1.18.14.21c-1.48-2.27-2.94-4.55-4.32-6.88s-2.72-4.71-4.06-7.09q-4.08-7.28-7.74-14.8a.36.36,0,0,0-.65.31c1.71,3.51,3.39,7,5.14,10.51s3.49,7,5.35,10.4,3.58,6.6,5.49,9.83c1,1.66,2,3.29,3,4.92s2,3.27,3.09,4.88c2.45,3.73,5,7.41,7.71,11-1-.48-2.07-1-3.09-1.48-1.35-.69-2.69-1.4-4-2.15s-2.7-1.63-4-2.5a73,73,0,0,1-7.58-5.87l0,0a82.33,82.33,0,0,1-13.22-14.8.31.31,0,0,0-.36-.07.15.15,0,0,0-.06,0,.3.3,0,0,0,0,.42c1.5,2.19,3.08,4.33,4.74,6.4.85,1,1.72,2.09,2.6,3.12s1.82,2,2.76,3c1.89,2,3.88,3.86,5.95,5.66s4.21,3.5,6.44,5.08a56.51,56.51,0,0,0,6.32,3.94c1.13.59,2.28,1.15,3.46,1.64.59.25,1.18.48,1.78.7l1,.35c.9,1.09,1.81,2.18,2.72,3.26q2.38,2.83,4.82,5.64c3.19,3.69,6.36,7.4,9.58,11.06,1.79,2,3.56,4.09,5.34,6.14-1.18-.17-2.37-.31-3.55-.43-2.54-.26-5.07-.46-7.61-.64-5-.37-10-.79-15-1.41-3.67-.45-7.32-1-10.93-1.8-3.1-.67-6.17-1.47-9.19-2.43a62.55,62.55,0,0,1-9.19-3.74h0a64.71,64.71,0,0,1-9.37-5.76.48.48,0,0,0-.49,0,.38.38,0,0,0-.19.16.5.5,0,0,0,.13.69,75.85,75.85,0,0,0,6.57,4.39,66.82,66.82,0,0,0,6.78,3.5c2.27,1,4.58,2,6.93,2.81s4.7,1.53,7.1,2.14A142.28,142.28,0,0,0,759,1133.6c2.49.35,5,.66,7.49,1s5,.59,7.56.85c3.6.38,7.2.72,10.81.88l1.53,1.76c3.17,3.69,6.33,7.4,9.44,11.15-2,.57-3.91,1.16-5.87,1.71q-3.65,1-7.35,1.91a121.47,121.47,0,0,1-14.3,2.49c-1.78.19-3.56.34-5.35.43h0a99.73,99.73,0,0,1-25.09-2.18,130.63,130.63,0,0,1-22.44-7.11.42.42,0,0,0-.33,0,.47.47,0,0,0-.24.26.46.46,0,0,0,.27.57,139.83,139.83,0,0,0,28.69,8.76,106.58,106.58,0,0,0,14,1.56,113.4,113.4,0,0,0,14.28-.31,94.73,94.73,0,0,0,12.75-2c2.18-.49,4.35-1.06,6.49-1.7s4.23-1.35,6.29-2.17c1.76,2.15,3.51,4.31,5.22,6.5l.21.27c-.36.34-.74.66-1.1,1s-1,.88-1.51,1.31c-.93.81-1.88,1.59-2.86,2.34a59.08,59.08,0,0,1-6.59,4.35,67.15,67.15,0,0,1-7.25,3.5,79.32,79.32,0,0,1-9.64,3.17,90.53,90.53,0,0,1-10.18,2,98.26,98.26,0,0,1-24.83,0,90.5,90.5,0,0,1-23.17-6c-.84-.35-1.67-.71-2.5-1.09a.51.51,0,0,0-.45,0,.57.57,0,0,0-.2.18.49.49,0,0,0,.18.66,94.63,94.63,0,0,0,27.31,7.69,101.6,101.6,0,0,0,15,.87,95.78,95.78,0,0,0,15-1.39,72.78,72.78,0,0,0,27.21-10.36,52,52,0,0,0,4.22-3.06c.67-.53,1.31-1.09,1.94-1.67.41-.38.81-.78,1.2-1.18,2,2.59,3.92,5.2,5.81,7.85,2.5,3.51,4.88,7.08,7.24,10.68l-.13-.2.21.31h0l.15.22-.09-.13c.9,1.39,1.79,2.79,2.71,4.16a2.26,2.26,0,0,0,1,.64,2.21,2.21,0,0,0,1.71-.09,2.27,2.27,0,0,0,1.06-3c-1.14-2.23-2.41-4.39-3.71-6.53s-2.77-4.4-4.21-6.56c-1.73-2.61-3.53-5.18-5.37-7.72.46-.28.92-.56,1.37-.86,1.34-.88,2.63-1.84,3.89-2.83a80.55,80.55,0,0,0,6.5-5.74c1-1,2-2,3-3.1s1.9-2.13,2.81-3.23,1.88-2.37,2.79-3.57,1.67-2.26,2.48-3.41a85.91,85.91,0,0,0,8.28-14.65,81.93,81.93,0,0,0,3-8c.87-2.72,1.6-5.49,2.23-8.27s1.07-5.48,1.43-8.25v0c.45-3.49.7-7,.81-10.54A.51.51,0,0,0,849.36,1087.24Z"/><path class="cls-5" d="M738.89,163.38a19.8,19.8,0,0,0,1.75,2.52,17,17,0,0,0,3,2.87A23,23,0,0,0,750,172a22.62,22.62,0,0,0,10.21,1.18,22,22,0,0,0,5-1.17,27.68,27.68,0,0,0,4.77-2.26,40.43,40.43,0,0,0,8.66-7.2,73.48,73.48,0,0,0,7.87-10.3,120.19,120.19,0,0,0,7-12.59c2.51-5.16,4.88-10.62,7.25-16.68a.8.8,0,0,0,.07-.2c1.57-4,3.13-8.28,4.76-13,3.16-9.22,6.24-19.27,9.67-31.62,2-7.39,4-14.92,5.92-22.22l1.55-6c.29-1.13.59-2.25.89-3.38l.42-.81c.59-1.17,1.18-2.48,1.8-4a34.64,34.64,0,0,0,2.49-8.62,17.59,17.59,0,0,0,.19-2.16,11.57,11.57,0,0,0,0-1.27c.19-.52.39-1,.59-1.55l.16-.38a.51.51,0,0,0,0-.48.46.46,0,0,0-.17-.17.49.49,0,0,0-.41,0,.39.39,0,0,0-.24.21l-.24.56a5,5,0,0,0-.18-.63,9.08,9.08,0,0,0-.41-1,1.62,1.62,0,0,0-.1-.18,7.08,7.08,0,0,0-.56-.79,6.14,6.14,0,0,0-3.14-2.05l-.42-.11.08-.06.07-.09a62.92,62.92,0,0,0,5.2-7.06,26.11,26.11,0,0,0,3.16-6.82A10.58,10.58,0,0,0,831.89,3a8.89,8.89,0,0,0-.65-1.43,9.58,9.58,0,0,0-1-1.36A9.64,9.64,0,0,0,828-1.65a11.35,11.35,0,0,0-2.72-1.13,15.09,15.09,0,0,0-3.14-.52,28.26,28.26,0,0,0-7,.47,56.94,56.94,0,0,0-7.62,1.94,144.65,144.65,0,0,0-16.14,6.43c-2.52,1.15-5.06,2.36-7.51,3.53l-.48.23-1.22.58-.66.32c-1.9.91-4.07,2-6.19,2.83-1.16.46-2.36.86-3.48,1.23-2,.67-4.16,1.3-6.62,2-3.88,1-8.1,1.92-13.68,2.94-2.8.51-5.61,1-8.43,1.46l-.27.05c-6.24,1.05-12.69,2.14-19,3.6a105.72,105.72,0,0,0-13.16,3.88,57.12,57.12,0,0,0-11.07,5.29,40,40,0,0,0-4.31,3.21,29.86,29.86,0,0,0-3.43,3.41,22.27,22.27,0,0,0-4.54,8,14.71,14.71,0,0,0,0,8.52,14.41,14.41,0,0,0,1.33,3,19.86,19.86,0,0,0,4.32,5.11,38.2,38.2,0,0,0,9.71,5.85A56.64,56.64,0,0,0,713,73.9a67.88,67.88,0,0,0,10.89,1.48,79.79,79.79,0,0,0,11-.11,109.18,109.18,0,0,0,22-4.07c3.39-1,6.84-2.19,10.24-3.56s6.45-2.77,9.47-4.31c1.63-.84,3.24-1.72,4.77-2.61-1.43,1.68-2.85,3.43-4.25,5.18-6.11,7.66-11.84,15.57-17,23.52-2.58,4-5.14,8.12-7.61,12.36-1.41,2.43-3.06,5.32-4.56,8.26a143.64,143.64,0,0,0-7.11,16.41,83,83,0,0,0-4.67,19c-.77,6.81-.06,12.35,2.16,16.95.16.35.35.69.54,1"/><path class="cls-6" d="M820.87,28.73c-2.19,2.86-4.38,5.72-6.51,8.62q-4.7,6.38-9.25,12.84c-.7.47-1.41.94-2.14,1.39a45.39,45.39,0,0,1-4.4,2.37,37.9,37.9,0,0,1-4.82,1.83,41.91,41.91,0,0,1-4.83,1.16.46.46,0,0,0-.38.52.44.44,0,0,0,.06.16.46.46,0,0,0,.47.22c1.6-.27,3.2-.59,4.77-1a46.54,46.54,0,0,0,4.73-1.53c.74-.29,1.48-.61,2.21-.94s1.51-.74,2.23-1.15c-.48.71-1,1.41-1.46,2.12q-4,5.82-7.75,11.77-2,1.9-4.09,3.63c-.85.69-1.71,1.35-2.6,2s-1.84,1.27-2.79,1.86q-2.42,1.47-5,2.71t-5.09,2.25a.33.33,0,0,0-.16.43l0,0a.33.33,0,0,0,.41.13c1.9-.73,3.79-1.49,5.64-2.35s3.71-1.82,5.5-2.85c.88-.52,1.76-1,2.62-1.6s1.73-1.14,2.56-1.75l.25-.21c-.58,1-1.17,1.9-1.75,2.86-2.82,4.66-5.53,9.41-8.14,14.2l-.65.72a66.74,66.74,0,0,1-13.21,11,58.77,58.77,0,0,1-7.71,4,.45.45,0,0,0-.22.59s0,0,0,0a.45.45,0,0,0,.56.18,71.35,71.35,0,0,0,6.48-3.1c1.11-.61,2.2-1.24,3.28-1.89s2.25-1.42,3.36-2.16,2.1-1.47,3.11-2.25c.72-.56,1.42-1.15,2.11-1.75l-.07.13c-2.14,4.07-4.17,8.18-6.13,12.32-.88,1.86-1.7,3.74-2.52,5.63-1.91,2.21-3.84,4.42-5.84,6.56-1.12,1.19-2.26,2.35-3.43,3.5s-2.37,2.27-3.6,3.35-2.51,2.08-3.82,3.06-2.62,1.87-4,2.72h0c-1.49.91-3,1.77-4.57,2.53a.35.35,0,0,0-.17.44l0,0a.34.34,0,0,0,.43.14c1.27-.61,2.51-1.27,3.74-2s2.4-1.44,3.57-2.21a80.31,80.31,0,0,0,7-5.17c1.13-.92,2.23-1.86,3.31-2.85s2.1-2,3.11-3c.77-.8,1.53-1.62,2.27-2.46l-.94,2.22v0h0l-.06.16h0c-1.38,3.35-2.7,6.71-3.92,10.11s-2.38,6.92-3.53,10.39c-.25.78-.49,1.57-.73,2.35a70.78,70.78,0,0,1-5.66,7,53.85,53.85,0,0,1-9.25,7.8.34.34,0,0,0-.08.44l0,0a.34.34,0,0,0,.48,0q2.24-1.48,4.37-3.12c1.43-1.1,2.8-2.27,4.14-3.5a52.54,52.54,0,0,0,3.78-3.83c.37-.42.72-.84,1.07-1.27q-2.18,7.4-3.82,14.92c-.4,1.82-.78,3.63-1.13,5.45a.59.59,0,0,0,.06.37.51.51,0,0,0,.28.21.47.47,0,0,0,.57-.34q.79-4.1,1.8-8.15c.67-2.73,1.45-5.43,2.26-8.11.31-1,.64-2.07,1-3.11,0,.7.07,1.4.16,2.1a28.6,28.6,0,0,0,1.25,5.46,29.07,29.07,0,0,0,2.27,5.18l.25.44a30.51,30.51,0,0,0,3.1,4.39.3.3,0,0,0,.41,0,.29.29,0,0,0,0-.4,25.68,25.68,0,0,1-2.21-3.07,27.67,27.67,0,0,1-1.56-2.89,22.94,22.94,0,0,1-1.22-3.24h0a28.6,28.6,0,0,1-.74-3.3,26.47,26.47,0,0,1-.33-3.32c-.07-1.64-.06-3.29,0-4.93a.64.64,0,0,0-.13-.42c1-3,2.1-5.94,3.29-8.85,1.39-3.38,2.88-6.72,4.39-10.05.41-.92.85-1.83,1.27-2.74,0,.36,0,.72.08,1.08a53.21,53.21,0,0,0,1.24,7.63,62.45,62.45,0,0,0,2.27,7.47,68.32,68.32,0,0,0,3,7c.55,1.1,1.13,2.17,1.74,3.23l.85,1.43a.26.26,0,0,0,.35.13.27.27,0,0,0,.13-.35,55.67,55.67,0,0,1-3.21-6.18,59.44,59.44,0,0,1-2.66-7.06,53.75,53.75,0,0,1-2.36-13.06c0-1.26,0-2.51,0-3.76,0-.25,0-.49,0-.74q1-2.07,2.06-4.14c3.19-6.21,6.53-12.37,10-18.42q0,1.47,0,2.94c.06,1.32.18,2.64.33,4s.38,2.65.64,4,.55,2.64.89,4,.73,2.58,1.15,3.85a72.52,72.52,0,0,0,2.9,7.36c.65,1.43,1.34,2.84,2.09,4.22v0a.25.25,0,0,0,.44-.22,55.23,55.23,0,0,1-4-9.82,72.32,72.32,0,0,1-1.84-7.66c-.24-1.27-.42-2.56-.56-3.84s-.24-2.56-.3-3.85c-.06-1.6-.06-3.2,0-4.81,0-.77.1-1.53.15-2.3,0-.39.07-.77.1-1.16q5.13-8.7,10.61-17.18l.85-1.31a46.31,46.31,0,0,0,.11,5,54.15,54.15,0,0,0,1.07,7.17c.51,2.36,1.17,4.68,1.9,7s1.58,4.66,2.43,7l0,0a.4.4,0,0,0,.5.14.4.4,0,0,0,.19-.52q-1.05-2.88-1.93-5.82v0h0v0a63.54,63.54,0,0,1-2.82-15.58,56.11,56.11,0,0,1,.16-6.61.75.75,0,0,0,0-.21q4.25-6.54,8.61-13c0,.32,0,.65.09,1a38.13,38.13,0,0,0,1,5.18c.44,1.68,1,3.35,1.54,5a47.53,47.53,0,0,0,2.22,5.13v0a.25.25,0,0,0,.45-.22A36.91,36.91,0,0,1,809,68.44a.29.29,0,0,0,0,.09c-.29-1-.56-2-.77-3s-.39-2.11-.53-3.18a60.79,60.79,0,0,1-.56-6.32V56Q813,47.33,819.07,38.8c1.94-2.75,3.88-5.51,5.84-8.24l3-4.14c.49-.68,1-1.36,1.46-2.05s.92-1.39,1.42-2.06a1.84,1.84,0,0,0,.2-1.45,1.9,1.9,0,0,0-.92-1.19,2,2,0,0,0-1.44-.2l-.47.19a2,2,0,0,0-.7.67C825.16,23.06,823,25.9,820.87,28.73Z"/><path class="cls-6" d="M705.57,38.85a.2.2,0,0,0,0,.2.26.26,0,0,0,.14.11c2.42.68,4.83,1.44,7.2,2.26a71.27,71.27,0,0,1,7.2,2.91c1.14.55,2.27,1.11,3.38,1.7s2.25,1.28,3.34,2A53.41,53.41,0,0,1,733,52.53c.31.27.62.56.93.84-2.36.44-4.72.86-7.1,1.23-1.56.24-3.13.46-4.7.66-2.61.32-5.24.6-7.87.83a24,24,0,0,0-4.4-3.08c-.88-.49-1.78-.95-2.7-1.36s-1.85-.83-2.79-1.19c-1.84-.71-3.73-1.32-5.62-1.88s-3.83-1-5.77-1.53a.25.25,0,0,0-.31.17.28.28,0,0,0,0,.2.22.22,0,0,0,.14.11c2,.49,3.95,1.06,5.88,1.71a53.8,53.8,0,0,1,5.74,2.32,40.83,40.83,0,0,1,4.78,2.71c.94.62,1.83,1.3,2.7,2-6.08.49-12.17.76-18.26.71a.87.87,0,0,0-.88.87.82.82,0,0,0,.11.44.88.88,0,0,0,.76.45c6.34.06,12.68-.08,19-.46l-.23.25a27.74,27.74,0,0,1-5.61,4.32,30.53,30.53,0,0,1-4.17,2,.33.33,0,0,0-.17.43s0,0,0,0a.34.34,0,0,0,.41.14,34.76,34.76,0,0,0,6.47-3.27,26.68,26.68,0,0,0,3-2.26c.45-.37.86-.77,1.28-1.19.17-.17.33-.35.49-.54l2.28-.14c3.87-.31,7.74-.72,11.6-1.18q3.25-.39,6.49-.89c-.35.51-.7,1-1.07,1.5a30.67,30.67,0,0,1-2.72,3.09c-.64.63-1.29,1.24-2,1.83s-1.43,1.19-2.18,1.74a46.73,46.73,0,0,1-4.75,3.11l0,0c-1.21.69-2.46,1.32-3.73,1.9a.26.26,0,0,0-.14.33l0,0a.24.24,0,0,0,.31.11c1.76-.8,3.49-1.69,5.17-2.63.88-.5,1.74-1,2.59-1.56s1.73-1.16,2.57-1.78,1.65-1.25,2.44-1.92,1.5-1.37,2.22-2.1a26.83,26.83,0,0,0,2-2.27,19.63,19.63,0,0,0,1.14-1.67c1.1-.18,2.2-.34,3.3-.54,3.88-.71,7.74-1.5,11.58-2.42,2.27-.54,4.52-1.14,6.76-1.76-.91,1.53-1.85,3-2.89,4.48a43.38,43.38,0,0,1-4.37,5.1l0,0a42.48,42.48,0,0,1-4.22,3.7,40.65,40.65,0,0,1-4.59,3.11l-.25.14a.26.26,0,0,0-.14.33s0,0,0,0a.25.25,0,0,0,.31.11,53.25,53.25,0,0,0,5.22-3.29,52.84,52.84,0,0,0,5-4.12,47.14,47.14,0,0,0,4.24-4.59,30.48,30.48,0,0,0,3.57-5.36.61.61,0,0,0,.05-.18l2.7-.78a161.17,161.17,0,0,0,17.14-6.27c-.32.79-.65,1.57-1,2.35-.5,1.11-1.06,2.2-1.67,3.26a48.2,48.2,0,0,1-4,5.76,66.88,66.88,0,0,1-4.57,5.09l-.54.54a.34.34,0,0,0-.09.42l0,0a.33.33,0,0,0,.46.06c1.35-1.31,2.67-2.64,3.93-4S775,54,776.18,52.46a45,45,0,0,0,3.16-4.67c.47-.8.91-1.63,1.32-2.47a17,17,0,0,0,1-2.57l0-.17v0c1.1-.49,2.2-1,3.29-1.47a138,138,0,0,0,20.1-11.6,108.46,108.46,0,0,0,17.67-15.26c.42-.45.83-.92,1.23-1.38s.88-1.08,1.34-1.61a1.83,1.83,0,0,0,.52-1.25,1.72,1.72,0,0,0-.51-1.25,1.77,1.77,0,0,0-2.51,0c-.62.68-1.31,1.31-2,2l-2,1.95q-2,1.94-4,3.78c-2.64,2.38-5.4,4.63-8.23,6.79a140.13,140.13,0,0,1-15.54,10.16,27.38,27.38,0,0,0-3.3-3.25,37.81,37.81,0,0,0-5.2-3.71,59.89,59.89,0,0,0-5.49-2.9c-1.91-.89-3.84-1.71-5.81-2.46a.33.33,0,0,0-.4.2.35.35,0,0,0,0,.25.34.34,0,0,0,.18.15c1.2.47,2.38,1,3.55,1.52l0,0a47.6,47.6,0,0,1,10,6.53c1.06.92,2.08,1.88,3,2.89.56.58,1.08,1.18,1.6,1.79q-4.47,2.44-9.1,4.59A31.46,31.46,0,0,0,775,35.12a54.65,54.65,0,0,0-7.21-3.63c-2.5-1-5-2-7.58-2.9s-5-1.66-7.54-2.43a.26.26,0,0,0-.29.37.27.27,0,0,0,.14.11c2.15.66,4.29,1.36,6.41,2.12s4.36,1.63,6.47,2.63h0l.08,0h0a59.94,59.94,0,0,1,5.56,3c.9.56,1.78,1.14,2.64,1.77s1.63,1.22,2.41,1.88c.57.5,1.14,1,1.69,1.53l.25.26c-2,.88-3.93,1.74-5.93,2.54q-5.37,2.14-10.87,4c-.67.23-1.35.44-2,.66-.7-.59-1.4-1.17-2.13-1.72q-1.65-1.26-3.39-2.4a75.18,75.18,0,0,0-7.18-4.15,98.74,98.74,0,0,0-15.37-6.19c-1.69-.53-3.4-1-5.12-1.46a.41.41,0,0,0-.5.26.39.39,0,0,0,0,.33.39.39,0,0,0,.21.17,86.08,86.08,0,0,1,15.11,5.41c1.32.63,2.63,1.29,3.91,2s2.57,1.5,3.83,2.29A63.6,63.6,0,0,1,755.77,47l0,0,1,.91q-3.42,1-6.88,2c-3.8,1-7.63,1.92-11.5,2.71l-2,.38a39,39,0,0,0-6.18-4.59c-1.2-.73-2.43-1.42-3.68-2s-2.53-1.23-3.81-1.81-2.6-1.09-3.91-1.59-2.65-1-4-1.44c-2.65-.92-5.34-1.71-8-2.46l-1-.27A.25.25,0,0,0,705.57,38.85Z"/><polygon class="cls-7" points="765.43 31.39 765.43 31.39 765.43 31.39 765.43 31.39"/><path class="cls-7" d="M765.43,31.39l.07,0,0,0Z"/><path class="cls-3" d="M732.75,49.35c-5.25,9.36-9.81,19.27-14.22,28.85-2.12,4.61-4.32,9.38-6.56,14s-4.44,8.93-6.61,12.88c-1.44,2.61-2.76,4.88-4,6.93-1.12,1.8-2.2,3.44-3.3,5-.22.29-.44.57-.69.84a1.46,1.46,0,0,0-.16.19,2.17,2.17,0,0,0-.15.35c7.57-1.13,15.19-2,22.76-3.08l5.48-1,4.25-.75c3.68-.65,7.49-1.31,11.22-2a141.09,141.09,0,0,0,14.42-3.47,99.54,99.54,0,0,0,13.12-5.14,93.2,93.2,0,0,0,23.1-15.56,96.23,96.23,0,0,0,16.45-20.09q1-1.6,1.92-3.21a112.33,112.33,0,0,0,8.49-18.76.82.82,0,0,0,.26.2,1.4,1.4,0,0,0,1.08.11,1.58,1.58,0,0,0,.87-.7c1.24-1.83,2.36-3.56,3.42-5.27,1.79-2.88,3.33-5.6,4.71-8.31a66,66,0,0,0,3.79-8.9A28.72,28.72,0,0,0,834,13.87a12.45,12.45,0,0,0-2-7.37A12,12,0,0,0,830.67,5a12.7,12.7,0,0,0-1.79-1.37,18,18,0,0,0-4-1.82A41.18,41.18,0,0,0,814.69.08a98.16,98.16,0,0,0-31.24,3.41,72.2,72.2,0,0,0-21.52,10.6A82.37,82.37,0,0,0,745.51,30a130,130,0,0,0-8.61,12.35c-1.35,2.18-2.71,4.48-4.15,7M820.83,37a162.36,162.36,0,0,0,5.06-30.52c.49.26.93.52,1.36.79a8.78,8.78,0,0,1,1.29,1.21,8.76,8.76,0,0,1,.9,1.47,11.35,11.35,0,0,1,.59,2.14,16.89,16.89,0,0,1,0,3.71,38.08,38.08,0,0,1-2.24,8.56,89.49,89.49,0,0,1-5.16,10.92c-.87,1.6-1.78,3.18-2.72,4.79.31-1,.6-2,.88-3.07"/><path class="cls-3" d="M736.86,42.29c-1.34,2.16-2.7,4.46-4.15,7C727.46,58.7,723,68.51,718.58,78l0,.09-.41.89c-1.9,4.12-4,8.78-6.19,13.23-2.26,4.69-4.43,8.9-6.62,12.88-1.45,2.62-2.77,4.89-4,6.93-1.13,1.81-2.21,3.45-3.3,5a7.79,7.79,0,0,1-.68.82,1.46,1.46,0,0,0-.16.21,1.05,1.05,0,0,0-.15.36c3.94-.53,8-1,11.2-1.46l.22,0,.15,0c3.69-.47,7.51-1,11.22-1.52l5.49-1,.73-.13,3.52-.62.54-.1.21,0c3.27-.57,6.94-1.22,10.47-1.91a145.55,145.55,0,0,0,14.42-3.48A99.44,99.44,0,0,0,768.3,103,92.64,92.64,0,0,0,789,89.5a2.67,2.67,0,0,0-.14-.34,3.27,3.27,0,0,0-.5-.64,3.78,3.78,0,0,0-.7-.58,4.1,4.1,0,0,0-.48-.21,5.5,5.5,0,0,0-1.29-.18,13.29,13.29,0,0,0-2.19.17c-.81.13-1.7.31-2.72.55l-1.39.36c-2.44.67-5,1.49-7.17,2.21l-.29.1-3.69,1.19c-.83.26-2.08.65-3.37,1-.84.22-1.83.47-2.84.64-.38.06-.76.11-1.14.14a6,6,0,0,1-1,0,2.26,2.26,0,0,1-.73-.19,1.18,1.18,0,0,1-.5-.39,1.21,1.21,0,0,1-.21-.62,2.57,2.57,0,0,1,.14-.82,5.22,5.22,0,0,1,.45-1l.2-.34c.2-.32.41-.63.63-.92a35.48,35.48,0,0,1,2.87-3.4c1.32-1.41,2.78-2.88,4.75-4.76l2.9-2.75.18-.18c1.22-1.15,2.42-2.29,3.62-3.45,4.42-4.29,9-9,12.45-14.62l.23-.38c.48-.8.89-1.52,1.25-2.2s.62-1.21.89-1.83a25.2,25.2,0,0,0,1.08-2.94,19.59,19.59,0,0,0,.82-4.74,11.17,11.17,0,0,0-.25-2.85,7.25,7.25,0,0,0-.59-1.55,5.58,5.58,0,0,0-.75-1,5.19,5.19,0,0,0-.89-.72,5.57,5.57,0,0,0-1.24-.52,5.32,5.32,0,0,0-.84-.18,8.59,8.59,0,0,0-1-.08,10.76,10.76,0,0,0-2.48.24,10.5,10.5,0,0,0-2.6,1,18.5,18.5,0,0,0-2.69,1.86,34.23,34.23,0,0,0-2.74,2.45l-.13.12-.32.32c-.92.91-1.82,1.85-2.72,2.78l-.26.27-1.13,1.17c-1.17,1.23-2.55,2.64-4,3.93a19.76,19.76,0,0,1-4,2.84,7.77,7.77,0,0,1-4,.91,3.82,3.82,0,0,1-1.66-.46,2.56,2.56,0,0,1-1-1,3.66,3.66,0,0,1-.39-1.47,8.4,8.4,0,0,1,.08-1.84,20.61,20.61,0,0,1,.45-2.14c.21-.77.44-1.53.68-2.29.19-.6.38-1.19.58-1.78.33-1,.65-2,.94-2.94.21-.73.43-1.51.59-2.34a11.33,11.33,0,0,0,.26-1.94,5.38,5.38,0,0,0-.11-1.3,10.55,10.55,0,0,0-1-2.51,7.37,7.37,0,0,0-.56-.87c-.18-.24-.38-.46-.58-.68a5.91,5.91,0,0,0-.62-.56,7.12,7.12,0,0,0-.66-.46,6.24,6.24,0,0,0-.85-.44,6.86,6.86,0,0,0-.76-.27,7.77,7.77,0,0,0-1.2-.27,11,11,0,0,0-1.14-.1,12.14,12.14,0,0,0-1.78.08,15.5,15.5,0,0,0-1.84.33,22.25,22.25,0,0,0-5.5,2.18,22.91,22.91,0,0,0-3,2c-.82,1.22-1.66,2.52-2.57,4"/><path class="cls-4" d="M829.55,16.76a96.85,96.85,0,0,0-12.27,2.56c-.4.1-.79.22-1.18.33a1.26,1.26,0,0,0-.37-1,25.78,25.78,0,0,0-2.32-2c-.81-.63-1.66-1.21-2.52-1.77a39.27,39.27,0,0,0-5.55-3,54.24,54.24,0,0,0-5.92-2.26c-2-.62-4-1.11-5.95-1.6a.3.3,0,0,0-.17.58,38.1,38.1,0,0,1,3.9,1.19c1.3.47,2.59,1,3.86,1.54h0a40.67,40.67,0,0,1,8.86,5.33,24.37,24.37,0,0,1,2,1.84c.57.6,1.09,1.23,1.61,1.86-2.6.8-5.17,1.68-7.71,2.67-1.15.45-2.29.92-3.43,1.41a34.41,34.41,0,0,0-3.25-1.23c-1.21-.39-2.44-.72-3.68-1a36.82,36.82,0,0,0-7.47-.88q-1.86,0-3.72.06c-1.23.06-2.46.2-3.69.34s-2.47.38-3.7.61-2.49.51-3.72.81c-2.4.6-4.76,1.33-7.1,2.14a.26.26,0,0,0-.15.12.19.19,0,0,0,0,.18.24.24,0,0,0,.3.18c2-.68,4-1.28,6.09-1.78a52.25,52.25,0,0,1,6.19-1.15,50.76,50.76,0,0,1,5.64-.31,38.53,38.53,0,0,1,5.47.43,37.68,37.68,0,0,1,4.31.95,32.71,32.71,0,0,1,4.3,1.51h0c.32.14.64.3,1,.45A134.16,134.16,0,0,0,784,34.16c-3.28,2.06-6.45,4.31-9.54,6.65a45.79,45.79,0,0,0-6.36,1c-1.31.3-2.62.67-3.91,1.08s-2.57.89-3.84,1.39-2.56,1-3.82,1.61-2.46,1.19-3.67,1.82-2.41,1.29-3.59,2-2.32,1.4-3.48,2.11c-1.55.94-3.08,1.92-4.61,2.91a.27.27,0,0,0-.1.11.29.29,0,0,0,0,.31.31.31,0,0,0,.42.12,80.87,80.87,0,0,1,7.11-4.1c1.22-.62,2.45-1.21,3.68-1.8s2.49-1.13,3.75-1.65h0c1.36-.55,2.73-1.09,4.12-1.58s2.79-.89,4.21-1.29a57.59,57.59,0,0,1,6.76-1.43c-2.14,1.74-4.25,3.54-6.3,5.4-3.06,2.77-6,5.68-8.81,8.69-3.1,3.33-6.07,6.78-9,10.27l-.94,1.14c-.26,0-.53.07-.79.12-.5.1-1,.22-1.48.35-.94.24-1.85.55-2.76.88a42.44,42.44,0,0,0-5.36,2.45c-.86.46-1.7,1-2.53,1.47s-1.64,1.06-2.43,1.62c-1.54,1.09-3,2.26-4.48,3.46l0,0a.27.27,0,0,0,0,.31.26.26,0,0,0,.36,0c.34-.28.68-.55,1-.81l0,0a38,38,0,0,1,4.72-3c.86-.46,1.73-.91,2.61-1.33s1.68-.76,2.53-1.11q2.29-.92,4.67-1.64c.7-.21,1.4-.41,2.11-.6q-1.83,2.2-3.64,4.42l-6.41,7.8c-3.42,4.17-6.95,8.25-10.64,12.18-.79.24-1.57.48-2.34.76-.92.33-1.82.7-2.72,1.09-1.84.8-3.63,1.74-5.39,2.7a.2.2,0,0,0-.09.09.25.25,0,0,0,.34.35,49,49,0,0,1,5.28-2.51,39.32,39.32,0,0,1,3.79-1.29c-.57.59-1.12,1.18-1.69,1.76A114.51,114.51,0,0,1,705,112a.37.37,0,0,0-.12.13.5.5,0,0,0,0,.57.49.49,0,0,0,.69.08,127.66,127.66,0,0,0,10.82-8.44c2.48-2.15,4.85-4.42,7.18-6.73-.05.37-.1.73-.16,1.1-.14.92-.34,1.83-.57,2.74a27,27,0,0,1-.94,2.93,21.85,21.85,0,0,1-1.37,2.94c-.38.68-.8,1.35-1.24,2s-.95,1.26-1.46,1.86a.27.27,0,0,0,.06.39.28.28,0,0,0,.39,0,32.34,32.34,0,0,0,4.61-7.11,28.07,28.07,0,0,0,1.56-4c.2-.66.36-1.33.51-2a14.54,14.54,0,0,0,.31-2.17,1.39,1.39,0,0,0,0-.3l.92-.93c6.37-6.51,12.3-13.44,18.29-20.29l1.26-1.41v.24c0,1.09,0,2.19-.06,3.29s-.16,2.42-.28,3.62a47.4,47.4,0,0,1-1.3,7.08h0v0h0a66.17,66.17,0,0,1-6.33,15.67l0-.07c-.24.42-.47.83-.72,1.24a.31.31,0,0,0,.06.42.3.3,0,0,0,.42-.06q2.06-3.44,3.76-7.07A71.33,71.33,0,0,0,744.37,90a74.47,74.47,0,0,0,2.16-8,44.68,44.68,0,0,0,1.05-8.14,23.3,23.3,0,0,0-.09-2.51c3.15-3.52,6.35-7,9.65-10.36a155.61,155.61,0,0,1,14.55-13.09c1.4-1.09,2.82-2.16,4.26-3.19q-.21.81-.36,1.65a35.48,35.48,0,0,0-.5,4.36c-.1,1.47-.15,2.94-.2,4.41s-.09,3-.15,4.45-.17,2.93-.31,4.39-.27,2.88-.46,4.32c-.37,2.83-.87,5.65-1.52,8.43-.16.69-.33,1.39-.51,2.08v0a76.08,76.08,0,0,1-5.81,15.33.29.29,0,0,0,.16.39.31.31,0,0,0,.39-.17,82,82,0,0,0,3.6-8.07A81.17,81.17,0,0,0,772.9,78q1.08-4.11,1.78-8.3c.5-2.86.87-5.74,1.17-8.62.12-1.24.25-2.47.35-3.71s.19-2.59.31-3.88a48.12,48.12,0,0,1,1.17-7.45,31.75,31.75,0,0,1,1-3.31v0q4.49-3.06,9.17-5.8a129.56,129.56,0,0,1,13.39-6.69c0,.14-.08.27-.11.41a38,38,0,0,0-.78,3.85c-.41,2.59-.64,5.22-.81,7.83-.34,5.29-.35,10.59-.8,15.87a60,60,0,0,1-1.58,9.7s0,0,0,0c-.34,1.31-.73,2.6-1.19,3.87a.25.25,0,0,0,.14.32.26.26,0,0,0,.33-.13c.46-1.27.89-2.55,1.25-3.84s.64-2.53.9-3.81c.52-2.59.88-5.23,1.16-7.86.58-5.25.8-10.53,1.51-15.77.16-1.19.35-2.39.58-3.58s.52-2.42.82-3.62c.26-.95.53-1.89.82-2.84l.45-1.49a127.15,127.15,0,0,1,14.64-4.93c3.82-1,7.69-1.78,11.58-2.48a2.54,2.54,0,0,0,1.67-1,2.49,2.49,0,0,0-2.32-4Z"/><path class="cls-4" d="M744.07,87.56a0,0,0,0,1,0,0h0Z"/><path class="cls-8" d="M2.48,1111.13a68.41,68.41,0,0,1,2.37,10.41,92.39,92.39,0,0,1,.85,9.91v0c.08,2.17.13,4.37.17,6.5l0,2c0,1.55.06,3.1.1,4.66,0,1.39.12,2.54.25,3.63a32.36,32.36,0,0,0,4.16,12.52,28.21,28.21,0,0,0,21,13.94,30,30,0,0,0,3,.25,1.18,1.18,0,0,0,.78,1.1,1.14,1.14,0,0,0,.41.07,1.24,1.24,0,0,0,1.15-.81c0-.1,0-.21.08-.32a1.47,1.47,0,0,0,.51-.27,1,1,0,0,0,.1-1.39,1.18,1.18,0,0,0-.27-.23l0-.13c.11-.82.16-1.66.19-2.45.07-1.57.12-3.15.15-4.73a83.64,83.64,0,0,0-.24-9.4,50.85,50.85,0,0,0-1.6-9.1,44.55,44.55,0,0,0-3.22-8.34,46.15,46.15,0,0,0-4.15-6.61,47.83,47.83,0,0,0-4.89-5.49,109.84,109.84,0,0,0-8.71-7.48l-.06,0q-1.87-1.44-3.77-2.85c-2.8-1.8-5.61-3.58-8.42-5.37Z"/><path class="cls-8" d="M70.56,1137.92c-7.38,1.54-14.05,5.62-20.15,9.79a1.09,1.09,0,0,0-.36-.06,1.17,1.17,0,0,0-1.14,1.48,1.22,1.22,0,0,0,.54.7c1.79,1.21,3.57,2.45,5.34,3.68,2.9,2,5.91,4.14,9,6a45,45,0,0,0,14.88,6.27,34.88,34.88,0,0,0,6.75.65c.69,0,1.37,0,2,0a43.65,43.65,0,0,0,8.81-1.46,97.58,97.58,0,0,0,16.39-6.55l2.48-1.2c1-.49,2.05-1,3.08-1.47,1.82-.86,3.7-1.7,5.75-2.57l.55-.22,1.25-.53.47-.18a.75.75,0,0,0,.32-.25,78.53,78.53,0,0,1-16-3.46,81.91,81.91,0,0,1-8.17-3.21c-1.36-.62-2.7-1.27-4-2l-1.5-.8-1.71-.72a88,88,0,0,0-8.58-3.18,35.92,35.92,0,0,0-8.35-1.4l-1.19,0a32,32,0,0,0-6.5.69"/><path class="cls-8" d="M102.25,1041.93l-.47.5c-.72.77-1.44,1.54-2.13,2.34s-1.62,1.94-2.43,3A60.7,60.7,0,0,0,87,1068.93a56.65,56.65,0,0,0-1.87,15.49,42.07,42.07,0,0,0,.79,7.67,70.57,70.57,0,0,0,2.17,7.73l0,.1.13.4c.68,2.14,1.39,4.36,1.94,6.58l0,.09a28.49,28.49,0,0,1,.94,7.21,17.62,17.62,0,0,1-.21,2.25.52.52,0,0,0,.16.46,1,1,0,0,0,.33.57,1,1,0,0,0,.63.22h.11a1,1,0,0,0,.64-.35l1.52-1.46c1.13-1.06,2.16-2,3.15-2.73,1.18-.92,2.41-1.8,3.47-2.54l1.81-1.26c1.73-1.19,3.51-2.42,5.16-3.74a28.21,28.21,0,0,0,8.7-11.29,24.73,24.73,0,0,0,1.64-6.78,28.77,28.77,0,0,0-.28-7.48,27.62,27.62,0,0,0-1.89-6.47,40.93,40.93,0,0,0-3-5.58c-.9-1.43-1.87-2.84-2.81-4.21-.75-1.09-1.51-2.2-2.24-3.33l-.15-.2c-.62-.83-1.21-1.7-1.75-2.59a31,31,0,0,1-2.8-5.62,22.62,22.62,0,0,1-.89-3,18.49,18.49,0,0,1-.42-3,16,16,0,0,1,.15-3.17c.07-.36.13-.73.22-1.09a.74.74,0,0,0-.2.16"/><path class="cls-8" d="M135.19,1103.41a.82.82,0,0,0-.81.8.78.78,0,0,0,.18.51,1.22,1.22,0,0,0,.3,1c.28.32.55.66.82,1a21.34,21.34,0,0,1,2.47,4.43c1.65,4.18,2.23,8.72,2.8,13.11.12.93.23,1.84.36,2.76a60.51,60.51,0,0,0,1.54,7.86,53.55,53.55,0,0,0,2.54,7.22,40.86,40.86,0,0,0,7.58,11.56,46.61,46.61,0,0,0,11.21,8.63,66.14,66.14,0,0,0,7.35,3.51,58.22,58.22,0,0,0,9.06,2.77c3.63.82,7.35,1.39,11,1.93.64.07,1.29.13,1.94.18h-.07c2.36.18,4.73.28,7.09.43a70.43,70.43,0,0,1,7.11.71,33.82,33.82,0,0,1,6.81,1.72,23.26,23.26,0,0,1,3.2,1.49c.35.2.7.41,1,.63a37.59,37.59,0,0,0-4-5.83,31.21,31.21,0,0,0-4.49-4.53c-2-1.67-4.09-3.2-6.14-4.68-1.34-1-2.72-2-4-3l0,0-.07-.06-.1-.08.09.07a46.43,46.43,0,0,1-3.72-3.22,34,34,0,0,1-3.46-4c-3.09-4.2-5.27-9-7.39-13.69-.33-.74-.67-1.48-1-2.22a59.75,59.75,0,0,0-3.66-6.86,54.48,54.48,0,0,0-4.41-6.07,49.66,49.66,0,0,0-23.7-15.66,58.23,58.23,0,0,0-17.15-2.45Z"/><path class="cls-8" d="M223.56,1043.53l-.22,0c-1.2.32-2.39.64-3.57,1s-2.4.74-3.64,1.18a74.37,74.37,0,0,0-7,2.85,66.25,66.25,0,0,0-12.61,7.77A66.68,66.68,0,0,0,181.64,1073c-1.27,2-2.46,4.08-3.51,5.91l-.46.81c-3,5.28-6.14,10.74-10.47,15.15l.11-.08a30.75,30.75,0,0,1-5.88,4.63l.12-.06a27.67,27.67,0,0,1-3.37,1.64l-.13,0h0a.44.44,0,0,0-.16,0,1,1,0,0,0-1,.89,1,1,0,0,0,.21.76,1,1,0,0,0,.66.38,49.59,49.59,0,0,0,5.2.27c1.49,0,3-.07,4.55-.2a74.13,74.13,0,0,0,8.11-1.15,68,68,0,0,0,14.46-4.45,48.13,48.13,0,0,0,12.63-8,38.93,38.93,0,0,0,5.13-5.53,27.7,27.7,0,0,0,1.95-2.88,26.61,26.61,0,0,0,1.45-2.87,36.89,36.89,0,0,0,1.67-4.89c.43-1.57.83-3.3,1.27-5.45.19-1,.38-1.93.56-2.89.23-1.2.47-2.42.72-3.65v0c.17-1.12.35-2.23.56-3.34a36.49,36.49,0,0,1,1.55-5.8,20.63,20.63,0,0,1,2.74-5.11,19,19,0,0,1,2-2.26c.48-.44,1-.85,1.5-1.24a.63.63,0,0,0-.19,0l-.13,0"/><path class="cls-8" d="M295.7,1073a87,87,0,0,0-11.45,1.88,81.38,81.38,0,0,0-21.26,8.18c-4.5,2.46-8.87,5.29-13.1,8-3.2,2.07-6.51,4.22-9.85,6.18a99,99,0,0,1-9,4.7,67.55,67.55,0,0,1-9.58,3.47l-.1,0c-.57.14-1.13.29-1.68.41a1.49,1.49,0,0,0-.84-.29h-.16a1.31,1.31,0,0,0-1.14,1.51,1.27,1.27,0,0,0,.5.86,95.38,95.38,0,0,0,9.94,6.24,78.14,78.14,0,0,0,10.56,4.79,66.56,66.56,0,0,0,11.33,3,56.29,56.29,0,0,0,9.68.83h.8a55.25,55.25,0,0,0,16.88-3,84,84,0,0,0,15-7c4.75-2.71,9.39-5.76,13.88-8.71,1.88-1.24,3.8-2.5,5.73-3.74q1.9-1.32,3.86-2.56c1.47-.93,3-1.82,4.46-2.71,1.33-.79,2.67-1.58,4-2.34,2.46-1.41,4.95-2.76,7.52-4a58,58,0,0,1,7.93-3.12,36.28,36.28,0,0,1,8.05-1.56c.69,0,1.37-.08,2.06-.08s1.29,0,1.94.08,1.34.12,2,.23a1.48,1.48,0,0,0-.28-.17c-2-1-4-1.91-5.89-2.73-1.73-.74-3.62-1.48-5.78-2.25-3.57-1.27-7.35-2.41-11.25-3.39a107.47,107.47,0,0,0-23.12-3.23c-1,0-1.92,0-2.88,0-3,0-6,.13-8.83.41"/><path class="cls-5" d="M77.06,1137.19a32.36,32.36,0,0,0-6.52.69c-7.37,1.55-14,5.62-20.16,9.8a.62.62,0,0,0-.33-.07,1.22,1.22,0,0,0-1.18,1.54,1.25,1.25,0,0,0,.56.72c1.79,1.2,3.56,2.44,5.33,3.68l.11.08c2.55,1.78,5.72,4,8.88,5.95a45,45,0,0,0,14.86,6.28l.38,0h.58a10.63,10.63,0,0,0,2.28-.22,5.41,5.41,0,0,0,1.13-.41,3.62,3.62,0,0,0,.56-.37,3.18,3.18,0,0,0,.39-.46,1.89,1.89,0,0,0,.23-.5,3.68,3.68,0,0,0,.12-.69,4.82,4.82,0,0,0-.13-1.09c0-.11-.06-.25-.11-.39a3.09,3.09,0,0,0-.14-.32,4.54,4.54,0,0,0-.49-.67,8.05,8.05,0,0,0-1.54-1.25c-.63-.4-1.23-.72-1.9-1.08l-.52-.27c-.4-.2-.79-.4-1.18-.62-.24-.13-.48-.27-.71-.42a3.83,3.83,0,0,1-.51-.39,1.26,1.26,0,0,1-.31-.4.77.77,0,0,1,0-.39.68.68,0,0,1,.12-.24.83.83,0,0,1,.16-.17,1.85,1.85,0,0,1,.51-.29,6.18,6.18,0,0,1,.94-.3c.41-.1.83-.19,1.25-.26s.63-.11,1-.15l.84-.12a5.83,5.83,0,0,1,.59,0h.19a15.48,15.48,0,0,1,2.05.21c1.2.18,2.39.41,3.6.65l.81.16,1,.19a43.28,43.28,0,0,0,5.73.75h.66a11,11,0,0,0,2.41-.23,5.35,5.35,0,0,0,1.21-.45,3.77,3.77,0,0,0,.7-.49,3.65,3.65,0,0,0,.45-.52,4,4,0,0,0,.38-.82,3.26,3.26,0,0,0,.11-.59,3.19,3.19,0,0,0,0-.54,2.88,2.88,0,0,0-.25-.62,4.42,4.42,0,0,0-.51-.7,7.75,7.75,0,0,0-1.36-1.1,18.07,18.07,0,0,0-2.43-1.28l-1.15-.5-.47-.2-.1,0-.57-.23c-1.16-.48-2.33-.88-3.32-1.2l-.82-.27c-.76-.24-1.45-.46-2.12-.7a17.85,17.85,0,0,1-2.73-1.19,11.57,11.57,0,0,1-2.27-1.65,14.12,14.12,0,0,1-1.07-1.16c-.21-.27-.38-.48-.53-.7a3.07,3.07,0,0,1-.27-.46,2.38,2.38,0,0,1-.22-1c0-.16,0-.32,0-.49l0-.32a2.68,2.68,0,0,0,0-.46,1.66,1.66,0,0,0-.12-.31,2.37,2.37,0,0,0-.28-.4c-.12-.11-.24-.23-.37-.33-.7-.09-1.4-.14-2.07-.17-.39,0-.79,0-1.19,0"/><path class="cls-5" d="M16.42,1130.73a3.41,3.41,0,0,0-.55,0,4.33,4.33,0,0,0-.85.27,4.8,4.8,0,0,0-.62.34c-.12.08-.24.16-.35.25a4,4,0,0,0-.7.77,5.12,5.12,0,0,0-.56,1.1,8.7,8.7,0,0,0-.46,2.08,19.21,19.21,0,0,0,0,3.21c.08.93.21,1.93.42,3.16s.42,2.2.65,3.29l.27,1.32.21,1.2c.1.57.22,1.14.35,1.7l0,.17c.14.66.28,1.32.38,2a11.31,11.31,0,0,1,.17,2,6.63,6.63,0,0,1-.26,1.85,5.22,5.22,0,0,1-.37.9,4.1,4.1,0,0,1-.23.4l-.06.08-.1.14a1.89,1.89,0,0,1-1,.61,4.46,4.46,0,0,1-1.18.12,8.81,8.81,0,0,0-1.18.07,2.17,2.17,0,0,0-.56.17,2.92,2.92,0,0,0-.37.24,2.69,2.69,0,0,0-.33.35c.35.75.74,1.47,1.14,2.15a28.31,28.31,0,0,0,21,14,30.06,30.06,0,0,0,3,.26,1.09,1.09,0,0,0,.77,1.08,1.25,1.25,0,0,0,.42.08,1.26,1.26,0,0,0,.54-.13,1.15,1.15,0,0,0,.65-.71l0-.17,0-.15a1.17,1.17,0,0,0,.5-.24,1,1,0,0,0,.12-1.46,1.09,1.09,0,0,0-.29-.23l0-.09a24.53,24.53,0,0,0,.2-2.45c.07-1.58.12-3.16.16-4.73a86.44,86.44,0,0,0-.25-9.41,51.55,51.55,0,0,0-1.6-9.12l0-.15c-.27-.74-.54-1.39-.83-2a12,12,0,0,0-1.5-2.5,5.32,5.32,0,0,0-.89-.85,4.28,4.28,0,0,0-.57-.29,1.88,1.88,0,0,0-.48-.12h-.17a2.69,2.69,0,0,0-.4,0,3,3,0,0,0-.48.15,2.39,2.39,0,0,0-.41.26,3.28,3.28,0,0,0-.31.34,3.59,3.59,0,0,0-.38.76,9,9,0,0,0-.38,2q0,.32-.06.69l0,.32c0,.32,0,.63-.07,1a7.22,7.22,0,0,1-.28,1.64.26.26,0,0,1-.15.17h-.06a.22.22,0,0,1-.12,0,5.7,5.7,0,0,1-1.78-1.11,8.45,8.45,0,0,1-1.29-1.51,18.75,18.75,0,0,1-1.83-3.91c-.16-.44-.32-.89-.47-1.34l-.27-.75c-.18-.55-.44-1.27-.73-2-.23-.54-.46-1.09-.68-1.63s-.48-1.15-.74-1.71a12.08,12.08,0,0,0-1.5-2.53,5.14,5.14,0,0,0-.92-.86,2.75,2.75,0,0,0-.63-.34,3.09,3.09,0,0,0-.65-.16h-.22"/><path class="cls-5" d="M101.56,1063.22h-.17a3,3,0,0,0-.69.17,6,6,0,0,0-.93.53,8,8,0,0,0-.71.56,6.38,6.38,0,0,0-.51.53,5.53,5.53,0,0,0-.48.68,7,7,0,0,0-.39.71,15.29,15.29,0,0,0-1,3.71c-.06.38-.13.76-.18,1.13-.13.76-.25,1.53-.41,2.28a12.85,12.85,0,0,1-1,3.14,7.78,7.78,0,0,1-.88,1.36,6.21,6.21,0,0,1-1.13,1,3.77,3.77,0,0,1-.79.45,3.83,3.83,0,0,1-.58.15l-.36,0h-.26c-.26,0-.51,0-.77,0h-1a3.15,3.15,0,0,0-.43.07,1.4,1.4,0,0,0-.29.09,1.21,1.21,0,0,0-.23.1l-.25.15a2.87,2.87,0,0,0-.45.37l-.23.26a4.7,4.7,0,0,0-.48.8,6.91,6.91,0,0,0-.48,1.59,19.3,19.3,0,0,0,0,4.92l0,.21c.06.59.12,1.23.21,1.87.13,1.08.32,2.15.46,3l.16.85.14.72c.27,1.41.57,3,.78,4.55q.11.81.18,1.62c.6,1.88,1.27,4,1.8,6.1l0,.09a29.29,29.29,0,0,1,.92,7.2,18.18,18.18,0,0,1-.21,2.24.55.55,0,0,0,.17.49.86.86,0,0,0,.34.57,1,1,0,0,0,.65.24h.11a1.06,1.06,0,0,0,.67-.36l1.51-1.46c1.16-1.08,2.19-2,3.16-2.73,1.21-1,2.43-1.82,3.46-2.54l1.81-1.26.15-.1c1.6-1.11,3.41-2.36,5-3.64a28.15,28.15,0,0,0,8.7-11.31c.12-.3.24-.61.35-.92q.12-1.17.18-2.34c.07-1.23.11-2.39.1-3.53a33.51,33.51,0,0,0-.15-3.39,17.81,17.81,0,0,0-.28-1.93,10.39,10.39,0,0,0-.43-1.55,4.48,4.48,0,0,0-.5-1,2.44,2.44,0,0,0-.39-.44l-.31-.2-.32-.1-.25,0h-.12a2.77,2.77,0,0,0-.54.13,3.86,3.86,0,0,0-.89.5,6.45,6.45,0,0,0-.63.52,5.53,5.53,0,0,0-.54.52,3.42,3.42,0,0,0-.35.58,9.73,9.73,0,0,0-.49,1.47c-.12.47-.23.95-.33,1.43l-.06.22,0,.2c-.12.54-.23,1-.37,1.47a7.24,7.24,0,0,1-.53,1.42,2.92,2.92,0,0,1-.39.63,2.42,2.42,0,0,1-.41.43,1.91,1.91,0,0,1-.49.29,1.77,1.77,0,0,1-.57.12h-.12a2.84,2.84,0,0,1-1.21-.3,2.54,2.54,0,0,1-.86-.73,4.12,4.12,0,0,1-.48-.77,7.34,7.34,0,0,1-.33-.89,12.6,12.6,0,0,1-.44-2.29,36.42,36.42,0,0,1-.09-5.46c0-1.15.13-2.29.21-3.43l.11-1.63c0-.57.08-1.15.08-1.73,0-.2,0-.4,0-.6v-.28c0-.36,0-.72-.08-1.07-.08-.81-.19-1.53-.32-2.2a12.52,12.52,0,0,0-.56-2.06,5.8,5.8,0,0,0-.68-1.3,3,3,0,0,0-.45-.49,2.14,2.14,0,0,0-.42-.26,1.63,1.63,0,0,0-.39-.13l-.32,0"/><path class="cls-5" d="M206,1064.28a2.42,2.42,0,0,0-.47,0,3.33,3.33,0,0,0-.86.28,6.57,6.57,0,0,0-1.36.89,15.18,15.18,0,0,0-1.93,2c-.69.85-1.32,1.73-1.85,2.47l-.7,1-.73,1c-.43.61-.89,1.26-1.39,1.87a9.13,9.13,0,0,1-1.26,1.33,2.77,2.77,0,0,1-.57.39,8.38,8.38,0,0,1-1.05.45,4.81,4.81,0,0,1-1.4.23,2.92,2.92,0,0,1-.51,0,3.73,3.73,0,0,1-1.46-.58,8.76,8.76,0,0,1-1.2-1c-.35-.31-.7-.63-1.07-.91a4.17,4.17,0,0,0-.71-.38,2.1,2.1,0,0,0-.55-.13h-.23l-.46,0a5.18,5.18,0,0,0-.89.3,9.19,9.19,0,0,0-1.83,1.22c-.43.38-.77.69-1.1,1a51.53,51.53,0,0,0-5.37,6.57c-.85,1.16-1.79,2.46-2.78,3.68-.52.66-1.05,1.28-1.56,1.83a46.59,46.59,0,0,1-5.52,6.95l.16,0a33.84,33.84,0,0,1-5.92,4.56l.15,0c-1.23.61-2.37,1.14-3.39,1.57l-.11,0a.51.51,0,0,0-.17,0,1.1,1.1,0,0,0-1,.93,1.14,1.14,0,0,0,.23.8,1.06,1.06,0,0,0,.69.39,50,50,0,0,0,5.2.27c1.44,0,3-.07,4.55-.19a79.22,79.22,0,0,0,8.12-1.16,67.73,67.73,0,0,0,14.46-4.46,48.22,48.22,0,0,0,12.65-8c.84-.75,1.64-1.52,2.38-2.3l0-.11c0-.14,0-.24,0-.35l-.09-.27-.12-.18a1.41,1.41,0,0,0-.25-.24,2.6,2.6,0,0,0-.47-.24,5,5,0,0,0-1.17-.23l-.73,0c-.26,0-.51,0-.76,0l-.5.06c-.4.08-.83.18-1.37.33l-1.6.49-1.61.51-.23.08-1.63.53c-.54.16-1.08.33-1.62.48a13.74,13.74,0,0,1-1.38.32,5.16,5.16,0,0,1-.93.12h-.11a1.05,1.05,0,0,1-.39,0,.73.73,0,0,1-.29-.15.55.55,0,0,1-.17-.36.84.84,0,0,1,.07-.41,3.23,3.23,0,0,1,.31-.53,6.54,6.54,0,0,1,.53-.65,23.4,23.4,0,0,1,2-1.92c.32-.28.64-.54,1-.81l.81-.62.46-.36,1.26-1c1.37-1.07,2.49-2,3.52-2.85,1.59-1.34,2.89-2.52,4.07-3.7a29.74,29.74,0,0,0,3.39-3.88,11.57,11.57,0,0,0,1.41-2.54,5.51,5.51,0,0,0,.3-1.3,4.21,4.21,0,0,0,0-.76,3.53,3.53,0,0,0-.21-.65,3.26,3.26,0,0,0-.37-.57,3.92,3.92,0,0,0-.66-.59,3.6,3.6,0,0,0-.72-.39,2.83,2.83,0,0,0-.66-.15H206"/><path class="cls-5" d="M135.37,1103.36h-.18a.84.84,0,0,0-.66,1.39,1.11,1.11,0,0,0,.3,1c.28.33.55.67.82,1a21.67,21.67,0,0,1,2.47,4.42c1.65,4.2,2.23,8.71,2.78,13.07l.11.87.12.9.14,1a63.14,63.14,0,0,0,1.54,7.87,52.73,52.73,0,0,0,2.55,7.22c.73,1.18,1.44,2.22,2.17,3.18a25,25,0,0,0,2.68,3,10.23,10.23,0,0,0,2.24,1.65,5.41,5.41,0,0,0,1.35.52,4,4,0,0,0,.85.09h.13a4.21,4.21,0,0,0,.85-.15,4.29,4.29,0,0,0,.79-.36,5.64,5.64,0,0,0,1.05-.88l.28-.32c.08-.11.14-.22.21-.33a3.72,3.72,0,0,0,.3-.84,6.32,6.32,0,0,0,.08-1.35,18,18,0,0,0-.67-3.68l-.27-1-.26-.93c-.15-.57-.29-1.13-.41-1.7a8.43,8.43,0,0,1-.19-1.52,3,3,0,0,1,.05-.63,2.39,2.39,0,0,1,.13-.47,1.39,1.39,0,0,1,.28-.43,1.35,1.35,0,0,1,.36-.28,1.73,1.73,0,0,1,.54-.16,2.6,2.6,0,0,1,.4,0h.18a3.35,3.35,0,0,1,1.46.5,8.17,8.17,0,0,1,1.53,1.23,18,18,0,0,1,1.58,1.8c.52.67,1,1.4,1.6,2.23,1.14,1.7,2.18,3.46,3.06,5l.69,1.19c.66,1.13,1.31,2.26,2,3.37a22,22,0,0,0,1.28,1.91,9.19,9.19,0,0,0,.65.75c.35.37.71.73,1.08,1.07a18.66,18.66,0,0,0,4,3,7.73,7.73,0,0,0,1.87.71,3.7,3.7,0,0,0,.83.09h.11a2.45,2.45,0,0,0,.64-.1,2.33,2.33,0,0,0,.5-.23,2.57,2.57,0,0,0,.46-.37,3.68,3.68,0,0,0,.49-.69,6.42,6.42,0,0,0,.47-1.32,11.65,11.65,0,0,0,.25-2.79,9.88,9.88,0,0,0-.15-1.38,12,12,0,0,0-.32-1.28,15,15,0,0,0-1.68-3.59,46.2,46.2,0,0,0-4.47-5.79c-.88-1-1.76-2-2.58-3.1-.46-.59-1.06-1.38-1.59-2.22a17.18,17.18,0,0,1-1.23-2.22,11.54,11.54,0,0,1-.76-2.31,9.79,9.79,0,0,1-.18-2.3.21.21,0,0,1,.08-.15.25.25,0,0,1,.17,0,5.6,5.6,0,0,1,2.37.6,17.1,17.1,0,0,1,2.43,1.46l1.49,1.1.88.66a16.69,16.69,0,0,0,2.09,1.37,5.14,5.14,0,0,0,1,.38,1.78,1.78,0,0,0,.44,0,1.22,1.22,0,0,0,.37-.07.76.76,0,0,0,.24-.11,1.71,1.71,0,0,0,.26-.21,3.65,3.65,0,0,0,.31-.45,4.88,4.88,0,0,0,.4-1.19,8.2,8.2,0,0,0,.15-.87c-.66-1.25-1.32-2.41-2-3.56a54.68,54.68,0,0,0-4.42-6.08,49.67,49.67,0,0,0-23.71-15.67,58.41,58.41,0,0,0-17.17-2.46"/><path class="cls-5" d="M266.56,1081.18h0c-1.19.59-2.39,1.22-3.58,1.87-4.44,2.41-8.74,5.2-12.91,7.89l-.19.13-.16.1-.12.08c-2.77,1.79-6.21,4-9.56,6a97.39,97.39,0,0,1-9,4.7,65.87,65.87,0,0,1-9.57,3.48l-.11,0-.12,0-1.55.39a1.38,1.38,0,0,0-.83-.31h-.17a1.38,1.38,0,0,0-1.18,1.57,1.39,1.39,0,0,0,.53.88,92,92,0,0,0,9.94,6.24,76.93,76.93,0,0,0,10.57,4.79,66.21,66.21,0,0,0,11.34,3,56.29,56.29,0,0,0,9.68.83h.8a53.09,53.09,0,0,0,12.66-1.77,4.58,4.58,0,0,0-.74-.47,23.27,23.27,0,0,0-2.8-1.21c-1-.38-2.09-.75-3.32-1.13-2.16-.66-4.09-1.17-5.93-1.58-.31-.08-.68-.15-1.05-.22l-.12,0-.11,0-.13,0h-.16a.28.28,0,0,1-.23-.09.22.22,0,0,1,0-.23.22.22,0,0,1,.13-.14,8.6,8.6,0,0,1,3.58-1.7,27,27,0,0,1,4.61-.63l2.07-.11c1,0,1.91-.09,2.85-.17a22.43,22.43,0,0,0,4.47-.72,8.45,8.45,0,0,0,1.9-.83,5.44,5.44,0,0,0,1.16-.94,4.49,4.49,0,0,0,.41-.53c.12-.17.22-.35.33-.53a4.79,4.79,0,0,0,.46-1.2,3.17,3.17,0,0,0,.06-.58,3,3,0,0,0-.08-.39,1.5,1.5,0,0,0-.48-.73,3.52,3.52,0,0,0-.74-.51,10.86,10.86,0,0,0-1-.45l-.09,0-.81-.34a4.24,4.24,0,0,1-.78-.44,1.55,1.55,0,0,1-.47-.55,1.26,1.26,0,0,1-.06-.77,2.21,2.21,0,0,1,.19-.47,2.55,2.55,0,0,1,.31-.47,9.28,9.28,0,0,1,1.21-1.26c.23-.2.46-.41.71-.59s.38-.28.58-.41a11.6,11.6,0,0,1,1.87-.91,19.34,19.34,0,0,1,2.18-.67,46.26,46.26,0,0,1,5.07-.88l1.22-.15.65-.08c1.19-.15,2.38-.29,3.56-.47a36.53,36.53,0,0,0,5.16-1.08,14.55,14.55,0,0,0,3.45-1.51,9.42,9.42,0,0,0,1.78-1.44,8.53,8.53,0,0,0,1.15-1.62,9,9,0,0,0,.74-2.06,6.92,6.92,0,0,0,.17-1.73,4.89,4.89,0,0,0-.19-1,3.76,3.76,0,0,0-.36-.79,4.06,4.06,0,0,0-.62-.75,4.83,4.83,0,0,0-1-.7,8.27,8.27,0,0,0-2-.71,16.82,16.82,0,0,0-3.53-.33l-1.09,0a36.3,36.3,0,0,0-4.42.47c-.62.1-1.25.22-1.87.35l-.66.15-.12,0-1.38.38c-.82.25-1.66.54-2.5.83l-.32.11c-1,.34-1.92.66-2.9,1a24.87,24.87,0,0,1-3,.76,14.81,14.81,0,0,1-2.58.26h-.22a10.09,10.09,0,0,1-1.5-.14,7.67,7.67,0,0,1-1.23-.33,5.73,5.73,0,0,1-2.1-1.3,8.92,8.92,0,0,1-.9-1c-.22-.28-.43-.57-.63-.86l-.09-.12a12.35,12.35,0,0,0-1.51-1.86,5,5,0,0,0-.51-.42c-.16-.11-.33-.21-.5-.31a4.17,4.17,0,0,0-.81-.34,5.87,5.87,0,0,0-.6-.16l-.21,0h0"/><polygon class="cls-6" points="279.12 1106.49 279.12 1106.49 279.12 1106.49 279.12 1106.49"/><path class="cls-6" d="M336.88,1081.37a103.54,103.54,0,0,0-10.71.56c-3.7.39-7.37,1-11,1.73-1,.21-2.09.45-3.13.69l.64-.57,2-1.87a24.75,24.75,0,0,1,4.19-3.16c.42-.24.85-.47,1.28-.68s.95-.42,1.43-.61a.25.25,0,0,0,.13-.33.25.25,0,0,0-.23-.15l-.09,0a20.73,20.73,0,0,0-3.2,1.5,26,26,0,0,0-2.88,1.89c-.91.67-1.78,1.36-2.64,2.09s-1.67,1.47-2.45,2.26l-1.05.26h-.47a.45.45,0,0,0-.37.21c-4.58,1.14-9.11,2.45-13.62,3.84-6,1.85-11.9,3.87-17.86,5.81.8-.66,1.57-1.34,2.32-2,1.64-1.53,3.18-3.15,4.76-4.73s3.18-3.11,4.88-4.55a41,41,0,0,1,5.56-4h0l0,0h0c.85-.49,1.72-1,2.61-1.37a.32.32,0,0,0,.17-.42.33.33,0,0,0-.3-.2.2.2,0,0,0-.11,0,43.87,43.87,0,0,0-6.58,3.88,70.84,70.84,0,0,0-5.8,4.7c-1.85,1.64-3.68,3.31-5.54,5s-3.8,3.36-5.78,4.95c-6.71,2.12-13.47,4.05-20.35,5.52q-4.2.87-8.45,1.49l.16-.23a20.49,20.49,0,0,1,1.73-2,48,48,0,0,1,10.08-7.28,63.29,63.29,0,0,0,10.36-7,.25.25,0,0,0,0-.35.25.25,0,0,0-.2-.1.27.27,0,0,0-.15,0,37.2,37.2,0,0,1-6.2,4.36h0c-3.41,2-7,3.75-10.26,5.9a24.29,24.29,0,0,0-7.32,6.88c-2.87.37-5.75.64-8.64.78-1.59.08-3.18.1-4.78.1-1.75,0-3.5-.12-5.25-.2-3.66-.15-7.32-.34-11-.55h0c-14.69-.92-29.4-2.36-44.12-2.91,1-.49,2.08-1,3.1-1.59a52,52,0,0,0,10.81-8.21l0,0a19.21,19.21,0,0,0,3-.65,22.19,22.19,0,0,0,3.11-1.25,36.25,36.25,0,0,0,5.37-3.26c1.73-1.23,3.39-2.57,5.07-3.87a60.65,60.65,0,0,1,5.39-3.78.25.25,0,0,0,.08-.35.24.24,0,0,0-.21-.11.32.32,0,0,0-.14,0c-1.28.77-2.52,1.59-3.75,2.44s-2.37,1.68-3.55,2.52a51.9,51.9,0,0,1-7.1,4.41,25.78,25.78,0,0,1-5.2,1.79,103.89,103.89,0,0,0,6.7-8c2.7-3.51,5.16-7.2,7.74-10.8h.1a19.79,19.79,0,0,0,3-1.48c1-.59,1.87-1.26,2.77-1.94s1.78-1.4,2.64-2.13,1.8-1.49,2.73-2.2a.26.26,0,0,0,.07-.35.25.25,0,0,0-.22-.11.19.19,0,0,0-.12,0c-.89.67-1.77,1.33-2.68,2s-1.85,1.28-2.8,1.89a44.6,44.6,0,0,1-4,2.25c4.21-5.83,8.54-11.59,13.78-16.55a.39.39,0,0,0-.06-.55.34.34,0,0,0-.23-.08.44.44,0,0,0-.31.14,118.4,118.4,0,0,0-9.4,10.12c-1.47,1.75-2.9,3.54-4.32,5.33q.12-.43.21-.9c.34-1.59.6-3.2,1-4.78a18.44,18.44,0,0,1,.64-1.9,15.1,15.1,0,0,1,.93-1.84,13.7,13.7,0,0,1,1.38-1.83.26.26,0,0,0,0-.36.27.27,0,0,0-.15-.05.27.27,0,0,0-.2.09,16.27,16.27,0,0,0-1.16,1.47,13.19,13.19,0,0,0-.88,1.44,19,19,0,0,0-1.36,3.3c-.35,1.07-.63,2.16-.9,3.25s-.58,2.3-.9,3.44c-.07.25-.16.5-.24.75l-2.64,3.35q-3.22,4-6.6,8c-1.52,1.74-3.1,3.41-4.71,5a31,31,0,0,0,1.09-3.25c.43-1.52.74-3.07,1.06-4.61s.7-3.09,1.13-4.62a34.86,34.86,0,0,1,1.23-3.61.33.33,0,0,0-.17-.44.3.3,0,0,0-.13,0,.34.34,0,0,0-.31.19c-.69,1.71-1.31,3.45-1.85,5.2s-1,3.36-1.59,5-1.13,3.3-1.79,4.92a36.28,36.28,0,0,1-2.35,4.71h0v0h0l0,0h0l0,0c-1.33,1.18-2.68,2.32-4.11,3.38a50.81,50.81,0,0,1-6.22,3.92,51.73,51.73,0,0,1-6.23,2.76,69.08,69.08,0,0,1-6.65,2q-6,0-12.07.29a154.72,154.72,0,0,0-33.73,5.48,126.09,126.09,0,0,0-16.36,5.9c.31-.61.61-1.23.89-1.86l1-.82,1.68-1.28c1.13-.86,2.26-1.7,3.36-2.59a38.27,38.27,0,0,0,3-2.7c.47-.48.91-1,1.33-1.51s.78-1,1.14-1.51a20.34,20.34,0,0,0,1.7-3,31.65,31.65,0,0,0,1.28-3.27c.8-2.35,1.42-4.76,2.19-7.12a.31.31,0,0,0-.22-.38h-.08a.31.31,0,0,0-.3.22c-.45,1.41-.88,2.82-1.34,4.23s-.9,2.71-1.47,4a.05.05,0,0,0,0,0,27,27,0,0,1-1.31,2.64,22.23,22.23,0,0,1-1.78,2.61c-.32.38-.64.76-1,1.12s-.81.79-1.23,1.16c-.86.76-1.76,1.47-2.68,2.15l.08-.06c-1.18.87-2.39,1.71-3.57,2.58l-.64.48c.35-1,.69-2,1-3,.41-1.38.77-2.78,1.08-4.19a58.21,58.21,0,0,0,1-7.19,21,21,0,0,0,1.58-2.39,25.31,25.31,0,0,0,1.35-2.77,36.52,36.52,0,0,0,1.73-5.62c.47-1.93.82-3.88,1.24-5.82a45,45,0,0,1,1.71-6,.3.3,0,0,0-.2-.36h-.08a.31.31,0,0,0-.28.21,70.35,70.35,0,0,0-2.3,8.21,51.54,51.54,0,0,1-2.38,8c-.37.83-.77,1.63-1.21,2.42-.3.52-.64,1-1,1.51a49.75,49.75,0,0,0-.31-7.52c-.36-3.14-.9-6.27-1.38-9.41a.3.3,0,0,0,.06-.24,5.84,5.84,0,0,0-.22-.82l-.15-1.14a13.29,13.29,0,0,0,1-2.72c.28-1.06.47-2.14.65-3.22s.36-2.18.6-3.26a18.19,18.19,0,0,1,1-3.29l.12-.28a.36.36,0,0,0,0-.25.37.37,0,0,0-.15-.2.33.33,0,0,0-.17,0,.3.3,0,0,0-.28.15,20.46,20.46,0,0,0-1.11,3c-.32,1.11-.55,2.26-.8,3.38s-.5,2.25-.81,3.36c-.12.41-.26.81-.39,1.21a50.27,50.27,0,0,1-.36-7.37h0a31.21,31.21,0,0,1,1.18-7.43,24.87,24.87,0,0,1,.84-2.38.32.32,0,0,0-.31-.44.27.27,0,0,0-.25.18,29.61,29.61,0,0,0-2,8.64,50.15,50.15,0,0,0,.11,8.75c0,.4.08.8.12,1.2-.21-.26-.42-.52-.64-.76-1-1.09-2.07-2.08-3.05-3.17h0c-.31-.35-.6-.71-.88-1.08a10,10,0,0,1-.73-1.21h0v0l0,0v0a8.64,8.64,0,0,1-.43-1.1.25.25,0,0,0-.24-.17h-.08a.25.25,0,0,0-.15.32,9.67,9.67,0,0,0,1.19,2.49,19.45,19.45,0,0,0,1.73,2.22c.6.7,1.23,1.4,1.8,2.13a14.92,14.92,0,0,1,1.48,2.29l0,0a.05.05,0,0,1,0,0l0,.09,0-.09a6.74,6.74,0,0,1,.3.74c.2,1.67.41,3.34.59,5a76.33,76.33,0,0,1,.53,8.94c0,.36,0,.72,0,1.08v.14c0,.85-.12,1.69-.21,2.53A19.61,19.61,0,0,0,98,1088.4a34.68,34.68,0,0,0-2.61-3.07l.09.1c-.51-.58-1-1.14-1.56-1.71s-1.08-1.28-1.58-2a16.65,16.65,0,0,1-1.41-2.28,14.17,14.17,0,0,1-1.09-3.11.27.27,0,0,0-.27-.18h-.09a.29.29,0,0,0-.17.35,15.77,15.77,0,0,0,.63,2.13,16.64,16.64,0,0,0,.91,2c.35.64.72,1.26,1.12,1.86s.83,1.16,1.26,1.73.84,1.14,1.28,1.69.87,1.13,1.28,1.7a31.23,31.23,0,0,1,2.17,3.53c.23.46.44.94.63,1.42a.74.74,0,0,0,.17.25c-.06.36-.12.71-.19,1.06a63,63,0,0,1-1.51,6.24c0,.15-.1.31-.14.46l.09-.31a54.9,54.9,0,0,1-1.92,5.3l-.09-.33a20.35,20.35,0,0,0-1.17-2.56c-.42-.81-.93-1.58-1.42-2.35A25.77,25.77,0,0,1,91,1098a13.77,13.77,0,0,1-.92-2.33.31.31,0,0,0-.3-.21h-.1a.32.32,0,0,0-.19.4c.13.48.29,1,.46,1.44s.41,1,.63,1.49c.44,1,.9,1.91,1.37,2.86l0,0c.41.83.83,1.67,1.2,2.53A14.18,14.18,0,0,1,94,1107c0,.23.08.46.11.69a51.05,51.05,0,0,1-2.53,4.8c-.32.53-.68,1-1,1.56l-.22.35c-1.63.8-3.24,1.61-4.83,2.46a126,126,0,0,0-36.75,29.7c-1.22,1.44-2.39,2.92-3.53,4.41-1.27,1.65-2.46,3.35-3.65,5-2.22,3.18-4.58,6.27-7,9.27-1.66,2-3.4,4-5.17,5.91a35.79,35.79,0,0,0-.13-3.59c-.11-1.21-.29-2.41-.5-3.61.15-.23.3-.46.44-.7a13.53,13.53,0,0,0,.9-2,19.48,19.48,0,0,0,1-4.18c.1-.68.16-1.36.21-2s.05-1.5.06-2.26c0-1.54,0-3.08.09-4.61a.25.25,0,0,0-.26-.24h0a.25.25,0,0,0-.24.27c-.07,1.49-.14,3-.25,4.46-.09,1.07-.21,2.13-.38,3.19a17.57,17.57,0,0,1-.81,3.27,14,14,0,0,1-.79,1.77c-.13.26-.28.51-.43.76-.26-1.16-.54-2.31-.85-3.44-.69-2.46-1.55-4.88-2.47-7.26a12.81,12.81,0,0,0,.94-4.76,29.69,29.69,0,0,0-.76-6h0a28.22,28.22,0,0,1-.64-5.71.26.26,0,0,0-.26-.24h0a.25.25,0,0,0-.23.26,28.27,28.27,0,0,0,.07,2.91c.07,1,.18,2,.29,3s.21,2,.27,2.94a21.44,21.44,0,0,1,0,2.89,13.91,13.91,0,0,1-.49,2.65c-1.15-2.83-2.46-5.59-3.81-8.33-.6-1.21-1.23-2.4-1.84-3.59a16.3,16.3,0,0,0,.17-2.2,15.79,15.79,0,0,0-.25-2.48c-.14-.79-.32-1.56-.5-2.34s-.41-1.72-.57-2.59a20.58,20.58,0,0,1-.3-2.21.25.25,0,0,0-.25-.23h0a.25.25,0,0,0-.24.26A25.26,25.26,0,0,0,17,1128c.17.88.36,1.75.53,2.63v0a21.8,21.8,0,0,1,.34,2.27,13,13,0,0,1,0,2.25v0c0,.15,0,.29-.06.43-.23-.45-.45-.91-.69-1.35l0,0c-1.33-2.51-2.68-5-4.08-7.5-1.29-2.3-2.61-4.58-3.95-6.86a.27.27,0,0,0-.24-.13.31.31,0,0,0-.26.49q1.73,3,3.33,6a.41.41,0,0,0-.05-.09c1.14,2.14,2.23,4.31,3.25,6.5.57,1.25,1.12,2.5,1.65,3.76l-.24-.19a18.39,18.39,0,0,1-1.5-1.43c-.58-.65-1.13-1.33-1.67-2s-1.12-1.46-1.67-2.2a26.18,26.18,0,0,0-3.62-4.1.24.24,0,0,0-.35,0,.25.25,0,0,0,0,.35,12,12,0,0,1,.89.86,49.61,49.61,0,0,1,4.1,5.68A22.75,22.75,0,0,0,15,1136.2a9.45,9.45,0,0,0,2.49,1.91c.23.56.47,1.12.69,1.69.95,2.44,1.78,4.93,2.55,7.43.52,1.67,1,3.36,1.41,5-.35-.17-.7-.35-1-.55l.09.06-.11-.07h0a21.37,21.37,0,0,1-3.94-3.41c-1.05-1.13-2-2.31-3.07-3.46a26.2,26.2,0,0,0-3.38-3.28.23.23,0,0,0-.16-.06.25.25,0,0,0-.19.09.26.26,0,0,0,0,.35,17.28,17.28,0,0,1,1.83,1.69h0c1.77,1.92,3.18,4.14,4.87,6.12.43.51.88,1,1.36,1.47a14,14,0,0,0,1.51,1.26,10.85,10.85,0,0,0,1.74,1,8.6,8.6,0,0,0,.84.33c.06.26.14.52.2.78.66,3,1.17,6,1.56,9-.34-.19-.68-.38-1-.58-.85-.55-1.66-1.15-2.46-1.76s-1.73-1.4-2.59-2.09-1.64-1.35-2.48-2a24.74,24.74,0,0,0-2.66-1.79.19.19,0,0,0-.1,0,.27.27,0,0,0-.24.15.26.26,0,0,0,.13.33l.35.22,0,0,0,0h0a24.85,24.85,0,0,1,3.15,2.45c1,.91,2,1.9,3,2.82.48.45,1,.9,1.45,1.32a20.13,20.13,0,0,0,1.66,1.26,16.78,16.78,0,0,0,1.78,1.07l.2.1.06.46c.2,1.84.36,3.69.45,5.54.09,1.54.1,3.09.15,4.64-1.79,1.79-3.61,3.55-5.48,5.24a149.86,149.86,0,0,1-30.95,21.14c-3.52,1.79-7.09,3.46-10.67,5.12a2,2,0,0,0-1,.93,2,2,0,0,0-.09,1.46,1.9,1.9,0,0,0,2.4,1.14,139.44,139.44,0,0,0,13-5.6q6.09-3,11.88-6.49a129.33,129.33,0,0,0,20.7-15.92,158.57,158.57,0,0,0,17.68-20c1.37-1.79,2.69-3.61,4-5.43,1.44-2,3-3.9,4.52-5.79.66-.79,1.33-1.56,2-2.34,1.48-.33,3-.59,4.47-.8.48.55,1,1.08,1.51,1.58a21,21,0,0,0,2,1.66,22.3,22.3,0,0,0,2.07,1.42c.7.44,1.41.86,2.14,1.25,1.46.79,3,1.49,4.48,2.21s3.23,1.58,4.78,2.49a.36.36,0,0,0,.4-.1.34.34,0,0,0-.06-.47c-1.35-.79-2.73-1.54-4.11-2.28s-2.69-1.44-4-2.21l.11.06c-1.2-.69-2.39-1.42-3.52-2.23-.6-.43-1.18-.88-1.75-1.36s-1.07-.95-1.58-1.47c-.25-.24-.46-.51-.7-.76l.9-.1a60.71,60.71,0,0,1,7.63-.17c1.28.06,2.56.15,3.83.27a34.61,34.61,0,0,0,4.27,3.85,45.17,45.17,0,0,0,5,3.32,58.77,58.77,0,0,0,5.4,2.66c2,.88,4,1.7,6,2.56a.37.37,0,0,0,.49-.2.38.38,0,0,0-.2-.48,86.89,86.89,0,0,1-9.44-4.64c-.92-.54-1.82-1.09-2.71-1.67s-1.85-1.28-2.73-2c-1.26-1-2.44-2.06-3.59-3.16,3.16.37,6.32.85,9.45,1.41s6.45,1.19,9.67,1.77a3,3,0,0,0,.27.23,8.27,8.27,0,0,0,.83.59,14.54,14.54,0,0,0,1.73.95,26.19,26.19,0,0,0,3.85,1.44c1.32.4,2.65.78,4,1.19.64.19,1.28.4,1.91.63a21.07,21.07,0,0,1,2,.83.3.3,0,1,0,.24-.56c-1-.48-2.06-.9-3.11-1.3s-2.19-.77-3.29-1.14a39.81,39.81,0,0,1-5.55-2.35c1.2.21,2.4.41,3.61.59a81,81,0,0,0,16.23,1.08.53.53,0,0,0,.47-.57.54.54,0,0,0-.57-.47c-1.4.07-2.79.06-4.19,0a99.17,99.17,0,0,1-15.52-2.21l-1.42-.31c.33-.07.65-.16,1-.25.67-.2,1.32-.44,2-.67s1.36-.48,2-.68a10.61,10.61,0,0,1,2.68-.41l.61,0a.25.25,0,0,0,.28-.21.24.24,0,0,0-.21-.28c-.29,0-.57,0-.86,0a13.87,13.87,0,0,0-1.81.12c-1,.14-1.88.37-2.81.6s-1.87.49-2.81.7a14.16,14.16,0,0,1-2.89.34H91.7a.75.75,0,0,0-.26,0c-3.79-.84-7.58-1.71-11.39-2.49-1.6-.33-3.21-.63-4.82-.9l.7-.32a22.54,22.54,0,0,1,2.44-.82c1.52-.41,3.06-.71,4.59-1.07a21.29,21.29,0,0,0,4.55-1.5.33.33,0,0,0,.17-.43.36.36,0,0,0-.31-.2l-.12,0a14,14,0,0,1-2.26.85,28.11,28.11,0,0,1-3,.58c-1.09.16-2.19.29-3.29.46a18.07,18.07,0,0,0-3.15.76,9.05,9.05,0,0,0-1.41.66c-.21.13-.41.25-.62.4s-.21.18-.32.27a76.5,76.5,0,0,0-8.69-.83c-.61,0-1.21,0-1.82,0s-1,0-1.52,0a31.23,31.23,0,0,1,4.92-2.07c.85-.31,1.71-.62,2.56-1a17.37,17.37,0,0,0,2.53-1.23.3.3,0,0,0,.17-.16.36.36,0,0,0,0-.25.34.34,0,0,0-.3-.19.14.14,0,0,0-.11,0,20,20,0,0,1-4.5,1.74,41,41,0,0,0-4.17,1.29,10.9,10.9,0,0,0-1.85.9,7,7,0,0,0-.85.57,5.49,5.49,0,0,0-.52.44c-.63.06-1.26.1-1.88.19-.22,0-.43.07-.65.1,1.36-1.43,2.75-2.84,4.17-4.21q1.55-1.49,3.13-2.92a132,132,0,0,1,26.74-18.37,134.88,134.88,0,0,1,14.28-6.22,126.73,126.73,0,0,1,17.39-5c4.53-.92,9.1-1.61,13.7-2.12h.18a26.17,26.17,0,0,1,3.9.88,30.4,30.4,0,0,1,3.27,1.29l.24.25a13.19,13.19,0,0,1,1.79,2.64,24.52,24.52,0,0,1,1.82,5.75,54,54,0,0,1,.69,5.41c.11,1.13.23,2.26.32,3.38s.2,2.34.32,3.5a53,53,0,0,0,1.12,6.63A31.88,31.88,0,0,0,152,1143a.38.38,0,1,0,.71-.25,26.13,26.13,0,0,1-1.39-3.53c-.35-1.13-.64-2.28-.88-3.44a57.61,57.61,0,0,1-.91-8.28c-.08-1.42-.13-2.85-.16-4.27,0-1.2-.08-2.4-.17-3.6a28.6,28.6,0,0,0-1.25-6.86,16.19,16.19,0,0,0-.84-2c.21.14.44.26.65.4a43.08,43.08,0,0,1,8.05,6.9,64.94,64.94,0,0,1,4.58,5.73c1,1.36,1.86,2.76,2.75,4.17a.77.77,0,0,0,0,.45c.18.61.33,1.21.45,1.82a25.77,25.77,0,0,1,.41,3.38c.08,1.26.09,2.52.12,3.78s.08,2.56.22,3.84a24.72,24.72,0,0,0,.69,3.61,25.35,25.35,0,0,0,1.07,3c.42,1,.91,2,1.41,2.94,1,1.94,2.11,3.84,3.1,5.79,0,0,0,0,0,0,.49,1,1,2,1.39,3a.31.31,0,0,0,.38.19.32.32,0,0,0,.19-.39c-.91-2.23-2-4.37-3.12-6.52a.41.41,0,0,0,.05.09c-.68-1.35-1.32-2.71-1.88-4.11-.29-.74-.55-1.48-.78-2.23s-.41-1.49-.57-2.25c-.12-.6-.23-1.19-.3-1.79s-.12-1.47-.15-2.2c0-1.4,0-2.8.06-4.2a33.11,33.11,0,0,0-.1-3.86c.87,1.46,1.73,2.91,2.58,4.37.65,1.11,1.29,2.22,2,3.32s1.41,2.2,2.17,3.26a54.21,54.21,0,0,0,9.75,10.4,5.75,5.75,0,0,0,.45,1.62,11.5,11.5,0,0,0,1,1.84,15.13,15.13,0,0,0,1.17,1.5c.47.53,1,1,1.48,1.55s1,.9,1.46,1.33,1.1.9,1.64,1.37,1.08.91,1.6,1.39,1,1,1.46,1.47a18.11,18.11,0,0,1,2,2.67.25.25,0,0,0,.34.07.26.26,0,0,0,.07-.35,22.33,22.33,0,0,0-2.44-3.28l-1.4-1.56c-.47-.53-1-1-1.45-1.57h0l-1.5-1.67c-.52-.59-1-1.18-1.54-1.8a21.08,21.08,0,0,1-1.72-2.48,81.07,81.07,0,0,0,10.36,6.5,141.54,141.54,0,0,0,13.2,6,.35.35,0,0,0,.47-.17.37.37,0,0,0-.17-.48,108,108,0,0,1-17.68-8.91,69.32,69.32,0,0,1-6.56-4.76l-.78-.66H184a30.61,30.61,0,0,1,4.25.8l2.14.52c.75.17,1.53.3,2.3.4a.25.25,0,0,0,.11-.49c-.42,0-.82-.13-1.23-.22s-.82-.21-1.23-.33c-.88-.26-1.75-.56-2.63-.85a26.19,26.19,0,0,0-2.62-.76q-.62-.14-1.23-.21a6.9,6.9,0,0,0-1-.07h-.42c-1.29-1.18-2.54-2.41-3.73-3.7l0,.06-.06-.07-.06-.07,0,0a52.74,52.74,0,0,1-4.59-5.85c-1.45-2.16-2.68-4.45-3.92-6.74s-2.32-4.33-3.51-6.47l.25.07c.73.21,1.45.45,2.16.71.91.34,1.8.71,2.69,1.09l2.95,1.24a38.61,38.61,0,0,0,6,2.11.24.24,0,0,0,.3-.18.25.25,0,0,0-.19-.3c-.75-.19-1.49-.42-2.23-.68h0a35.19,35.19,0,0,1-3.39-1.49c-1.11-.54-2.18-1.15-3.27-1.72a33.23,33.23,0,0,0-3.31-1.55,17.2,17.2,0,0,0-2.88-.91c-1-1.73-2-3.44-3.11-5.11a51.46,51.46,0,0,0-9.81-11.5l-.46-.37.81.28,0,0,0,0c.72.28,1.43.58,2.15.88l2.27,1c.74.31,1.49.58,2.25.84a15.53,15.53,0,0,0,2.32.61.37.37,0,0,0,.43-.27.35.35,0,0,0-.27-.42,13.1,13.1,0,0,1-2-.56,25.3,25.3,0,0,1-2.8-1.3l-1.48-.81c-.5-.26-1-.52-1.5-.76a17.69,17.69,0,0,0-3.13-1.19,10.1,10.1,0,0,0-1.63-.28h-.12a38.7,38.7,0,0,0-3.44-2.07c-.52-.28-1.06-.54-1.6-.79,1.84-.1,3.67-.19,5.51-.24,9.37-.28,18.76.12,28.12.68,11.26.69,22.5,1.58,33.79,1.92,5.62.16,11.27.19,16.89-.09a114.33,114.33,0,0,0,12.25-1.31,1.1,1.1,0,0,0,.51.17l1.23.09a18,18,0,0,1,3.53.93c1.25.45,2.47,1,3.7,1.49.62.26,1.23.51,1.85.75s1.27.46,1.91.68c1.41.46,2.85.85,4.3,1.17s2.77.54,4.16.75,2.85.38,4.28.51c3,.28,5.91.37,8.86.4a.24.24,0,0,0,.25-.25.26.26,0,0,0-.25-.25,84.77,84.77,0,0,1-9.69-.65,48.2,48.2,0,0,1-5.72-1.13c-1-.26-1.89-.55-2.82-.86s-1.91-.69-2.84-1.07l.05,0c-2.06-.88-4-2.06-6-3-.64-.28-1.3-.54-2-.77,3.74-.79,7.44-1.78,11.11-2.85,4.67-1.35,9.27-2.93,13.86-4.55l.35-.13c1.11-.12,2.21-.21,3.33-.26s2.48,0,3.73,0,2.51.12,3.77.21,2.53.21,3.8.34c2.53.26,5.07.54,7.61.79a64.7,64.7,0,0,0,7.5.33.25.25,0,1,0,0-.5,50.91,50.91,0,0,1-7.6-.52h0c-.9-.12-1.8-.27-2.7-.42l-2.87-.49q-2.87-.54-5.74-1a45,45,0,0,0-5.44-.46c7.26-2.62,14.5-5.29,21.84-7.66q4.88-1.56,9.82-2.85c.68,0,1.35.07,2,.15a65.3,65.3,0,0,1,6.92,1.56,34.42,34.42,0,0,0,3.47.71,16.43,16.43,0,0,0,3.43.14.26.26,0,0,0,.25-.25.24.24,0,0,0-.25-.25q-.67,0-1.35,0a13.94,13.94,0,0,1-1.45-.12h0a24.57,24.57,0,0,1-3.28-.71c-1.09-.31-2.17-.67-3.25-1a28.21,28.21,0,0,0-3.86-.94c1.27-.3,2.54-.59,3.82-.86,3.43-.71,6.88-1.29,10.37-1.71a96.87,96.87,0,0,1,11.29-.65C337.32,1082,337.27,1081.37,336.88,1081.37Z"/><path class="cls-6" d="M99.31,1087.59v0Z"/><path class="cls-6" d="M178.65,1148.49l-.05,0,0,0Z"/><polygon class="cls-6" points="97.91 1071.81 97.91 1071.82 97.91 1071.82 97.91 1071.81"/><path class="cls-6" d="M92.63,1063.65l0,0h0Z"/><path class="cls-6" d="M21.06,1151.73l0,0h0Z"/><path class="cls-6" d="M13.17,1156h0Z"/><path class="cls-6" d="M17.84,1135.11v0Z"/><path class="cls-5" d="M194.13,25.75c.61.69,1.19,1.38,1.73,2.06a52.47,52.47,0,0,1,6.26,10,53.53,53.53,0,0,1,2.08,5.1,33.79,33.79,0,0,1,1.22,4.39,29.36,29.36,0,0,1,.56,4.52,20.61,20.61,0,0,1-.12,3.69,20,20,0,0,1-.84,3.79,17.21,17.21,0,0,1-1.54,3.33,16.08,16.08,0,0,1-2.19,2.83,13.55,13.55,0,0,1-2.41,2,19,19,0,0,1-3.25,1.85,23.7,23.7,0,0,1-3.76,1.26,24.79,24.79,0,0,1-3.79.59,35.58,35.58,0,0,1-4.58.12,45.81,45.81,0,0,1-9.75-1.58A84.06,84.06,0,0,1,165.24,67c-2.53-1-5.19-2.11-8.12-3.47s-5.53-2.69-8.29-4.13-5.45-2.88-8-4.31-5-2.8-7.35-4.18l-.66-.38-.33-.19c-8-4.6-16.23-9.36-24.64-13.49l-.36-.18a112.4,112.4,0,0,0-27.87-9.86h0a73.31,73.31,0,0,0-15.73-1.31.24.24,0,0,1,.15.09.48.48,0,0,1,.12.35.51.51,0,0,1-.2.36.4.4,0,0,1-.31.1q-1-.17-1.92-.3L60,25.85l-.47-.05-.12,0-.26,0-.55.06-.56.06a.3.3,0,0,1-.24-.08.31.31,0,0,1-.07-.21c-.81-.07-1.62-.16-2.43-.26a.8.8,0,0,1-.52-.25.79.79,0,0,1-.19-.55,1.16,1.16,0,0,1,0-.18,1.74,1.74,0,0,1-.39-1.18A1.64,1.64,0,0,1,54.85,22c3.36-2.43,6-4.23,8.54-5.85,2.71-1.73,5.53-3.37,8.39-4.88A102,102,0,0,1,89.16,4a93.58,93.58,0,0,1,18-3.68c3.33-.34,6.6-.54,9.72-.59s6.22.05,9.65.29a154.3,154.3,0,0,1,20.75,3,137.79,137.79,0,0,1,21.52,6A81.39,81.39,0,0,1,179,13.81a59.21,59.21,0,0,1,8.92,6,54.87,54.87,0,0,1,6.21,5.93"/><path class="cls-9" d="M194.17,25.72c.53.61,1.12,1.3,1.73,2.06a52.33,52.33,0,0,1,6.25,10,48.49,48.49,0,0,1,2.08,5.1,33.73,33.73,0,0,1,1.23,4.4,29.91,29.91,0,0,1,.57,4.52,21.81,21.81,0,0,1-.13,3.7,19.33,19.33,0,0,1-.85,3.79,16.91,16.91,0,0,1-1.54,3.34,16.29,16.29,0,0,1-2.19,2.85,13.56,13.56,0,0,1-1.57,1.43c.21-.47.39-.86.53-1.24a7.56,7.56,0,0,0,.48-2.79,8.32,8.32,0,0,0-.16-1.44,7.61,7.61,0,0,0-.39-1.32,10.11,10.11,0,0,0-1.61-2.73c-.12-.16-.26-.32-.4-.48a14.79,14.79,0,0,0-2.26-2.06c-.64-.47-1.26-.89-1.86-1.25l-.67-.37c-.4-.21-.81-.39-1.22-.57-1.13-.5-2.28-1-3.42-1.44l-.33-.14c-1.63-.66-3.25-1.32-4.86-2-2-.85-3.69-1.57-5.21-2.26-1.82-.82-3.33-1.57-4.77-2.34-.88-.47-1.67-.94-2.34-1.38a12.92,12.92,0,0,1-1.76-1.34l-.32-.33a4.63,4.63,0,0,1-.32-.42,2.29,2.29,0,0,1-.22-.45,2,2,0,0,1,0-.24,1.34,1.34,0,0,1,0-.21,1.67,1.67,0,0,1,.08-.2c0-.07.09-.14.14-.21a2.53,2.53,0,0,1,.39-.31,5.07,5.07,0,0,1,1-.45,11,11,0,0,1,1.5-.35l1-.14c.31,0,.63-.08,1-.1a19.6,19.6,0,0,1,2.87.23l.32,0,.16,0,1,.13c.44,0,.89.08,1.33.08a7.4,7.4,0,0,0,1.31-.09,4.73,4.73,0,0,0,1.17-.38,3.84,3.84,0,0,0,.93-.7,3.76,3.76,0,0,0,.68-1,6.57,6.57,0,0,0,.49-1.63,5.84,5.84,0,0,0,.08-.83,5.46,5.46,0,0,0,0-.57,5.54,5.54,0,0,0-.35-1.29,7.73,7.73,0,0,0-.61-1.12,9.23,9.23,0,0,0-.88-1.14,14.32,14.32,0,0,0-1.24-1.22,26,26,0,0,0-2.66-2c-.94-.62-1.95-1.24-3.19-1.94l-.69-.39-.69-.4c-.58-.33-1.17-.65-1.76-.95a38.46,38.46,0,0,0-4.33-1.87c-1.48-.52-3-1-4.46-1.36-3.09-.8-6.27-1.38-9-1.86l-1-.18-.13,0c-2.6-.46-5.28-.93-7.89-1.53a54.34,54.34,0,0,1-6-1.74c-1.07-.39-2-.78-2.91-1.19s-1.56-.74-2.35-1.17a18.4,18.4,0,0,1-1.59-.94,7.36,7.36,0,0,1-1-.74l-.15-.16a1.15,1.15,0,0,1-.14-.17.91.91,0,0,1-.08-.18V10l0-.13a.85.85,0,0,1,.19-.16,2.28,2.28,0,0,1,.5-.21A10,10,0,0,1,133,9.15l.65-.11,1-.16a12.41,12.41,0,0,0,1.4-.32,3.72,3.72,0,0,0,1.1-.47,1.29,1.29,0,0,0,.56-.71,1.33,1.33,0,0,0-.2-1,4.31,4.31,0,0,0-.46-.62,6.72,6.72,0,0,0-.71-.68c-.35-.3-.71-.59-1.08-.86-.58-.4-1-.69-1.44-.93A27.59,27.59,0,0,0,126.52.38c-.7-.18-1.41-.35-2.12-.49.69,0,1.38,0,2.09.09a154.21,154.21,0,0,1,20.76,3,136.92,136.92,0,0,1,21.52,6A82.34,82.34,0,0,1,179,13.77a60.23,60.23,0,0,1,8.94,6,55.72,55.72,0,0,1,6.21,5.93"/><path class="cls-6" d="M194.11,36.08a.43.43,0,0,1,.07.51.46.46,0,0,1-.29.23.4.4,0,0,1-.32,0,26.5,26.5,0,0,0-4.4-2.06,37.45,37.45,0,0,0-9.21-2l.19,0c-1.67-.1-3.28-.18-5.07-.21a76.5,76.5,0,0,1,11.48,8,65.22,65.22,0,0,1,6.51,6.35,60.52,60.52,0,0,1,5.14,6.65.41.41,0,0,1-.1.58.46.46,0,0,1-.64,0c-.92-1.37-1.91-2.72-2.95-4-.51-.63-1-1.25-1.58-1.85a62.61,62.61,0,0,0-9.5-8.63,74.7,74.7,0,0,0-6.88-4.47A20.11,20.11,0,0,1,178.39,37l.3.34c.81.93,1.58,1.9,2.31,2.9a46.26,46.26,0,0,1,6.64,13,31.21,31.21,0,0,1,1.52,9.06.28.28,0,0,1-.27.27.24.24,0,0,1-.21-.09.26.26,0,0,1-.07-.17,25.62,25.62,0,0,0-.29-3.56,33.26,33.26,0,0,0-2.46-8A42.15,42.15,0,0,0,183.42,46a38.72,38.72,0,0,0-3.09-4.39c-.4-.49-.81-1-1.23-1.43-1-1.17-2.15-2.3-3.31-3.38a59.4,59.4,0,0,0-4.91-4l-.33-.24-.16-.11-.12-.08a4.07,4.07,0,0,0-.43-.29.84.84,0,0,1-.18-.15.73.73,0,0,1-.19-.45c-1.53-.69-3.09-1.35-4.63-2-3-1.19-6-2.22-8.83-3.08-2.46-.74-5-1.41-7.74-2.06a37.87,37.87,0,0,1,3.23,3.13L152,28a57.33,57.33,0,0,1,5.16,6.85c.78,1.2,1.58,2.5,2.43,4s1.64,3,2.22,4.13c1.39,2.73,2.72,5.61,3.94,8.55.63,1.5,1.29,3.18,2.07,5.27a.38.38,0,0,1-.19.52.4.4,0,0,1-.47-.09.31.31,0,0,1,0-.1c-1.18-3.12-2.47-6.15-3.83-9-.69-1.44-1.43-2.91-2.23-4.35-.69-1.27-1.49-2.6-2.51-4.19-.68-1.05-1.46-2.16-2.35-3.38s-1.79-2.3-2.68-3.35c-.31-.37-.63-.74-1-1.1a64.88,64.88,0,0,0-5.18-5.18c-1.17-1-2.5-2.13-4.06-3.32-5-1-10.37-1.85-16.29-2.51h.06c-2.48-.26-4.72-.46-6.85-.61a9.7,9.7,0,0,1,1.14.7,49.54,49.54,0,0,1,6.24,5.06c1.07,1,2,1.93,2.74,2.8,1.07,1.22,1.92,2.22,2.67,3.17.4.5.8,1,1.18,1.52L135.46,35c.9,1.26,1.6,2.28,2.19,3.21a58.56,58.56,0,0,1,3.85,7,.28.28,0,0,1-.11.37.29.29,0,0,1-.38,0A49,49,0,0,0,133.33,34a50.77,50.77,0,0,0-3.93-4l-.31-.28-.59-.53a66.1,66.1,0,0,0-6-4.75,54.44,54.44,0,0,0-6.6-3.93q-.84-.42-1.68-.81c-2.72-.12-5.5-.19-8.28-.22-3.43,0-6.94,0-10.42.15a34.32,34.32,0,0,1,4,2.47,50.07,50.07,0,0,1,4.74,3.79c1.54,1.38,3,2.89,4.31,4.32a.34.34,0,0,1,.08.26.38.38,0,0,1-.66.23c-.69-.73-1.48-1.51-2.44-2.37A51.49,51.49,0,0,0,101,24.71a40.41,40.41,0,0,0-5-3,31,31,0,0,0-4-1.62l-.73-.23c-1.88.11-3.77.25-5.61.41-4.25.37-8.51.88-12.65,1.52l-.16,0c-3.13.5-5.93,1-8.49,1.59-2,.43-4.09,1-6.78,1.7-2.46.68-4.86,1.34-7.22,2.07a2.5,2.5,0,0,1-2.59-.75,2.41,2.41,0,0,1-.52-.92,2.5,2.5,0,0,1,1.67-3.11l.94-.29c1.86-.58,3.78-1.18,5.73-1.71,2.12-.58,4.39-1.13,6.75-1.63,2.69-.59,5.59-1.12,8.86-1.62,5-.79,10.19-1.33,15.85-1.68a33.53,33.53,0,0,1,4.07-2.54c.72-.39,1.44-.74,2.3-1.14S95.1,11,96,10.68s1.54-.61,2.31-.89L101,8.85c1.81-.62,3.57-1.16,5-1.6a.45.45,0,0,1,.49.13.42.42,0,0,1,.09.16.45.45,0,0,1-.3.58c-1.83.57-3.48,1.12-5,1.68-.8.29-1.61.61-2.4.94s-1.54.68-2.36,1.07l-.06,0h0l-.09,0,.08-.06c-.75.38-1.49.76-2.22,1.15s-1.56.9-2.2,1.3-1.08.7-1.61,1.06a199,199,0,0,1,23.57.24A53.61,53.61,0,0,1,119,13.48c1.23-.44,2.49-.82,3.32-1.07,1.09-.34,2.23-.65,3.38-.93a65.94,65.94,0,0,1,13.72-1.87.42.42,0,0,1,.27.12.32.32,0,0,1,.08.21.36.36,0,0,1-.09.24.31.31,0,0,1-.23.11,47.45,47.45,0,0,0-6.73.72l.1-.06c-1.63.34-3.08.66-4.41,1s-2.77.77-4.36,1.3a66.56,66.56,0,0,0-6.63,2.65c4.81.39,9.71,1,14.53,1.83,4.39.75,8.73,1.67,12.89,2.75a42.66,42.66,0,0,1,6.34-1.73,46.83,46.83,0,0,1,7.14-.87c1.1-.05,2.18,0,3.56,0,1.17,0,2.35.1,3.49.2s2.46.34,3.49.53a35.3,35.3,0,0,1,3.44.82.3.3,0,0,1,.18.1.32.32,0,0,1,.07.28.38.38,0,0,1-.15.22.26.26,0,0,1-.24,0,30.68,30.68,0,0,0-5.37-1h.08a38.67,38.67,0,0,0-5.76-.07,56.21,56.21,0,0,0-5.75.77c-1.5.28-3.1.63-5,1.12q-1,.27-2.1.57c1.37.36,2.84.79,4.36,1.28a116.77,116.77,0,0,1,19,7.83l.58.31c.35-.05.71-.08,1.07-.11s.94,0,1.41,0c.87,0,1.78.06,3,.17A42.08,42.08,0,0,1,183.45,32a50.52,50.52,0,0,1,5.58,1.7A28.44,28.44,0,0,1,194,36a.27.27,0,0,1,.12.09"/><path class="cls-5" d="M-.79,159.49h0l.06,0a16.35,16.35,0,0,0,5.07,1.61,19.49,19.49,0,0,0,5.11.07,16,16,0,0,0,4-1,15.11,15.11,0,0,0,3.44-1.94A18.89,18.89,0,0,0,22.07,152a33,33,0,0,0,3-8.63,64.71,64.71,0,0,0,1.35-10.64,168.92,168.92,0,0,0-.87-24.82c-.4-4.23-.93-8.42-1.61-13.41-.64-4.63-1.37-9.32-2-13.35q-.87-5.46-1.78-10.91c-.73-4.44-1.49-9-2.18-13.55-.46-3-1-6.54-1.4-10-.27-2.32-.55-5.06-.61-7.87A28.68,28.68,0,0,1,16,35.59h0l0-.18a1.57,1.57,0,0,0,.35-2.08,1.54,1.54,0,0,0-.59-.54,1.26,1.26,0,0,0-.37-.13,1.68,1.68,0,0,0-1.19.21,15.14,15.14,0,0,0-3.75,2.52,1.29,1.29,0,0,0-.39,1c-.78.77-1.52,1.53-2.19,2.28a53.07,53.07,0,0,0-3.37,4.13,71.5,71.5,0,0,0-5.84,9.4,88.45,88.45,0,0,0-4.48,10c-1.3,3.46-2.46,7-3.44,10.66a157.59,157.59,0,0,0-4.49,26.48,175.36,175.36,0,0,0-.75,27.23,87.33,87.33,0,0,0,1.87,13.92A39.91,39.91,0,0,0-8.32,152a19.27,19.27,0,0,0,7.53,7.54"/><path class="cls-9" d="M-.81,159.53h0l.05,0a16.28,16.28,0,0,0,5.09,1.6,18.08,18.08,0,0,0,2.68.21,1.81,1.81,0,0,0-.24-.24L6.62,161a10.52,10.52,0,0,1-1.28-1.43,12.49,12.49,0,0,1-1.75-3.48,20.94,20.94,0,0,1-.86-4.16,37.33,37.33,0,0,1-.21-4.64c0-1.49.1-3.08.23-4.89.1-1.37.22-2.74.34-4.11l0-.38c.15-1.71.3-3.47.39-5.21.06-1.1.13-2.68.08-4.24a21.55,21.55,0,0,0-.4-3.68,12.52,12.52,0,0,0-.43-1.5,13.47,13.47,0,0,0-.83-1.81c-.22-.42-.46-.85-.72-1.26a9,9,0,0,0-.64-.84A4.24,4.24,0,0,0,.18,119l-.1,0L0,118.91l-.12,0H-.31l-.13.06h0l-.16.11a3.72,3.72,0,0,0-.27.33,4.7,4.7,0,0,0-.4.81c-.13.32-.25.64-.35,1-.18.54-.34,1.12-.51,1.7l-.24.85a22.8,22.8,0,0,1-.87,2.52A6.67,6.67,0,0,1-4,127.66a2.79,2.79,0,0,1-1,.88,2.24,2.24,0,0,1-.69.19,2.88,2.88,0,0,1-.71,0,2.4,2.4,0,0,1-.81-.25,1.87,1.87,0,0,1-.39-.25,3.31,3.31,0,0,1-.85-1.12A7.16,7.16,0,0,1-9,125.49a15.71,15.71,0,0,1-.29-2c-.05-.76-.07-1.55-.05-2.35a49.21,49.21,0,0,1,.34-5c.17-1.43.4-3,.68-4.61.18-1.06.37-2.1.59-3.15.18-.81.36-1.54.56-2.23.3-1,.63-2.07,1-3.1l.24-.77c.39-1.17.76-2.37,1-3.6.16-.65.28-1.24.37-1.81A17.05,17.05,0,0,0-4.39,95a12.42,12.42,0,0,0-.2-3,6.23,6.23,0,0,0-.22-.77A4.83,4.83,0,0,0-5,90.71a5.44,5.44,0,0,0-.39-.62,5.59,5.59,0,0,0-.45-.52,2.26,2.26,0,0,0-.27-.28l-.07-.08A10.15,10.15,0,0,1-7.29,88,10.83,10.83,0,0,1-8,86.7c-.26-.56-.49-1.08-.68-1.59a24.8,24.8,0,0,1-1.52-6.78c0-.44-.06-.88-.07-1.31a161.6,161.6,0,0,0-3.48,22.33,174.41,174.41,0,0,0-.76,27.24,86,86,0,0,0,1.87,13.93A40,40,0,0,0-8.35,152a19.28,19.28,0,0,0,7.54,7.56"/><path class="cls-6" d="M7.05,153.88a.65.65,0,0,0,.47.06.7.7,0,0,0,.52-.82,168.75,168.75,0,0,1-3.19-19.51,22.51,22.51,0,0,0,1,2.59c.39.87.83,1.77,1.41,2.82A41.55,41.55,0,0,0,14.6,149h0c.18.09.28.09.36,0a.31.31,0,0,0,.09-.21.21.21,0,0,0-.07-.17,31.27,31.27,0,0,1-3.71-4.45,37.66,37.66,0,0,1-2.48-4.26A40,40,0,0,1,7,135.45l0-.08s0-.07,0-.07c-.44-1.39-.84-2.68-1.19-3.93-.42-1.48-.78-2.87-1.09-4.25a.7.7,0,0,0-.35-.44c-.44-6.28-.58-13-.43-19.92,0-1,.06-2.05.1-3.07a17.54,17.54,0,0,0,.59,1.78c.45,1.15,1,2.33,1.61,3.6s1.23,2.36,1.87,3.48c1.41,2.45,2.78,4.63,4.19,6.64a76.08,76.08,0,0,0,5,6.37h0c.21.11.31.07.36,0a.23.23,0,0,0,.09-.18.24.24,0,0,0-.07-.2A65.75,65.75,0,0,1,13,119.28a52.18,52.18,0,0,1-3.21-5.38,47.84,47.84,0,0,1-2.48-5.81c-1-2.92-1.94-6.06-2.69-8.58l-.48-1.64c.3-5.21.77-10.46,1.4-15.61a23.56,23.56,0,0,0,1,2.59c.81,1.88,1.78,3.86,2.9,5.88s2.23,3.85,3.3,5.4a51.89,51.89,0,0,0,4,5.09.26.26,0,0,0,.11.08.36.36,0,0,0,.42,0,.39.39,0,0,0,0-.53A44,44,0,0,1,14,96.5a48.36,48.36,0,0,1-3.39-5.78A54.65,54.65,0,0,1,8,84.48l0,.2c-.41-1.29-.84-2.58-1.26-3.86l-.38-1.13-.37-1.13c.37-2.71.77-5.35,1.21-7.85.49-2.84,1-5.33,1.41-7.61A34.58,34.58,0,0,0,10.35,67,45.79,45.79,0,0,0,13,71.56a40.29,40.29,0,0,0,3.22,4.26.29.29,0,0,0,.12.1.42.42,0,0,0,.48-.06.39.39,0,0,0,.15-.28.46.46,0,0,0-.11-.32,34.73,34.73,0,0,1-2.38-3.11,33.21,33.21,0,0,1-2.12-3.61,35.43,35.43,0,0,1-1.77-4.15c-.43-1.22-.81-2.51-1.14-3.81l-.17-.69.09-.42c.7-3.33,1.56-6.9,2.62-10.91.93-3.49,2-7,3.06-10.5.53-1.67,1.11-3.41,1.73-5.16.35-1,.73-2,1.11-3,.25-.67.51-1.33.75-2a2.33,2.33,0,0,0-1.19-2.8,2.17,2.17,0,0,0-.35-.15,2.4,2.4,0,0,0-1.82.18,2.46,2.46,0,0,0-1.13,1.36c-.53,1.45-1,3-1.46,4.41l-.06.18-.22.69c-.52,1.65-1,3.37-1.63,5.44-1,3.6-2,7.41-2.88,11.31-.61,2.72-1.19,5.5-1.71,8.27A23.87,23.87,0,0,0,3,60.28c-.49.62-1,1.27-1.42,1.92s-1,1.47-1.4,2.18c-.85,1.4-1.64,2.87-2.36,4.37S-3.46,71.61-4,73.17a.43.43,0,0,0,.2.51.45.45,0,0,0,.6-.24c.35-.93.76-1.89,1.23-2.85a45.15,45.15,0,0,1,6.28-9.41c.49-.54,1-1.07,1.49-1.59-.78,4.2-1.43,8.58-1.95,13-.1.79-.19,1.58-.28,2.37a23.58,23.58,0,0,0-3.41,4.6c-1,1.67-1.88,3.43-2.76,5.36-.34.73-.64,1.49-.94,2.24l-.2.51c-.39,1-.72,1.91-1,2.8-.34,1.06-.61,2-.83,2.86s-.45,1.83-.68,2.89a.45.45,0,0,0,.2.52.52.52,0,0,0,.44,0,.4.4,0,0,0,.19-.24c.15-.71.33-1.42.55-2.15s.5-1.52.77-2.28.49-1.28.76-1.91l.07-.17c.3-.71.62-1.41,1-2.11l0-.12h0c.48-.9,1-1.83,1.53-2.77s1.22-2.08,1.85-3c.36-.58.74-1.14,1.12-1.71l.1-.13.9-1.37C2.51,85,2.09,91.26,1.91,97.28l0,1.23-.21.25-.26.31c-.15.2-.29.42-.43.62-.42.63-.76,1.22-1,1.62-.56,1-1.08,2.08-1.61,3.29a61.14,61.14,0,0,0-2.48,7.07c-.37,1.27-.69,2.48-.95,3.58s-.53,2.39-.77,3.59c-.43,2.09-.82,4.38-1.2,7a.32.32,0,0,0,.17.3l.12,0a.31.31,0,0,0,.33-.3c.14-.89.29-1.78.46-2.66.27-1.37.6-2.81,1-4.27s.87-3,1.31-4.33,1-2.86,1.58-4.3c.51-1.26,1.12-2.6,1.9-4.19C.36,105.05.94,104,1.6,102.78l.24-.43c-.11,6.51,0,13.05.46,19.44.1,1.46.2,2.91.32,4.37-.32.64-.62,1.33-.92,2.09s-.56,1.58-.87,2.63a55.55,55.55,0,0,0-1.28,5.41c-.17.88-.34,1.76-.47,2.65s-.26,1.83-.37,2.74c-.22,1.82-.4,3.62-.54,5.52a.26.26,0,0,0,.15.26l.1,0a.28.28,0,0,0,.29-.26,69,69,0,0,1,1-7.52c.25-1.28.49-2.36.73-3.32.33-1.3.74-2.53,1-3.35.34-1,.75-2.09,1.26-3.27l.23-.54a182.51,182.51,0,0,0,3.76,24.2.71.71,0,0,0,.36.45"/><path class="cls-10" d="M152.86,187.89l-.05-.22v0h0v-.07h0v0h0v0a83,83,0,0,1-1.5-20.09c.55-11.78,3-23.5,5.44-34.84l.17-.8,0-.14c2.5-11.78,5.08-24,5.6-36.2a91.31,91.31,0,0,0-.88-17.61,95.5,95.5,0,0,0-3.08-13.51,89.36,89.36,0,0,0-11.21-23.53,94.35,94.35,0,0,0-16.9-19.05,107.89,107.89,0,0,0-10.06-7.69,121.76,121.76,0,0,0-11.14-6.7,137,137,0,0,0-50-14.77,145.83,145.83,0,0,0-15-.78c-3.81,0-7.64.15-11.39.45A138.92,138.92,0,0,0,7.06-3.14l-1.88.53-.24.07A2.11,2.11,0,0,0,3.81-3.79,2.13,2.13,0,0,0,2.93-4a2.35,2.35,0,0,0-1.7.79A18,18,0,0,0-1.41.91,38.32,38.32,0,0,0-3.3,5.65C-3.87,7.33-4.36,9-4.75,10.54c-.32,1.33-.57,2.65-.79,3.87a97.73,97.73,0,0,0-1.37,14.2,130.42,130.42,0,0,0,2.52,29.1A156.33,156.33,0,0,0-.65,72.93c1.45,4.8,3.14,9.71,5,14.59a187.7,187.7,0,0,0,13.5,27.87A136.07,136.07,0,0,0,35.59,139a98.55,98.55,0,0,0,10.06,9.34A100.59,100.59,0,0,0,60.3,158a105,105,0,0,0,16.53,7.21A133.11,133.11,0,0,0,94.6,170c2.76.54,5.7,1,9,1.44,1.3.17,2.59.32,3.89.47,1.49.17,3,.34,4.48.54a94,94,0,0,1,13.94,2.8l.25.07a49.69,49.69,0,0,1,5.38,2c.52.22,1,.46,1.55.71l.18.07a48.65,48.65,0,0,1,7.23,3.59l0,0a73.41,73.41,0,0,1,9,6.47l.06.06a43.15,43.15,0,0,1,3.77,3.37l.56.58c-.4-1.38-.77-2.81-1.09-4.25M158,96.31l0,.2,0-.54c0,.11,0,.23,0,.34M133.58,30.65l.09.11-.65-.7.56.59"/><path class="cls-3" d="M154,192.16c-.38-1.37-.75-2.8-1.08-4.27l0-.22,0,.11,0-.11v-.11a82,82,0,0,1-1.5-20.09c.54-11.77,3-23.49,5.43-34.82l.17-.82,0-.13c2.5-11.79,5.08-24,5.6-36.21a90.45,90.45,0,0,0-.88-17.6c-.12-.79-.25-1.57-.39-2.36,0,0,0,0,0,0a5.56,5.56,0,0,0-1-1.06l0,0,0,0,0,0a4.32,4.32,0,0,0-.89-.54,4.24,4.24,0,0,0-.91-.25h.06a5.09,5.09,0,0,0-1.17,0h.06a6.47,6.47,0,0,0-1.68.42,5.85,5.85,0,0,0-.68.3,4.49,4.49,0,0,0-.59.37.1.1,0,0,0,0,0,5.46,5.46,0,0,0-1,1l0,0a8.22,8.22,0,0,0-1.07,1.81l0,0a20.9,20.9,0,0,0-1.31,5v0c-.25,1.64-.41,3.28-.59,4.92s-.34,3.16-.61,4.72a18.51,18.51,0,0,1-1.12,4.14,6.48,6.48,0,0,1-2,2.71,4.39,4.39,0,0,1-1.67.77,6,6,0,0,1-2.16.08,11.52,11.52,0,0,1-2.71-.71,7.75,7.75,0,0,1-1.51-.79,10.26,10.26,0,0,1-1.33-1,22.4,22.4,0,0,1-2.78-3.06c-.88-1.16-1.7-2.36-2.49-3.57s-1.54-2.46-2.32-3.69c-.66-1-1.32-2.1-2.06-3.1l0,.06c-.42-.57-.85-1.13-1.28-1.69l-1.28-1.65c-.86-1.1-1.73-2.19-2.62-3.27C120.84,75,119,72.79,117,70.7s-4-4.13-6.14-6c-.94-.84-1.91-1.65-2.91-2.44l0,0c-1.85-1.46-3.78-2.85-5.77-4.13a47.7,47.7,0,0,0-6.69-3.66l.06,0a21,21,0,0,0-5.07-1.57h.07a10.77,10.77,0,0,0-2.6-.1h.07a6.71,6.71,0,0,0-1.72.39h0a5.79,5.79,0,0,0-1.29.71,6.06,6.06,0,0,0-1,1l0-.05a7.37,7.37,0,0,0-.93,1.58s0,0,0,0a12.1,12.1,0,0,0-.76,2.77v-.06A12.87,12.87,0,0,0,82.32,61a13.55,13.55,0,0,0,.05,1.56.13.13,0,0,0,0-.06,13.76,13.76,0,0,0,.34,1.9,16.82,16.82,0,0,0,.53,1.66,23.15,23.15,0,0,0,2.89,5.07h0a70,70,0,0,0,6.17,6.94c1.09,1.11,2.18,2.23,3.25,3.37s2,2.14,2.86,3.28a21.81,21.81,0,0,1,3.27,5.39,11.73,11.73,0,0,1,.74,2.79,10.41,10.41,0,0,1,.09,1.48,10.67,10.67,0,0,1-.14,1.59,5.24,5.24,0,0,1-.42,1.5c-.09.16-.18.32-.29.48a2.2,2.2,0,0,1-.33.35,1.83,1.83,0,0,1-.44.28,1.53,1.53,0,0,1-.41.14,3.06,3.06,0,0,1-1,.05,12,12,0,0,1-2.36-.6,17.75,17.75,0,0,0-2.69-.71h0a6,6,0,0,0-1.52,0l-.5.08-.5.16a4.59,4.59,0,0,0-.5.24c-.13.07-.25.16-.38.24a4.52,4.52,0,0,0-.58.5,4.81,4.81,0,0,0-.42.48s0,0,0,0a5.79,5.79,0,0,0-.45.65,6.31,6.31,0,0,0-.34.63h0v0h0s0,0,0,0v0a4.41,4.41,0,0,0-.24.67,5.4,5.4,0,0,0-.17.72s0-.05,0-.06a7.45,7.45,0,0,0-.09,1c0,.33,0,.65,0,1a12.94,12.94,0,0,0,.8,3s0,0,0,0a31.94,31.94,0,0,0,2.27,4.53c.92,1.57,1.9,3.11,2.84,4.66a49.25,49.25,0,0,1,2.57,4.59,21.59,21.59,0,0,1,.92,2.22,11.23,11.23,0,0,1,.53,2.07,7.44,7.44,0,0,1,0,2.62,10.47,10.47,0,0,1-.64,2.11,5.64,5.64,0,0,1-2,2.59,4.59,4.59,0,0,1-1.36.6,5.75,5.75,0,0,1-1.55.15,10.62,10.62,0,0,1-3.6-.83,26.38,26.38,0,0,1-4.13-2.12c-1.56-1-3.06-2-4.52-3.14-3.27-2.49-6.35-5.2-9.37-8s-5.81-5.48-8.69-8.24c-1.2-1.14-2.39-2.28-3.61-3.4-.94-.85-1.88-1.7-2.88-2.49l.05,0c-.35-.28-.72-.56-1.1-.81l-.44-.26c-.38-.21-.78-.38-1.17-.56h0a13.92,13.92,0,0,0-3.28-1h0a6.54,6.54,0,0,0-1.53,0h0a3.86,3.86,0,0,0-.49.09,4,4,0,0,0-.46.14,3.82,3.82,0,0,0-.46.21l-.3.2a4,4,0,0,0-.62.61h0a4.07,4.07,0,0,0-.37.55,6.27,6.27,0,0,0-.29.58,8,8,0,0,0-.31.94q-.15.58-.24,1.17a.13.13,0,0,1,0-.06,11.75,11.75,0,0,0-.15,1.57,10,10,0,0,0,0,1.22v0a10.68,10.68,0,0,0,.34,1.86,16.78,16.78,0,0,0,.54,1.7h0l0,0s0,0,0,0a29.45,29.45,0,0,0,3.8,6.62l0-.06a67.45,67.45,0,0,0,6.91,7.82q1.65,1.62,3.36,3.17l1.43,1.28c.39.34.78.67,1.18,1h0c.73.56,1.47,1.11,2.22,1.64s1.81,1.28,2.71,1.92c2,1.38,3.94,2.78,5.82,4.28,1.07.86,2.12,1.74,3.11,2.68a23.59,23.59,0,0,1,2.52,2.77,11.28,11.28,0,0,1,1.61,2.71,6.73,6.73,0,0,1,.41,1.39c0,.2.06.41.08.61,0,.36.05.73,0,1.09a8.42,8.42,0,0,1-.08,1,4.29,4.29,0,0,1-.14.62,3.64,3.64,0,0,1-.22.49,2.16,2.16,0,0,1-.29.37,1.65,1.65,0,0,1-.85.43,3.42,3.42,0,0,1-.46,0l-.54-.05a8.3,8.3,0,0,1-1.28-.33c-.46-.15-.92-.32-1.37-.48a16.94,16.94,0,0,0-3.13-.89h.06a6.69,6.69,0,0,0-.89-.08,4.29,4.29,0,0,0-.72,0,9.51,9.51,0,0,0-1.38.32c-.38.12-.77.25-1.15.39l.07,0a7.92,7.92,0,0,0-1.82,1h0a4.15,4.15,0,0,0-.71.68,4.33,4.33,0,0,0-.31.51h0l0,0v0a2.38,2.38,0,0,0-.15.52h0v0a2.91,2.91,0,0,0,0,.66,3.42,3.42,0,0,0,.19.78v0h0A6.2,6.2,0,0,0,67,159h0a13.51,13.51,0,0,0,1.43,1.59c.59.57,1.22,1.1,1.86,1.61h0c.62.49,1.26,1,1.91,1.4,1.51.59,3.06,1.16,4.63,1.69A133.57,133.57,0,0,0,94.6,170c2.67.52,5.62,1,9,1.44,1.3.17,2.59.31,3.89.46l.39,0c1.37.16,2.73.31,4.09.5a95.24,95.24,0,0,1,13.93,2.79l.26.08a55,55,0,0,1,5.38,2c.51.23,1,.47,1.54.72l.18.07a47.7,47.7,0,0,1,7.23,3.59,71.86,71.86,0,0,1,9,6.5,41.18,41.18,0,0,1,3.84,3.43l.37.38.19.2ZM66.18,155.62h0M45.35,109.18v0M90.09,99.13l0,0,0,0m62.35-21.8s0,0,0,0,0,0,0,0M83.25,56.42s0,0,0,0,0,0,0,0m3.08-3.16,0,0Z"/><path class="cls-4" d="M23.93,31.35l-.06-.08.06.08Z"/><path class="cls-4" d="M23.87,31.27a1,1,0,0,1-.08-.11l0,.05Z"/><path class="cls-4" d="M-6.43-13.91c.15.61.26,1.24.42,1.85s.32,1.24.5,1.85c.39,1.33.84,2.65,1.3,4,1,2.7,2,5.36,3.21,8A133.84,133.84,0,0,0,6.88,16.54a222.55,222.55,0,0,0,20.62,28c3.6,4.25,7.35,8.4,11.15,12.48s7.67,8.21,11.66,12.16c1.36,1.34,2.75,2.67,4.14,4,.1.38.19.75.27,1.12a1,1,0,0,1,0-.17l.06.28,0,.1a.31.31,0,0,0,0-.08,34.2,34.2,0,0,1,.51,8.39v0h0c-.35,5.35-1.56,10.58-2.45,15.84-.22,1.27-.42,2.54-.56,3.81-.16,1.49-.26,3-.33,4.49a79.23,79.23,0,0,0,.15,9.5c.09,1.26.25,2.53.42,3.78s.33,2.52.51,3.78c.36,2.49.82,5,1.36,7.44s1.12,5,1.76,7.42,1.37,4.92,2.11,7.36a.3.3,0,0,0,.29.22.35.35,0,0,0,.34-.45q-1.66-5.44-2.86-11a101.39,101.39,0,0,1-1.78-12c-.17-2-.23-4.06-.23-6.09s0-4.07.13-6.1a68.28,68.28,0,0,1,1-8.67c.49-2.61,1.1-5.2,1.68-7.78s1.21-5.39,1.58-8.13c.2-1.44.32-2.89.38-4.34a25.94,25.94,0,0,0-.11-3.94c0-.35-.11-.7-.17-1,1.76,1.6,3.54,3.2,5.32,4.78,4.58,4.07,9.27,8,13.89,12.06,3.79,3.3,7.59,6.6,11.35,9.94,1.35,1.2,2.69,2.44,4,3.68.25.81.49,1.63.68,2.46a27.82,27.82,0,0,1,.48,6.75,79.19,79.19,0,0,1-1.27,8.81c-.27,1.52-.52,3-.71,4.57s-.31,3.18-.4,4.78a56.48,56.48,0,0,0,.21,9c.15,1.48.36,2.95.59,4.42s.5,3,.79,4.45c.25,1.31.55,2.6.85,3.9s.67,2.85,1,4.27a.35.35,0,0,0,.34.23.22.22,0,0,0,.11,0,.36.36,0,0,0,.21-.45c-.34-1.36-.66-2.72-1-4.09h0c-.33-1.54-.6-3.08-.85-4.63s-.44-3.08-.57-4.63-.19-3.09-.22-4.63,0-3.16.08-4.73c.08-1.31.18-2.61.33-3.91s.39-2.77.64-4.14c.48-2.63,1.13-5.23,1.67-7.85a38.34,38.34,0,0,0,.94-8,18,18,0,0,0-.34-3.19c1.06,1,2.12,2,3.15,3.07A203.72,203.72,0,0,1,118.13,135c1.13,1.51,2.23,3,3.32,4.56a.39.39,0,0,0,.06.11.75.75,0,0,0,0,.3c.14,1.2.31,2.39.47,3.59s.3,2.51.43,3.77.23,2.39.35,3.59.24,2.52.36,3.78.25,2.4.39,3.59.32,2.54.52,3.79.41,2.34.66,3.5.61,2.53,1,3.78a.29.29,0,0,0,.27.19l.09,0a.28.28,0,0,0,.17-.36c-.24-.82-.44-1.64-.62-2.47a47.12,47.12,0,0,1-.84-6.59c-.14-2.28-.16-4.57-.19-6.86s-.05-4.56-.23-6.83c-.09-1.13-.22-2.27-.4-3.39q5.1,7.38,9.74,15.05c2.42,4,4.73,8.07,7,12.17s4.47,8.26,6.59,12.44a.28.28,0,0,0,.25.17.33.33,0,0,0,.31-.48c-2.58-5.11-5.18-10.21-7.9-15.25s-5.49-10-8.41-14.88q-3.28-5.53-6.82-10.91l2.13.85c1.59.61,3.21,1.17,4.8,1.78,1.89.73,3.75,1.53,5.55,2.44a39.36,39.36,0,0,1,5.37,3.32,37.69,37.69,0,0,1,5.26,4.75.25.25,0,0,0,.2.09.31.31,0,0,0,.21-.09.3.3,0,0,0,0-.41,45.35,45.35,0,0,0-5.94-5.48,50.59,50.59,0,0,0-6.11-3.9c-1.05-.57-2.12-1.1-3.2-1.62s-2.2-1.05-3.3-1.55a69,69,0,0,0-6.59-2.63c-3.39-5-7-10-10.72-14.71q-5.34-6.75-11.26-13c-.36-.39-.74-.76-1.1-1.14l.86.17a42.77,42.77,0,0,0,7.92.33c2.53-.07,5.06,0,7.59.09s5,.26,7.49.53a64.65,64.65,0,0,1,16,3.68,48,48,0,0,1,4.84,2.21,35.94,35.94,0,0,1,4.75,3c.5.37,1,.76,1.47,1.15a.34.34,0,0,0,.21.08.28.28,0,0,0,.2-.09.29.29,0,0,0,0-.41,45.35,45.35,0,0,0-6.56-4.5,46,46,0,0,0-7.2-3.23,75.83,75.83,0,0,0-15.61-3.57c-3.14-.42-6.29-.7-9.44-.93-1.53-.11-3.07-.2-4.6-.29s-3.11-.21-4.66-.37a27.52,27.52,0,0,1-6.48-1.38l-.45-.2c-2.66-2.69-5.35-5.36-8.08-8-4.41-4.25-8.91-8.4-13.4-12.55q-5.5-5.12-10.94-10.31a38.67,38.67,0,0,0,5.35.74,57.26,57.26,0,0,0,7.75,0c2.6-.16,5.17-.51,7.74-.88l-.4.06c3-.43,5.94-.79,8.92-1.14s5.9-.64,8.86-.83,5.84-.31,8.76-.28,5.76.19,8.62.49l.63.06h-.14a60.3,60.3,0,0,1,14.91,3.58,55,55,0,0,1,12.36,6.83c1.32,1,2.6,2,3.83,3.11a.42.42,0,0,0,.58,0,.42.42,0,0,0,0-.58,61.53,61.53,0,0,0-7.45-5.71,55.82,55.82,0,0,0-7.85-4.2,65.67,65.67,0,0,0-16.5-4.63,83.52,83.52,0,0,0-8.65-.82c-2.92-.15-5.85-.17-8.77-.12s-5.91.21-8.87.38-6,.44-8.92.68c-1.18.1-2.37.2-3.55.28s-2.4.12-3.6.14a60.31,60.31,0,0,1-7.36-.3A66.18,66.18,0,0,1,62.55,71c-1.23-.3-2.48-.59-3.69-1l-1-.34C50.08,62,42.6,54.05,35.52,45.74c.86.18,1.72.31,2.59.41a35.75,35.75,0,0,0,5.37.23,36.16,36.16,0,0,0,5.2-.6,52.14,52.14,0,0,0,9.24-2.65c3-1.13,5.9-2.42,8.83-3.64a67.85,67.85,0,0,1,15.64-4.86c1.18-.17,2.36-.31,3.56-.37s2.37-.08,3.55-.07c2.28,0,4.56.19,6.83.43a81.92,81.92,0,0,1,20,5.05,98.31,98.31,0,0,1,22.25,12.21l0,0q2,1.45,3.87,3a.58.58,0,0,0,.35.13.43.43,0,0,0,.33-.14.49.49,0,0,0,0-.69,102.41,102.41,0,0,0-35-19A74.62,74.62,0,0,0,88.48,32c-1.66,0-3.32,0-5,.11a43.5,43.5,0,0,0-5,.69,68,68,0,0,0-9.21,2.59c-3.73,1.27-7.37,2.75-11.11,4a71,71,0,0,1-11.63,3,37.27,37.27,0,0,1-8.38.09,42.19,42.19,0,0,1-6.57-1.3c-2.63-3.21-5.21-6.46-7.72-9.78l.19.25c-.07-.08-.13-.17-.19-.25l-.1-.14-.16-.2.12.15A218.68,218.68,0,0,1,11.06,12.24a146.16,146.16,0,0,1-10-20.08c-1-2.51-1.83-5.07-2.83-7.58l.24.62c0-.1-.06-.2-.1-.3a2.59,2.59,0,0,0-1.15-1.54,2.46,2.46,0,0,0-1.84-.26A2.49,2.49,0,0,0-6.43-13.91Z"/><path class="cls-4" d="M54.72,74.26s0,.09,0,.13v0A.36.36,0,0,1,54.72,74.26Z"/></g></svg>