<!DOCTYPE svg PUBLIC "-//W3C//DTD SVG 1.1//EN" "http://www.w3.org/Graphics/SVG/1.1/DTD/svg11.dtd">
<!-- Uploaded to: SVG Repo, www.svgrepo.com, Transformed by: SVG Repo Mixer Tools -->
<svg height="800px" width="800px" version="1.1" id="_x32_" xmlns="http://www.w3.org/2000/svg" xmlns:xlink="http://www.w3.org/1999/xlink" viewBox="0 0 512 512" xml:space="preserve" fill="#1CACA5">
<g id="SVGRepo_bgCarrier" stroke-width="0"/>
<g id="SVGRepo_tracerCarrier" stroke-linecap="round" stroke-linejoin="round"/>
<g id="SVGRepo_iconCarrier"> <style type="text/css"> .st0{fill:#1CACA5;} </style> <g> <path class="st0" d="M429.887,173.888c0.008-47.984-19.48-91.529-50.936-122.96C347.529,19.48,303.975-0.008,256,0 c-47.976-0.008-91.528,19.48-122.952,50.936c-31.455,31.423-50.943,74.968-50.935,122.952 c-0.008,32.094,8.757,62.232,23.984,88.028h-0.008l0.065,0.097l0.105,0.194l0.016-0.008c11.086,19.625,26.96,35.062,39.324,49.31 c6.226,7.123,11.562,13.884,15.146,20.207c3.606,6.356,5.433,12.024,5.555,17.701v96.348c0.007,29.726,24.088,53.815,53.822,53.822 h12.93C238.857,507.092,247.849,512,258.07,512c10.22,0,19.204-4.908,25.011-12.413h8.798 c29.733-0.007,53.814-24.096,53.822-53.822v-96.34v-0.008c0.121-5.677,1.948-11.345,5.555-17.701 c5.354-9.509,14.733-19.9,25.003-31.213c10.172-11.289,21.186-23.58,29.475-38.305l0.008,0.008l0.089-0.162l0.081-0.129h-0.008 C421.13,236.12,429.895,205.982,429.887,173.888z M312.369,466.255c-5.28,5.265-12.445,8.483-20.491,8.491h-71.757 c-8.046-0.008-15.21-3.226-20.491-8.491c-5.265-5.28-8.483-12.453-8.491-20.49v-5.822l121.601,25.86 C312.612,465.948,312.507,466.118,312.369,466.255z M320.86,445.765c0,1.625-0.227,3.186-0.477,4.73L191.14,423.018v-33.858 l129.72,27.583V445.765z M320.86,399.803l-129.72-27.574v-10.65h129.72V399.803z M310.291,197.864 c-32.086,59.943-88.836,25.609-103.019,53.862c-4.261,8.499-6.17,12.542-6.17,12.542l-12.243-5.709c0,0,5.96-11.53,7.431-18.599 c1.48-7.067-0.355-9.032-1.908-16.73c-16.836-83.167,44.798-139.205,128.733-112.245 C319.703,132.397,327.531,165.64,310.291,197.864z"/> <path class="st0" d="M241.63,159.535c-20.167,28.084-23.046,38.846-24.76,45.307c-1.722,6.469,6.307,10.908,8.539,6.882 c1.626-2.92,23.264-52.609,73.003-87.801C297.402,119.038,261.798,131.459,241.63,159.535z"/> </g> </g>
</svg>