<!DOCTYPE svg PUBLIC "-//W3C//DTD SVG 1.1//EN" "http://www.w3.org/Graphics/SVG/1.1/DTD/svg11.dtd">
<!-- Uploaded to: SVG Repo, www.svgrepo.com, Transformed by: SVG Repo Mixer Tools -->
<svg fill="#1CACA5" height="800px" width="800px" version="1.1" id="Capa_1" xmlns="http://www.w3.org/2000/svg" xmlns:xlink="http://www.w3.org/1999/xlink" viewBox="0 0 490 490" xml:space="preserve">
<g id="SVGRepo_bgCarrier" stroke-width="0"/>
<g id="SVGRepo_tracerCarrier" stroke-linecap="round" stroke-linejoin="round"/>
<g id="SVGRepo_iconCarrier"> <g> <path d="M245,208.977c36.565,0,66.207-29.642,66.207-66.207S281.565,76.563,245,76.563s-66.208,29.642-66.208,66.207 S208.435,208.977,245,208.977z M245,91.875c28.063,0,50.895,22.831,50.895,50.895c0,28.063-22.831,50.895-50.895,50.895 c-28.064,0-50.896-22.831-50.896-50.895C194.104,114.706,216.936,91.875,245,91.875z"/> <path d="M110.796,286.815c0,61.734,0,76.049,0,76.049s130.622,0,131.072,0l-63.971-138.678 C177.898,224.186,110.796,225.082,110.796,286.815z M126.108,347.552v-60.737c0-34.228,27.182-43.702,42.448-46.323l49.385,107.06 H126.108z"/> <path d="M312.102,224.186l-63.971,138.678h131.073c0,0,0-14.315,0-76.049C379.204,225.082,312.102,224.186,312.102,224.186z M363.892,347.552h-91.834l49.422-107.137c15.242,2.507,42.412,11.825,42.412,46.4V347.552z"/> <polygon points="244.999,224.186 198.922,224.186 244.999,326.181 291.076,224.186 "/> <path d="M245,0C109.689,0,0,109.69,0,245s109.689,245,245,245c135.31,0,245-109.69,245-245S380.31,0,245,0z M245,474.688 C118.349,474.688,15.313,371.65,15.313,245C15.313,118.349,118.349,15.313,245,15.313c126.65,0,229.688,103.037,229.688,229.688 C474.688,371.65,371.65,474.688,245,474.688z"/> </g> </g>
</svg>