<!DOCTYPE svg PUBLIC "-//W3C//DTD SVG 1.1//EN" "http://www.w3.org/Graphics/SVG/1.1/DTD/svg11.dtd">
<!-- Uploaded to: SVG Repo, www.svgrepo.com, Transformed by: SVG Repo Mixer Tools -->
<svg fill="#1CACA5" version="1.1" id="Capa_1" xmlns="http://www.w3.org/2000/svg" xmlns:xlink="http://www.w3.org/1999/xlink" width="81px" height="81px" viewBox="0 0 31.714 31.714" xml:space="preserve" stroke="#1CACA5">
<g id="SVGRepo_bgCarrier" stroke-width="0"/>
<g id="SVGRepo_tracerCarrier" stroke-linecap="round" stroke-linejoin="round"/>
<g id="SVGRepo_iconCarrier"> <g> <g> <circle cx="15.827" cy="3.229" r="3.229"/> <path d="M13.239,25.714v4.688c0,0.726,0.611,1.312,1.333,1.312c0.724,0,1.336-0.587,1.336-1.312l0.107-0.011 c0,0.724,0.604,1.318,1.318,1.318c0.726,0,1.354-0.604,1.354-1.33v-4.797c-0.904,0.407-1.853,0.641-2.875,0.641 C14.909,26.224,14.056,26.042,13.239,25.714z"/> <path d="M15.825,12.775c0.061,0,0.117,0.013,0.178,0.014v-0.006c2.648,0.045,4.926,1.616,5.979,3.875 c-0.355-5.315-2.252-7.578-3.607-8.511l-2.518,3.46l-2.516-3.46c-1.357,0.933-3.253,3.196-3.609,8.511 C10.8,14.366,13.127,12.775,15.825,12.775z"/> <path d="M17.409,6.811L16.647,7.13c-0.159-0.269-0.447-0.453-0.781-0.453s-0.622,0.183-0.781,0.447l-0.769-0.326 c-0.108-0.048-0.261-0.036-0.362,0.029c-0.103,0.068-0.189,0.181-0.189,0.303v0.953c0,0.116,0.079,0.224,0.173,0.292 c0.092,0.07,0.224,0.088,0.333,0.056c0.301-0.092,0.679-0.206,0.889-0.272c0.17,0.202,0.418,0.332,0.7,0.332 c0.271,0,0.516-0.124,0.682-0.311c0.219,0.063,0.6,0.179,0.906,0.269c0.105,0.032,0.242,0.012,0.333-0.058 c0.096-0.066,0.168-0.176,0.168-0.289V7.144c0-0.123-0.08-0.237-0.181-0.303C17.666,6.775,17.518,6.762,17.409,6.811z"/> <path d="M15.825,13.736c-3.182,0-5.763,2.583-5.763,5.765c0,3.182,2.581,5.763,5.763,5.763c3.187,0,5.764-2.581,5.764-5.763 C21.587,16.318,19.005,13.736,15.825,13.736z M15.825,23.627c-2.278,0-4.125-1.852-4.125-4.127c0-2.279,1.849-4.129,4.125-4.129 c2.279,0,4.129,1.85,4.129,4.129C19.955,21.777,18.104,23.627,15.825,23.627z"/> <path d="M16.506,19.402v-0.004h0.004v-0.002v-2.652c0-0.28-0.262-0.512-0.545-0.512c-0.283,0-0.547,0.23-0.547,0.512v3.139 c0,0.283,0.254,0.52,0.539,0.52h2.479c0.284,0,0.517-0.22,0.517-0.5c0-0.283-0.229-0.5-0.517-0.5H16.506L16.506,19.402z"/> </g> </g> </g>
</svg>