<!DOCTYPE svg PUBLIC "-//W3C//DTD SVG 1.1//EN" "http://www.w3.org/Graphics/SVG/1.1/DTD/svg11.dtd">
<!-- Uploaded to: SVG Repo, www.svgrepo.com, Transformed by: SVG Repo Mixer Tools -->
<svg width="64px" height="64px" viewBox="0 0 64 64" xmlns="http://www.w3.org/2000/svg" fill="none" stroke="#1CACA5">

<g id="SVGRepo_bgCarrier" stroke-width="0"/>

<g id="SVGRepo_tracerCarrier" stroke-linecap="round" stroke-linejoin="round"/>

<g id="SVGRepo_iconCarrier">

<rect x="8" y="9" width="48" height="39" rx="3"/>

<line x1="8" y1="40" x2="56" y2="40"/>

<ellipse cx="32" cy="23.97" rx="5.98" ry="7.97"/>

<path d="M44 39.9a16.29 16.29 0 0 0-1-7.24c-1-2.65-6-4-6-4"/>

<path d="M27 28.68s-5 1.33-6 4a16.29 16.29 0 0 0-1 7.24"/>

<line x1="30" y1="44" x2="34" y2="44"/>

<path d="M40 56c-4-4-4-8-4-8"/>

<path d="M28 48s0 4-4 8"/>

</g>

</svg>