<!DOCTYPE svg PUBLIC "-//W3C//DTD SVG 1.1//EN" "http://www.w3.org/Graphics/SVG/1.1/DTD/svg11.dtd">
<!-- Uploaded to: SVG Repo, www.svgrepo.com, Transformed by: SVG Repo Mixer Tools -->
<svg height="64px" width="64px" version="1.1" id="Layer_1" xmlns="http://www.w3.org/2000/svg" xmlns:xlink="http://www.w3.org/1999/xlink" viewBox="0 0 300.439 300.439" xml:space="preserve" fill="#000000">
<g id="SVGRepo_bgCarrier" stroke-width="0"/>
<g id="SVGRepo_tracerCarrier" stroke-linecap="round" stroke-linejoin="round"/>
<g id="SVGRepo_iconCarrier"> <g> <path style="fill:#BF392C;" d="M276.967,0h-84.498L70.415,178.385h84.498L276.967,0z"/> <path style="fill:#E2574C;" d="M23.472,0h84.498l122.053,178.385h-84.498L23.472,0z"/> <path style="fill:#E4E7E7;" d="M154.914,93.887c57.271,0,103.276,46.005,103.276,103.276s-46.005,103.276-103.276,103.276 S51.638,254.434,51.638,197.163S97.643,93.887,154.914,93.887z"/> <path style="fill:#CDCFCF;" d="M154.914,122.053c-41.31,0-75.11,33.799-75.11,75.11s33.799,75.11,75.11,75.11 s75.11-33.799,75.11-75.11S196.224,122.053,154.914,122.053z M154.914,253.495c-30.983,0-56.332-25.35-56.332-56.332 s25.35-56.332,56.332-56.332s56.332,25.35,56.332,56.332S185.896,253.495,154.914,253.495z"/> </g> </g>
</svg>